%TF.GenerationSoftware,KiCad,Pcbnew,9.0.7*%
%TF.CreationDate,2026-07-27T16:20:29+02:00*%
%TF.ProjectId,INDIPI,494e4449-5049-42e6-9b69-6361645f7063,3*%
%TF.SameCoordinates,Original*%
%TF.FileFunction,Copper,L2,Bot*%
%TF.FilePolarity,Positive*%
%FSLAX46Y46*%
G04 Gerber Fmt 4.6, Leading zero omitted, Abs format (unit mm)*
G04 Created by KiCad (PCBNEW 9.0.7) date 2026-07-27 16:20:29*
%MOMM*%
%LPD*%
G01*
G04 APERTURE LIST*
G04 Aperture macros list*
%AMRoundRect*
0 Rectangle with rounded corners*
0 $1 Rounding radius*
0 $2 $3 $4 $5 $6 $7 $8 $9 X,Y pos of 4 corners*
0 Add a 4 corners polygon primitive as box body*
4,1,4,$2,$3,$4,$5,$6,$7,$8,$9,$2,$3,0*
0 Add four circle primitives for the rounded corners*
1,1,$1+$1,$2,$3*
1,1,$1+$1,$4,$5*
1,1,$1+$1,$6,$7*
1,1,$1+$1,$8,$9*
0 Add four rect primitives between the rounded corners*
20,1,$1+$1,$2,$3,$4,$5,0*
20,1,$1+$1,$4,$5,$6,$7,0*
20,1,$1+$1,$6,$7,$8,$9,0*
20,1,$1+$1,$8,$9,$2,$3,0*%
G04 Aperture macros list end*
%TA.AperFunction,ComponentPad*%
%ADD10R,1.700000X1.700000*%
%TD*%
%TA.AperFunction,ComponentPad*%
%ADD11C,1.700000*%
%TD*%
%TA.AperFunction,ComponentPad*%
%ADD12RoundRect,0.249999X-0.790001X-1.550001X0.790001X-1.550001X0.790001X1.550001X-0.790001X1.550001X0*%
%TD*%
%TA.AperFunction,ComponentPad*%
%ADD13O,2.080000X3.600000*%
%TD*%
%TA.AperFunction,ViaPad*%
%ADD14C,0.600000*%
%TD*%
%TA.AperFunction,Conductor*%
%ADD15C,0.200000*%
%TD*%
G04 APERTURE END LIST*
D10*
%TO.P,J1,1,Pin_1*%
%TO.N,Net-(J1-Pin_1)*%
X120000000Y-119920000D03*
D11*
%TO.P,J1,2,Pin_2*%
%TO.N,Net-(J1-Pin_2)*%
X120000000Y-122460000D03*
%TO.P,J1,3,Pin_3*%
%TO.N,Net-(J1-Pin_3)*%
X120000000Y-125000000D03*
%TO.P,J1,4,Pin_4*%
%TO.N,Net-(J1-Pin_4)*%
X120000000Y-127540000D03*
%TO.P,J1,5,Pin_5*%
%TO.N,unconnected-(J1-Pin_5-Pad5)*%
X120000000Y-130080000D03*
%TO.P,J1,6,Pin_6*%
%TO.N,unconnected-(J1-Pin_6-Pad6)*%
X120000000Y-132620000D03*
%TO.P,J1,7,Pin_7*%
%TO.N,Net-(J1-Pin_7)*%
X120000000Y-135160000D03*
%TO.P,J1,8,Pin_8*%
%TO.N,Net-(J1-Pin_8)*%
X120000000Y-137700000D03*
%TO.P,J1,9,Pin_9*%
%TO.N,Net-(J1-Pin_9)*%
X120000000Y-140240000D03*
%TO.P,J1,10,Pin_10*%
%TO.N,Net-(J1-Pin_10)*%
X120000000Y-142780000D03*
%TD*%
D10*
%TO.P,J2,1,Pin_1*%
%TO.N,Net-(J1-Pin_1)*%
X54460000Y-130000000D03*
D11*
%TO.P,J2,2,Pin_2*%
%TO.N,Net-(J16-Pin_10)*%
X54460000Y-127460000D03*
%TO.P,J2,3,Pin_3*%
%TO.N,Net-(J1-Pin_4)*%
X57000000Y-130000000D03*
%TO.P,J2,4,Pin_4*%
%TO.N,unconnected-(J2-Pin_4-Pad4)*%
X57000000Y-127460000D03*
%TO.P,J2,5,Pin_5*%
%TO.N,Net-(J1-Pin_3)*%
X59540000Y-130000000D03*
%TO.P,J2,6,Pin_6*%
%TO.N,unconnected-(J2-Pin_6-Pad6)*%
X59540000Y-127460000D03*
%TO.P,J2,7,Pin_7*%
%TO.N,unconnected-(J2-Pin_7-Pad7)*%
X62080000Y-130000000D03*
%TO.P,J2,8,Pin_8*%
%TO.N,Net-(J2-Pin_8)*%
X62080000Y-127460000D03*
%TO.P,J2,9,Pin_9*%
%TO.N,Net-(J1-Pin_2)*%
X64620000Y-130000000D03*
%TO.P,J2,10,Pin_10*%
%TO.N,Net-(J2-Pin_10)*%
X64620000Y-127460000D03*
%TO.P,J2,11,Pin_11*%
%TO.N,Net-(J16-Pin_3)*%
X67160000Y-130000000D03*
%TO.P,J2,12,Pin_12*%
%TO.N,Net-(J2-Pin_12)*%
X67160000Y-127460000D03*
%TO.P,J2,13,Pin_13*%
%TO.N,Net-(J16-Pin_4)*%
X69700000Y-130000000D03*
%TO.P,J2,14,Pin_14*%
%TO.N,unconnected-(J2-Pin_14-Pad14)*%
X69700000Y-127460000D03*
%TO.P,J2,15,Pin_15*%
%TO.N,Net-(J16-Pin_5)*%
X72240000Y-130000000D03*
%TO.P,J2,16,Pin_16*%
%TO.N,unconnected-(J2-Pin_16-Pad16)*%
X72240000Y-127460000D03*
%TO.P,J2,17,Pin_17*%
%TO.N,unconnected-(J2-Pin_17-Pad17)*%
X74780000Y-130000000D03*
%TO.P,J2,18,Pin_18*%
%TO.N,Net-(J2-Pin_18)*%
X74780000Y-127460000D03*
%TO.P,J2,19,Pin_19*%
%TO.N,Net-(J2-Pin_19)*%
X77320000Y-130000000D03*
%TO.P,J2,20,Pin_20*%
%TO.N,Net-(J16-Pin_9)*%
X77320000Y-127460000D03*
%TO.P,J2,21,Pin_21*%
%TO.N,Net-(J2-Pin_21)*%
X79860000Y-130000000D03*
%TO.P,J2,22,Pin_22*%
%TO.N,unconnected-(J2-Pin_22-Pad22)*%
X79860000Y-127460000D03*
%TO.P,J2,23,Pin_23*%
%TO.N,Net-(J2-Pin_23)*%
X82400000Y-130000000D03*
%TO.P,J2,24,Pin_24*%
%TO.N,Net-(J2-Pin_24)*%
X82400000Y-127460000D03*
%TO.P,J2,25,Pin_25*%
%TO.N,unconnected-(J2-Pin_25-Pad25)*%
X84940000Y-130000000D03*
%TO.P,J2,26,Pin_26*%
%TO.N,unconnected-(J2-Pin_26-Pad26)*%
X84940000Y-127460000D03*
%TO.P,J2,27,Pin_27*%
%TO.N,unconnected-(J2-Pin_27-Pad27)*%
X87480000Y-130000000D03*
%TO.P,J2,28,Pin_28*%
%TO.N,unconnected-(J2-Pin_28-Pad28)*%
X87480000Y-127460000D03*
%TO.P,J2,29,Pin_29*%
%TO.N,Net-(J16-Pin_6)*%
X90020000Y-130000000D03*
%TO.P,J2,30,Pin_30*%
%TO.N,unconnected-(J2-Pin_30-Pad30)*%
X90020000Y-127460000D03*
%TO.P,J2,31,Pin_31*%
%TO.N,unconnected-(J2-Pin_31-Pad31)*%
X92560000Y-130000000D03*
%TO.P,J2,32,Pin_32*%
%TO.N,Net-(J2-Pin_32)*%
X92560000Y-127460000D03*
%TO.P,J2,33,Pin_33*%
%TO.N,Net-(J2-Pin_33)*%
X95100000Y-130000000D03*
%TO.P,J2,34,Pin_34*%
%TO.N,unconnected-(J2-Pin_34-Pad34)*%
X95100000Y-127460000D03*
%TO.P,J2,35,Pin_35*%
%TO.N,Net-(J2-Pin_35)*%
X97640000Y-130000000D03*
%TO.P,J2,36,Pin_36*%
%TO.N,unconnected-(J2-Pin_36-Pad36)*%
X97640000Y-127460000D03*
%TO.P,J2,37,Pin_37*%
%TO.N,unconnected-(J2-Pin_37-Pad37)*%
X100180000Y-130000000D03*
%TO.P,J2,38,Pin_38*%
%TO.N,Net-(J2-Pin_35)*%
X100180000Y-127460000D03*
%TO.P,J2,39,Pin_39*%
%TO.N,unconnected-(J2-Pin_39-Pad39)*%
X102720000Y-130000000D03*
%TO.P,J2,40,Pin_40*%
%TO.N,Net-(J2-Pin_40)*%
X102720000Y-127460000D03*
%TD*%
D10*
%TO.P,J3,1,Pin_1*%
%TO.N,unconnected-(J3-Pin_1-Pad1)*%
X156540000Y-49840000D03*
D11*
%TO.P,J3,2,Pin_2*%
%TO.N,unconnected-(J3-Pin_2-Pad2)*%
X159080000Y-49840000D03*
%TO.P,J3,3,Pin_3*%
%TO.N,Net-(J1-Pin_7)*%
X156540000Y-52380000D03*
%TO.P,J3,4,Pin_4*%
%TO.N,unconnected-(J3-Pin_4-Pad4)*%
X159080000Y-52380000D03*
%TO.P,J3,5,Pin_5*%
%TO.N,Net-(J1-Pin_8)*%
X156540000Y-54920000D03*
%TO.P,J3,6,Pin_6*%
%TO.N,Net-(J1-Pin_2)*%
X159080000Y-54920000D03*
%TO.P,J3,7,Pin_7*%
%TO.N,Net-(J1-Pin_9)*%
X156540000Y-57460000D03*
%TO.P,J3,8,Pin_8*%
%TO.N,Net-(J1-Pin_2)*%
X159080000Y-57460000D03*
%TO.P,J3,9,Pin_9*%
%TO.N,Net-(J1-Pin_10)*%
X156540000Y-60000000D03*
%TO.P,J3,10,Pin_10*%
%TO.N,unconnected-(J3-Pin_10-Pad10)*%
X159080000Y-60000000D03*
%TO.P,J3,11,Pin_11*%
%TO.N,Net-(J2-Pin_32)*%
X156540000Y-62540000D03*
%TO.P,J3,12,Pin_12*%
%TO.N,unconnected-(J3-Pin_12-Pad12)*%
X159080000Y-62540000D03*
%TO.P,J3,13,Pin_13*%
%TO.N,Net-(J2-Pin_33)*%
X156540000Y-65080000D03*
%TO.P,J3,14,Pin_14*%
%TO.N,unconnected-(J3-Pin_14-Pad14)*%
X159080000Y-65080000D03*
%TO.P,J3,15,Pin_15*%
%TO.N,Net-(J2-Pin_18)*%
X156540000Y-67620000D03*
%TO.P,J3,16,Pin_16*%
%TO.N,unconnected-(J3-Pin_16-Pad16)*%
X159080000Y-67620000D03*
%TO.P,J3,17,Pin_17*%
%TO.N,Net-(J2-Pin_8)*%
X156540000Y-70160000D03*
%TO.P,J3,18,Pin_18*%
%TO.N,unconnected-(J3-Pin_18-Pad18)*%
X159080000Y-70160000D03*
%TO.P,J3,19,Pin_19*%
%TO.N,Net-(J2-Pin_10)*%
X156540000Y-72700000D03*
%TO.P,J3,20,Pin_20*%
%TO.N,unconnected-(J3-Pin_20-Pad20)*%
X159080000Y-72700000D03*
%TO.P,J3,21,Pin_21*%
%TO.N,unconnected-(J3-Pin_21-Pad21)*%
X156540000Y-75240000D03*
%TO.P,J3,22,Pin_22*%
%TO.N,unconnected-(J3-Pin_22-Pad22)*%
X159080000Y-75240000D03*
%TO.P,J3,23,Pin_23*%
%TO.N,unconnected-(J3-Pin_23-Pad23)*%
X156540000Y-77780000D03*
%TO.P,J3,24,Pin_24*%
%TO.N,unconnected-(J3-Pin_24-Pad24)*%
X159080000Y-77780000D03*
%TO.P,J3,25,Pin_25*%
%TO.N,unconnected-(J3-Pin_25-Pad25)*%
X156540000Y-80320000D03*
%TO.P,J3,26,Pin_26*%
%TO.N,unconnected-(J3-Pin_26-Pad26)*%
X159080000Y-80320000D03*
%TO.P,J3,27,Pin_27*%
%TO.N,unconnected-(J3-Pin_27-Pad27)*%
X156540000Y-82860000D03*
%TO.P,J3,28,Pin_28*%
%TO.N,unconnected-(J3-Pin_28-Pad28)*%
X159080000Y-82860000D03*
%TO.P,J3,29,Pin_29*%
%TO.N,unconnected-(J3-Pin_29-Pad29)*%
X156540000Y-85400000D03*
%TO.P,J3,30,Pin_30*%
%TO.N,unconnected-(J3-Pin_30-Pad30)*%
X159080000Y-85400000D03*
%TO.P,J3,31,Pin_31*%
%TO.N,unconnected-(J3-Pin_31-Pad31)*%
X156540000Y-87940000D03*
%TO.P,J3,32,Pin_32*%
%TO.N,unconnected-(J3-Pin_32-Pad32)*%
X159080000Y-87940000D03*
%TO.P,J3,33,Pin_33*%
%TO.N,Net-(J1-Pin_1)*%
X156540000Y-90480000D03*
%TO.P,J3,34,Pin_34*%
%TO.N,unconnected-(J3-Pin_34-Pad34)*%
X159080000Y-90480000D03*
%TD*%
D12*
%TO.P,J16,1,Pin_1*%
%TO.N,Net-(J1-Pin_1)*%
X43000000Y-160000000D03*
D13*
%TO.P,J16,2,Pin_2*%
%TO.N,Net-(J1-Pin_2)*%
X48080000Y-160000000D03*
%TO.P,J16,3,Pin_3*%
%TO.N,Net-(J16-Pin_3)*%
X53160000Y-160000000D03*
%TO.P,J16,4,Pin_4*%
%TO.N,Net-(J16-Pin_4)*%
X58240000Y-160000000D03*
%TO.P,J16,5,Pin_5*%
%TO.N,Net-(J16-Pin_5)*%
X63320000Y-160000000D03*
%TO.P,J16,6,Pin_6*%
%TO.N,Net-(J16-Pin_6)*%
X68400000Y-160000000D03*
%TO.P,J16,7,Pin_7*%
%TO.N,Net-(J1-Pin_9)*%
X73480000Y-160000000D03*
%TO.P,J16,8,Pin_8*%
%TO.N,Net-(J1-Pin_10)*%
X78560000Y-160000000D03*
%TO.P,J16,9,Pin_9*%
%TO.N,Net-(J16-Pin_9)*%
X83640000Y-160000000D03*
%TO.P,J16,10,Pin_10*%
%TO.N,Net-(J16-Pin_10)*%
X88720000Y-160000000D03*
%TD*%
D10*
%TO.P,J4,1,Pin_1*%
%TO.N,Net-(J2-Pin_24)*%
X156460000Y-117460000D03*
D11*
%TO.P,J4,2,Pin_2*%
%TO.N,Net-(J2-Pin_19)*%
X159000000Y-117460000D03*
%TO.P,J4,3,Pin_3*%
%TO.N,Net-(J2-Pin_21)*%
X156460000Y-120000000D03*
%TO.P,J4,4,Pin_4*%
%TO.N,Net-(J2-Pin_23)*%
X159000000Y-120000000D03*
%TO.P,J4,5,Pin_5*%
%TO.N,Net-(J1-Pin_2)*%
X156460000Y-122540000D03*
%TO.P,J4,6,Pin_6*%
%TO.N,Net-(J1-Pin_1)*%
X159000000Y-122540000D03*
%TO.P,J4,7,Pin_7*%
%TO.N,Net-(J2-Pin_35)*%
X156460000Y-125080000D03*
%TO.P,J4,8,Pin_8*%
%TO.N,Net-(J2-Pin_40)*%
X159000000Y-125080000D03*
%TO.P,J4,9,Pin_9*%
%TO.N,Net-(J2-Pin_35)*%
X156460000Y-127620000D03*
%TO.P,J4,10,Pin_10*%
%TO.N,Net-(J2-Pin_12)*%
X159000000Y-127620000D03*
%TO.P,J4,11,Pin_11*%
%TO.N,Net-(J1-Pin_2)*%
X156460000Y-130160000D03*
%TO.P,J4,12,Pin_12*%
%TO.N,Net-(J1-Pin_1)*%
X159000000Y-130160000D03*
%TD*%
D14*
%TO.N,Net-(J1-Pin_1)*%
X121323400Y-131163300D03*
X160815400Y-92054800D03*
%TO.N,Net-(J1-Pin_10)*%
X121506000Y-62603800D03*
%TO.N,Net-(J1-Pin_7)*%
X153902100Y-133286200D03*
%TO.N,Net-(J1-Pin_8)*%
X153186500Y-135009400D03*
%TO.N,Net-(J1-Pin_9)*%
X122270300Y-59065100D03*
%TO.N,Net-(J2-Pin_35)*%
X100890300Y-123939200D03*
%TO.N,Net-(J2-Pin_12)*%
X71053400Y-133408200D03*
%TO.N,Net-(J2-Pin_33)*%
X103835400Y-65548900D03*
%TO.N,Net-(J2-Pin_18)*%
X83219700Y-68494000D03*
%TO.N,Net-(J2-Pin_8)*%
X68494200Y-71439100D03*
%TO.N,Net-(J2-Pin_23)*%
X86622100Y-124908300D03*
%TO.N,Net-(J2-Pin_32)*%
X95000100Y-68494000D03*
%TO.N,Net-(J2-Pin_10)*%
X71439300Y-74384200D03*
%TO.N,Net-(J16-Pin_6)*%
X87192600Y-155933000D03*
%TO.N,Net-(J16-Pin_10)*%
X86023300Y-128323300D03*
%TD*%
D15*
%TO.N,Net-(J1-Pin_1)*%
X120000000Y-119920000D02*
X120000000Y-121071700D01*
X160815400Y-120724600D02*
X159000000Y-122540000D01*
X121323400Y-122107200D02*
X121323400Y-131163300D01*
X120000000Y-121071700D02*
X120287900Y-121071700D01*
X159000000Y-122540000D02*
X160216100Y-123756100D01*
X160216100Y-123756100D02*
X160216100Y-128943900D01*
X160815400Y-92054800D02*
X160815400Y-120724600D01*
X54460000Y-130000000D02*
X54460000Y-131151700D01*
X160216100Y-128943900D02*
X159000000Y-130160000D01*
X54460000Y-131151700D02*
X43000000Y-142611700D01*
X120287900Y-121071700D02*
X121323400Y-122107200D01*
X43000000Y-142611700D02*
X43000000Y-160000000D01*
%TO.N,Net-(J1-Pin_10)*%
X118795400Y-65314400D02*
X121506000Y-62603800D01*
X118795400Y-141575400D02*
X118795400Y-65314400D01*
X120000000Y-142780000D02*
X118795400Y-141575400D01*
%TO.N,Net-(J1-Pin_7)*%
X157730600Y-92920400D02*
X157730600Y-53570600D01*
X154303800Y-132884500D02*
X154303800Y-96347200D01*
X157730600Y-53570600D02*
X156540000Y-52380000D01*
X153902100Y-133286200D02*
X154303800Y-132884500D01*
X154303800Y-96347200D02*
X157730600Y-92920400D01*
%TO.N,Net-(J1-Pin_8)*%
X152942600Y-58517400D02*
X152942600Y-134765500D01*
X156540000Y-54920000D02*
X152942600Y-58517400D01*
X152942600Y-134765500D02*
X153186500Y-135009400D01*
%TO.N,Net-(J1-Pin_2)*%
X159080000Y-54920000D02*
X159080000Y-57460000D01*
X156460000Y-122540000D02*
X157650600Y-123730600D01*
X160266000Y-92356200D02*
X160266000Y-112883400D01*
X160213700Y-92303900D02*
X160266000Y-92356200D01*
X157670000Y-121330000D02*
X156460000Y-122540000D01*
X160266000Y-112883400D02*
X160099700Y-112883400D01*
X64620000Y-130000000D02*
X64620000Y-141358300D01*
X64620000Y-141358300D02*
X48080000Y-157898300D01*
X159864300Y-113617400D02*
X159899000Y-113652100D01*
X157650600Y-123730600D02*
X157650600Y-128969400D01*
X48080000Y-160000000D02*
X48080000Y-157898300D01*
X157670000Y-115881100D02*
X157670000Y-121330000D01*
X157650600Y-128969400D02*
X156460000Y-130160000D01*
X160099700Y-112883400D02*
X159864300Y-113118800D01*
X159864300Y-113118800D02*
X159864300Y-113617400D01*
X160266000Y-58646000D02*
X160266000Y-91753400D01*
X160213700Y-91805700D02*
X160213700Y-92303900D01*
X160266000Y-91753400D02*
X160213700Y-91805700D01*
X159080000Y-57460000D02*
X160266000Y-58646000D01*
X159899000Y-113652100D02*
X157670000Y-115881100D01*
%TO.N,Net-(J1-Pin_9)*%
X120000000Y-140240000D02*
X122270300Y-137969700D01*
X122270300Y-137969700D02*
X122270300Y-59065100D01*
%TO.N,Net-(J2-Pin_35)*%
X156460000Y-125080000D02*
X156460000Y-127620000D01*
X100180000Y-127460000D02*
X100890300Y-126749700D01*
X100890300Y-126749700D02*
X100890300Y-123939200D01*
X97640000Y-130000000D02*
X100180000Y-127460000D01*
%TO.N,Net-(J2-Pin_12)*%
X70118400Y-128730000D02*
X71053400Y-129665000D01*
X68430000Y-128730000D02*
X70118400Y-128730000D01*
X67160000Y-127460000D02*
X68430000Y-128730000D01*
X71053400Y-129665000D02*
X71053400Y-133408200D01*
%TO.N,Net-(J2-Pin_33)*%
X96370000Y-128730000D02*
X95100000Y-130000000D01*
X103835400Y-65548900D02*
X96370000Y-73014300D01*
X96370000Y-73014300D02*
X96370000Y-128730000D01*
%TO.N,Net-(J2-Pin_18)*%
X83219700Y-68494000D02*
X83219700Y-119020300D01*
X83219700Y-119020300D02*
X74780000Y-127460000D01*
%TO.N,Net-(J2-Pin_8)*%
X68494200Y-71439100D02*
X68494200Y-121045800D01*
X68494200Y-121045800D02*
X62080000Y-127460000D01*
%TO.N,Net-(J2-Pin_23)*%
X83590100Y-128809900D02*
X82400000Y-130000000D01*
X83590100Y-127168000D02*
X83590100Y-128809900D01*
X85849800Y-124908300D02*
X83590100Y-127168000D01*
X86622100Y-124908300D02*
X85849800Y-124908300D01*
%TO.N,Net-(J2-Pin_32)*%
X95000100Y-125019900D02*
X95000100Y-68494000D01*
X92560000Y-127460000D02*
X95000100Y-125019900D01*
%TO.N,Net-(J2-Pin_10)*%
X71439300Y-74384200D02*
X71439300Y-120640700D01*
X71439300Y-120640700D02*
X64620000Y-127460000D01*
%TO.N,Net-(J16-Pin_6)*%
X87192600Y-155933000D02*
X90020000Y-153105600D01*
X90020000Y-153105600D02*
X90020000Y-130000000D01*
%TO.N,Net-(J16-Pin_4)*%
X69700000Y-146438300D02*
X58240000Y-157898300D01*
X58240000Y-160000000D02*
X58240000Y-157898300D01*
X69700000Y-130000000D02*
X69700000Y-146438300D01*
%TO.N,Net-(J16-Pin_3)*%
X67160000Y-130000000D02*
X67160000Y-143898300D01*
X67160000Y-143898300D02*
X53160000Y-157898300D01*
X53160000Y-160000000D02*
X53160000Y-157898300D01*
%TO.N,Net-(J16-Pin_10)*%
X86023300Y-128323300D02*
X86210000Y-128510000D01*
X88720000Y-160000000D02*
X88720000Y-157898300D01*
X86210000Y-155801200D02*
X88307100Y-157898300D01*
X86210000Y-128510000D02*
X86210000Y-155801200D01*
X88307100Y-157898300D02*
X88720000Y-157898300D01*
%TO.N,Net-(J16-Pin_5)*%
X63320000Y-160000000D02*
X63320000Y-157898300D01*
X72240000Y-130000000D02*
X72240000Y-148978300D01*
X72240000Y-148978300D02*
X63320000Y-157898300D01*
%TO.N,Net-(J16-Pin_9)*%
X77320000Y-127460000D02*
X78590000Y-128730000D01*
X78590000Y-152848300D02*
X83640000Y-157898300D01*
X83640000Y-160000000D02*
X83640000Y-157898300D01*
X78590000Y-128730000D02*
X78590000Y-152848300D01*
%TD*%
M02*
