%TF.GenerationSoftware,KiCad,Pcbnew,9.0.7*%
%TF.CreationDate,2026-07-24T14:07:51+02:00*%
%TF.ProjectId,INDIPI,494e4449-5049-42e6-9b69-6361645f7063,3*%
%TF.SameCoordinates,Original*%
%TF.FileFunction,Copper,L2,Bot*%
%TF.FilePolarity,Positive*%
%FSLAX46Y46*%
G04 Gerber Fmt 4.6, Leading zero omitted, Abs format (unit mm)*
G04 Created by KiCad (PCBNEW 9.0.7) date 2026-07-24 14:07:51*
%MOMM*%
%LPD*%
G01*
G04 APERTURE LIST*
G04 Aperture macros list*
%AMRoundRect*
0 Rectangle with rounded corners*
0 $1 Rounding radius*
0 $2 $3 $4 $5 $6 $7 $8 $9 X,Y pos of 4 corners*
0 Add a 4 corners polygon primitive as box body*
4,1,4,$2,$3,$4,$5,$6,$7,$8,$9,$2,$3,0*
0 Add four circle primitives for the rounded corners*
1,1,$1+$1,$2,$3*
1,1,$1+$1,$4,$5*
1,1,$1+$1,$6,$7*
1,1,$1+$1,$8,$9*
0 Add four rect primitives between the rounded corners*
20,1,$1+$1,$2,$3,$4,$5,0*
20,1,$1+$1,$4,$5,$6,$7,0*
20,1,$1+$1,$6,$7,$8,$9,0*
20,1,$1+$1,$8,$9,$2,$3,0*%
G04 Aperture macros list end*
%TA.AperFunction,ComponentPad*%
%ADD10R,1.700000X1.700000*%
%TD*%
%TA.AperFunction,ComponentPad*%
%ADD11C,1.700000*%
%TD*%
%TA.AperFunction,ComponentPad*%
%ADD12RoundRect,0.249999X-0.790001X-1.550001X0.790001X-1.550001X0.790001X1.550001X-0.790001X1.550001X0*%
%TD*%
%TA.AperFunction,ComponentPad*%
%ADD13O,2.080000X3.600000*%
%TD*%
%TA.AperFunction,ViaPad*%
%ADD14C,0.600000*%
%TD*%
%TA.AperFunction,Conductor*%
%ADD15C,0.200000*%
%TD*%
G04 APERTURE END LIST*
D10*
%TO.P,J1,1,Pin_1*%
%TO.N,Net-(J1-Pin_1)*%
X120000000Y-119920000D03*
D11*
%TO.P,J1,2,Pin_2*%
%TO.N,Net-(J1-Pin_2)*%
X120000000Y-122460000D03*
%TO.P,J1,3,Pin_3*%
%TO.N,Net-(J1-Pin_3)*%
X120000000Y-125000000D03*
%TO.P,J1,4,Pin_4*%
%TO.N,Net-(J1-Pin_4)*%
X120000000Y-127540000D03*
%TO.P,J1,5,Pin_5*%
%TO.N,unconnected-(J1-Pin_5-Pad5)*%
X120000000Y-130080000D03*
%TO.P,J1,6,Pin_6*%
%TO.N,unconnected-(J1-Pin_6-Pad6)*%
X120000000Y-132620000D03*
%TO.P,J1,7,Pin_7*%
%TO.N,Net-(J1-Pin_7)*%
X120000000Y-135160000D03*
%TO.P,J1,8,Pin_8*%
%TO.N,Net-(J1-Pin_8)*%
X120000000Y-137700000D03*
%TO.P,J1,9,Pin_9*%
%TO.N,Net-(J1-Pin_9)*%
X120000000Y-140240000D03*
%TO.P,J1,10,Pin_10*%
%TO.N,Net-(J1-Pin_10)*%
X120000000Y-142780000D03*
%TD*%
D10*
%TO.P,J2,1,Pin_1*%
%TO.N,Net-(J1-Pin_1)*%
X62460000Y-130000000D03*
D11*
%TO.P,J2,2,Pin_2*%
%TO.N,Net-(J16-Pin_10)*%
X62460000Y-127460000D03*
%TO.P,J2,3,Pin_3*%
%TO.N,Net-(J1-Pin_4)*%
X65000000Y-130000000D03*
%TO.P,J2,4,Pin_4*%
%TO.N,unconnected-(J2-Pin_4-Pad4)*%
X65000000Y-127460000D03*
%TO.P,J2,5,Pin_5*%
%TO.N,Net-(J1-Pin_3)*%
X67540000Y-130000000D03*
%TO.P,J2,6,Pin_6*%
%TO.N,unconnected-(J2-Pin_6-Pad6)*%
X67540000Y-127460000D03*
%TO.P,J2,7,Pin_7*%
%TO.N,unconnected-(J2-Pin_7-Pad7)*%
X70080000Y-130000000D03*
%TO.P,J2,8,Pin_8*%
%TO.N,Net-(J2-Pin_8)*%
X70080000Y-127460000D03*
%TO.P,J2,9,Pin_9*%
%TO.N,Net-(J1-Pin_2)*%
X72620000Y-130000000D03*
%TO.P,J2,10,Pin_10*%
%TO.N,Net-(J2-Pin_10)*%
X72620000Y-127460000D03*
%TO.P,J2,11,Pin_11*%
%TO.N,Net-(J16-Pin_3)*%
X75160000Y-130000000D03*
%TO.P,J2,12,Pin_12*%
%TO.N,Net-(J2-Pin_12)*%
X75160000Y-127460000D03*
%TO.P,J2,13,Pin_13*%
%TO.N,Net-(J16-Pin_4)*%
X77700000Y-130000000D03*
%TO.P,J2,14,Pin_14*%
%TO.N,unconnected-(J2-Pin_14-Pad14)*%
X77700000Y-127460000D03*
%TO.P,J2,15,Pin_15*%
%TO.N,Net-(J16-Pin_5)*%
X80240000Y-130000000D03*
%TO.P,J2,16,Pin_16*%
%TO.N,unconnected-(J2-Pin_16-Pad16)*%
X80240000Y-127460000D03*
%TO.P,J2,17,Pin_17*%
%TO.N,unconnected-(J2-Pin_17-Pad17)*%
X82780000Y-130000000D03*
%TO.P,J2,18,Pin_18*%
%TO.N,Net-(J2-Pin_18)*%
X82780000Y-127460000D03*
%TO.P,J2,19,Pin_19*%
%TO.N,Net-(J2-Pin_19)*%
X85320000Y-130000000D03*
%TO.P,J2,20,Pin_20*%
%TO.N,Net-(J16-Pin_9)*%
X85320000Y-127460000D03*
%TO.P,J2,21,Pin_21*%
%TO.N,Net-(J2-Pin_21)*%
X87860000Y-130000000D03*
%TO.P,J2,22,Pin_22*%
%TO.N,unconnected-(J2-Pin_22-Pad22)*%
X87860000Y-127460000D03*
%TO.P,J2,23,Pin_23*%
%TO.N,Net-(J2-Pin_23)*%
X90400000Y-130000000D03*
%TO.P,J2,24,Pin_24*%
%TO.N,Net-(J2-Pin_24)*%
X90400000Y-127460000D03*
%TO.P,J2,25,Pin_25*%
%TO.N,unconnected-(J2-Pin_25-Pad25)*%
X92940000Y-130000000D03*
%TO.P,J2,26,Pin_26*%
%TO.N,unconnected-(J2-Pin_26-Pad26)*%
X92940000Y-127460000D03*
%TO.P,J2,27,Pin_27*%
%TO.N,unconnected-(J2-Pin_27-Pad27)*%
X95480000Y-130000000D03*
%TO.P,J2,28,Pin_28*%
%TO.N,unconnected-(J2-Pin_28-Pad28)*%
X95480000Y-127460000D03*
%TO.P,J2,29,Pin_29*%
%TO.N,Net-(J16-Pin_6)*%
X98020000Y-130000000D03*
%TO.P,J2,30,Pin_30*%
%TO.N,unconnected-(J2-Pin_30-Pad30)*%
X98020000Y-127460000D03*
%TO.P,J2,31,Pin_31*%
%TO.N,unconnected-(J2-Pin_31-Pad31)*%
X100560000Y-130000000D03*
%TO.P,J2,32,Pin_32*%
%TO.N,Net-(J2-Pin_32)*%
X100560000Y-127460000D03*
%TO.P,J2,33,Pin_33*%
%TO.N,Net-(J2-Pin_33)*%
X103100000Y-130000000D03*
%TO.P,J2,34,Pin_34*%
%TO.N,unconnected-(J2-Pin_34-Pad34)*%
X103100000Y-127460000D03*
%TO.P,J2,35,Pin_35*%
%TO.N,Net-(J2-Pin_35)*%
X105640000Y-130000000D03*
%TO.P,J2,36,Pin_36*%
%TO.N,unconnected-(J2-Pin_36-Pad36)*%
X105640000Y-127460000D03*
%TO.P,J2,37,Pin_37*%
%TO.N,unconnected-(J2-Pin_37-Pad37)*%
X108180000Y-130000000D03*
%TO.P,J2,38,Pin_38*%
%TO.N,Net-(J2-Pin_35)*%
X108180000Y-127460000D03*
%TO.P,J2,39,Pin_39*%
%TO.N,unconnected-(J2-Pin_39-Pad39)*%
X110720000Y-130000000D03*
%TO.P,J2,40,Pin_40*%
%TO.N,Net-(J2-Pin_40)*%
X110720000Y-127460000D03*
%TD*%
D10*
%TO.P,J3,1,Pin_1*%
%TO.N,unconnected-(J3-Pin_1-Pad1)*%
X156540000Y-49840000D03*
D11*
%TO.P,J3,2,Pin_2*%
%TO.N,unconnected-(J3-Pin_2-Pad2)*%
X159080000Y-49840000D03*
%TO.P,J3,3,Pin_3*%
%TO.N,Net-(J1-Pin_7)*%
X156540000Y-52380000D03*
%TO.P,J3,4,Pin_4*%
%TO.N,unconnected-(J3-Pin_4-Pad4)*%
X159080000Y-52380000D03*
%TO.P,J3,5,Pin_5*%
%TO.N,Net-(J1-Pin_8)*%
X156540000Y-54920000D03*
%TO.P,J3,6,Pin_6*%
%TO.N,Net-(J1-Pin_2)*%
X159080000Y-54920000D03*
%TO.P,J3,7,Pin_7*%
%TO.N,Net-(J1-Pin_9)*%
X156540000Y-57460000D03*
%TO.P,J3,8,Pin_8*%
%TO.N,Net-(J1-Pin_2)*%
X159080000Y-57460000D03*
%TO.P,J3,9,Pin_9*%
%TO.N,Net-(J1-Pin_10)*%
X156540000Y-60000000D03*
%TO.P,J3,10,Pin_10*%
%TO.N,unconnected-(J3-Pin_10-Pad10)*%
X159080000Y-60000000D03*
%TO.P,J3,11,Pin_11*%
%TO.N,Net-(J2-Pin_32)*%
X156540000Y-62540000D03*
%TO.P,J3,12,Pin_12*%
%TO.N,unconnected-(J3-Pin_12-Pad12)*%
X159080000Y-62540000D03*
%TO.P,J3,13,Pin_13*%
%TO.N,Net-(J2-Pin_33)*%
X156540000Y-65080000D03*
%TO.P,J3,14,Pin_14*%
%TO.N,unconnected-(J3-Pin_14-Pad14)*%
X159080000Y-65080000D03*
%TO.P,J3,15,Pin_15*%
%TO.N,Net-(J2-Pin_18)*%
X156540000Y-67620000D03*
%TO.P,J3,16,Pin_16*%
%TO.N,unconnected-(J3-Pin_16-Pad16)*%
X159080000Y-67620000D03*
%TO.P,J3,17,Pin_17*%
%TO.N,Net-(J2-Pin_8)*%
X156540000Y-70160000D03*
%TO.P,J3,18,Pin_18*%
%TO.N,unconnected-(J3-Pin_18-Pad18)*%
X159080000Y-70160000D03*
%TO.P,J3,19,Pin_19*%
%TO.N,Net-(J2-Pin_10)*%
X156540000Y-72700000D03*
%TO.P,J3,20,Pin_20*%
%TO.N,unconnected-(J3-Pin_20-Pad20)*%
X159080000Y-72700000D03*
%TO.P,J3,21,Pin_21*%
%TO.N,unconnected-(J3-Pin_21-Pad21)*%
X156540000Y-75240000D03*
%TO.P,J3,22,Pin_22*%
%TO.N,unconnected-(J3-Pin_22-Pad22)*%
X159080000Y-75240000D03*
%TO.P,J3,23,Pin_23*%
%TO.N,unconnected-(J3-Pin_23-Pad23)*%
X156540000Y-77780000D03*
%TO.P,J3,24,Pin_24*%
%TO.N,unconnected-(J3-Pin_24-Pad24)*%
X159080000Y-77780000D03*
%TO.P,J3,25,Pin_25*%
%TO.N,unconnected-(J3-Pin_25-Pad25)*%
X156540000Y-80320000D03*
%TO.P,J3,26,Pin_26*%
%TO.N,unconnected-(J3-Pin_26-Pad26)*%
X159080000Y-80320000D03*
%TO.P,J3,27,Pin_27*%
%TO.N,unconnected-(J3-Pin_27-Pad27)*%
X156540000Y-82860000D03*
%TO.P,J3,28,Pin_28*%
%TO.N,unconnected-(J3-Pin_28-Pad28)*%
X159080000Y-82860000D03*
%TO.P,J3,29,Pin_29*%
%TO.N,unconnected-(J3-Pin_29-Pad29)*%
X156540000Y-85400000D03*
%TO.P,J3,30,Pin_30*%
%TO.N,unconnected-(J3-Pin_30-Pad30)*%
X159080000Y-85400000D03*
%TO.P,J3,31,Pin_31*%
%TO.N,unconnected-(J3-Pin_31-Pad31)*%
X156540000Y-87940000D03*
%TO.P,J3,32,Pin_32*%
%TO.N,unconnected-(J3-Pin_32-Pad32)*%
X159080000Y-87940000D03*
%TO.P,J3,33,Pin_33*%
%TO.N,Net-(J1-Pin_1)*%
X156540000Y-90480000D03*
%TO.P,J3,34,Pin_34*%
%TO.N,unconnected-(J3-Pin_34-Pad34)*%
X159080000Y-90480000D03*
%TD*%
D12*
%TO.P,J16,1,Pin_1*%
%TO.N,Net-(J1-Pin_1)*%
X43000000Y-160000000D03*
D13*
%TO.P,J16,2,Pin_2*%
%TO.N,Net-(J1-Pin_2)*%
X48080000Y-160000000D03*
%TO.P,J16,3,Pin_3*%
%TO.N,Net-(J16-Pin_3)*%
X53160000Y-160000000D03*
%TO.P,J16,4,Pin_4*%
%TO.N,Net-(J16-Pin_4)*%
X58240000Y-160000000D03*
%TO.P,J16,5,Pin_5*%
%TO.N,Net-(J16-Pin_5)*%
X63320000Y-160000000D03*
%TO.P,J16,6,Pin_6*%
%TO.N,Net-(J16-Pin_6)*%
X68400000Y-160000000D03*
%TO.P,J16,7,Pin_7*%
%TO.N,Net-(J1-Pin_9)*%
X73480000Y-160000000D03*
%TO.P,J16,8,Pin_8*%
%TO.N,Net-(J1-Pin_10)*%
X78560000Y-160000000D03*
%TO.P,J16,9,Pin_9*%
%TO.N,Net-(J16-Pin_9)*%
X83640000Y-160000000D03*
%TO.P,J16,10,Pin_10*%
%TO.N,Net-(J16-Pin_10)*%
X88720000Y-160000000D03*
%TD*%
D10*
%TO.P,J4,1,Pin_1*%
%TO.N,Net-(J2-Pin_24)*%
X156460000Y-117460000D03*
D11*
%TO.P,J4,2,Pin_2*%
%TO.N,Net-(J2-Pin_19)*%
X159000000Y-117460000D03*
%TO.P,J4,3,Pin_3*%
%TO.N,Net-(J2-Pin_21)*%
X156460000Y-120000000D03*
%TO.P,J4,4,Pin_4*%
%TO.N,Net-(J2-Pin_23)*%
X159000000Y-120000000D03*
%TO.P,J4,5,Pin_5*%
%TO.N,Net-(J1-Pin_2)*%
X156460000Y-122540000D03*
%TO.P,J4,6,Pin_6*%
%TO.N,Net-(J1-Pin_1)*%
X159000000Y-122540000D03*
%TO.P,J4,7,Pin_7*%
%TO.N,Net-(J2-Pin_35)*%
X156460000Y-125080000D03*
%TO.P,J4,8,Pin_8*%
%TO.N,Net-(J2-Pin_40)*%
X159000000Y-125080000D03*
%TO.P,J4,9,Pin_9*%
%TO.N,Net-(J2-Pin_35)*%
X156460000Y-127620000D03*
%TO.P,J4,10,Pin_10*%
%TO.N,Net-(J2-Pin_12)*%
X159000000Y-127620000D03*
%TO.P,J4,11,Pin_11*%
%TO.N,Net-(J1-Pin_2)*%
X156460000Y-130160000D03*
%TO.P,J4,12,Pin_12*%
%TO.N,Net-(J1-Pin_1)*%
X159000000Y-130160000D03*
%TD*%
D14*
%TO.N,Net-(J16-Pin_10)*%
X86403300Y-128402600D03*
%TO.N,Net-(J16-Pin_3)*%
X71344900Y-156752700D03*
%TO.N,Net-(J16-Pin_4)*%
X70928400Y-157759600D03*
%TO.N,Net-(J16-Pin_6)*%
X71287900Y-130821800D03*
%TO.N,Net-(J2-Pin_10)*%
X77329500Y-74384200D03*
%TO.N,Net-(J2-Pin_32)*%
X106751200Y-64528200D03*
%TO.N,Net-(J2-Pin_23)*%
X92055000Y-115615600D03*
%TO.N,Net-(J2-Pin_8)*%
X76565200Y-72622000D03*
%TO.N,Net-(J2-Pin_18)*%
X83219700Y-71283300D03*
%TO.N,Net-(J2-Pin_33)*%
X115000000Y-67270700D03*
%TO.N,Net-(J2-Pin_12)*%
X78970000Y-133607800D03*
%TO.N,Net-(J1-Pin_9)*%
X154372500Y-132399900D03*
%TO.N,Net-(J1-Pin_2)*%
X69438300Y-156805900D03*
%TO.N,Net-(J1-Pin_8)*%
X130341300Y-56713600D03*
%TO.N,Net-(J1-Pin_7)*%
X153902100Y-133286200D03*
%TO.N,Net-(J1-Pin_4)*%
X118119200Y-130319300D03*
%TO.N,Net-(J1-Pin_10)*%
X156847200Y-139176400D03*
%TO.N,Net-(J1-Pin_1)*%
X116704300Y-132242700D03*
%TD*%
D15*
%TO.N,Net-(J2-Pin_12)*%
X76430000Y-128730000D02*
X75160000Y-127460000D01*
X78118400Y-128730000D02*
X76430000Y-128730000D01*
X78137400Y-128749000D02*
X78118400Y-128730000D01*
X78951000Y-129481818D02*
X78218182Y-128749000D01*
X78970000Y-133607800D02*
X78970000Y-129581600D01*
X78951000Y-129562600D02*
X78951000Y-129481818D01*
X78218182Y-128749000D02*
X78137400Y-128749000D01*
X78970000Y-129581600D02*
X78951000Y-129562600D01*
%TO.N,Net-(J2-Pin_33)*%
X115000000Y-100000000D02*
X115000000Y-67270700D01*
X104351000Y-126941818D02*
X104284900Y-126875718D01*
X104284900Y-110715100D02*
X115000000Y-100000000D01*
X104351000Y-127978182D02*
X104351000Y-126941818D01*
X104284900Y-128044282D02*
X104351000Y-127978182D01*
X104284900Y-126875718D02*
X104284900Y-110715100D01*
X104284900Y-128815100D02*
X104284900Y-128044282D01*
X103100000Y-130000000D02*
X104284900Y-128815100D01*
%TO.N,Net-(J16-Pin_9)*%
X84050000Y-128730000D02*
X85320000Y-127460000D01*
X84050000Y-157488300D02*
X84050000Y-128730000D01*
X83640000Y-157898300D02*
X84050000Y-157488300D01*
X83640000Y-160000000D02*
X83640000Y-157898300D01*
%TO.N,Net-(J16-Pin_5)*%
X63320000Y-160000000D02*
X63320000Y-162101700D01*
X80240000Y-149900100D02*
X80240000Y-130000000D01*
X71083200Y-159056900D02*
X80240000Y-149900100D01*
X71083200Y-160045000D02*
X71083200Y-159056900D01*
X69026500Y-162101700D02*
X71083200Y-160045000D01*
X63320000Y-162101700D02*
X69026500Y-162101700D01*
%TO.N,Net-(J16-Pin_10)*%
X86590000Y-155768300D02*
X88720000Y-157898300D01*
X86590000Y-128589300D02*
X86590000Y-155768300D01*
X86403300Y-128402600D02*
X86590000Y-128589300D01*
X88720000Y-160000000D02*
X88720000Y-157898300D01*
%TO.N,Net-(J16-Pin_3)*%
X75160000Y-152937600D02*
X71344900Y-156752700D01*
X75160000Y-130000000D02*
X75160000Y-152937600D01*
%TO.N,Net-(J16-Pin_4)*%
X71256100Y-157759600D02*
X70928400Y-157759600D01*
X77700000Y-151315700D02*
X71256100Y-157759600D01*
X77700000Y-130000000D02*
X77700000Y-151315700D01*
%TO.N,Net-(J16-Pin_6)*%
X68400000Y-133709700D02*
X68400000Y-160000000D01*
X71287900Y-130821800D02*
X68400000Y-133709700D01*
%TO.N,Net-(J2-Pin_10)*%
X77329500Y-122750500D02*
X72620000Y-127460000D01*
X77329500Y-74384200D02*
X77329500Y-122750500D01*
%TO.N,Net-(J2-Pin_32)*%
X100560000Y-70719400D02*
X106751200Y-64528200D01*
X100560000Y-127460000D02*
X100560000Y-70719400D01*
%TO.N,Net-(J2-Pin_23)*%
X91551700Y-116118900D02*
X92055000Y-115615600D01*
X91551700Y-128848300D02*
X91551700Y-116118900D01*
X90400000Y-130000000D02*
X91551700Y-128848300D01*
%TO.N,Net-(J2-Pin_8)*%
X76565200Y-120974800D02*
X70080000Y-127460000D01*
X76565200Y-72622000D02*
X76565200Y-120974800D01*
%TO.N,Net-(J2-Pin_18)*%
X82780000Y-71723000D02*
X83219700Y-71283300D01*
X82780000Y-127460000D02*
X82780000Y-71723000D01*
%TO.N,Net-(J2-Pin_35)*%
X156460000Y-127620000D02*
X156460000Y-125080000D01*
%TO.N,Net-(J1-Pin_9)*%
X154372500Y-59627500D02*
X156540000Y-57460000D01*
X154372500Y-132399900D02*
X154372500Y-59627500D01*
%TO.N,Net-(J1-Pin_2)*%
X159080000Y-54920000D02*
X159080000Y-57460000D01*
X155268100Y-128968100D02*
X155268100Y-122540000D01*
X156460000Y-130160000D02*
X155268100Y-128968100D01*
X155268100Y-122540000D02*
X156460000Y-122540000D01*
X157810000Y-58730000D02*
X159080000Y-57460000D01*
X157810000Y-88299500D02*
X157810000Y-58730000D01*
X156899500Y-89210000D02*
X157810000Y-88299500D01*
X156108900Y-89210000D02*
X156899500Y-89210000D01*
X155268100Y-90050800D02*
X156108900Y-89210000D01*
X155268100Y-122540000D02*
X155268100Y-90050800D01*
X72620000Y-153624200D02*
X69438300Y-156805900D01*
X72620000Y-130000000D02*
X72620000Y-153624200D01*
%TO.N,Net-(J1-Pin_8)*%
X130341300Y-127358700D02*
X120000000Y-137700000D01*
X130341300Y-56713600D02*
X130341300Y-127358700D01*
%TO.N,Net-(J1-Pin_7)*%
X153770800Y-133154900D02*
X153902100Y-133286200D01*
X153770800Y-55149200D02*
X153770800Y-133154900D01*
X156540000Y-52380000D02*
X153770800Y-55149200D01*
%TO.N,Net-(J1-Pin_4)*%
X120000000Y-128438500D02*
X118119200Y-130319300D01*
X120000000Y-127540000D02*
X120000000Y-128438500D01*
%TO.N,Net-(J1-Pin_10)*%
X154842900Y-61697100D02*
X156540000Y-60000000D01*
X154842900Y-132019400D02*
X154842900Y-61697100D01*
X156847200Y-134023700D02*
X154842900Y-132019400D01*
X156847200Y-139176400D02*
X156847200Y-134023700D01*
%TO.N,Net-(J1-Pin_1)*%
X62460000Y-140540000D02*
X62460000Y-130000000D01*
X43000000Y-160000000D02*
X62460000Y-140540000D01*
X157809400Y-91749400D02*
X157809400Y-122540000D01*
X156540000Y-90480000D02*
X157809400Y-91749400D01*
X157809400Y-128969400D02*
X159000000Y-130160000D01*
X157809400Y-122540000D02*
X157809400Y-128969400D01*
X157809400Y-122540000D02*
X159000000Y-122540000D01*
X120000000Y-119920000D02*
X120000000Y-121071700D01*
X119748500Y-121071700D02*
X120000000Y-121071700D01*
X116704300Y-124115900D02*
X119748500Y-121071700D01*
X116704300Y-132242700D02*
X116704300Y-124115900D01*
%TD*%
M02*
