%TF.GenerationSoftware,KiCad,Pcbnew,9.0.7*%
%TF.CreationDate,2026-07-27T16:20:29+02:00*%
%TF.ProjectId,INDIPI,494e4449-5049-42e6-9b69-6361645f7063,3*%
%TF.SameCoordinates,Original*%
%TF.FileFunction,Soldermask,Bot*%
%TF.FilePolarity,Negative*%
%FSLAX46Y46*%
G04 Gerber Fmt 4.6, Leading zero omitted, Abs format (unit mm)*
G04 Created by KiCad (PCBNEW 9.0.7) date 2026-07-27 16:20:29*
%MOMM*%
%LPD*%
G01*
G04 APERTURE LIST*
G04 Aperture macros list*
%AMRoundRect*
0 Rectangle with rounded corners*
0 $1 Rounding radius*
0 $2 $3 $4 $5 $6 $7 $8 $9 X,Y pos of 4 corners*
0 Add a 4 corners polygon primitive as box body*
4,1,4,$2,$3,$4,$5,$6,$7,$8,$9,$2,$3,0*
0 Add four circle primitives for the rounded corners*
1,1,$1+$1,$2,$3*
1,1,$1+$1,$4,$5*
1,1,$1+$1,$6,$7*
1,1,$1+$1,$8,$9*
0 Add four rect primitives between the rounded corners*
20,1,$1+$1,$2,$3,$4,$5,0*
20,1,$1+$1,$4,$5,$6,$7,0*
20,1,$1+$1,$6,$7,$8,$9,0*
20,1,$1+$1,$8,$9,$2,$3,0*%
G04 Aperture macros list end*
%ADD10R,1.700000X1.700000*%
%ADD11C,1.700000*%
%ADD12C,2.500000*%
%ADD13RoundRect,0.249999X-0.790001X-1.550001X0.790001X-1.550001X0.790001X1.550001X-0.790001X1.550001X0*%
%ADD14O,2.080000X3.600000*%
G04 APERTURE END LIST*
D10*
%TO.C,J1*%
X120000000Y-119920000D03*
D11*
X120000000Y-122460000D03*
X120000000Y-125000000D03*
X120000000Y-127540000D03*
X120000000Y-130080000D03*
X120000000Y-132620000D03*
X120000000Y-135160000D03*
X120000000Y-137700000D03*
X120000000Y-140240000D03*
X120000000Y-142780000D03*
%TD*%
D12*
%TO.C,MH1*%
X25000000Y-24000000D03*
%TD*%
%TO.C,MH7*%
X109000000Y-30000000D03*
%TD*%
D10*
%TO.C,J2*%
X54460000Y-130000000D03*
D11*
X54460000Y-127460000D03*
X57000000Y-130000000D03*
X57000000Y-127460000D03*
X59540000Y-130000000D03*
X59540000Y-127460000D03*
X62080000Y-130000000D03*
X62080000Y-127460000D03*
X64620000Y-130000000D03*
X64620000Y-127460000D03*
X67160000Y-130000000D03*
X67160000Y-127460000D03*
X69700000Y-130000000D03*
X69700000Y-127460000D03*
X72240000Y-130000000D03*
X72240000Y-127460000D03*
X74780000Y-130000000D03*
X74780000Y-127460000D03*
X77320000Y-130000000D03*
X77320000Y-127460000D03*
X79860000Y-130000000D03*
X79860000Y-127460000D03*
X82400000Y-130000000D03*
X82400000Y-127460000D03*
X84940000Y-130000000D03*
X84940000Y-127460000D03*
X87480000Y-130000000D03*
X87480000Y-127460000D03*
X90020000Y-130000000D03*
X90020000Y-127460000D03*
X92560000Y-130000000D03*
X92560000Y-127460000D03*
X95100000Y-130000000D03*
X95100000Y-127460000D03*
X97640000Y-130000000D03*
X97640000Y-127460000D03*
X100180000Y-130000000D03*
X100180000Y-127460000D03*
X102720000Y-130000000D03*
X102720000Y-127460000D03*
%TD*%
D12*
%TO.C,MHR4*%
X106000000Y-93000000D03*
%TD*%
%TO.C,MH4*%
X165000000Y-166000000D03*
%TD*%
D10*
%TO.C,J3*%
X156540000Y-49840000D03*
D11*
X159080000Y-49840000D03*
X156540000Y-52380000D03*
X159080000Y-52380000D03*
X156540000Y-54920000D03*
X159080000Y-54920000D03*
X156540000Y-57460000D03*
X159080000Y-57460000D03*
X156540000Y-60000000D03*
X159080000Y-60000000D03*
X156540000Y-62540000D03*
X159080000Y-62540000D03*
X156540000Y-65080000D03*
X159080000Y-65080000D03*
X156540000Y-67620000D03*
X159080000Y-67620000D03*
X156540000Y-70160000D03*
X159080000Y-70160000D03*
X156540000Y-72700000D03*
X159080000Y-72700000D03*
X156540000Y-75240000D03*
X159080000Y-75240000D03*
X156540000Y-77780000D03*
X159080000Y-77780000D03*
X156540000Y-80320000D03*
X159080000Y-80320000D03*
X156540000Y-82860000D03*
X159080000Y-82860000D03*
X156540000Y-85400000D03*
X159080000Y-85400000D03*
X156540000Y-87940000D03*
X159080000Y-87940000D03*
X156540000Y-90480000D03*
X159080000Y-90480000D03*
%TD*%
D12*
%TO.C,MH6*%
X90000000Y-30000000D03*
%TD*%
%TO.C,MHR3*%
X48000000Y-93000000D03*
%TD*%
%TO.C,MHR2*%
X106000000Y-44000000D03*
%TD*%
%TO.C,MHR1*%
X48000000Y-44000000D03*
%TD*%
D13*
%TO.C,J16*%
X43000000Y-160000000D03*
D14*
X48080000Y-160000000D03*
X53160000Y-160000000D03*
X58240000Y-160000000D03*
X63320000Y-160000000D03*
X68400000Y-160000000D03*
X73480000Y-160000000D03*
X78560000Y-160000000D03*
X83640000Y-160000000D03*
X88720000Y-160000000D03*
%TD*%
D12*
%TO.C,MH3*%
X25000000Y-166000000D03*
%TD*%
%TO.C,MH2*%
X165000000Y-24000000D03*
%TD*%
D10*
%TO.C,J4*%
X156460000Y-117460000D03*
D11*
X159000000Y-117460000D03*
X156460000Y-120000000D03*
X159000000Y-120000000D03*
X156460000Y-122540000D03*
X159000000Y-122540000D03*
X156460000Y-125080000D03*
X159000000Y-125080000D03*
X156460000Y-127620000D03*
X159000000Y-127620000D03*
X156460000Y-130160000D03*
X159000000Y-130160000D03*
%TD*%
M02*
