%TF.GenerationSoftware,KiCad,Pcbnew,9.0.7*%
%TF.CreationDate,2026-07-24T14:07:51+02:00*%
%TF.ProjectId,INDIPI,494e4449-5049-42e6-9b69-6361645f7063,3*%
%TF.SameCoordinates,Original*%
%TF.FileFunction,Legend,Top*%
%TF.FilePolarity,Positive*%
%FSLAX46Y46*%
G04 Gerber Fmt 4.6, Leading zero omitted, Abs format (unit mm)*
G04 Created by KiCad (PCBNEW 9.0.7) date 2026-07-24 14:07:51*
%MOMM*%
%LPD*%
G01*
G04 APERTURE LIST*
%ADD10C,0.150000*%
%ADD11C,0.120000*%
G04 APERTURE END LIST*
D10*
X119666666Y-116604819D02*
X119666666Y-117319104D01*
X119666666Y-117319104D02*
X119619047Y-117461961D01*
X119619047Y-117461961D02*
X119523809Y-117557200D01*
X119523809Y-117557200D02*
X119380952Y-117604819D01*
X119380952Y-117604819D02*
X119285714Y-117604819D01*
X120666666Y-117604819D02*
X120095238Y-117604819D01*
X120380952Y-117604819D02*
X120380952Y-116604819D01*
X120380952Y-116604819D02*
X120285714Y-116747676D01*
X120285714Y-116747676D02*
X120190476Y-116842914D01*
X120190476Y-116842914D02*
X120095238Y-116890533D01*
X59534819Y-129063333D02*
X60249104Y-129063333D01*
X60249104Y-129063333D02*
X60391961Y-129110952D01*
X60391961Y-129110952D02*
X60487200Y-129206190D01*
X60487200Y-129206190D02*
X60534819Y-129349047D01*
X60534819Y-129349047D02*
X60534819Y-129444285D01*
X59630057Y-128634761D02*
X59582438Y-128587142D01*
X59582438Y-128587142D02*
X59534819Y-128491904D01*
X59534819Y-128491904D02*
X59534819Y-128253809D01*
X59534819Y-128253809D02*
X59582438Y-128158571D01*
X59582438Y-128158571D02*
X59630057Y-128110952D01*
X59630057Y-128110952D02*
X59725295Y-128063333D01*
X59725295Y-128063333D02*
X59820533Y-128063333D01*
X59820533Y-128063333D02*
X59963390Y-128110952D01*
X59963390Y-128110952D02*
X60534819Y-128682380D01*
X60534819Y-128682380D02*
X60534819Y-128063333D01*
X161861666Y-47024819D02*
X161861666Y-47739104D01*
X161861666Y-47739104D02*
X161814047Y-47881961D01*
X161814047Y-47881961D02*
X161718809Y-47977200D01*
X161718809Y-47977200D02*
X161575952Y-48024819D01*
X161575952Y-48024819D02*
X161480714Y-48024819D01*
X162242619Y-47024819D02*
X162861666Y-47024819D01*
X162861666Y-47024819D02*
X162528333Y-47405771D01*
X162528333Y-47405771D02*
X162671190Y-47405771D01*
X162671190Y-47405771D02*
X162766428Y-47453390D01*
X162766428Y-47453390D02*
X162814047Y-47501009D01*
X162814047Y-47501009D02*
X162861666Y-47596247D01*
X162861666Y-47596247D02*
X162861666Y-47834342D01*
X162861666Y-47834342D02*
X162814047Y-47929580D01*
X162814047Y-47929580D02*
X162766428Y-47977200D01*
X162766428Y-47977200D02*
X162671190Y-48024819D01*
X162671190Y-48024819D02*
X162385476Y-48024819D01*
X162385476Y-48024819D02*
X162290238Y-47977200D01*
X162290238Y-47977200D02*
X162242619Y-47929580D01*
X65050476Y-153454819D02*
X65050476Y-154169104D01*
X65050476Y-154169104D02*
X65002857Y-154311961D01*
X65002857Y-154311961D02*
X64907619Y-154407200D01*
X64907619Y-154407200D02*
X64764762Y-154454819D01*
X64764762Y-154454819D02*
X64669524Y-154454819D01*
X66050476Y-154454819D02*
X65479048Y-154454819D01*
X65764762Y-154454819D02*
X65764762Y-153454819D01*
X65764762Y-153454819D02*
X65669524Y-153597676D01*
X65669524Y-153597676D02*
X65574286Y-153692914D01*
X65574286Y-153692914D02*
X65479048Y-153740533D01*
X66907619Y-153454819D02*
X66717143Y-153454819D01*
X66717143Y-153454819D02*
X66621905Y-153502438D01*
X66621905Y-153502438D02*
X66574286Y-153550057D01*
X66574286Y-153550057D02*
X66479048Y-153692914D01*
X66479048Y-153692914D02*
X66431429Y-153883390D01*
X66431429Y-153883390D02*
X66431429Y-154264342D01*
X66431429Y-154264342D02*
X66479048Y-154359580D01*
X66479048Y-154359580D02*
X66526667Y-154407200D01*
X66526667Y-154407200D02*
X66621905Y-154454819D01*
X66621905Y-154454819D02*
X66812381Y-154454819D01*
X66812381Y-154454819D02*
X66907619Y-154407200D01*
X66907619Y-154407200D02*
X66955238Y-154359580D01*
X66955238Y-154359580D02*
X67002857Y-154264342D01*
X67002857Y-154264342D02*
X67002857Y-154026247D01*
X67002857Y-154026247D02*
X66955238Y-153931009D01*
X66955238Y-153931009D02*
X66907619Y-153883390D01*
X66907619Y-153883390D02*
X66812381Y-153835771D01*
X66812381Y-153835771D02*
X66621905Y-153835771D01*
X66621905Y-153835771D02*
X66526667Y-153883390D01*
X66526667Y-153883390D02*
X66479048Y-153931009D01*
X66479048Y-153931009D02*
X66431429Y-154026247D01*
X161781666Y-114644819D02*
X161781666Y-115359104D01*
X161781666Y-115359104D02*
X161734047Y-115501961D01*
X161734047Y-115501961D02*
X161638809Y-115597200D01*
X161638809Y-115597200D02*
X161495952Y-115644819D01*
X161495952Y-115644819D02*
X161400714Y-115644819D01*
X162686428Y-114978152D02*
X162686428Y-115644819D01*
X162448333Y-114597200D02*
X162210238Y-115311485D01*
X162210238Y-115311485D02*
X162829285Y-115311485D01*
D11*
%TO.C,J1*%
X118670000Y-121190000D02*
X118670000Y-144110000D01*
X118670000Y-121190000D02*
X121330000Y-121190000D01*
X118670000Y-144110000D02*
X121330000Y-144110000D01*
X120000000Y-118590000D02*
X121330000Y-118590000D01*
X121330000Y-118590000D02*
X121330000Y-119920000D01*
X121330000Y-121190000D02*
X121330000Y-144110000D01*
%TO.C,J2*%
X61080000Y-126080000D02*
X112100000Y-126080000D01*
X61080000Y-128730000D02*
X61080000Y-126080000D01*
X61080000Y-131380000D02*
X61080000Y-130000000D01*
X62460000Y-131380000D02*
X61080000Y-131380000D01*
X63730000Y-128730000D02*
X61080000Y-128730000D01*
X63730000Y-131380000D02*
X63730000Y-128730000D01*
X63730000Y-131380000D02*
X112100000Y-131380000D01*
X112100000Y-131380000D02*
X112100000Y-126080000D01*
%TO.C,J3*%
X155270000Y-48570000D02*
X156540000Y-48570000D01*
X155270000Y-49840000D02*
X155270000Y-48570000D01*
X157617358Y-51950000D02*
X158002642Y-51950000D01*
X157617358Y-52810000D02*
X158002642Y-52810000D01*
X157617358Y-54490000D02*
X158002642Y-54490000D01*
X157617358Y-55350000D02*
X158002642Y-55350000D01*
X157617358Y-57030000D02*
X158002642Y-57030000D01*
X157617358Y-57890000D02*
X158002642Y-57890000D01*
X157617358Y-59570000D02*
X158002642Y-59570000D01*
X157617358Y-60430000D02*
X158002642Y-60430000D01*
X157617358Y-62110000D02*
X158002642Y-62110000D01*
X157617358Y-62970000D02*
X158002642Y-62970000D01*
X157617358Y-64650000D02*
X158002642Y-64650000D01*
X157617358Y-65510000D02*
X158002642Y-65510000D01*
X157617358Y-67190000D02*
X158002642Y-67190000D01*
X157617358Y-68050000D02*
X158002642Y-68050000D01*
X157617358Y-69730000D02*
X158002642Y-69730000D01*
X157617358Y-70590000D02*
X158002642Y-70590000D01*
X157617358Y-72270000D02*
X158002642Y-72270000D01*
X157617358Y-73130000D02*
X158002642Y-73130000D01*
X157617358Y-74810000D02*
X158002642Y-74810000D01*
X157617358Y-75670000D02*
X158002642Y-75670000D01*
X157617358Y-77350000D02*
X158002642Y-77350000D01*
X157617358Y-78210000D02*
X158002642Y-78210000D01*
X157617358Y-79890000D02*
X158002642Y-79890000D01*
X157617358Y-80750000D02*
X158002642Y-80750000D01*
X157617358Y-82430000D02*
X158002642Y-82430000D01*
X157617358Y-83290000D02*
X158002642Y-83290000D01*
X157617358Y-84970000D02*
X158002642Y-84970000D01*
X157617358Y-85830000D02*
X158002642Y-85830000D01*
X157617358Y-87510000D02*
X158002642Y-87510000D01*
X157617358Y-88370000D02*
X158002642Y-88370000D01*
X157617358Y-90050000D02*
X158002642Y-90050000D01*
X157617358Y-90910000D02*
X158002642Y-90910000D01*
X157700000Y-49410000D02*
X158002642Y-49410000D01*
X157700000Y-50270000D02*
X158002642Y-50270000D01*
X160157358Y-49410000D02*
X160470000Y-49410000D01*
X160157358Y-50270000D02*
X160470000Y-50270000D01*
X160157358Y-51950000D02*
X160470000Y-51950000D01*
X160157358Y-52810000D02*
X160470000Y-52810000D01*
X160157358Y-54490000D02*
X160470000Y-54490000D01*
X160157358Y-55350000D02*
X160470000Y-55350000D01*
X160157358Y-57030000D02*
X160470000Y-57030000D01*
X160157358Y-57890000D02*
X160470000Y-57890000D01*
X160157358Y-59570000D02*
X160470000Y-59570000D01*
X160157358Y-60430000D02*
X160470000Y-60430000D01*
X160157358Y-62110000D02*
X160470000Y-62110000D01*
X160157358Y-62970000D02*
X160470000Y-62970000D01*
X160157358Y-64650000D02*
X160470000Y-64650000D01*
X160157358Y-65510000D02*
X160470000Y-65510000D01*
X160157358Y-67190000D02*
X160470000Y-67190000D01*
X160157358Y-68050000D02*
X160470000Y-68050000D01*
X160157358Y-69730000D02*
X160470000Y-69730000D01*
X160157358Y-70590000D02*
X160470000Y-70590000D01*
X160157358Y-72270000D02*
X160470000Y-72270000D01*
X160157358Y-73130000D02*
X160470000Y-73130000D01*
X160157358Y-74810000D02*
X160470000Y-74810000D01*
X160157358Y-75670000D02*
X160470000Y-75670000D01*
X160157358Y-77350000D02*
X160470000Y-77350000D01*
X160157358Y-78210000D02*
X160470000Y-78210000D01*
X160157358Y-79890000D02*
X160470000Y-79890000D01*
X160157358Y-80750000D02*
X160470000Y-80750000D01*
X160157358Y-82430000D02*
X160470000Y-82430000D01*
X160157358Y-83290000D02*
X160470000Y-83290000D01*
X160157358Y-84970000D02*
X160470000Y-84970000D01*
X160157358Y-85830000D02*
X160470000Y-85830000D01*
X160157358Y-87510000D02*
X160470000Y-87510000D01*
X160157358Y-88370000D02*
X160470000Y-88370000D01*
X160157358Y-90050000D02*
X160470000Y-90050000D01*
X160157358Y-90910000D02*
X160470000Y-90910000D01*
X160470000Y-51110000D02*
X163230000Y-51110000D01*
X160470000Y-53650000D02*
X163230000Y-53650000D01*
X160470000Y-56190000D02*
X163230000Y-56190000D01*
X160470000Y-58730000D02*
X163230000Y-58730000D01*
X160470000Y-61270000D02*
X163230000Y-61270000D01*
X160470000Y-63810000D02*
X163230000Y-63810000D01*
X160470000Y-66350000D02*
X163230000Y-66350000D01*
X160470000Y-68890000D02*
X163230000Y-68890000D01*
X160470000Y-71430000D02*
X163230000Y-71430000D01*
X160470000Y-73970000D02*
X163230000Y-73970000D01*
X160470000Y-76510000D02*
X163230000Y-76510000D01*
X160470000Y-79050000D02*
X163230000Y-79050000D01*
X160470000Y-81590000D02*
X163230000Y-81590000D01*
X160470000Y-84130000D02*
X163230000Y-84130000D01*
X160470000Y-86670000D02*
X163230000Y-86670000D01*
X160470000Y-89210000D02*
X163230000Y-89210000D01*
X163230000Y-51950000D02*
X169230000Y-51950000D01*
X163230000Y-54490000D02*
X169230000Y-54490000D01*
X163230000Y-57030000D02*
X169230000Y-57030000D01*
X163230000Y-59570000D02*
X169230000Y-59570000D01*
X163230000Y-62110000D02*
X169230000Y-62110000D01*
X163230000Y-64650000D02*
X169230000Y-64650000D01*
X163230000Y-67190000D02*
X169230000Y-67190000D01*
X163230000Y-69730000D02*
X169230000Y-69730000D01*
X163230000Y-72270000D02*
X169230000Y-72270000D01*
X163230000Y-74810000D02*
X169230000Y-74810000D01*
X163230000Y-77350000D02*
X169230000Y-77350000D01*
X163230000Y-79890000D02*
X169230000Y-79890000D01*
X163230000Y-82430000D02*
X169230000Y-82430000D01*
X163230000Y-84970000D02*
X169230000Y-84970000D01*
X163230000Y-87510000D02*
X169230000Y-87510000D01*
X163230000Y-90050000D02*
X169230000Y-90050000D01*
X169230000Y-51950000D02*
X169230000Y-52810000D01*
X169230000Y-52810000D02*
X163230000Y-52810000D01*
X169230000Y-54490000D02*
X169230000Y-55350000D01*
X169230000Y-55350000D02*
X163230000Y-55350000D01*
X169230000Y-57030000D02*
X169230000Y-57890000D01*
X169230000Y-57890000D02*
X163230000Y-57890000D01*
X169230000Y-59570000D02*
X169230000Y-60430000D01*
X169230000Y-60430000D02*
X163230000Y-60430000D01*
X169230000Y-62110000D02*
X169230000Y-62970000D01*
X169230000Y-62970000D02*
X163230000Y-62970000D01*
X169230000Y-64650000D02*
X169230000Y-65510000D01*
X169230000Y-65510000D02*
X163230000Y-65510000D01*
X169230000Y-67190000D02*
X169230000Y-68050000D01*
X169230000Y-68050000D02*
X163230000Y-68050000D01*
X169230000Y-69730000D02*
X169230000Y-70590000D01*
X169230000Y-70590000D02*
X163230000Y-70590000D01*
X169230000Y-72270000D02*
X169230000Y-73130000D01*
X169230000Y-73130000D02*
X163230000Y-73130000D01*
X169230000Y-74810000D02*
X169230000Y-75670000D01*
X169230000Y-75670000D02*
X163230000Y-75670000D01*
X169230000Y-77350000D02*
X169230000Y-78210000D01*
X169230000Y-78210000D02*
X163230000Y-78210000D01*
X169230000Y-79890000D02*
X169230000Y-80750000D01*
X169230000Y-80750000D02*
X163230000Y-80750000D01*
X169230000Y-82430000D02*
X169230000Y-83290000D01*
X169230000Y-83290000D02*
X163230000Y-83290000D01*
X169230000Y-84970000D02*
X169230000Y-85830000D01*
X169230000Y-85830000D02*
X163230000Y-85830000D01*
X169230000Y-87510000D02*
X169230000Y-88370000D01*
X169230000Y-88370000D02*
X163230000Y-88370000D01*
X169230000Y-90050000D02*
X169230000Y-90910000D01*
X169230000Y-90910000D02*
X163230000Y-90910000D01*
X160470000Y-48460000D02*
X163230000Y-48460000D01*
X163230000Y-91860000D01*
X160470000Y-91860000D01*
X160470000Y-48460000D01*
X163230000Y-49410000D02*
X169230000Y-49410000D01*
X169230000Y-50270000D01*
X163230000Y-50270000D01*
X163230000Y-49410000D01*
G36*
X163230000Y-49410000D02*
G01*
X169230000Y-49410000D01*
X169230000Y-50270000D01*
X163230000Y-50270000D01*
X163230000Y-49410000D01*
G37*
%TO.C,J16*%
X39350000Y-155900000D02*
X41890000Y-155900000D01*
X40260000Y-156900000D02*
X91460000Y-156900000D01*
X40260000Y-162200000D02*
X40260000Y-156900000D01*
X41000000Y-162200000D02*
X40260000Y-162200000D01*
X42700000Y-154290000D02*
X43300000Y-154290000D01*
X43000000Y-154890000D02*
X42700000Y-154290000D01*
X43300000Y-154290000D02*
X43000000Y-154890000D01*
X44000000Y-155900000D02*
X47080000Y-155900000D01*
X45000000Y-162200000D02*
X46080000Y-162200000D01*
X49080000Y-155900000D02*
X52160000Y-155900000D01*
X50080000Y-162200000D02*
X51160000Y-162200000D01*
X54160000Y-155900000D02*
X57240000Y-155900000D01*
X55160000Y-162200000D02*
X56240000Y-162200000D01*
X59240000Y-155900000D02*
X62320000Y-155900000D01*
X60240000Y-162200000D02*
X61320000Y-162200000D01*
X64320000Y-155900000D02*
X67400000Y-155900000D01*
X65320000Y-162200000D02*
X66400000Y-162200000D01*
X69400000Y-155900000D02*
X72480000Y-155900000D01*
X70400000Y-162200000D02*
X71480000Y-162200000D01*
X74480000Y-155900000D02*
X77560000Y-155900000D01*
X75480000Y-162200000D02*
X76560000Y-162200000D01*
X79560000Y-155900000D02*
X82640000Y-155900000D01*
X80560000Y-162200000D02*
X81640000Y-162200000D01*
X84640000Y-155900000D02*
X87720000Y-155900000D01*
X85640000Y-162200000D02*
X86720000Y-162200000D01*
X91460000Y-156900000D02*
X91460000Y-162200000D01*
X91460000Y-162200000D02*
X90720000Y-162200000D01*
X92370000Y-155900000D02*
X89830000Y-155900000D01*
X39350000Y-155090000D02*
X92370000Y-155090000D01*
X92370000Y-163910000D01*
X39350000Y-163910000D01*
X39350000Y-155090000D01*
X42000000Y-155090000D02*
X44000000Y-155090000D01*
X44000000Y-156900000D01*
X42000000Y-156900000D01*
X42000000Y-155090000D01*
X47080000Y-155090000D02*
X49080000Y-155090000D01*
X49080000Y-156900000D01*
X47080000Y-156900000D01*
X47080000Y-155090000D01*
X52160000Y-155090000D02*
X54160000Y-155090000D01*
X54160000Y-156900000D01*
X52160000Y-156900000D01*
X52160000Y-155090000D01*
X57240000Y-155090000D02*
X59240000Y-155090000D01*
X59240000Y-156900000D01*
X57240000Y-156900000D01*
X57240000Y-155090000D01*
X62320000Y-155090000D02*
X64320000Y-155090000D01*
X64320000Y-156900000D01*
X62320000Y-156900000D01*
X62320000Y-155090000D01*
X67400000Y-155090000D02*
X69400000Y-155090000D01*
X69400000Y-156900000D01*
X67400000Y-156900000D01*
X67400000Y-155090000D01*
X72480000Y-155090000D02*
X74480000Y-155090000D01*
X74480000Y-156900000D01*
X72480000Y-156900000D01*
X72480000Y-155090000D01*
X77560000Y-155090000D02*
X79560000Y-155090000D01*
X79560000Y-156900000D01*
X77560000Y-156900000D01*
X77560000Y-155090000D01*
X82640000Y-155090000D02*
X84640000Y-155090000D01*
X84640000Y-156900000D01*
X82640000Y-156900000D01*
X82640000Y-155090000D01*
X87720000Y-155090000D02*
X89720000Y-155090000D01*
X89720000Y-156900000D01*
X87720000Y-156900000D01*
X87720000Y-155090000D01*
X44986842Y-162215821D02*
G75*
G02*
X41000000Y-162200000I-1986842J1665821D01*
G01*
X50066842Y-162215821D02*
G75*
G02*
X46080000Y-162200000I-1986842J1665821D01*
G01*
X55146842Y-162215821D02*
G75*
G02*
X51160000Y-162200000I-1986842J1665821D01*
G01*
X60226842Y-162215821D02*
G75*
G02*
X56240000Y-162200000I-1986842J1665821D01*
G01*
X65306842Y-162215821D02*
G75*
G02*
X61320000Y-162200000I-1986842J1665821D01*
G01*
X70386842Y-162215821D02*
G75*
G02*
X66400000Y-162200000I-1986842J1665821D01*
G01*
X75466842Y-162215821D02*
G75*
G02*
X71480000Y-162200000I-1986842J1665821D01*
G01*
X80546842Y-162215821D02*
G75*
G02*
X76560000Y-162200000I-1986842J1665821D01*
G01*
X85626842Y-162215821D02*
G75*
G02*
X81640000Y-162200000I-1986842J1665821D01*
G01*
X90706842Y-162215821D02*
G75*
G02*
X86720000Y-162200000I-1986842J1665821D01*
G01*
%TO.C,J4*%
X155190000Y-116190000D02*
X156460000Y-116190000D01*
X155190000Y-117460000D02*
X155190000Y-116190000D01*
X157537358Y-119570000D02*
X157922642Y-119570000D01*
X157537358Y-120430000D02*
X157922642Y-120430000D01*
X157537358Y-122110000D02*
X157922642Y-122110000D01*
X157537358Y-122970000D02*
X157922642Y-122970000D01*
X157537358Y-124650000D02*
X157922642Y-124650000D01*
X157537358Y-125510000D02*
X157922642Y-125510000D01*
X157537358Y-127190000D02*
X157922642Y-127190000D01*
X157537358Y-128050000D02*
X157922642Y-128050000D01*
X157537358Y-129730000D02*
X157922642Y-129730000D01*
X157537358Y-130590000D02*
X157922642Y-130590000D01*
X157620000Y-117030000D02*
X157922642Y-117030000D01*
X157620000Y-117890000D02*
X157922642Y-117890000D01*
X160077358Y-117030000D02*
X160390000Y-117030000D01*
X160077358Y-117890000D02*
X160390000Y-117890000D01*
X160077358Y-119570000D02*
X160390000Y-119570000D01*
X160077358Y-120430000D02*
X160390000Y-120430000D01*
X160077358Y-122110000D02*
X160390000Y-122110000D01*
X160077358Y-122970000D02*
X160390000Y-122970000D01*
X160077358Y-124650000D02*
X160390000Y-124650000D01*
X160077358Y-125510000D02*
X160390000Y-125510000D01*
X160077358Y-127190000D02*
X160390000Y-127190000D01*
X160077358Y-128050000D02*
X160390000Y-128050000D01*
X160077358Y-129730000D02*
X160390000Y-129730000D01*
X160077358Y-130590000D02*
X160390000Y-130590000D01*
X160390000Y-118730000D02*
X163150000Y-118730000D01*
X160390000Y-121270000D02*
X163150000Y-121270000D01*
X160390000Y-123810000D02*
X163150000Y-123810000D01*
X160390000Y-126350000D02*
X163150000Y-126350000D01*
X160390000Y-128890000D02*
X163150000Y-128890000D01*
X163150000Y-119570000D02*
X169150000Y-119570000D01*
X163150000Y-122110000D02*
X169150000Y-122110000D01*
X163150000Y-124650000D02*
X169150000Y-124650000D01*
X163150000Y-127190000D02*
X169150000Y-127190000D01*
X163150000Y-129730000D02*
X169150000Y-129730000D01*
X169150000Y-119570000D02*
X169150000Y-120430000D01*
X169150000Y-120430000D02*
X163150000Y-120430000D01*
X169150000Y-122110000D02*
X169150000Y-122970000D01*
X169150000Y-122970000D02*
X163150000Y-122970000D01*
X169150000Y-124650000D02*
X169150000Y-125510000D01*
X169150000Y-125510000D02*
X163150000Y-125510000D01*
X169150000Y-127190000D02*
X169150000Y-128050000D01*
X169150000Y-128050000D02*
X163150000Y-128050000D01*
X169150000Y-129730000D02*
X169150000Y-130590000D01*
X169150000Y-130590000D02*
X163150000Y-130590000D01*
X160390000Y-116080000D02*
X163150000Y-116080000D01*
X163150000Y-131540000D01*
X160390000Y-131540000D01*
X160390000Y-116080000D01*
X163150000Y-117030000D02*
X169150000Y-117030000D01*
X169150000Y-117890000D01*
X163150000Y-117890000D01*
X163150000Y-117030000D01*
G36*
X163150000Y-117030000D02*
G01*
X169150000Y-117030000D01*
X169150000Y-117890000D01*
X163150000Y-117890000D01*
X163150000Y-117030000D01*
G37*
%TD*%
M02*
