%TF.GenerationSoftware,KiCad,Pcbnew,9.0.7*%
%TF.CreationDate,2026-07-27T16:20:29+02:00*%
%TF.ProjectId,INDIPI,494e4449-5049-42e6-9b69-6361645f7063,3*%
%TF.SameCoordinates,Original*%
%TF.FileFunction,Legend,Top*%
%TF.FilePolarity,Positive*%
%FSLAX46Y46*%
G04 Gerber Fmt 4.6, Leading zero omitted, Abs format (unit mm)*
G04 Created by KiCad (PCBNEW 9.0.7) date 2026-07-27 16:20:29*
%MOMM*%
%LPD*%
G01*
G04 APERTURE LIST*
%ADD10C,0.300000*%
%ADD11C,0.150000*%
%ADD12C,0.120000*%
%ADD13C,0.000000*%
G04 APERTURE END LIST*
D10*
X97483082Y-165957341D02*
X98197368Y-165957341D01*
X97340225Y-166385912D02*
X97840225Y-164885912D01*
X97840225Y-164885912D02*
X98340225Y-166385912D01*
X98840224Y-166385912D02*
X98840224Y-165385912D01*
X98840224Y-164885912D02*
X98768796Y-164957341D01*
X98768796Y-164957341D02*
X98840224Y-165028769D01*
X98840224Y-165028769D02*
X98911653Y-164957341D01*
X98911653Y-164957341D02*
X98840224Y-164885912D01*
X98840224Y-164885912D02*
X98840224Y-165028769D01*
X99340225Y-165385912D02*
X99911653Y-165385912D01*
X99554510Y-164885912D02*
X99554510Y-166171626D01*
X99554510Y-166171626D02*
X99625939Y-166314484D01*
X99625939Y-166314484D02*
X99768796Y-166385912D01*
X99768796Y-166385912D02*
X99911653Y-166385912D01*
X100268796Y-165385912D02*
X101054511Y-165385912D01*
X101054511Y-165385912D02*
X100268796Y-166385912D01*
X100268796Y-166385912D02*
X101054511Y-166385912D01*
X101840225Y-166385912D02*
X101697368Y-166314484D01*
X101697368Y-166314484D02*
X101625939Y-166243055D01*
X101625939Y-166243055D02*
X101554511Y-166100198D01*
X101554511Y-166100198D02*
X101554511Y-165671626D01*
X101554511Y-165671626D02*
X101625939Y-165528769D01*
X101625939Y-165528769D02*
X101697368Y-165457341D01*
X101697368Y-165457341D02*
X101840225Y-165385912D01*
X101840225Y-165385912D02*
X102054511Y-165385912D01*
X102054511Y-165385912D02*
X102197368Y-165457341D01*
X102197368Y-165457341D02*
X102268797Y-165528769D01*
X102268797Y-165528769D02*
X102340225Y-165671626D01*
X102340225Y-165671626D02*
X102340225Y-166100198D01*
X102340225Y-166100198D02*
X102268797Y-166243055D01*
X102268797Y-166243055D02*
X102197368Y-166314484D01*
X102197368Y-166314484D02*
X102054511Y-166385912D01*
X102054511Y-166385912D02*
X101840225Y-166385912D01*
X103197368Y-166385912D02*
X103054511Y-166314484D01*
X103054511Y-166314484D02*
X102983082Y-166171626D01*
X102983082Y-166171626D02*
X102983082Y-164885912D01*
X104911653Y-165600198D02*
X105411653Y-165600198D01*
X105625939Y-166385912D02*
X104911653Y-166385912D01*
X104911653Y-166385912D02*
X104911653Y-164885912D01*
X104911653Y-164885912D02*
X105625939Y-164885912D01*
X106125939Y-165385912D02*
X106911654Y-165385912D01*
X106911654Y-165385912D02*
X106125939Y-166385912D01*
X106125939Y-166385912D02*
X106911654Y-166385912D01*
X108054511Y-166314484D02*
X107911654Y-166385912D01*
X107911654Y-166385912D02*
X107625940Y-166385912D01*
X107625940Y-166385912D02*
X107483082Y-166314484D01*
X107483082Y-166314484D02*
X107411654Y-166171626D01*
X107411654Y-166171626D02*
X107411654Y-165600198D01*
X107411654Y-165600198D02*
X107483082Y-165457341D01*
X107483082Y-165457341D02*
X107625940Y-165385912D01*
X107625940Y-165385912D02*
X107911654Y-165385912D01*
X107911654Y-165385912D02*
X108054511Y-165457341D01*
X108054511Y-165457341D02*
X108125940Y-165600198D01*
X108125940Y-165600198D02*
X108125940Y-165743055D01*
X108125940Y-165743055D02*
X107411654Y-165885912D01*
X108768796Y-166385912D02*
X108768796Y-165385912D01*
X108768796Y-164885912D02*
X108697368Y-164957341D01*
X108697368Y-164957341D02*
X108768796Y-165028769D01*
X108768796Y-165028769D02*
X108840225Y-164957341D01*
X108840225Y-164957341D02*
X108768796Y-164885912D01*
X108768796Y-164885912D02*
X108768796Y-165028769D01*
X109340225Y-165385912D02*
X110125940Y-165385912D01*
X110125940Y-165385912D02*
X109340225Y-166385912D01*
X109340225Y-166385912D02*
X110125940Y-166385912D01*
X111340226Y-166385912D02*
X111340226Y-165600198D01*
X111340226Y-165600198D02*
X111268797Y-165457341D01*
X111268797Y-165457341D02*
X111125940Y-165385912D01*
X111125940Y-165385912D02*
X110840226Y-165385912D01*
X110840226Y-165385912D02*
X110697368Y-165457341D01*
X111340226Y-166314484D02*
X111197368Y-166385912D01*
X111197368Y-166385912D02*
X110840226Y-166385912D01*
X110840226Y-166385912D02*
X110697368Y-166314484D01*
X110697368Y-166314484D02*
X110625940Y-166171626D01*
X110625940Y-166171626D02*
X110625940Y-166028769D01*
X110625940Y-166028769D02*
X110697368Y-165885912D01*
X110697368Y-165885912D02*
X110840226Y-165814484D01*
X110840226Y-165814484D02*
X111197368Y-165814484D01*
X111197368Y-165814484D02*
X111340226Y-165743055D01*
X112125940Y-166314484D02*
X112125940Y-166385912D01*
X112125940Y-166385912D02*
X112054511Y-166528769D01*
X112054511Y-166528769D02*
X111983083Y-166600198D01*
X113911654Y-166385912D02*
X113911654Y-164885912D01*
X114625940Y-166385912D02*
X114625940Y-165385912D01*
X114625940Y-165528769D02*
X114697369Y-165457341D01*
X114697369Y-165457341D02*
X114840226Y-165385912D01*
X114840226Y-165385912D02*
X115054512Y-165385912D01*
X115054512Y-165385912D02*
X115197369Y-165457341D01*
X115197369Y-165457341D02*
X115268798Y-165600198D01*
X115268798Y-165600198D02*
X115268798Y-166385912D01*
X115268798Y-165600198D02*
X115340226Y-165457341D01*
X115340226Y-165457341D02*
X115483083Y-165385912D01*
X115483083Y-165385912D02*
X115697369Y-165385912D01*
X115697369Y-165385912D02*
X115840226Y-165457341D01*
X115840226Y-165457341D02*
X115911655Y-165600198D01*
X115911655Y-165600198D02*
X115911655Y-166385912D01*
X117268798Y-166385912D02*
X117268798Y-165600198D01*
X117268798Y-165600198D02*
X117197369Y-165457341D01*
X117197369Y-165457341D02*
X117054512Y-165385912D01*
X117054512Y-165385912D02*
X116768798Y-165385912D01*
X116768798Y-165385912D02*
X116625940Y-165457341D01*
X117268798Y-166314484D02*
X117125940Y-166385912D01*
X117125940Y-166385912D02*
X116768798Y-166385912D01*
X116768798Y-166385912D02*
X116625940Y-166314484D01*
X116625940Y-166314484D02*
X116554512Y-166171626D01*
X116554512Y-166171626D02*
X116554512Y-166028769D01*
X116554512Y-166028769D02*
X116625940Y-165885912D01*
X116625940Y-165885912D02*
X116768798Y-165814484D01*
X116768798Y-165814484D02*
X117125940Y-165814484D01*
X117125940Y-165814484D02*
X117268798Y-165743055D01*
X117983083Y-165385912D02*
X117983083Y-166385912D01*
X117983083Y-165528769D02*
X118054512Y-165457341D01*
X118054512Y-165457341D02*
X118197369Y-165385912D01*
X118197369Y-165385912D02*
X118411655Y-165385912D01*
X118411655Y-165385912D02*
X118554512Y-165457341D01*
X118554512Y-165457341D02*
X118625941Y-165600198D01*
X118625941Y-165600198D02*
X118625941Y-166385912D01*
X119554512Y-166385912D02*
X119411655Y-166314484D01*
X119411655Y-166314484D02*
X119340226Y-166243055D01*
X119340226Y-166243055D02*
X119268798Y-166100198D01*
X119268798Y-166100198D02*
X119268798Y-165671626D01*
X119268798Y-165671626D02*
X119340226Y-165528769D01*
X119340226Y-165528769D02*
X119411655Y-165457341D01*
X119411655Y-165457341D02*
X119554512Y-165385912D01*
X119554512Y-165385912D02*
X119768798Y-165385912D01*
X119768798Y-165385912D02*
X119911655Y-165457341D01*
X119911655Y-165457341D02*
X119983084Y-165528769D01*
X119983084Y-165528769D02*
X120054512Y-165671626D01*
X120054512Y-165671626D02*
X120054512Y-166100198D01*
X120054512Y-166100198D02*
X119983084Y-166243055D01*
X119983084Y-166243055D02*
X119911655Y-166314484D01*
X119911655Y-166314484D02*
X119768798Y-166385912D01*
X119768798Y-166385912D02*
X119554512Y-166385912D01*
X120911655Y-166385912D02*
X120768798Y-166314484D01*
X120768798Y-166314484D02*
X120697369Y-166171626D01*
X120697369Y-166171626D02*
X120697369Y-164885912D01*
X123125940Y-165600198D02*
X123340226Y-165671626D01*
X123340226Y-165671626D02*
X123411655Y-165743055D01*
X123411655Y-165743055D02*
X123483083Y-165885912D01*
X123483083Y-165885912D02*
X123483083Y-166100198D01*
X123483083Y-166100198D02*
X123411655Y-166243055D01*
X123411655Y-166243055D02*
X123340226Y-166314484D01*
X123340226Y-166314484D02*
X123197369Y-166385912D01*
X123197369Y-166385912D02*
X122625940Y-166385912D01*
X122625940Y-166385912D02*
X122625940Y-164885912D01*
X122625940Y-164885912D02*
X123125940Y-164885912D01*
X123125940Y-164885912D02*
X123268798Y-164957341D01*
X123268798Y-164957341D02*
X123340226Y-165028769D01*
X123340226Y-165028769D02*
X123411655Y-165171626D01*
X123411655Y-165171626D02*
X123411655Y-165314484D01*
X123411655Y-165314484D02*
X123340226Y-165457341D01*
X123340226Y-165457341D02*
X123268798Y-165528769D01*
X123268798Y-165528769D02*
X123125940Y-165600198D01*
X123125940Y-165600198D02*
X122625940Y-165600198D01*
X124768798Y-166385912D02*
X124768798Y-165600198D01*
X124768798Y-165600198D02*
X124697369Y-165457341D01*
X124697369Y-165457341D02*
X124554512Y-165385912D01*
X124554512Y-165385912D02*
X124268798Y-165385912D01*
X124268798Y-165385912D02*
X124125940Y-165457341D01*
X124768798Y-166314484D02*
X124625940Y-166385912D01*
X124625940Y-166385912D02*
X124268798Y-166385912D01*
X124268798Y-166385912D02*
X124125940Y-166314484D01*
X124125940Y-166314484D02*
X124054512Y-166171626D01*
X124054512Y-166171626D02*
X124054512Y-166028769D01*
X124054512Y-166028769D02*
X124125940Y-165885912D01*
X124125940Y-165885912D02*
X124268798Y-165814484D01*
X124268798Y-165814484D02*
X124625940Y-165814484D01*
X124625940Y-165814484D02*
X124768798Y-165743055D01*
X125483083Y-166385912D02*
X125483083Y-165385912D01*
X125483083Y-165671626D02*
X125554512Y-165528769D01*
X125554512Y-165528769D02*
X125625941Y-165457341D01*
X125625941Y-165457341D02*
X125768798Y-165385912D01*
X125768798Y-165385912D02*
X125911655Y-165385912D01*
X127054512Y-166385912D02*
X127054512Y-164885912D01*
X127054512Y-166314484D02*
X126911654Y-166385912D01*
X126911654Y-166385912D02*
X126625940Y-166385912D01*
X126625940Y-166385912D02*
X126483083Y-166314484D01*
X126483083Y-166314484D02*
X126411654Y-166243055D01*
X126411654Y-166243055D02*
X126340226Y-166100198D01*
X126340226Y-166100198D02*
X126340226Y-165671626D01*
X126340226Y-165671626D02*
X126411654Y-165528769D01*
X126411654Y-165528769D02*
X126483083Y-165457341D01*
X126483083Y-165457341D02*
X126625940Y-165385912D01*
X126625940Y-165385912D02*
X126911654Y-165385912D01*
X126911654Y-165385912D02*
X127054512Y-165457341D01*
X128411655Y-166385912D02*
X128411655Y-165600198D01*
X128411655Y-165600198D02*
X128340226Y-165457341D01*
X128340226Y-165457341D02*
X128197369Y-165385912D01*
X128197369Y-165385912D02*
X127911655Y-165385912D01*
X127911655Y-165385912D02*
X127768797Y-165457341D01*
X128411655Y-166314484D02*
X128268797Y-166385912D01*
X128268797Y-166385912D02*
X127911655Y-166385912D01*
X127911655Y-166385912D02*
X127768797Y-166314484D01*
X127768797Y-166314484D02*
X127697369Y-166171626D01*
X127697369Y-166171626D02*
X127697369Y-166028769D01*
X127697369Y-166028769D02*
X127768797Y-165885912D01*
X127768797Y-165885912D02*
X127911655Y-165814484D01*
X127911655Y-165814484D02*
X128268797Y-165814484D01*
X128268797Y-165814484D02*
X128411655Y-165743055D01*
X129125940Y-165385912D02*
X129125940Y-166671626D01*
X129125940Y-166671626D02*
X129054512Y-166814484D01*
X129054512Y-166814484D02*
X128911655Y-166885912D01*
X128911655Y-166885912D02*
X128840226Y-166885912D01*
X129125940Y-164885912D02*
X129054512Y-164957341D01*
X129054512Y-164957341D02*
X129125940Y-165028769D01*
X129125940Y-165028769D02*
X129197369Y-164957341D01*
X129197369Y-164957341D02*
X129125940Y-164885912D01*
X129125940Y-164885912D02*
X129125940Y-165028769D01*
X129840226Y-166385912D02*
X129840226Y-165385912D01*
X129840226Y-164885912D02*
X129768798Y-164957341D01*
X129768798Y-164957341D02*
X129840226Y-165028769D01*
X129840226Y-165028769D02*
X129911655Y-164957341D01*
X129911655Y-164957341D02*
X129840226Y-164885912D01*
X129840226Y-164885912D02*
X129840226Y-165028769D01*
X130625941Y-166314484D02*
X130625941Y-166385912D01*
X130625941Y-166385912D02*
X130554512Y-166528769D01*
X130554512Y-166528769D02*
X130483084Y-166600198D01*
X133054513Y-166385912D02*
X133054513Y-165600198D01*
X133054513Y-165600198D02*
X132983084Y-165457341D01*
X132983084Y-165457341D02*
X132840227Y-165385912D01*
X132840227Y-165385912D02*
X132554513Y-165385912D01*
X132554513Y-165385912D02*
X132411655Y-165457341D01*
X133054513Y-166314484D02*
X132911655Y-166385912D01*
X132911655Y-166385912D02*
X132554513Y-166385912D01*
X132554513Y-166385912D02*
X132411655Y-166314484D01*
X132411655Y-166314484D02*
X132340227Y-166171626D01*
X132340227Y-166171626D02*
X132340227Y-166028769D01*
X132340227Y-166028769D02*
X132411655Y-165885912D01*
X132411655Y-165885912D02*
X132554513Y-165814484D01*
X132554513Y-165814484D02*
X132911655Y-165814484D01*
X132911655Y-165814484D02*
X133054513Y-165743055D01*
X133768798Y-165385912D02*
X133768798Y-166385912D01*
X133768798Y-165528769D02*
X133840227Y-165457341D01*
X133840227Y-165457341D02*
X133983084Y-165385912D01*
X133983084Y-165385912D02*
X134197370Y-165385912D01*
X134197370Y-165385912D02*
X134340227Y-165457341D01*
X134340227Y-165457341D02*
X134411656Y-165600198D01*
X134411656Y-165600198D02*
X134411656Y-166385912D01*
X135768799Y-166385912D02*
X135768799Y-164885912D01*
X135768799Y-166314484D02*
X135625941Y-166385912D01*
X135625941Y-166385912D02*
X135340227Y-166385912D01*
X135340227Y-166385912D02*
X135197370Y-166314484D01*
X135197370Y-166314484D02*
X135125941Y-166243055D01*
X135125941Y-166243055D02*
X135054513Y-166100198D01*
X135054513Y-166100198D02*
X135054513Y-165671626D01*
X135054513Y-165671626D02*
X135125941Y-165528769D01*
X135125941Y-165528769D02*
X135197370Y-165457341D01*
X135197370Y-165457341D02*
X135340227Y-165385912D01*
X135340227Y-165385912D02*
X135625941Y-165385912D01*
X135625941Y-165385912D02*
X135768799Y-165457341D01*
X137625941Y-166385912D02*
X137625941Y-164885912D01*
X138483084Y-166385912D02*
X137840227Y-165528769D01*
X138483084Y-164885912D02*
X137625941Y-165743055D01*
X139768799Y-166385912D02*
X139768799Y-165600198D01*
X139768799Y-165600198D02*
X139697370Y-165457341D01*
X139697370Y-165457341D02*
X139554513Y-165385912D01*
X139554513Y-165385912D02*
X139268799Y-165385912D01*
X139268799Y-165385912D02*
X139125941Y-165457341D01*
X139768799Y-166314484D02*
X139625941Y-166385912D01*
X139625941Y-166385912D02*
X139268799Y-166385912D01*
X139268799Y-166385912D02*
X139125941Y-166314484D01*
X139125941Y-166314484D02*
X139054513Y-166171626D01*
X139054513Y-166171626D02*
X139054513Y-166028769D01*
X139054513Y-166028769D02*
X139125941Y-165885912D01*
X139125941Y-165885912D02*
X139268799Y-165814484D01*
X139268799Y-165814484D02*
X139625941Y-165814484D01*
X139625941Y-165814484D02*
X139768799Y-165743055D01*
X141125942Y-165385912D02*
X141125942Y-166385912D01*
X140483084Y-165385912D02*
X140483084Y-166171626D01*
X140483084Y-166171626D02*
X140554513Y-166314484D01*
X140554513Y-166314484D02*
X140697370Y-166385912D01*
X140697370Y-166385912D02*
X140911656Y-166385912D01*
X140911656Y-166385912D02*
X141054513Y-166314484D01*
X141054513Y-166314484D02*
X141125942Y-166243055D01*
X142054513Y-166385912D02*
X141911656Y-166314484D01*
X141911656Y-166314484D02*
X141840227Y-166171626D01*
X141840227Y-166171626D02*
X141840227Y-164885912D01*
X143268799Y-166385912D02*
X143268799Y-164885912D01*
X143268799Y-166314484D02*
X143125941Y-166385912D01*
X143125941Y-166385912D02*
X142840227Y-166385912D01*
X142840227Y-166385912D02*
X142697370Y-166314484D01*
X142697370Y-166314484D02*
X142625941Y-166243055D01*
X142625941Y-166243055D02*
X142554513Y-166100198D01*
X142554513Y-166100198D02*
X142554513Y-165671626D01*
X142554513Y-165671626D02*
X142625941Y-165528769D01*
X142625941Y-165528769D02*
X142697370Y-165457341D01*
X142697370Y-165457341D02*
X142840227Y-165385912D01*
X142840227Y-165385912D02*
X143125941Y-165385912D01*
X143125941Y-165385912D02*
X143268799Y-165457341D01*
X143983084Y-166385912D02*
X143983084Y-165385912D01*
X143983084Y-164885912D02*
X143911656Y-164957341D01*
X143911656Y-164957341D02*
X143983084Y-165028769D01*
X143983084Y-165028769D02*
X144054513Y-164957341D01*
X144054513Y-164957341D02*
X143983084Y-164885912D01*
X143983084Y-164885912D02*
X143983084Y-165028769D01*
X146125942Y-164885912D02*
X146411656Y-164885912D01*
X146411656Y-164885912D02*
X146554513Y-164957341D01*
X146554513Y-164957341D02*
X146697370Y-165100198D01*
X146697370Y-165100198D02*
X146768799Y-165385912D01*
X146768799Y-165385912D02*
X146768799Y-165885912D01*
X146768799Y-165885912D02*
X146697370Y-166171626D01*
X146697370Y-166171626D02*
X146554513Y-166314484D01*
X146554513Y-166314484D02*
X146411656Y-166385912D01*
X146411656Y-166385912D02*
X146125942Y-166385912D01*
X146125942Y-166385912D02*
X145983085Y-166314484D01*
X145983085Y-166314484D02*
X145840227Y-166171626D01*
X145840227Y-166171626D02*
X145768799Y-165885912D01*
X145768799Y-165885912D02*
X145768799Y-165385912D01*
X145768799Y-165385912D02*
X145840227Y-165100198D01*
X145840227Y-165100198D02*
X145983085Y-164957341D01*
X145983085Y-164957341D02*
X146125942Y-164885912D01*
X148054514Y-166385912D02*
X148054514Y-164885912D01*
X148054514Y-166314484D02*
X147911656Y-166385912D01*
X147911656Y-166385912D02*
X147625942Y-166385912D01*
X147625942Y-166385912D02*
X147483085Y-166314484D01*
X147483085Y-166314484D02*
X147411656Y-166243055D01*
X147411656Y-166243055D02*
X147340228Y-166100198D01*
X147340228Y-166100198D02*
X147340228Y-165671626D01*
X147340228Y-165671626D02*
X147411656Y-165528769D01*
X147411656Y-165528769D02*
X147483085Y-165457341D01*
X147483085Y-165457341D02*
X147625942Y-165385912D01*
X147625942Y-165385912D02*
X147911656Y-165385912D01*
X147911656Y-165385912D02*
X148054514Y-165457341D01*
X148768799Y-166385912D02*
X148768799Y-165385912D01*
X148768799Y-165671626D02*
X148840228Y-165528769D01*
X148840228Y-165528769D02*
X148911657Y-165457341D01*
X148911657Y-165457341D02*
X149054514Y-165385912D01*
X149054514Y-165385912D02*
X149197371Y-165385912D01*
X149697370Y-166385912D02*
X149697370Y-165385912D01*
X149697370Y-164885912D02*
X149625942Y-164957341D01*
X149625942Y-164957341D02*
X149697370Y-165028769D01*
X149697370Y-165028769D02*
X149768799Y-164957341D01*
X149768799Y-164957341D02*
X149697370Y-164885912D01*
X149697370Y-164885912D02*
X149697370Y-165028769D01*
X150625942Y-166385912D02*
X150483085Y-166314484D01*
X150483085Y-166314484D02*
X150411656Y-166243055D01*
X150411656Y-166243055D02*
X150340228Y-166100198D01*
X150340228Y-166100198D02*
X150340228Y-165671626D01*
X150340228Y-165671626D02*
X150411656Y-165528769D01*
X150411656Y-165528769D02*
X150483085Y-165457341D01*
X150483085Y-165457341D02*
X150625942Y-165385912D01*
X150625942Y-165385912D02*
X150840228Y-165385912D01*
X150840228Y-165385912D02*
X150983085Y-165457341D01*
X150983085Y-165457341D02*
X151054514Y-165528769D01*
X151054514Y-165528769D02*
X151125942Y-165671626D01*
X151125942Y-165671626D02*
X151125942Y-166100198D01*
X151125942Y-166100198D02*
X151054514Y-166243055D01*
X151054514Y-166243055D02*
X150983085Y-166314484D01*
X150983085Y-166314484D02*
X150840228Y-166385912D01*
X150840228Y-166385912D02*
X150625942Y-166385912D01*
X151625942Y-165385912D02*
X152411657Y-165385912D01*
X152411657Y-165385912D02*
X151625942Y-166385912D01*
X151625942Y-166385912D02*
X152411657Y-166385912D01*
X153197371Y-166385912D02*
X153054514Y-166314484D01*
X153054514Y-166314484D02*
X152983085Y-166243055D01*
X152983085Y-166243055D02*
X152911657Y-166100198D01*
X152911657Y-166100198D02*
X152911657Y-165671626D01*
X152911657Y-165671626D02*
X152983085Y-165528769D01*
X152983085Y-165528769D02*
X153054514Y-165457341D01*
X153054514Y-165457341D02*
X153197371Y-165385912D01*
X153197371Y-165385912D02*
X153411657Y-165385912D01*
X153411657Y-165385912D02*
X153554514Y-165457341D01*
X153554514Y-165457341D02*
X153625943Y-165528769D01*
X153625943Y-165528769D02*
X153697371Y-165671626D01*
X153697371Y-165671626D02*
X153697371Y-166100198D01*
X153697371Y-166100198D02*
X153625943Y-166243055D01*
X153625943Y-166243055D02*
X153554514Y-166314484D01*
X153554514Y-166314484D02*
X153411657Y-166385912D01*
X153411657Y-166385912D02*
X153197371Y-166385912D01*
X154554514Y-166385912D02*
X154411657Y-166314484D01*
X154411657Y-166314484D02*
X154340228Y-166171626D01*
X154340228Y-166171626D02*
X154340228Y-164885912D01*
X155768800Y-166385912D02*
X155768800Y-165600198D01*
X155768800Y-165600198D02*
X155697371Y-165457341D01*
X155697371Y-165457341D02*
X155554514Y-165385912D01*
X155554514Y-165385912D02*
X155268800Y-165385912D01*
X155268800Y-165385912D02*
X155125942Y-165457341D01*
X155768800Y-166314484D02*
X155625942Y-166385912D01*
X155625942Y-166385912D02*
X155268800Y-166385912D01*
X155268800Y-166385912D02*
X155125942Y-166314484D01*
X155125942Y-166314484D02*
X155054514Y-166171626D01*
X155054514Y-166171626D02*
X155054514Y-166028769D01*
X155054514Y-166028769D02*
X155125942Y-165885912D01*
X155125942Y-165885912D02*
X155268800Y-165814484D01*
X155268800Y-165814484D02*
X155625942Y-165814484D01*
X155625942Y-165814484D02*
X155768800Y-165743055D01*
X98411653Y-168800828D02*
X97911653Y-168086542D01*
X97554510Y-168800828D02*
X97554510Y-167300828D01*
X97554510Y-167300828D02*
X98125939Y-167300828D01*
X98125939Y-167300828D02*
X98268796Y-167372257D01*
X98268796Y-167372257D02*
X98340225Y-167443685D01*
X98340225Y-167443685D02*
X98411653Y-167586542D01*
X98411653Y-167586542D02*
X98411653Y-167800828D01*
X98411653Y-167800828D02*
X98340225Y-167943685D01*
X98340225Y-167943685D02*
X98268796Y-168015114D01*
X98268796Y-168015114D02*
X98125939Y-168086542D01*
X98125939Y-168086542D02*
X97554510Y-168086542D01*
X99625939Y-168729400D02*
X99483082Y-168800828D01*
X99483082Y-168800828D02*
X99197368Y-168800828D01*
X99197368Y-168800828D02*
X99054510Y-168729400D01*
X99054510Y-168729400D02*
X98983082Y-168586542D01*
X98983082Y-168586542D02*
X98983082Y-168015114D01*
X98983082Y-168015114D02*
X99054510Y-167872257D01*
X99054510Y-167872257D02*
X99197368Y-167800828D01*
X99197368Y-167800828D02*
X99483082Y-167800828D01*
X99483082Y-167800828D02*
X99625939Y-167872257D01*
X99625939Y-167872257D02*
X99697368Y-168015114D01*
X99697368Y-168015114D02*
X99697368Y-168157971D01*
X99697368Y-168157971D02*
X98983082Y-168300828D01*
X100197367Y-167800828D02*
X100554510Y-168800828D01*
X100554510Y-168800828D02*
X100911653Y-167800828D01*
X101340224Y-167300828D02*
X102268796Y-167300828D01*
X102268796Y-167300828D02*
X101768796Y-167872257D01*
X101768796Y-167872257D02*
X101983081Y-167872257D01*
X101983081Y-167872257D02*
X102125939Y-167943685D01*
X102125939Y-167943685D02*
X102197367Y-168015114D01*
X102197367Y-168015114D02*
X102268796Y-168157971D01*
X102268796Y-168157971D02*
X102268796Y-168515114D01*
X102268796Y-168515114D02*
X102197367Y-168657971D01*
X102197367Y-168657971D02*
X102125939Y-168729400D01*
X102125939Y-168729400D02*
X101983081Y-168800828D01*
X101983081Y-168800828D02*
X101554510Y-168800828D01*
X101554510Y-168800828D02*
X101411653Y-168729400D01*
X101411653Y-168729400D02*
X101340224Y-168657971D01*
X104054509Y-168229400D02*
X105197367Y-168229400D01*
X106983081Y-167443685D02*
X107054509Y-167372257D01*
X107054509Y-167372257D02*
X107197367Y-167300828D01*
X107197367Y-167300828D02*
X107554509Y-167300828D01*
X107554509Y-167300828D02*
X107697367Y-167372257D01*
X107697367Y-167372257D02*
X107768795Y-167443685D01*
X107768795Y-167443685D02*
X107840224Y-167586542D01*
X107840224Y-167586542D02*
X107840224Y-167729400D01*
X107840224Y-167729400D02*
X107768795Y-167943685D01*
X107768795Y-167943685D02*
X106911652Y-168800828D01*
X106911652Y-168800828D02*
X107840224Y-168800828D01*
X108768795Y-167300828D02*
X108911652Y-167300828D01*
X108911652Y-167300828D02*
X109054509Y-167372257D01*
X109054509Y-167372257D02*
X109125938Y-167443685D01*
X109125938Y-167443685D02*
X109197366Y-167586542D01*
X109197366Y-167586542D02*
X109268795Y-167872257D01*
X109268795Y-167872257D02*
X109268795Y-168229400D01*
X109268795Y-168229400D02*
X109197366Y-168515114D01*
X109197366Y-168515114D02*
X109125938Y-168657971D01*
X109125938Y-168657971D02*
X109054509Y-168729400D01*
X109054509Y-168729400D02*
X108911652Y-168800828D01*
X108911652Y-168800828D02*
X108768795Y-168800828D01*
X108768795Y-168800828D02*
X108625938Y-168729400D01*
X108625938Y-168729400D02*
X108554509Y-168657971D01*
X108554509Y-168657971D02*
X108483080Y-168515114D01*
X108483080Y-168515114D02*
X108411652Y-168229400D01*
X108411652Y-168229400D02*
X108411652Y-167872257D01*
X108411652Y-167872257D02*
X108483080Y-167586542D01*
X108483080Y-167586542D02*
X108554509Y-167443685D01*
X108554509Y-167443685D02*
X108625938Y-167372257D01*
X108625938Y-167372257D02*
X108768795Y-167300828D01*
X109840223Y-167443685D02*
X109911651Y-167372257D01*
X109911651Y-167372257D02*
X110054509Y-167300828D01*
X110054509Y-167300828D02*
X110411651Y-167300828D01*
X110411651Y-167300828D02*
X110554509Y-167372257D01*
X110554509Y-167372257D02*
X110625937Y-167443685D01*
X110625937Y-167443685D02*
X110697366Y-167586542D01*
X110697366Y-167586542D02*
X110697366Y-167729400D01*
X110697366Y-167729400D02*
X110625937Y-167943685D01*
X110625937Y-167943685D02*
X109768794Y-168800828D01*
X109768794Y-168800828D02*
X110697366Y-168800828D01*
X111983080Y-167300828D02*
X111697365Y-167300828D01*
X111697365Y-167300828D02*
X111554508Y-167372257D01*
X111554508Y-167372257D02*
X111483080Y-167443685D01*
X111483080Y-167443685D02*
X111340222Y-167657971D01*
X111340222Y-167657971D02*
X111268794Y-167943685D01*
X111268794Y-167943685D02*
X111268794Y-168515114D01*
X111268794Y-168515114D02*
X111340222Y-168657971D01*
X111340222Y-168657971D02*
X111411651Y-168729400D01*
X111411651Y-168729400D02*
X111554508Y-168800828D01*
X111554508Y-168800828D02*
X111840222Y-168800828D01*
X111840222Y-168800828D02*
X111983080Y-168729400D01*
X111983080Y-168729400D02*
X112054508Y-168657971D01*
X112054508Y-168657971D02*
X112125937Y-168515114D01*
X112125937Y-168515114D02*
X112125937Y-168157971D01*
X112125937Y-168157971D02*
X112054508Y-168015114D01*
X112054508Y-168015114D02*
X111983080Y-167943685D01*
X111983080Y-167943685D02*
X111840222Y-167872257D01*
X111840222Y-167872257D02*
X111554508Y-167872257D01*
X111554508Y-167872257D02*
X111411651Y-167943685D01*
X111411651Y-167943685D02*
X111340222Y-168015114D01*
X111340222Y-168015114D02*
X111268794Y-168157971D01*
X113911650Y-168229400D02*
X115054508Y-168229400D01*
X116911650Y-167300828D02*
X116911650Y-168515114D01*
X116911650Y-168515114D02*
X116983079Y-168657971D01*
X116983079Y-168657971D02*
X117054508Y-168729400D01*
X117054508Y-168729400D02*
X117197365Y-168800828D01*
X117197365Y-168800828D02*
X117483079Y-168800828D01*
X117483079Y-168800828D02*
X117625936Y-168729400D01*
X117625936Y-168729400D02*
X117697365Y-168657971D01*
X117697365Y-168657971D02*
X117768793Y-168515114D01*
X117768793Y-168515114D02*
X117768793Y-167300828D01*
X118483079Y-167800828D02*
X118483079Y-168800828D01*
X118483079Y-167943685D02*
X118554508Y-167872257D01*
X118554508Y-167872257D02*
X118697365Y-167800828D01*
X118697365Y-167800828D02*
X118911651Y-167800828D01*
X118911651Y-167800828D02*
X119054508Y-167872257D01*
X119054508Y-167872257D02*
X119125937Y-168015114D01*
X119125937Y-168015114D02*
X119125937Y-168800828D01*
X119840222Y-168800828D02*
X119840222Y-167800828D01*
X119840222Y-167300828D02*
X119768794Y-167372257D01*
X119768794Y-167372257D02*
X119840222Y-167443685D01*
X119840222Y-167443685D02*
X119911651Y-167372257D01*
X119911651Y-167372257D02*
X119840222Y-167300828D01*
X119840222Y-167300828D02*
X119840222Y-167443685D01*
X120411651Y-167800828D02*
X120768794Y-168800828D01*
X120768794Y-168800828D02*
X121125937Y-167800828D01*
X122268794Y-168729400D02*
X122125937Y-168800828D01*
X122125937Y-168800828D02*
X121840223Y-168800828D01*
X121840223Y-168800828D02*
X121697365Y-168729400D01*
X121697365Y-168729400D02*
X121625937Y-168586542D01*
X121625937Y-168586542D02*
X121625937Y-168015114D01*
X121625937Y-168015114D02*
X121697365Y-167872257D01*
X121697365Y-167872257D02*
X121840223Y-167800828D01*
X121840223Y-167800828D02*
X122125937Y-167800828D01*
X122125937Y-167800828D02*
X122268794Y-167872257D01*
X122268794Y-167872257D02*
X122340223Y-168015114D01*
X122340223Y-168015114D02*
X122340223Y-168157971D01*
X122340223Y-168157971D02*
X121625937Y-168300828D01*
X122983079Y-168800828D02*
X122983079Y-167800828D01*
X122983079Y-168086542D02*
X123054508Y-167943685D01*
X123054508Y-167943685D02*
X123125937Y-167872257D01*
X123125937Y-167872257D02*
X123268794Y-167800828D01*
X123268794Y-167800828D02*
X123411651Y-167800828D01*
X123840222Y-168729400D02*
X123983079Y-168800828D01*
X123983079Y-168800828D02*
X124268793Y-168800828D01*
X124268793Y-168800828D02*
X124411650Y-168729400D01*
X124411650Y-168729400D02*
X124483079Y-168586542D01*
X124483079Y-168586542D02*
X124483079Y-168515114D01*
X124483079Y-168515114D02*
X124411650Y-168372257D01*
X124411650Y-168372257D02*
X124268793Y-168300828D01*
X124268793Y-168300828D02*
X124054508Y-168300828D01*
X124054508Y-168300828D02*
X123911650Y-168229400D01*
X123911650Y-168229400D02*
X123840222Y-168086542D01*
X123840222Y-168086542D02*
X123840222Y-168015114D01*
X123840222Y-168015114D02*
X123911650Y-167872257D01*
X123911650Y-167872257D02*
X124054508Y-167800828D01*
X124054508Y-167800828D02*
X124268793Y-167800828D01*
X124268793Y-167800828D02*
X124411650Y-167872257D01*
X125125936Y-168800828D02*
X125125936Y-167800828D01*
X125125936Y-167300828D02*
X125054508Y-167372257D01*
X125054508Y-167372257D02*
X125125936Y-167443685D01*
X125125936Y-167443685D02*
X125197365Y-167372257D01*
X125197365Y-167372257D02*
X125125936Y-167300828D01*
X125125936Y-167300828D02*
X125125936Y-167443685D01*
X125625937Y-167800828D02*
X126197365Y-167800828D01*
X125840222Y-167300828D02*
X125840222Y-168586542D01*
X125840222Y-168586542D02*
X125911651Y-168729400D01*
X125911651Y-168729400D02*
X126054508Y-168800828D01*
X126054508Y-168800828D02*
X126197365Y-168800828D01*
X126554508Y-167800828D02*
X126911651Y-168800828D01*
X127268794Y-167800828D02*
X126911651Y-168800828D01*
X126911651Y-168800828D02*
X126768794Y-169157971D01*
X126768794Y-169157971D02*
X126697365Y-169229400D01*
X126697365Y-169229400D02*
X126554508Y-169300828D01*
X129197365Y-168800828D02*
X129054508Y-168729400D01*
X129054508Y-168729400D02*
X128983079Y-168657971D01*
X128983079Y-168657971D02*
X128911651Y-168515114D01*
X128911651Y-168515114D02*
X128911651Y-168086542D01*
X128911651Y-168086542D02*
X128983079Y-167943685D01*
X128983079Y-167943685D02*
X129054508Y-167872257D01*
X129054508Y-167872257D02*
X129197365Y-167800828D01*
X129197365Y-167800828D02*
X129411651Y-167800828D01*
X129411651Y-167800828D02*
X129554508Y-167872257D01*
X129554508Y-167872257D02*
X129625937Y-167943685D01*
X129625937Y-167943685D02*
X129697365Y-168086542D01*
X129697365Y-168086542D02*
X129697365Y-168515114D01*
X129697365Y-168515114D02*
X129625937Y-168657971D01*
X129625937Y-168657971D02*
X129554508Y-168729400D01*
X129554508Y-168729400D02*
X129411651Y-168800828D01*
X129411651Y-168800828D02*
X129197365Y-168800828D01*
X130125937Y-167800828D02*
X130697365Y-167800828D01*
X130340222Y-168800828D02*
X130340222Y-167515114D01*
X130340222Y-167515114D02*
X130411651Y-167372257D01*
X130411651Y-167372257D02*
X130554508Y-167300828D01*
X130554508Y-167300828D02*
X130697365Y-167300828D01*
X132125937Y-167800828D02*
X132697365Y-167800828D01*
X132340222Y-167300828D02*
X132340222Y-168586542D01*
X132340222Y-168586542D02*
X132411651Y-168729400D01*
X132411651Y-168729400D02*
X132554508Y-168800828D01*
X132554508Y-168800828D02*
X132697365Y-168800828D01*
X133197365Y-168800828D02*
X133197365Y-167300828D01*
X133840223Y-168800828D02*
X133840223Y-168015114D01*
X133840223Y-168015114D02*
X133768794Y-167872257D01*
X133768794Y-167872257D02*
X133625937Y-167800828D01*
X133625937Y-167800828D02*
X133411651Y-167800828D01*
X133411651Y-167800828D02*
X133268794Y-167872257D01*
X133268794Y-167872257D02*
X133197365Y-167943685D01*
X135125937Y-168729400D02*
X134983080Y-168800828D01*
X134983080Y-168800828D02*
X134697366Y-168800828D01*
X134697366Y-168800828D02*
X134554508Y-168729400D01*
X134554508Y-168729400D02*
X134483080Y-168586542D01*
X134483080Y-168586542D02*
X134483080Y-168015114D01*
X134483080Y-168015114D02*
X134554508Y-167872257D01*
X134554508Y-167872257D02*
X134697366Y-167800828D01*
X134697366Y-167800828D02*
X134983080Y-167800828D01*
X134983080Y-167800828D02*
X135125937Y-167872257D01*
X135125937Y-167872257D02*
X135197366Y-168015114D01*
X135197366Y-168015114D02*
X135197366Y-168157971D01*
X135197366Y-168157971D02*
X134483080Y-168300828D01*
X137483079Y-168015114D02*
X137697365Y-168086542D01*
X137697365Y-168086542D02*
X137768794Y-168157971D01*
X137768794Y-168157971D02*
X137840222Y-168300828D01*
X137840222Y-168300828D02*
X137840222Y-168515114D01*
X137840222Y-168515114D02*
X137768794Y-168657971D01*
X137768794Y-168657971D02*
X137697365Y-168729400D01*
X137697365Y-168729400D02*
X137554508Y-168800828D01*
X137554508Y-168800828D02*
X136983079Y-168800828D01*
X136983079Y-168800828D02*
X136983079Y-167300828D01*
X136983079Y-167300828D02*
X137483079Y-167300828D01*
X137483079Y-167300828D02*
X137625937Y-167372257D01*
X137625937Y-167372257D02*
X137697365Y-167443685D01*
X137697365Y-167443685D02*
X137768794Y-167586542D01*
X137768794Y-167586542D02*
X137768794Y-167729400D01*
X137768794Y-167729400D02*
X137697365Y-167872257D01*
X137697365Y-167872257D02*
X137625937Y-167943685D01*
X137625937Y-167943685D02*
X137483079Y-168015114D01*
X137483079Y-168015114D02*
X136983079Y-168015114D01*
X139125937Y-168800828D02*
X139125937Y-168015114D01*
X139125937Y-168015114D02*
X139054508Y-167872257D01*
X139054508Y-167872257D02*
X138911651Y-167800828D01*
X138911651Y-167800828D02*
X138625937Y-167800828D01*
X138625937Y-167800828D02*
X138483079Y-167872257D01*
X139125937Y-168729400D02*
X138983079Y-168800828D01*
X138983079Y-168800828D02*
X138625937Y-168800828D01*
X138625937Y-168800828D02*
X138483079Y-168729400D01*
X138483079Y-168729400D02*
X138411651Y-168586542D01*
X138411651Y-168586542D02*
X138411651Y-168443685D01*
X138411651Y-168443685D02*
X138483079Y-168300828D01*
X138483079Y-168300828D02*
X138625937Y-168229400D01*
X138625937Y-168229400D02*
X138983079Y-168229400D01*
X138983079Y-168229400D02*
X139125937Y-168157971D01*
X139768794Y-168729400D02*
X139911651Y-168800828D01*
X139911651Y-168800828D02*
X140197365Y-168800828D01*
X140197365Y-168800828D02*
X140340222Y-168729400D01*
X140340222Y-168729400D02*
X140411651Y-168586542D01*
X140411651Y-168586542D02*
X140411651Y-168515114D01*
X140411651Y-168515114D02*
X140340222Y-168372257D01*
X140340222Y-168372257D02*
X140197365Y-168300828D01*
X140197365Y-168300828D02*
X139983080Y-168300828D01*
X139983080Y-168300828D02*
X139840222Y-168229400D01*
X139840222Y-168229400D02*
X139768794Y-168086542D01*
X139768794Y-168086542D02*
X139768794Y-168015114D01*
X139768794Y-168015114D02*
X139840222Y-167872257D01*
X139840222Y-167872257D02*
X139983080Y-167800828D01*
X139983080Y-167800828D02*
X140197365Y-167800828D01*
X140197365Y-167800828D02*
X140340222Y-167872257D01*
X141697366Y-167800828D02*
X141697366Y-169300828D01*
X141697366Y-168729400D02*
X141554508Y-168800828D01*
X141554508Y-168800828D02*
X141268794Y-168800828D01*
X141268794Y-168800828D02*
X141125937Y-168729400D01*
X141125937Y-168729400D02*
X141054508Y-168657971D01*
X141054508Y-168657971D02*
X140983080Y-168515114D01*
X140983080Y-168515114D02*
X140983080Y-168086542D01*
X140983080Y-168086542D02*
X141054508Y-167943685D01*
X141054508Y-167943685D02*
X141125937Y-167872257D01*
X141125937Y-167872257D02*
X141268794Y-167800828D01*
X141268794Y-167800828D02*
X141554508Y-167800828D01*
X141554508Y-167800828D02*
X141697366Y-167872257D01*
X143054509Y-167800828D02*
X143054509Y-168800828D01*
X142411651Y-167800828D02*
X142411651Y-168586542D01*
X142411651Y-168586542D02*
X142483080Y-168729400D01*
X142483080Y-168729400D02*
X142625937Y-168800828D01*
X142625937Y-168800828D02*
X142840223Y-168800828D01*
X142840223Y-168800828D02*
X142983080Y-168729400D01*
X142983080Y-168729400D02*
X143054509Y-168657971D01*
X144340223Y-168729400D02*
X144197366Y-168800828D01*
X144197366Y-168800828D02*
X143911652Y-168800828D01*
X143911652Y-168800828D02*
X143768794Y-168729400D01*
X143768794Y-168729400D02*
X143697366Y-168586542D01*
X143697366Y-168586542D02*
X143697366Y-168015114D01*
X143697366Y-168015114D02*
X143768794Y-167872257D01*
X143768794Y-167872257D02*
X143911652Y-167800828D01*
X143911652Y-167800828D02*
X144197366Y-167800828D01*
X144197366Y-167800828D02*
X144340223Y-167872257D01*
X144340223Y-167872257D02*
X144411652Y-168015114D01*
X144411652Y-168015114D02*
X144411652Y-168157971D01*
X144411652Y-168157971D02*
X143697366Y-168300828D01*
X147054508Y-168657971D02*
X146983080Y-168729400D01*
X146983080Y-168729400D02*
X146768794Y-168800828D01*
X146768794Y-168800828D02*
X146625937Y-168800828D01*
X146625937Y-168800828D02*
X146411651Y-168729400D01*
X146411651Y-168729400D02*
X146268794Y-168586542D01*
X146268794Y-168586542D02*
X146197365Y-168443685D01*
X146197365Y-168443685D02*
X146125937Y-168157971D01*
X146125937Y-168157971D02*
X146125937Y-167943685D01*
X146125937Y-167943685D02*
X146197365Y-167657971D01*
X146197365Y-167657971D02*
X146268794Y-167515114D01*
X146268794Y-167515114D02*
X146411651Y-167372257D01*
X146411651Y-167372257D02*
X146625937Y-167300828D01*
X146625937Y-167300828D02*
X146768794Y-167300828D01*
X146768794Y-167300828D02*
X146983080Y-167372257D01*
X146983080Y-167372257D02*
X147054508Y-167443685D01*
X147911651Y-168800828D02*
X147768794Y-168729400D01*
X147768794Y-168729400D02*
X147697365Y-168657971D01*
X147697365Y-168657971D02*
X147625937Y-168515114D01*
X147625937Y-168515114D02*
X147625937Y-168086542D01*
X147625937Y-168086542D02*
X147697365Y-167943685D01*
X147697365Y-167943685D02*
X147768794Y-167872257D01*
X147768794Y-167872257D02*
X147911651Y-167800828D01*
X147911651Y-167800828D02*
X148125937Y-167800828D01*
X148125937Y-167800828D02*
X148268794Y-167872257D01*
X148268794Y-167872257D02*
X148340223Y-167943685D01*
X148340223Y-167943685D02*
X148411651Y-168086542D01*
X148411651Y-168086542D02*
X148411651Y-168515114D01*
X148411651Y-168515114D02*
X148340223Y-168657971D01*
X148340223Y-168657971D02*
X148268794Y-168729400D01*
X148268794Y-168729400D02*
X148125937Y-168800828D01*
X148125937Y-168800828D02*
X147911651Y-168800828D01*
X149697366Y-167800828D02*
X149697366Y-168800828D01*
X149054508Y-167800828D02*
X149054508Y-168586542D01*
X149054508Y-168586542D02*
X149125937Y-168729400D01*
X149125937Y-168729400D02*
X149268794Y-168800828D01*
X149268794Y-168800828D02*
X149483080Y-168800828D01*
X149483080Y-168800828D02*
X149625937Y-168729400D01*
X149625937Y-168729400D02*
X149697366Y-168657971D01*
X150411651Y-167800828D02*
X150411651Y-168800828D01*
X150411651Y-167943685D02*
X150483080Y-167872257D01*
X150483080Y-167872257D02*
X150625937Y-167800828D01*
X150625937Y-167800828D02*
X150840223Y-167800828D01*
X150840223Y-167800828D02*
X150983080Y-167872257D01*
X150983080Y-167872257D02*
X151054509Y-168015114D01*
X151054509Y-168015114D02*
X151054509Y-168800828D01*
X151554509Y-167800828D02*
X152125937Y-167800828D01*
X151768794Y-167300828D02*
X151768794Y-168586542D01*
X151768794Y-168586542D02*
X151840223Y-168729400D01*
X151840223Y-168729400D02*
X151983080Y-168800828D01*
X151983080Y-168800828D02*
X152125937Y-168800828D01*
X152625937Y-168800828D02*
X152625937Y-167800828D01*
X152625937Y-168086542D02*
X152697366Y-167943685D01*
X152697366Y-167943685D02*
X152768795Y-167872257D01*
X152768795Y-167872257D02*
X152911652Y-167800828D01*
X152911652Y-167800828D02*
X153054509Y-167800828D01*
X153411651Y-167800828D02*
X153768794Y-168800828D01*
X154125937Y-167800828D02*
X153768794Y-168800828D01*
X153768794Y-168800828D02*
X153625937Y-169157971D01*
X153625937Y-169157971D02*
X153554508Y-169229400D01*
X153554508Y-169229400D02*
X153411651Y-169300828D01*
X155840222Y-168015114D02*
X156340222Y-168015114D01*
X156554508Y-168800828D02*
X155840222Y-168800828D01*
X155840222Y-168800828D02*
X155840222Y-167300828D01*
X155840222Y-167300828D02*
X156554508Y-167300828D01*
X157197365Y-168800828D02*
X157197365Y-167300828D01*
X157197365Y-168015114D02*
X158054508Y-168015114D01*
X158054508Y-168800828D02*
X158054508Y-167300828D01*
X158768794Y-167300828D02*
X158768794Y-168515114D01*
X158768794Y-168515114D02*
X158840223Y-168657971D01*
X158840223Y-168657971D02*
X158911652Y-168729400D01*
X158911652Y-168729400D02*
X159054509Y-168800828D01*
X159054509Y-168800828D02*
X159340223Y-168800828D01*
X159340223Y-168800828D02*
X159483080Y-168729400D01*
X159483080Y-168729400D02*
X159554509Y-168657971D01*
X159554509Y-168657971D02*
X159625937Y-168515114D01*
X159625937Y-168515114D02*
X159625937Y-167300828D01*
D11*
X119666666Y-116604819D02*
X119666666Y-117319104D01*
X119666666Y-117319104D02*
X119619047Y-117461961D01*
X119619047Y-117461961D02*
X119523809Y-117557200D01*
X119523809Y-117557200D02*
X119380952Y-117604819D01*
X119380952Y-117604819D02*
X119285714Y-117604819D01*
X120666666Y-117604819D02*
X120095238Y-117604819D01*
X120380952Y-117604819D02*
X120380952Y-116604819D01*
X120380952Y-116604819D02*
X120285714Y-116747676D01*
X120285714Y-116747676D02*
X120190476Y-116842914D01*
X120190476Y-116842914D02*
X120095238Y-116890533D01*
X51534819Y-129063333D02*
X52249104Y-129063333D01*
X52249104Y-129063333D02*
X52391961Y-129110952D01*
X52391961Y-129110952D02*
X52487200Y-129206190D01*
X52487200Y-129206190D02*
X52534819Y-129349047D01*
X52534819Y-129349047D02*
X52534819Y-129444285D01*
X51630057Y-128634761D02*
X51582438Y-128587142D01*
X51582438Y-128587142D02*
X51534819Y-128491904D01*
X51534819Y-128491904D02*
X51534819Y-128253809D01*
X51534819Y-128253809D02*
X51582438Y-128158571D01*
X51582438Y-128158571D02*
X51630057Y-128110952D01*
X51630057Y-128110952D02*
X51725295Y-128063333D01*
X51725295Y-128063333D02*
X51820533Y-128063333D01*
X51820533Y-128063333D02*
X51963390Y-128110952D01*
X51963390Y-128110952D02*
X52534819Y-128682380D01*
X52534819Y-128682380D02*
X52534819Y-128063333D01*
X161861666Y-47024819D02*
X161861666Y-47739104D01*
X161861666Y-47739104D02*
X161814047Y-47881961D01*
X161814047Y-47881961D02*
X161718809Y-47977200D01*
X161718809Y-47977200D02*
X161575952Y-48024819D01*
X161575952Y-48024819D02*
X161480714Y-48024819D01*
X162242619Y-47024819D02*
X162861666Y-47024819D01*
X162861666Y-47024819D02*
X162528333Y-47405771D01*
X162528333Y-47405771D02*
X162671190Y-47405771D01*
X162671190Y-47405771D02*
X162766428Y-47453390D01*
X162766428Y-47453390D02*
X162814047Y-47501009D01*
X162814047Y-47501009D02*
X162861666Y-47596247D01*
X162861666Y-47596247D02*
X162861666Y-47834342D01*
X162861666Y-47834342D02*
X162814047Y-47929580D01*
X162814047Y-47929580D02*
X162766428Y-47977200D01*
X162766428Y-47977200D02*
X162671190Y-48024819D01*
X162671190Y-48024819D02*
X162385476Y-48024819D01*
X162385476Y-48024819D02*
X162290238Y-47977200D01*
X162290238Y-47977200D02*
X162242619Y-47929580D01*
X65050476Y-153454819D02*
X65050476Y-154169104D01*
X65050476Y-154169104D02*
X65002857Y-154311961D01*
X65002857Y-154311961D02*
X64907619Y-154407200D01*
X64907619Y-154407200D02*
X64764762Y-154454819D01*
X64764762Y-154454819D02*
X64669524Y-154454819D01*
X66050476Y-154454819D02*
X65479048Y-154454819D01*
X65764762Y-154454819D02*
X65764762Y-153454819D01*
X65764762Y-153454819D02*
X65669524Y-153597676D01*
X65669524Y-153597676D02*
X65574286Y-153692914D01*
X65574286Y-153692914D02*
X65479048Y-153740533D01*
X66907619Y-153454819D02*
X66717143Y-153454819D01*
X66717143Y-153454819D02*
X66621905Y-153502438D01*
X66621905Y-153502438D02*
X66574286Y-153550057D01*
X66574286Y-153550057D02*
X66479048Y-153692914D01*
X66479048Y-153692914D02*
X66431429Y-153883390D01*
X66431429Y-153883390D02*
X66431429Y-154264342D01*
X66431429Y-154264342D02*
X66479048Y-154359580D01*
X66479048Y-154359580D02*
X66526667Y-154407200D01*
X66526667Y-154407200D02*
X66621905Y-154454819D01*
X66621905Y-154454819D02*
X66812381Y-154454819D01*
X66812381Y-154454819D02*
X66907619Y-154407200D01*
X66907619Y-154407200D02*
X66955238Y-154359580D01*
X66955238Y-154359580D02*
X67002857Y-154264342D01*
X67002857Y-154264342D02*
X67002857Y-154026247D01*
X67002857Y-154026247D02*
X66955238Y-153931009D01*
X66955238Y-153931009D02*
X66907619Y-153883390D01*
X66907619Y-153883390D02*
X66812381Y-153835771D01*
X66812381Y-153835771D02*
X66621905Y-153835771D01*
X66621905Y-153835771D02*
X66526667Y-153883390D01*
X66526667Y-153883390D02*
X66479048Y-153931009D01*
X66479048Y-153931009D02*
X66431429Y-154026247D01*
X161781666Y-114644819D02*
X161781666Y-115359104D01*
X161781666Y-115359104D02*
X161734047Y-115501961D01*
X161734047Y-115501961D02*
X161638809Y-115597200D01*
X161638809Y-115597200D02*
X161495952Y-115644819D01*
X161495952Y-115644819D02*
X161400714Y-115644819D01*
X162686428Y-114978152D02*
X162686428Y-115644819D01*
X162448333Y-114597200D02*
X162210238Y-115311485D01*
X162210238Y-115311485D02*
X162829285Y-115311485D01*
D12*
%TO.C,J1*%
X118670000Y-121190000D02*
X118670000Y-144110000D01*
X118670000Y-121190000D02*
X121330000Y-121190000D01*
X118670000Y-144110000D02*
X121330000Y-144110000D01*
X120000000Y-118590000D02*
X121330000Y-118590000D01*
X121330000Y-118590000D02*
X121330000Y-119920000D01*
X121330000Y-121190000D02*
X121330000Y-144110000D01*
%TO.C,J2*%
X53080000Y-126080000D02*
X104100000Y-126080000D01*
X53080000Y-128730000D02*
X53080000Y-126080000D01*
X53080000Y-131380000D02*
X53080000Y-130000000D01*
X54460000Y-131380000D02*
X53080000Y-131380000D01*
X55730000Y-128730000D02*
X53080000Y-128730000D01*
X55730000Y-131380000D02*
X55730000Y-128730000D01*
X55730000Y-131380000D02*
X104100000Y-131380000D01*
X104100000Y-131380000D02*
X104100000Y-126080000D01*
%TO.C,J3*%
X155270000Y-48570000D02*
X156540000Y-48570000D01*
X155270000Y-49840000D02*
X155270000Y-48570000D01*
X157617358Y-51950000D02*
X158002642Y-51950000D01*
X157617358Y-52810000D02*
X158002642Y-52810000D01*
X157617358Y-54490000D02*
X158002642Y-54490000D01*
X157617358Y-55350000D02*
X158002642Y-55350000D01*
X157617358Y-57030000D02*
X158002642Y-57030000D01*
X157617358Y-57890000D02*
X158002642Y-57890000D01*
X157617358Y-59570000D02*
X158002642Y-59570000D01*
X157617358Y-60430000D02*
X158002642Y-60430000D01*
X157617358Y-62110000D02*
X158002642Y-62110000D01*
X157617358Y-62970000D02*
X158002642Y-62970000D01*
X157617358Y-64650000D02*
X158002642Y-64650000D01*
X157617358Y-65510000D02*
X158002642Y-65510000D01*
X157617358Y-67190000D02*
X158002642Y-67190000D01*
X157617358Y-68050000D02*
X158002642Y-68050000D01*
X157617358Y-69730000D02*
X158002642Y-69730000D01*
X157617358Y-70590000D02*
X158002642Y-70590000D01*
X157617358Y-72270000D02*
X158002642Y-72270000D01*
X157617358Y-73130000D02*
X158002642Y-73130000D01*
X157617358Y-74810000D02*
X158002642Y-74810000D01*
X157617358Y-75670000D02*
X158002642Y-75670000D01*
X157617358Y-77350000D02*
X158002642Y-77350000D01*
X157617358Y-78210000D02*
X158002642Y-78210000D01*
X157617358Y-79890000D02*
X158002642Y-79890000D01*
X157617358Y-80750000D02*
X158002642Y-80750000D01*
X157617358Y-82430000D02*
X158002642Y-82430000D01*
X157617358Y-83290000D02*
X158002642Y-83290000D01*
X157617358Y-84970000D02*
X158002642Y-84970000D01*
X157617358Y-85830000D02*
X158002642Y-85830000D01*
X157617358Y-87510000D02*
X158002642Y-87510000D01*
X157617358Y-88370000D02*
X158002642Y-88370000D01*
X157617358Y-90050000D02*
X158002642Y-90050000D01*
X157617358Y-90910000D02*
X158002642Y-90910000D01*
X157700000Y-49410000D02*
X158002642Y-49410000D01*
X157700000Y-50270000D02*
X158002642Y-50270000D01*
X160157358Y-49410000D02*
X160470000Y-49410000D01*
X160157358Y-50270000D02*
X160470000Y-50270000D01*
X160157358Y-51950000D02*
X160470000Y-51950000D01*
X160157358Y-52810000D02*
X160470000Y-52810000D01*
X160157358Y-54490000D02*
X160470000Y-54490000D01*
X160157358Y-55350000D02*
X160470000Y-55350000D01*
X160157358Y-57030000D02*
X160470000Y-57030000D01*
X160157358Y-57890000D02*
X160470000Y-57890000D01*
X160157358Y-59570000D02*
X160470000Y-59570000D01*
X160157358Y-60430000D02*
X160470000Y-60430000D01*
X160157358Y-62110000D02*
X160470000Y-62110000D01*
X160157358Y-62970000D02*
X160470000Y-62970000D01*
X160157358Y-64650000D02*
X160470000Y-64650000D01*
X160157358Y-65510000D02*
X160470000Y-65510000D01*
X160157358Y-67190000D02*
X160470000Y-67190000D01*
X160157358Y-68050000D02*
X160470000Y-68050000D01*
X160157358Y-69730000D02*
X160470000Y-69730000D01*
X160157358Y-70590000D02*
X160470000Y-70590000D01*
X160157358Y-72270000D02*
X160470000Y-72270000D01*
X160157358Y-73130000D02*
X160470000Y-73130000D01*
X160157358Y-74810000D02*
X160470000Y-74810000D01*
X160157358Y-75670000D02*
X160470000Y-75670000D01*
X160157358Y-77350000D02*
X160470000Y-77350000D01*
X160157358Y-78210000D02*
X160470000Y-78210000D01*
X160157358Y-79890000D02*
X160470000Y-79890000D01*
X160157358Y-80750000D02*
X160470000Y-80750000D01*
X160157358Y-82430000D02*
X160470000Y-82430000D01*
X160157358Y-83290000D02*
X160470000Y-83290000D01*
X160157358Y-84970000D02*
X160470000Y-84970000D01*
X160157358Y-85830000D02*
X160470000Y-85830000D01*
X160157358Y-87510000D02*
X160470000Y-87510000D01*
X160157358Y-88370000D02*
X160470000Y-88370000D01*
X160157358Y-90050000D02*
X160470000Y-90050000D01*
X160157358Y-90910000D02*
X160470000Y-90910000D01*
X160470000Y-51110000D02*
X163230000Y-51110000D01*
X160470000Y-53650000D02*
X163230000Y-53650000D01*
X160470000Y-56190000D02*
X163230000Y-56190000D01*
X160470000Y-58730000D02*
X163230000Y-58730000D01*
X160470000Y-61270000D02*
X163230000Y-61270000D01*
X160470000Y-63810000D02*
X163230000Y-63810000D01*
X160470000Y-66350000D02*
X163230000Y-66350000D01*
X160470000Y-68890000D02*
X163230000Y-68890000D01*
X160470000Y-71430000D02*
X163230000Y-71430000D01*
X160470000Y-73970000D02*
X163230000Y-73970000D01*
X160470000Y-76510000D02*
X163230000Y-76510000D01*
X160470000Y-79050000D02*
X163230000Y-79050000D01*
X160470000Y-81590000D02*
X163230000Y-81590000D01*
X160470000Y-84130000D02*
X163230000Y-84130000D01*
X160470000Y-86670000D02*
X163230000Y-86670000D01*
X160470000Y-89210000D02*
X163230000Y-89210000D01*
X163230000Y-51950000D02*
X169230000Y-51950000D01*
X163230000Y-54490000D02*
X169230000Y-54490000D01*
X163230000Y-57030000D02*
X169230000Y-57030000D01*
X163230000Y-59570000D02*
X169230000Y-59570000D01*
X163230000Y-62110000D02*
X169230000Y-62110000D01*
X163230000Y-64650000D02*
X169230000Y-64650000D01*
X163230000Y-67190000D02*
X169230000Y-67190000D01*
X163230000Y-69730000D02*
X169230000Y-69730000D01*
X163230000Y-72270000D02*
X169230000Y-72270000D01*
X163230000Y-74810000D02*
X169230000Y-74810000D01*
X163230000Y-77350000D02*
X169230000Y-77350000D01*
X163230000Y-79890000D02*
X169230000Y-79890000D01*
X163230000Y-82430000D02*
X169230000Y-82430000D01*
X163230000Y-84970000D02*
X169230000Y-84970000D01*
X163230000Y-87510000D02*
X169230000Y-87510000D01*
X163230000Y-90050000D02*
X169230000Y-90050000D01*
X169230000Y-51950000D02*
X169230000Y-52810000D01*
X169230000Y-52810000D02*
X163230000Y-52810000D01*
X169230000Y-54490000D02*
X169230000Y-55350000D01*
X169230000Y-55350000D02*
X163230000Y-55350000D01*
X169230000Y-57030000D02*
X169230000Y-57890000D01*
X169230000Y-57890000D02*
X163230000Y-57890000D01*
X169230000Y-59570000D02*
X169230000Y-60430000D01*
X169230000Y-60430000D02*
X163230000Y-60430000D01*
X169230000Y-62110000D02*
X169230000Y-62970000D01*
X169230000Y-62970000D02*
X163230000Y-62970000D01*
X169230000Y-64650000D02*
X169230000Y-65510000D01*
X169230000Y-65510000D02*
X163230000Y-65510000D01*
X169230000Y-67190000D02*
X169230000Y-68050000D01*
X169230000Y-68050000D02*
X163230000Y-68050000D01*
X169230000Y-69730000D02*
X169230000Y-70590000D01*
X169230000Y-70590000D02*
X163230000Y-70590000D01*
X169230000Y-72270000D02*
X169230000Y-73130000D01*
X169230000Y-73130000D02*
X163230000Y-73130000D01*
X169230000Y-74810000D02*
X169230000Y-75670000D01*
X169230000Y-75670000D02*
X163230000Y-75670000D01*
X169230000Y-77350000D02*
X169230000Y-78210000D01*
X169230000Y-78210000D02*
X163230000Y-78210000D01*
X169230000Y-79890000D02*
X169230000Y-80750000D01*
X169230000Y-80750000D02*
X163230000Y-80750000D01*
X169230000Y-82430000D02*
X169230000Y-83290000D01*
X169230000Y-83290000D02*
X163230000Y-83290000D01*
X169230000Y-84970000D02*
X169230000Y-85830000D01*
X169230000Y-85830000D02*
X163230000Y-85830000D01*
X169230000Y-87510000D02*
X169230000Y-88370000D01*
X169230000Y-88370000D02*
X163230000Y-88370000D01*
X169230000Y-90050000D02*
X169230000Y-90910000D01*
X169230000Y-90910000D02*
X163230000Y-90910000D01*
X160470000Y-48460000D02*
X163230000Y-48460000D01*
X163230000Y-91860000D01*
X160470000Y-91860000D01*
X160470000Y-48460000D01*
X163230000Y-49410000D02*
X169230000Y-49410000D01*
X169230000Y-50270000D01*
X163230000Y-50270000D01*
X163230000Y-49410000D01*
G36*
X163230000Y-49410000D02*
G01*
X169230000Y-49410000D01*
X169230000Y-50270000D01*
X163230000Y-50270000D01*
X163230000Y-49410000D01*
G37*
D13*
%TO.C,OSHWA*%
G36*
X120751316Y-154589229D02*
G01*
X120751316Y-155127042D01*
X121238312Y-155127042D01*
X121725308Y-155127042D01*
X121725308Y-154589229D01*
X121725308Y-154051416D01*
X121903167Y-154051416D01*
X122081026Y-154051416D01*
X122081026Y-155368422D01*
X122081026Y-156685428D01*
X121903167Y-156685428D01*
X121725308Y-156685428D01*
X121725308Y-156058686D01*
X121725308Y-155431943D01*
X121238312Y-155431943D01*
X120751316Y-155431943D01*
X120751316Y-156058686D01*
X120751316Y-156685428D01*
X120573457Y-156685428D01*
X120395598Y-156685428D01*
X120395598Y-155368422D01*
X120395598Y-154051416D01*
X120573457Y-154051416D01*
X120751316Y-154051416D01*
X120751316Y-154589229D01*
G37*
G36*
X128458552Y-154089529D02*
G01*
X128458552Y-154254684D01*
X127797932Y-154254684D01*
X127137312Y-154254684D01*
X127137312Y-154682393D01*
X127137312Y-155110103D01*
X127768289Y-155110103D01*
X128399266Y-155110103D01*
X128399266Y-155275258D01*
X128399266Y-155440413D01*
X127768289Y-155440413D01*
X127137312Y-155440413D01*
X127137312Y-155961236D01*
X127137312Y-156482059D01*
X127816988Y-156484227D01*
X128496665Y-156486395D01*
X128498965Y-156649432D01*
X128501265Y-156812470D01*
X127624490Y-156812470D01*
X126747715Y-156812470D01*
X126747715Y-155368422D01*
X126747715Y-153924374D01*
X127603134Y-153924374D01*
X128458552Y-153924374D01*
X128458552Y-154089529D01*
G37*
G36*
X137143394Y-155108661D02*
G01*
X137198802Y-155129594D01*
X137250442Y-155165293D01*
X137261495Y-155175610D01*
X137295447Y-155211867D01*
X137317990Y-155244606D01*
X137331279Y-155279089D01*
X137337471Y-155320578D01*
X137338765Y-155364187D01*
X137336596Y-155416979D01*
X137328699Y-155458128D01*
X137312993Y-155492533D01*
X137287395Y-155525092D01*
X137258522Y-155552990D01*
X137207054Y-155589022D01*
X137148647Y-155612525D01*
X137087513Y-155622284D01*
X137032587Y-155618101D01*
X136972957Y-155597895D01*
X136921704Y-155564529D01*
X136880344Y-155520329D01*
X136850394Y-155467621D01*
X136833368Y-155408733D01*
X136830783Y-155345990D01*
X136835144Y-155315052D01*
X136855224Y-155252800D01*
X136886963Y-155200269D01*
X136928155Y-155158180D01*
X136976599Y-155127255D01*
X137030089Y-155108212D01*
X137086422Y-155101774D01*
X137143394Y-155108661D01*
G37*
G36*
X132332171Y-155103476D02*
G01*
X132396426Y-155115438D01*
X132453570Y-155141171D01*
X132502024Y-155178630D01*
X132540209Y-155225768D01*
X132566548Y-155280541D01*
X132579462Y-155340902D01*
X132577373Y-155404806D01*
X132574950Y-155418152D01*
X132555003Y-155474824D01*
X132521650Y-155524861D01*
X132477635Y-155566438D01*
X132425705Y-155597732D01*
X132368605Y-155616919D01*
X132309082Y-155622174D01*
X132274057Y-155618026D01*
X132227034Y-155605607D01*
X132188951Y-155587710D01*
X132155511Y-155563696D01*
X132115198Y-155520173D01*
X132086450Y-155466989D01*
X132070116Y-155407604D01*
X132067046Y-155345475D01*
X132078088Y-155284061D01*
X132083181Y-155269151D01*
X132111367Y-155216567D01*
X132152559Y-155169614D01*
X132202899Y-155132333D01*
X132224436Y-155121170D01*
X132253474Y-155109264D01*
X132278714Y-155103397D01*
X132307943Y-155102289D01*
X132332171Y-155103476D01*
G37*
G36*
X134740438Y-155106883D02*
G01*
X134769272Y-155110308D01*
X134792896Y-155117364D01*
X134810669Y-155125648D01*
X134865545Y-155162924D01*
X134911822Y-155211864D01*
X134936207Y-155249849D01*
X134947836Y-155274419D01*
X134954672Y-155297744D01*
X134957916Y-155325904D01*
X134958767Y-155364187D01*
X134957928Y-155403802D01*
X134954515Y-155432588D01*
X134947414Y-155456592D01*
X134937990Y-155477084D01*
X134904956Y-155524956D01*
X134860338Y-155565428D01*
X134807828Y-155596546D01*
X134751122Y-155616355D01*
X134693913Y-155622901D01*
X134666688Y-155620654D01*
X134604172Y-155603762D01*
X134551186Y-155573608D01*
X134526634Y-155552306D01*
X134485338Y-155500696D01*
X134458973Y-155443411D01*
X134447572Y-155382832D01*
X134451167Y-155321343D01*
X134469791Y-155261327D01*
X134503476Y-155205167D01*
X134521621Y-155183837D01*
X134558924Y-155147932D01*
X134594018Y-155124656D01*
X134632390Y-155111625D01*
X134679527Y-155106453D01*
X134700566Y-155106054D01*
X134740438Y-155106883D01*
G37*
G36*
X139533921Y-155109369D02*
G01*
X139587497Y-155132014D01*
X139636417Y-155168146D01*
X139677564Y-155214387D01*
X139707818Y-155267355D01*
X139722347Y-155313619D01*
X139726912Y-155368035D01*
X139721080Y-155424027D01*
X139705759Y-155474212D01*
X139701498Y-155483171D01*
X139682730Y-155510539D01*
X139654756Y-155541000D01*
X139623065Y-155569224D01*
X139593148Y-155589882D01*
X139589660Y-155591742D01*
X139572125Y-155598771D01*
X139546437Y-155606924D01*
X139517342Y-155614977D01*
X139489588Y-155621706D01*
X139467921Y-155625884D01*
X139457088Y-155626289D01*
X139456746Y-155626032D01*
X139448917Y-155624025D01*
X139429266Y-155619577D01*
X139409496Y-155615261D01*
X139349926Y-155594400D01*
X139298305Y-155560294D01*
X139257112Y-155515118D01*
X139228827Y-155461044D01*
X139226765Y-155455115D01*
X139217434Y-155409631D01*
X139215712Y-155357529D01*
X139221196Y-155305475D01*
X139233480Y-155260135D01*
X139239393Y-155246925D01*
X139265652Y-155207019D01*
X139300883Y-155168485D01*
X139339533Y-155136886D01*
X139363020Y-155123099D01*
X139401665Y-155110504D01*
X139448758Y-155103786D01*
X139496643Y-155103560D01*
X139533921Y-155109369D01*
G37*
G36*
X123918905Y-152988495D02*
G01*
X123918905Y-153212937D01*
X119595231Y-153212937D01*
X115271556Y-153212937D01*
X115271556Y-155313370D01*
X115271556Y-157413804D01*
X120351846Y-157413804D01*
X125432136Y-157413804D01*
X125437775Y-155773551D01*
X125438371Y-155596225D01*
X125438950Y-155416592D01*
X125439508Y-155235989D01*
X125440042Y-155055750D01*
X125440549Y-154877213D01*
X125441026Y-154701715D01*
X125441469Y-154530591D01*
X125441875Y-154365179D01*
X125442240Y-154206813D01*
X125442562Y-154056832D01*
X125442838Y-153916572D01*
X125443064Y-153787368D01*
X125443236Y-153670557D01*
X125443352Y-153567476D01*
X125443408Y-153479461D01*
X125443414Y-153448676D01*
X125443414Y-152764054D01*
X125663620Y-152764054D01*
X125883827Y-152764054D01*
X125883827Y-155317605D01*
X125883827Y-157871156D01*
X120354662Y-157871156D01*
X120049266Y-157871148D01*
X119748062Y-157871122D01*
X119451495Y-157871081D01*
X119160008Y-157871023D01*
X118874047Y-157870950D01*
X118594056Y-157870861D01*
X118320479Y-157870758D01*
X118053760Y-157870641D01*
X117794344Y-157870511D01*
X117542676Y-157870367D01*
X117299199Y-157870210D01*
X117064358Y-157870041D01*
X116838598Y-157869860D01*
X116622362Y-157869668D01*
X116416096Y-157869465D01*
X116220244Y-157869251D01*
X116035249Y-157869027D01*
X115861557Y-157868794D01*
X115699612Y-157868552D01*
X115549858Y-157868300D01*
X115412739Y-157868041D01*
X115288701Y-157867774D01*
X115178187Y-157867499D01*
X115081642Y-157867218D01*
X114999510Y-157866930D01*
X114932235Y-157866636D01*
X114880262Y-157866337D01*
X114844036Y-157866033D01*
X114824001Y-157865724D01*
X114819850Y-157865510D01*
X114819392Y-157856687D01*
X114818944Y-157831581D01*
X114818507Y-157790848D01*
X114818083Y-157735143D01*
X114817673Y-157665121D01*
X114817278Y-157581439D01*
X114816901Y-157484752D01*
X114816542Y-157375715D01*
X114816203Y-157254985D01*
X114815885Y-157123218D01*
X114815590Y-156981068D01*
X114815320Y-156829192D01*
X114815075Y-156668245D01*
X114814857Y-156498883D01*
X114814669Y-156321762D01*
X114814510Y-156137536D01*
X114814382Y-155946863D01*
X114814288Y-155750398D01*
X114814228Y-155548796D01*
X114814204Y-155342713D01*
X114814204Y-155311959D01*
X114814204Y-152764054D01*
X119366555Y-152764054D01*
X123918905Y-152764054D01*
X123918905Y-152988495D01*
G37*
G36*
X141791646Y-153926444D02*
G01*
X142522140Y-153928609D01*
X142524440Y-154091647D01*
X142526740Y-154254684D01*
X141971806Y-154254684D01*
X141416871Y-154254684D01*
X141416871Y-154610027D01*
X141416871Y-154965370D01*
X141452867Y-154952665D01*
X141497345Y-154938060D01*
X141538994Y-154927199D01*
X141581614Y-154919583D01*
X141629000Y-154914715D01*
X141684951Y-154912094D01*
X141753263Y-154911222D01*
X141768355Y-154911213D01*
X141845204Y-154912144D01*
X141909401Y-154915187D01*
X141965168Y-154920941D01*
X142016724Y-154930005D01*
X142068289Y-154942979D01*
X142124085Y-154960463D01*
X142130568Y-154962655D01*
X142241903Y-155009124D01*
X142343511Y-155069083D01*
X142434692Y-155141690D01*
X142514746Y-155226105D01*
X142582975Y-155321484D01*
X142638678Y-155426985D01*
X142681157Y-155541767D01*
X142708599Y-155658491D01*
X142723738Y-155780505D01*
X142727392Y-155903813D01*
X142719904Y-156025486D01*
X142701613Y-156142591D01*
X142672860Y-156252201D01*
X142633987Y-156351383D01*
X142626123Y-156367543D01*
X142564738Y-156471457D01*
X142490921Y-156564049D01*
X142405097Y-156645020D01*
X142307693Y-156714075D01*
X142199134Y-156770917D01*
X142079846Y-156815251D01*
X141950255Y-156846778D01*
X141933200Y-156849831D01*
X141888855Y-156855656D01*
X141831828Y-156860458D01*
X141766355Y-156864114D01*
X141696671Y-156866499D01*
X141627008Y-156867490D01*
X141561602Y-156866965D01*
X141504687Y-156864799D01*
X141480393Y-156863032D01*
X141376073Y-156851605D01*
X141273665Y-156836315D01*
X141176525Y-156817837D01*
X141088013Y-156796843D01*
X141011485Y-156774007D01*
X140980693Y-156762859D01*
X140938345Y-156746423D01*
X140936072Y-156550770D01*
X140935732Y-156495243D01*
X140936013Y-156445837D01*
X140936854Y-156404912D01*
X140938194Y-156374826D01*
X140939970Y-156357937D01*
X140941187Y-156355118D01*
X140951522Y-156358507D01*
X140973571Y-156367657D01*
X141003756Y-156381040D01*
X141028155Y-156392268D01*
X141177506Y-156453346D01*
X141327948Y-156497598D01*
X141479851Y-156525122D01*
X141556434Y-156532640D01*
X141684765Y-156535907D01*
X141802081Y-156526808D01*
X141908223Y-156505434D01*
X142003030Y-156471876D01*
X142086342Y-156426226D01*
X142157999Y-156368576D01*
X142217841Y-156299016D01*
X142265707Y-156217639D01*
X142301438Y-156124536D01*
X142307271Y-156103931D01*
X142320290Y-156038473D01*
X142328077Y-155962695D01*
X142330505Y-155882424D01*
X142327447Y-155803493D01*
X142318775Y-155731732D01*
X142315731Y-155715671D01*
X142287414Y-155617491D01*
X142245273Y-155528748D01*
X142190042Y-155450211D01*
X142122450Y-155382649D01*
X142043230Y-155326834D01*
X141953112Y-155283533D01*
X141883791Y-155261043D01*
X141832780Y-155250845D01*
X141769695Y-155243501D01*
X141699180Y-155239137D01*
X141625879Y-155237880D01*
X141554437Y-155239856D01*
X141489497Y-155245191D01*
X141458957Y-155249481D01*
X141370271Y-155266270D01*
X141292767Y-155285529D01*
X141220712Y-155308849D01*
X141162787Y-155331646D01*
X141128043Y-155346306D01*
X141098604Y-155358720D01*
X141078321Y-155367268D01*
X141071740Y-155370035D01*
X141069812Y-155367768D01*
X141068119Y-155358657D01*
X141066646Y-155341810D01*
X141065380Y-155316338D01*
X141064309Y-155281350D01*
X141063420Y-155235955D01*
X141062698Y-155179262D01*
X141062132Y-155110380D01*
X141061708Y-155028419D01*
X141061413Y-154932488D01*
X141061234Y-154821696D01*
X141061158Y-154695153D01*
X141061153Y-154649375D01*
X141061153Y-153924280D01*
X141791646Y-153926444D01*
G37*
G36*
X137217361Y-153885446D02*
G01*
X137318746Y-153904254D01*
X137347861Y-153912075D01*
X137451005Y-153950566D01*
X137546026Y-154003802D01*
X137632790Y-154071592D01*
X137711160Y-154153743D01*
X137780999Y-154250063D01*
X137842173Y-154360359D01*
X137894545Y-154484439D01*
X137937979Y-154622110D01*
X137972339Y-154773180D01*
X137977856Y-154803524D01*
X137987844Y-154862399D01*
X137995968Y-154915269D01*
X138002415Y-154964908D01*
X138007370Y-155014088D01*
X138011019Y-155065584D01*
X138013548Y-155122169D01*
X138015142Y-155186616D01*
X138015988Y-155261699D01*
X138016271Y-155350191D01*
X138016275Y-155376892D01*
X138016146Y-155462129D01*
X138015698Y-155533277D01*
X138014749Y-155593184D01*
X138013116Y-155644697D01*
X138010618Y-155690667D01*
X138007071Y-155733941D01*
X138002296Y-155777369D01*
X137996108Y-155823797D01*
X137988327Y-155876077D01*
X137981636Y-155918939D01*
X137950677Y-156074186D01*
X137908462Y-156219955D01*
X137855540Y-156354453D01*
X137834094Y-156399528D01*
X137771341Y-156508819D01*
X137699522Y-156603819D01*
X137618819Y-156684428D01*
X137529418Y-156750545D01*
X137431503Y-156802069D01*
X137325258Y-156838900D01*
X137210867Y-156860937D01*
X137088514Y-156868080D01*
X136986385Y-156863128D01*
X136871057Y-156844692D01*
X136763935Y-156811487D01*
X136665118Y-156763615D01*
X136574703Y-156701180D01*
X136492789Y-156624283D01*
X136419474Y-156533027D01*
X136354855Y-156427517D01*
X136299033Y-156307853D01*
X136252103Y-156174140D01*
X136222383Y-156062920D01*
X136197433Y-155940038D01*
X136177600Y-155804853D01*
X136165534Y-155690263D01*
X136162009Y-155638188D01*
X136159359Y-155572892D01*
X136157584Y-155498073D01*
X136156684Y-155417427D01*
X136156672Y-155372657D01*
X136547177Y-155372657D01*
X136550590Y-155550698D01*
X136560788Y-155714845D01*
X136577710Y-155864895D01*
X136601295Y-156000647D01*
X136631479Y-156121901D01*
X136668203Y-156228454D01*
X136711403Y-156320106D01*
X136761020Y-156396656D01*
X136816991Y-156457901D01*
X136879254Y-156503641D01*
X136896023Y-156512745D01*
X136966616Y-156540233D01*
X137042703Y-156555241D01*
X137119306Y-156557202D01*
X137189487Y-156546081D01*
X137264750Y-156518404D01*
X137332178Y-156477304D01*
X137392095Y-156422366D01*
X137444819Y-156353176D01*
X137490672Y-156269322D01*
X137529975Y-156170390D01*
X137559888Y-156068607D01*
X137580743Y-155971671D01*
X137597908Y-155861108D01*
X137611294Y-155739840D01*
X137620809Y-155610793D01*
X137626364Y-155476889D01*
X137627867Y-155341054D01*
X137625228Y-155206211D01*
X137618357Y-155075285D01*
X137607164Y-154951199D01*
X137596915Y-154871385D01*
X137572327Y-154734092D01*
X137541014Y-154612305D01*
X137502931Y-154505962D01*
X137458031Y-154415004D01*
X137406271Y-154339370D01*
X137347605Y-154278999D01*
X137281989Y-154233831D01*
X137209378Y-154203806D01*
X137129726Y-154188863D01*
X137088624Y-154187029D01*
X137005133Y-154194588D01*
X136928435Y-154217648D01*
X136858269Y-154256312D01*
X136809669Y-154295710D01*
X136754051Y-154358579D01*
X136704948Y-154436924D01*
X136662402Y-154530567D01*
X136626458Y-154639330D01*
X136597158Y-154763035D01*
X136574546Y-154901505D01*
X136558665Y-155054560D01*
X136549559Y-155222023D01*
X136547177Y-155372657D01*
X136156672Y-155372657D01*
X136156662Y-155334650D01*
X136157516Y-155253439D01*
X136159248Y-155177489D01*
X136161858Y-155110497D01*
X136165346Y-155056161D01*
X136165440Y-155055051D01*
X136185644Y-154878073D01*
X136214908Y-154715397D01*
X136253241Y-154567006D01*
X136300650Y-154432885D01*
X136357144Y-154313018D01*
X136422730Y-154207388D01*
X136497417Y-154115981D01*
X136581212Y-154038780D01*
X136674123Y-153975770D01*
X136720539Y-153951249D01*
X136806633Y-153917521D01*
X136902939Y-153893853D01*
X137005881Y-153880469D01*
X137111881Y-153877592D01*
X137217361Y-153885446D01*
G37*
G36*
X134798251Y-153880979D02*
G01*
X134916464Y-153900458D01*
X135025555Y-153934041D01*
X135125597Y-153981795D01*
X135216668Y-154043788D01*
X135298841Y-154120088D01*
X135372193Y-154210762D01*
X135436799Y-154315880D01*
X135492734Y-154435507D01*
X135530224Y-154538412D01*
X135565224Y-154663306D01*
X135593698Y-154801177D01*
X135615544Y-154949327D01*
X135630660Y-155105062D01*
X135638947Y-155265685D01*
X135640302Y-155428499D01*
X135634626Y-155590809D01*
X135621817Y-155749918D01*
X135601773Y-155903129D01*
X135584891Y-155997912D01*
X135549386Y-156146198D01*
X135504538Y-156281213D01*
X135450524Y-156402760D01*
X135387522Y-156510642D01*
X135315711Y-156604663D01*
X135235268Y-156684627D01*
X135146371Y-156750337D01*
X135049198Y-156801596D01*
X134943927Y-156838209D01*
X134830736Y-156859978D01*
X134801366Y-156863065D01*
X134761135Y-156866406D01*
X134725887Y-156868930D01*
X134699784Y-156870364D01*
X134687862Y-156870519D01*
X134672048Y-156869279D01*
X134644319Y-156866903D01*
X134609628Y-156863819D01*
X134594697Y-156862464D01*
X134483870Y-156844159D01*
X134377997Y-156810288D01*
X134279047Y-156761549D01*
X134241270Y-156737655D01*
X134155704Y-156670177D01*
X134078890Y-156589427D01*
X134010747Y-156495208D01*
X133951192Y-156387320D01*
X133900143Y-156265566D01*
X133857520Y-156129746D01*
X133823239Y-155979662D01*
X133797219Y-155815116D01*
X133779378Y-155635908D01*
X133777791Y-155613534D01*
X133769935Y-155435899D01*
X133770165Y-155369709D01*
X134171162Y-155369709D01*
X134171434Y-155451527D01*
X134172306Y-155530639D01*
X134173778Y-155604245D01*
X134175851Y-155669543D01*
X134178525Y-155723733D01*
X134181801Y-155764014D01*
X134182081Y-155766488D01*
X134201787Y-155908320D01*
X134226186Y-156034421D01*
X134255612Y-156145430D01*
X134290403Y-156241987D01*
X134330893Y-156324730D01*
X134377420Y-156394298D01*
X134430317Y-156451330D01*
X134489922Y-156496465D01*
X134556571Y-156530341D01*
X134589997Y-156542419D01*
X134656032Y-156555886D01*
X134727916Y-156557229D01*
X134799801Y-156546572D01*
X134832624Y-156537219D01*
X134885766Y-156516990D01*
X134928187Y-156494366D01*
X134966040Y-156465459D01*
X135001776Y-156430341D01*
X135053059Y-156366830D01*
X135097908Y-156291855D01*
X135136436Y-156204883D01*
X135168755Y-156105381D01*
X135194977Y-155992816D01*
X135215215Y-155866656D01*
X135229579Y-155726369D01*
X135238183Y-155571421D01*
X135241138Y-155401281D01*
X135240327Y-155296651D01*
X135235652Y-155138364D01*
X135226775Y-154995535D01*
X135213444Y-154867150D01*
X135195406Y-154752194D01*
X135172408Y-154649654D01*
X135144199Y-154558515D01*
X135110526Y-154477763D01*
X135071136Y-154406383D01*
X135025776Y-154343363D01*
X134994078Y-154307555D01*
X134932487Y-154254619D01*
X134863552Y-154216928D01*
X134787185Y-154194445D01*
X134704801Y-154187129D01*
X134626441Y-154193362D01*
X134556251Y-154212825D01*
X134491513Y-154246668D01*
X134429508Y-154296037D01*
X134415896Y-154309163D01*
X134366828Y-154366182D01*
X134323527Y-154434356D01*
X134285686Y-154514566D01*
X134252997Y-154607696D01*
X134225152Y-154714627D01*
X134201842Y-154836242D01*
X134182760Y-154973424D01*
X134182129Y-154978826D01*
X134178802Y-155018061D01*
X134176075Y-155071396D01*
X134173947Y-155136028D01*
X134172419Y-155209159D01*
X134171490Y-155287986D01*
X134171162Y-155369709D01*
X133770165Y-155369709D01*
X133770539Y-155261713D01*
X133779375Y-155092676D01*
X133796216Y-154930489D01*
X133820835Y-154776850D01*
X133853004Y-154633460D01*
X133892496Y-154502020D01*
X133939085Y-154384229D01*
X133943315Y-154375008D01*
X134002327Y-154265217D01*
X134071807Y-154166918D01*
X134150825Y-154081124D01*
X134238447Y-154008851D01*
X134332549Y-153951718D01*
X134397149Y-153925001D01*
X134473815Y-153903537D01*
X134558315Y-153887969D01*
X134646417Y-153878940D01*
X134733886Y-153877092D01*
X134798251Y-153880979D01*
G37*
G36*
X139542139Y-153879602D02*
G01*
X139642513Y-153891431D01*
X139751746Y-153918179D01*
X139853343Y-153959967D01*
X139947035Y-154016584D01*
X140032552Y-154087816D01*
X140109623Y-154173450D01*
X140177978Y-154273274D01*
X140216687Y-154343834D01*
X140268041Y-154461105D01*
X140311466Y-154592371D01*
X140346802Y-154736571D01*
X140373885Y-154892648D01*
X140392553Y-155059541D01*
X140402645Y-155236192D01*
X140403998Y-155421540D01*
X140400228Y-155543696D01*
X140391178Y-155692639D01*
X140377890Y-155827334D01*
X140359878Y-155950051D01*
X140336654Y-156063061D01*
X140307732Y-156168633D01*
X140272624Y-156269039D01*
X140230845Y-156366548D01*
X140218086Y-156393230D01*
X140156823Y-156503149D01*
X140087614Y-156598165D01*
X140010162Y-156678493D01*
X139924167Y-156744343D01*
X139829332Y-156795930D01*
X139725358Y-156833466D01*
X139611947Y-156857163D01*
X139558761Y-156863280D01*
X139519571Y-156866559D01*
X139485912Y-156869022D01*
X139461799Y-156870396D01*
X139451950Y-156870519D01*
X139438172Y-156869299D01*
X139412162Y-156866967D01*
X139378559Y-156863940D01*
X139363020Y-156862536D01*
X139250161Y-156844388D01*
X139144767Y-156811182D01*
X139047073Y-156763180D01*
X138957314Y-156700642D01*
X138875727Y-156623831D01*
X138802545Y-156533007D01*
X138738005Y-156428431D01*
X138682342Y-156310364D01*
X138635791Y-156179069D01*
X138598587Y-156034806D01*
X138592980Y-156007869D01*
X138579895Y-155940520D01*
X138569220Y-155879462D01*
X138560718Y-155821786D01*
X138554150Y-155764586D01*
X138549278Y-155704953D01*
X138545865Y-155639981D01*
X138543671Y-155566761D01*
X138542458Y-155482386D01*
X138541991Y-155385361D01*
X138542007Y-155372657D01*
X138933038Y-155372657D01*
X138935794Y-155546955D01*
X138944144Y-155705738D01*
X138958208Y-155849521D01*
X138978107Y-155978821D01*
X139003961Y-156094151D01*
X139035892Y-156196029D01*
X139074020Y-156284970D01*
X139118465Y-156361488D01*
X139169349Y-156426100D01*
X139183150Y-156440513D01*
X139245546Y-156491501D01*
X139316068Y-156528542D01*
X139392373Y-156551008D01*
X139472122Y-156558272D01*
X139552973Y-156549706D01*
X139572930Y-156545057D01*
X139647728Y-156518107D01*
X139714844Y-156477813D01*
X139774510Y-156423822D01*
X139826959Y-156355778D01*
X139872423Y-156273327D01*
X139911133Y-156176113D01*
X139943322Y-156063782D01*
X139968522Y-155940113D01*
X139987055Y-155808087D01*
X140000175Y-155664059D01*
X140007851Y-155512085D01*
X140010053Y-155356225D01*
X140006749Y-155200535D01*
X139997909Y-155049075D01*
X139983501Y-154905902D01*
X139976779Y-154856018D01*
X139952447Y-154720728D01*
X139920910Y-154600652D01*
X139882184Y-154495814D01*
X139836285Y-154406232D01*
X139783229Y-154331930D01*
X139723032Y-154272928D01*
X139655711Y-154229247D01*
X139581281Y-154200909D01*
X139499760Y-154187935D01*
X139469227Y-154187029D01*
X139386236Y-154195042D01*
X139309655Y-154218625D01*
X139239756Y-154257557D01*
X139176807Y-154311622D01*
X139121081Y-154380600D01*
X139072848Y-154464272D01*
X139044278Y-154529943D01*
X139013997Y-154618116D01*
X138988845Y-154713563D01*
X138968623Y-154817788D01*
X138953133Y-154932293D01*
X138942176Y-155058583D01*
X138935554Y-155198161D01*
X138933068Y-155352531D01*
X138933038Y-155372657D01*
X138542007Y-155372657D01*
X138542118Y-155285768D01*
X138543008Y-155200319D01*
X138544870Y-155126226D01*
X138547915Y-155060705D01*
X138552351Y-155000969D01*
X138558387Y-154944231D01*
X138566233Y-154887705D01*
X138576097Y-154828605D01*
X138588189Y-154764144D01*
X138588905Y-154760482D01*
X138624452Y-154608768D01*
X138668942Y-154471057D01*
X138722311Y-154347435D01*
X138784494Y-154237987D01*
X138855426Y-154142801D01*
X138935041Y-154061962D01*
X139023276Y-153995555D01*
X139120064Y-153943668D01*
X139225342Y-153906387D01*
X139234637Y-153903906D01*
X139330425Y-153885553D01*
X139434658Y-153877399D01*
X139542139Y-153879602D01*
G37*
G36*
X132420678Y-153881856D02*
G01*
X132471723Y-153886633D01*
X132490029Y-153889567D01*
X132601924Y-153918217D01*
X132704222Y-153959897D01*
X132797238Y-154014916D01*
X132881290Y-154083586D01*
X132956691Y-154166218D01*
X133023759Y-154263122D01*
X133082810Y-154374609D01*
X133134159Y-154500990D01*
X133145720Y-154534619D01*
X133172971Y-154623448D01*
X133195606Y-154713132D01*
X133214097Y-154806605D01*
X133228917Y-154906798D01*
X133240537Y-155016642D01*
X133249432Y-155139070D01*
X133252625Y-155198130D01*
X133257313Y-155377163D01*
X133253730Y-155551524D01*
X133242085Y-155719227D01*
X133222589Y-155878287D01*
X133195450Y-156026718D01*
X133160878Y-156162534D01*
X133145746Y-156210695D01*
X133095848Y-156341346D01*
X133037948Y-156457166D01*
X132971862Y-156558350D01*
X132897407Y-156645093D01*
X132814400Y-156717590D01*
X132722657Y-156776036D01*
X132621995Y-156820626D01*
X132552590Y-156842039D01*
X132526791Y-156847373D01*
X132490249Y-156853150D01*
X132447488Y-156858854D01*
X132403032Y-156863966D01*
X132361405Y-156867970D01*
X132327129Y-156870348D01*
X132304729Y-156870582D01*
X132303700Y-156870503D01*
X132289801Y-156869275D01*
X132263818Y-156866968D01*
X132230543Y-156864007D01*
X132218152Y-156862903D01*
X132104163Y-156844844D01*
X131997893Y-156811745D01*
X131899517Y-156763732D01*
X131809209Y-156700930D01*
X131727145Y-156623466D01*
X131653500Y-156531466D01*
X131588447Y-156425056D01*
X131575207Y-156399528D01*
X131526517Y-156289336D01*
X131484854Y-156166003D01*
X131450026Y-156028813D01*
X131421841Y-155877051D01*
X131408230Y-155780236D01*
X131402993Y-155726308D01*
X131398836Y-155658635D01*
X131395758Y-155580374D01*
X131393760Y-155494685D01*
X131392840Y-155404726D01*
X131392878Y-155383085D01*
X131785958Y-155383085D01*
X131786449Y-155465460D01*
X131787716Y-155543926D01*
X131789759Y-155615017D01*
X131792578Y-155675267D01*
X131795218Y-155711436D01*
X131812280Y-155861413D01*
X131835006Y-155995737D01*
X131863587Y-156114788D01*
X131898214Y-156218943D01*
X131939078Y-156308582D01*
X131986370Y-156384083D01*
X132040282Y-156445824D01*
X132101003Y-156494184D01*
X132168726Y-156529541D01*
X132216391Y-156545675D01*
X132266396Y-156554514D01*
X132324262Y-156557144D01*
X132382092Y-156553564D01*
X132424871Y-156545752D01*
X132460647Y-156534567D01*
X132497330Y-156520262D01*
X132513463Y-156512756D01*
X132578265Y-156470384D01*
X132636517Y-156412489D01*
X132688184Y-156339188D01*
X132733230Y-156250592D01*
X132771620Y-156146817D01*
X132803320Y-156027976D01*
X132828295Y-155894184D01*
X132846510Y-155745554D01*
X132857930Y-155582199D01*
X132862519Y-155404236D01*
X132862618Y-155372657D01*
X132859292Y-155190843D01*
X132849287Y-155024516D01*
X132832559Y-154873576D01*
X132809066Y-154737927D01*
X132778765Y-154617470D01*
X132741615Y-154512106D01*
X132697572Y-154421738D01*
X132646593Y-154346267D01*
X132588637Y-154285596D01*
X132523660Y-154239625D01*
X132451621Y-154208258D01*
X132372475Y-154191395D01*
X132349320Y-154189278D01*
X132265188Y-154191449D01*
X132186876Y-154209365D01*
X132114835Y-154242705D01*
X132049517Y-154291147D01*
X131991373Y-154354372D01*
X131940855Y-154432057D01*
X131906302Y-154504239D01*
X131874352Y-154593620D01*
X131846508Y-154697849D01*
X131823121Y-154815258D01*
X131804541Y-154944179D01*
X131795161Y-155033877D01*
X131791766Y-155083810D01*
X131789148Y-155147163D01*
X131787307Y-155220471D01*
X131786244Y-155300267D01*
X131785958Y-155383085D01*
X131392878Y-155383085D01*
X131393000Y-155313656D01*
X131394240Y-155224633D01*
X131396558Y-155140817D01*
X131399956Y-155065367D01*
X131404434Y-155001439D01*
X131408230Y-154965078D01*
X131434319Y-154795843D01*
X131468287Y-154641480D01*
X131510260Y-154501801D01*
X131560368Y-154376618D01*
X131618736Y-154265740D01*
X131685492Y-154168980D01*
X131760764Y-154086148D01*
X131844679Y-154017056D01*
X131937365Y-153961515D01*
X132038949Y-153919335D01*
X132130897Y-153894169D01*
X132176128Y-153887101D01*
X132232922Y-153882270D01*
X132296077Y-153879740D01*
X132360396Y-153879580D01*
X132420678Y-153881856D01*
G37*
G36*
X116981098Y-154015193D02*
G01*
X117042897Y-154018078D01*
X117095321Y-154023827D01*
X117142127Y-154033211D01*
X117187070Y-154047000D01*
X117233907Y-154065965D01*
X117286394Y-154090876D01*
X117291530Y-154093440D01*
X117377895Y-154144829D01*
X117455504Y-154208347D01*
X117524585Y-154284420D01*
X117585362Y-154373473D01*
X117638064Y-154475930D01*
X117682916Y-154592217D01*
X117720144Y-154722759D01*
X117749975Y-154867980D01*
X117767696Y-154987295D01*
X117772921Y-155040673D01*
X117777025Y-155107576D01*
X117780005Y-155184727D01*
X117781863Y-155268846D01*
X117782596Y-155356655D01*
X117782205Y-155444875D01*
X117780689Y-155530227D01*
X117778048Y-155609432D01*
X117774281Y-155679211D01*
X117769388Y-155736287D01*
X117767815Y-155749549D01*
X117751419Y-155862344D01*
X117732547Y-155962423D01*
X117710312Y-156053935D01*
X117684968Y-156137620D01*
X117638024Y-156259319D01*
X117582886Y-156366339D01*
X117519221Y-156459006D01*
X117446694Y-156537645D01*
X117364972Y-156602581D01*
X117273722Y-156654141D01*
X117172610Y-156692650D01*
X117096841Y-156711797D01*
X117033850Y-156721219D01*
X116960769Y-156726382D01*
X116883502Y-156727296D01*
X116807950Y-156723971D01*
X116740017Y-156716415D01*
X116711370Y-156711186D01*
X116613129Y-156684899D01*
X116526926Y-156650000D01*
X116449338Y-156604806D01*
X116376946Y-156547635D01*
X116374531Y-156545457D01*
X116303515Y-156471336D01*
X116241038Y-156385115D01*
X116186893Y-156286275D01*
X116140873Y-156174298D01*
X116102770Y-156048667D01*
X116072378Y-155908862D01*
X116049488Y-155754365D01*
X116046060Y-155724141D01*
X116041208Y-155667260D01*
X116037363Y-155597751D01*
X116034552Y-155519237D01*
X116032798Y-155435342D01*
X116032245Y-155364623D01*
X116406084Y-155364623D01*
X116406388Y-155445602D01*
X116407387Y-155523438D01*
X116409083Y-155594787D01*
X116411476Y-155656303D01*
X116414568Y-155704642D01*
X116414789Y-155707202D01*
X116429650Y-155841343D01*
X116449404Y-155959898D01*
X116474371Y-156063589D01*
X116504872Y-156153140D01*
X116541228Y-156229275D01*
X116583760Y-156292717D01*
X116632789Y-156344190D01*
X116688637Y-156384417D01*
X116723177Y-156402379D01*
X116755959Y-156415684D01*
X116789406Y-156426638D01*
X116806027Y-156430750D01*
X116853946Y-156436816D01*
X116908677Y-156438520D01*
X116963021Y-156435982D01*
X117009783Y-156429322D01*
X117018869Y-156427179D01*
X117092423Y-156401195D01*
X117156795Y-156363542D01*
X117212638Y-156313433D01*
X117260609Y-156250081D01*
X117301361Y-156172701D01*
X117335548Y-156080505D01*
X117350271Y-156029042D01*
X117369715Y-155940895D01*
X117385789Y-155838558D01*
X117398299Y-155724476D01*
X117407051Y-155601099D01*
X117411852Y-155470873D01*
X117412506Y-155336246D01*
X117411066Y-155262553D01*
X117405337Y-155121302D01*
X117396407Y-154995404D01*
X117384016Y-154883530D01*
X117367904Y-154784354D01*
X117347814Y-154696545D01*
X117323485Y-154618776D01*
X117294660Y-154549720D01*
X117261078Y-154488046D01*
X117259558Y-154485594D01*
X117209542Y-154420365D01*
X117149621Y-154368635D01*
X117080661Y-154330829D01*
X117003526Y-154307372D01*
X116919082Y-154298688D01*
X116880759Y-154299600D01*
X116802659Y-154309801D01*
X116732676Y-154330931D01*
X116670451Y-154363554D01*
X116615626Y-154408232D01*
X116567841Y-154465529D01*
X116526737Y-154536007D01*
X116491954Y-154620230D01*
X116463134Y-154718760D01*
X116439917Y-154832160D01*
X116421944Y-154960994D01*
X116414969Y-155029643D01*
X116411808Y-155076167D01*
X116409338Y-155136273D01*
X116407560Y-155206613D01*
X116406475Y-155283845D01*
X116406084Y-155364623D01*
X116032245Y-155364623D01*
X116032128Y-155349692D01*
X116032566Y-155265909D01*
X116034136Y-155187620D01*
X116036865Y-155118447D01*
X116040776Y-155062016D01*
X116041449Y-155055051D01*
X116062244Y-154892524D01*
X116090394Y-154744963D01*
X116126092Y-154611984D01*
X116169534Y-154493203D01*
X116220912Y-154388233D01*
X116280423Y-154296691D01*
X116348259Y-154218193D01*
X116424614Y-154152352D01*
X116509684Y-154098785D01*
X116529263Y-154088769D01*
X116580852Y-154064586D01*
X116627160Y-154046146D01*
X116671906Y-154032716D01*
X116718813Y-154023561D01*
X116771599Y-154017946D01*
X116833985Y-154015139D01*
X116906168Y-154014403D01*
X116981098Y-154015193D01*
G37*
G36*
X119244069Y-154016436D02*
G01*
X119396745Y-154038270D01*
X119553257Y-154074226D01*
X119679926Y-154112945D01*
X119764621Y-154141696D01*
X119766907Y-154320998D01*
X119767339Y-154374040D01*
X119767256Y-154420855D01*
X119766700Y-154458979D01*
X119765713Y-154485949D01*
X119764338Y-154499300D01*
X119763780Y-154500299D01*
X119754302Y-154496211D01*
X119734737Y-154485510D01*
X119710087Y-154470971D01*
X119603501Y-154413595D01*
X119492137Y-154367399D01*
X119378194Y-154332730D01*
X119263869Y-154309932D01*
X119151362Y-154299353D01*
X119042872Y-154301339D01*
X118940598Y-154316235D01*
X118864293Y-154337836D01*
X118782065Y-154374635D01*
X118712987Y-154421687D01*
X118657507Y-154478282D01*
X118616074Y-154543707D01*
X118589138Y-154617251D01*
X118577148Y-154698203D01*
X118580553Y-154785851D01*
X118580706Y-154787077D01*
X118590523Y-154843488D01*
X118605628Y-154893251D01*
X118627223Y-154937199D01*
X118656512Y-154976162D01*
X118694698Y-155010971D01*
X118742985Y-155042459D01*
X118802576Y-155071456D01*
X118874675Y-155098794D01*
X118960485Y-155125305D01*
X119061209Y-155151819D01*
X119133644Y-155169079D01*
X119245349Y-155196626D01*
X119342582Y-155224589D01*
X119427800Y-155253900D01*
X119503461Y-155285490D01*
X119572024Y-155320293D01*
X119635946Y-155359240D01*
X119636932Y-155359895D01*
X119679004Y-155392415D01*
X119724161Y-155434920D01*
X119767866Y-155482517D01*
X119805582Y-155530313D01*
X119829724Y-155567769D01*
X119869840Y-155655981D01*
X119898475Y-155754939D01*
X119915217Y-155862569D01*
X119919659Y-155976798D01*
X119918317Y-156016338D01*
X119908116Y-156118824D01*
X119888041Y-156211634D01*
X119856897Y-156299638D01*
X119839467Y-156337909D01*
X119820223Y-156375583D01*
X119801689Y-156406134D01*
X119780310Y-156434354D01*
X119752532Y-156465039D01*
X119723303Y-156494595D01*
X119658602Y-156552420D01*
X119590351Y-156600295D01*
X119515508Y-156639756D01*
X119431028Y-156672340D01*
X119333868Y-156699581D01*
X119303034Y-156706668D01*
X119266266Y-156712522D01*
X119216099Y-156717316D01*
X119156041Y-156720991D01*
X119089600Y-156723489D01*
X119020286Y-156724752D01*
X118951608Y-156724721D01*
X118887075Y-156723339D01*
X118830196Y-156720547D01*
X118784480Y-156716286D01*
X118777925Y-156715390D01*
X118600466Y-156681496D01*
X118425591Y-156631563D01*
X118335394Y-156599239D01*
X118269756Y-156574093D01*
X118269756Y-156384760D01*
X118269756Y-156195427D01*
X118352333Y-156242435D01*
X118441145Y-156290882D01*
X118521605Y-156329938D01*
X118598041Y-156361446D01*
X118674782Y-156387247D01*
X118727108Y-156401890D01*
X118840898Y-156425760D01*
X118952620Y-156438008D01*
X119060342Y-156438806D01*
X119162134Y-156428324D01*
X119256062Y-156406735D01*
X119340195Y-156374209D01*
X119395980Y-156342558D01*
X119440016Y-156310832D01*
X119473209Y-156280243D01*
X119500494Y-156245762D01*
X119517563Y-156218596D01*
X119552288Y-156142721D01*
X119572273Y-156059260D01*
X119577320Y-155969319D01*
X119573009Y-155912003D01*
X119557490Y-155832882D01*
X119531034Y-155764807D01*
X119492603Y-155706559D01*
X119441157Y-155656917D01*
X119375657Y-155614663D01*
X119295063Y-155578576D01*
X119286095Y-155575245D01*
X119256197Y-155565417D01*
X119213396Y-155552841D01*
X119161310Y-155538504D01*
X119103558Y-155523392D01*
X119043759Y-155508493D01*
X119023540Y-155503636D01*
X118944840Y-155484723D01*
X118880013Y-155468599D01*
X118826377Y-155454464D01*
X118781250Y-155441517D01*
X118741951Y-155428957D01*
X118705798Y-155415985D01*
X118670110Y-155401799D01*
X118641086Y-155389470D01*
X118539866Y-155338157D01*
X118453259Y-155278318D01*
X118381182Y-155209855D01*
X118323555Y-155132672D01*
X118280297Y-155046671D01*
X118251328Y-154951755D01*
X118243995Y-154912991D01*
X118239310Y-154868123D01*
X118237320Y-154813168D01*
X118237841Y-154753030D01*
X118240690Y-154692615D01*
X118245682Y-154636829D01*
X118252635Y-154590578D01*
X118256722Y-154572811D01*
X118286809Y-154481151D01*
X118325251Y-154400543D01*
X118374786Y-154326058D01*
X118429377Y-154262037D01*
X118510464Y-154186946D01*
X118600854Y-154125244D01*
X118700923Y-154076791D01*
X118811045Y-154041445D01*
X118931595Y-154019064D01*
X119062947Y-154009506D01*
X119097357Y-154009103D01*
X119244069Y-154016436D01*
G37*
G36*
X130045810Y-153879527D02*
G01*
X130128867Y-153884391D01*
X130205099Y-153892526D01*
X130239966Y-153897942D01*
X130335078Y-153917170D01*
X130438108Y-153942352D01*
X130541944Y-153971632D01*
X130626741Y-153998771D01*
X130698732Y-154023304D01*
X130701003Y-154223692D01*
X130703273Y-154424079D01*
X130645951Y-154388824D01*
X130533253Y-154327221D01*
X130415037Y-154276998D01*
X130293510Y-154238533D01*
X130170873Y-154212207D01*
X130049331Y-154198399D01*
X129931088Y-154197488D01*
X129818348Y-154209853D01*
X129728975Y-154230940D01*
X129676471Y-154251117D01*
X129619807Y-154279953D01*
X129565995Y-154313502D01*
X129523177Y-154346793D01*
X129479540Y-154395321D01*
X129441789Y-154455645D01*
X129414630Y-154518199D01*
X129401966Y-154570100D01*
X129395387Y-154631700D01*
X129394891Y-154696887D01*
X129400476Y-154759551D01*
X129412141Y-154813584D01*
X129414717Y-154821438D01*
X129435432Y-154871206D01*
X129461575Y-154915229D01*
X129494510Y-154954310D01*
X129535604Y-154989254D01*
X129586221Y-155020863D01*
X129647727Y-155049941D01*
X129721487Y-155077292D01*
X129808868Y-155103718D01*
X129911235Y-155130025D01*
X129957652Y-155140916D01*
X130062621Y-155165762D01*
X130153079Y-155188968D01*
X130231283Y-155211273D01*
X130299492Y-155233420D01*
X130359965Y-155256150D01*
X130414959Y-155280203D01*
X130466735Y-155306320D01*
X130474291Y-155310422D01*
X130571396Y-155371464D01*
X130654231Y-155440680D01*
X130723147Y-155518658D01*
X130778494Y-155605989D01*
X130820624Y-155703259D01*
X130849887Y-155811059D01*
X130866634Y-155929977D01*
X130869586Y-155973991D01*
X130869173Y-156089953D01*
X130856684Y-156202093D01*
X130832716Y-156308259D01*
X130797868Y-156406303D01*
X130752735Y-156494073D01*
X130707233Y-156558385D01*
X130641788Y-156626556D01*
X130563149Y-156688907D01*
X130474658Y-156743271D01*
X130379663Y-156787483D01*
X130322012Y-156807900D01*
X130231050Y-156831421D01*
X130128092Y-156849448D01*
X130017288Y-156861600D01*
X129902792Y-156867495D01*
X129788756Y-156866752D01*
X129722742Y-156862996D01*
X129600389Y-156849027D01*
X129472835Y-156826257D01*
X129348317Y-156796197D01*
X129329806Y-156790979D01*
X129286006Y-156777825D01*
X129238911Y-156762765D01*
X129191570Y-156746879D01*
X129147030Y-156731245D01*
X129108338Y-156716944D01*
X129078543Y-156705054D01*
X129060691Y-156696657D01*
X129057614Y-156694553D01*
X129055892Y-156684733D01*
X129054527Y-156660373D01*
X129053568Y-156623872D01*
X129053063Y-156577627D01*
X129053061Y-156524034D01*
X129053380Y-156483746D01*
X129055651Y-156278984D01*
X129106468Y-156309737D01*
X129205185Y-156365146D01*
X129309359Y-156415722D01*
X129415027Y-156459866D01*
X129518230Y-156495979D01*
X129615004Y-156522461D01*
X129652750Y-156530321D01*
X129713249Y-156538816D01*
X129782768Y-156544063D01*
X129856794Y-156546100D01*
X129930814Y-156544967D01*
X130000314Y-156540702D01*
X130060781Y-156533346D01*
X130094936Y-156526473D01*
X130192852Y-156495305D01*
X130277175Y-156454136D01*
X130347853Y-156403018D01*
X130404835Y-156342004D01*
X130448069Y-156271149D01*
X130477504Y-156190505D01*
X130491688Y-156113850D01*
X130495406Y-156024292D01*
X130486476Y-155937959D01*
X130465506Y-155857937D01*
X130433103Y-155787310D01*
X130424836Y-155773858D01*
X130398269Y-155737261D01*
X130367699Y-155704589D01*
X130331591Y-155675127D01*
X130288413Y-155648160D01*
X130236630Y-155622970D01*
X130174708Y-155598842D01*
X130101113Y-155575059D01*
X130014310Y-155550907D01*
X129912767Y-155525668D01*
X129873311Y-155516410D01*
X129764148Y-155490098D01*
X129669586Y-155464924D01*
X129587399Y-155440070D01*
X129515363Y-155414718D01*
X129451252Y-155388049D01*
X129392842Y-155359246D01*
X129337907Y-155327490D01*
X129308969Y-155308869D01*
X129225589Y-155244023D01*
X129156313Y-155169820D01*
X129101133Y-155086248D01*
X129060044Y-154993291D01*
X129033039Y-154890935D01*
X129020112Y-154779168D01*
X129020304Y-154674424D01*
X129033555Y-154553542D01*
X129060682Y-154442176D01*
X129101911Y-154339814D01*
X129157468Y-154245940D01*
X129227579Y-154160042D01*
X129261596Y-154126052D01*
X129346428Y-154054788D01*
X129436713Y-153996629D01*
X129534845Y-153950412D01*
X129643217Y-153914971D01*
X129738949Y-153893583D01*
X129802498Y-153884961D01*
X129877945Y-153879771D01*
X129960609Y-153877973D01*
X130045810Y-153879527D01*
G37*
G36*
X144207568Y-153877342D02*
G01*
X144342328Y-153890180D01*
X144465283Y-153914535D01*
X144577415Y-153950812D01*
X144679704Y-153999415D01*
X144773132Y-154060752D01*
X144858681Y-154135228D01*
X144877266Y-154154175D01*
X144939893Y-154231441D01*
X144990396Y-154319489D01*
X145025467Y-154407135D01*
X145036277Y-154441218D01*
X145043963Y-154470725D01*
X145049213Y-154500254D01*
X145052714Y-154534399D01*
X145055156Y-154577760D01*
X145056562Y-154614881D01*
X145058027Y-154667575D01*
X145058099Y-154707762D01*
X145056474Y-154739839D01*
X145052850Y-154768202D01*
X145046925Y-154797248D01*
X145042877Y-154813914D01*
X145010826Y-154908977D01*
X144964901Y-154994331D01*
X144905125Y-155069955D01*
X144831521Y-155135825D01*
X144744111Y-155191916D01*
X144642919Y-155238208D01*
X144611288Y-155249696D01*
X144582492Y-155260284D01*
X144568304Y-155267545D01*
X144566985Y-155272593D01*
X144571756Y-155275063D01*
X144656810Y-155306883D01*
X144728309Y-155338431D01*
X144789518Y-155371437D01*
X144843700Y-155407634D01*
X144886321Y-155441900D01*
X144957884Y-155512464D01*
X145015940Y-155589179D01*
X145062117Y-155674699D01*
X145098043Y-155771677D01*
X145106250Y-155800366D01*
X145112240Y-155825613D01*
X145116572Y-155852492D01*
X145119480Y-155884251D01*
X145121197Y-155924135D01*
X145121956Y-155975392D01*
X145122041Y-156020573D01*
X145121506Y-156086400D01*
X145119726Y-156139224D01*
X145116120Y-156182970D01*
X145110104Y-156221561D01*
X145101097Y-156258921D01*
X145088516Y-156298974D01*
X145075171Y-156336453D01*
X145030093Y-156435155D01*
X144970925Y-156525130D01*
X144898403Y-156605841D01*
X144813265Y-156676752D01*
X144716246Y-156737327D01*
X144608085Y-156787031D01*
X144489516Y-156825327D01*
X144368589Y-156850547D01*
X144302182Y-156858626D01*
X144224172Y-156864167D01*
X144139727Y-156867017D01*
X144054016Y-156867019D01*
X143972207Y-156864019D01*
X143955357Y-156862949D01*
X143839833Y-156851216D01*
X143715252Y-156831798D01*
X143587057Y-156805766D01*
X143460693Y-156774190D01*
X143373529Y-156748507D01*
X143305568Y-156727038D01*
X143305568Y-156532608D01*
X143305692Y-156477258D01*
X143306039Y-156428038D01*
X143306575Y-156387316D01*
X143307261Y-156357458D01*
X143308062Y-156340830D01*
X143308553Y-156338179D01*
X143316917Y-156341578D01*
X143337495Y-156350838D01*
X143367200Y-156364547D01*
X143402948Y-156381296D01*
X143403342Y-156381482D01*
X143551834Y-156443021D01*
X143703693Y-156489441D01*
X143856712Y-156520152D01*
X143968070Y-156532326D01*
X144100367Y-156536324D01*
X144220237Y-156528933D01*
X144327827Y-156510115D01*
X144423284Y-156479832D01*
X144506754Y-156438043D01*
X144578385Y-156384712D01*
X144596694Y-156367351D01*
X144650832Y-156303052D01*
X144691465Y-156231383D01*
X144719077Y-156151040D01*
X144734151Y-156060717D01*
X144737518Y-155986695D01*
X144735788Y-155918790D01*
X144729706Y-155862287D01*
X144718321Y-155811991D01*
X144700679Y-155762709D01*
X144693358Y-155745864D01*
X144652321Y-155672385D01*
X144599466Y-155608866D01*
X144533583Y-155554158D01*
X144453461Y-155507110D01*
X144430657Y-155496223D01*
X144392801Y-155479771D01*
X144357053Y-155466616D01*
X144320756Y-155456351D01*
X144281252Y-155448569D01*
X144235885Y-155442865D01*
X144181998Y-155438830D01*
X144116932Y-155436059D01*
X144038032Y-155434144D01*
X144023357Y-155433880D01*
X143805268Y-155430097D01*
X143805268Y-155270100D01*
X143805268Y-155110103D01*
X143976775Y-155110079D01*
X144035164Y-155109596D01*
X144093476Y-155108267D01*
X144147457Y-155106252D01*
X144192854Y-155103706D01*
X144224507Y-155100898D01*
X144321090Y-155083080D01*
X144408040Y-155054349D01*
X144484199Y-155015385D01*
X144548407Y-154966872D01*
X144599502Y-154909490D01*
X144626811Y-154864481D01*
X144647668Y-154817124D01*
X144661072Y-154770235D01*
X144668201Y-154718145D01*
X144670237Y-154655889D01*
X144663299Y-154564696D01*
X144642872Y-154483531D01*
X144609207Y-154412515D01*
X144562552Y-154351770D01*
X144503160Y-154301416D01*
X144431279Y-154261575D01*
X144347162Y-154232368D01*
X144251057Y-154213917D01*
X144143216Y-154206341D01*
X144023888Y-154209763D01*
X143893325Y-154224303D01*
X143808071Y-154238722D01*
X143759656Y-154249041D01*
X143701943Y-154263139D01*
X143639604Y-154279706D01*
X143577312Y-154297435D01*
X143519739Y-154315014D01*
X143471556Y-154331135D01*
X143451136Y-154338754D01*
X143426199Y-154348331D01*
X143408365Y-154354711D01*
X143402653Y-154356318D01*
X143401497Y-154348258D01*
X143400475Y-154325716D01*
X143399642Y-154291149D01*
X143399051Y-154247012D01*
X143398756Y-154195764D01*
X143398732Y-154175893D01*
X143398732Y-153995467D01*
X143532127Y-153964569D01*
X143663198Y-153935564D01*
X143780567Y-153912584D01*
X143886264Y-153895366D01*
X143982315Y-153883648D01*
X144070748Y-153877168D01*
X144153592Y-153875665D01*
X144207568Y-153877342D01*
G37*
G36*
X124966363Y-152103646D02*
G01*
X125012225Y-152104238D01*
X125049311Y-152105144D01*
X125075117Y-152106299D01*
X125087137Y-152107635D01*
X125087695Y-152108002D01*
X125085926Y-152116579D01*
X125080721Y-152140991D01*
X125072237Y-152180517D01*
X125060630Y-152234439D01*
X125046054Y-152302037D01*
X125028666Y-152382591D01*
X125008620Y-152475381D01*
X124986074Y-152579689D01*
X124961182Y-152694794D01*
X124934100Y-152819978D01*
X124904984Y-152954520D01*
X124873989Y-153097700D01*
X124841271Y-153248801D01*
X124806986Y-153407101D01*
X124771289Y-153571881D01*
X124734335Y-153742422D01*
X124696281Y-153918004D01*
X124659486Y-154087745D01*
X124606639Y-154331507D01*
X124557262Y-154559264D01*
X124511236Y-154771563D01*
X124468441Y-154968955D01*
X124428759Y-155151987D01*
X124392070Y-155321209D01*
X124358254Y-155477169D01*
X124327194Y-155620415D01*
X124298770Y-155751498D01*
X124272862Y-155870965D01*
X124249352Y-155979366D01*
X124228120Y-156077248D01*
X124209047Y-156165162D01*
X124192015Y-156243655D01*
X124176903Y-156313277D01*
X124163594Y-156374575D01*
X124151967Y-156428100D01*
X124141903Y-156474400D01*
X124133285Y-156514023D01*
X124125991Y-156547518D01*
X124119904Y-156575435D01*
X124114904Y-156598321D01*
X124110871Y-156616726D01*
X124107688Y-156631198D01*
X124105234Y-156642287D01*
X124103390Y-156650540D01*
X124102038Y-156656508D01*
X124101059Y-156660737D01*
X124100332Y-156663778D01*
X124099740Y-156666179D01*
X124099692Y-156666371D01*
X124097633Y-156672925D01*
X124093680Y-156677771D01*
X124085548Y-156681169D01*
X124070953Y-156683375D01*
X124047610Y-156684647D01*
X124013235Y-156685242D01*
X123965543Y-156685417D01*
X123930510Y-156685428D01*
X123873933Y-156685373D01*
X123831964Y-156685037D01*
X123802274Y-156684162D01*
X123782531Y-156682491D01*
X123770407Y-156679766D01*
X123763570Y-156675730D01*
X123759690Y-156670126D01*
X123758010Y-156666371D01*
X123755007Y-156655542D01*
X123748603Y-156629637D01*
X123739128Y-156590094D01*
X123726908Y-156538347D01*
X123712274Y-156475831D01*
X123695552Y-156403983D01*
X123677072Y-156324238D01*
X123657161Y-156238031D01*
X123636149Y-156146798D01*
X123614363Y-156051974D01*
X123592132Y-155954996D01*
X123569784Y-155857298D01*
X123547648Y-155760315D01*
X123526051Y-155665485D01*
X123505323Y-155574241D01*
X123485792Y-155488020D01*
X123467786Y-155408257D01*
X123451633Y-155336388D01*
X123437662Y-155273847D01*
X123426201Y-155222072D01*
X123417578Y-155182496D01*
X123412123Y-155156556D01*
X123410163Y-155145697D01*
X123409413Y-155139669D01*
X123407687Y-155139098D01*
X123404764Y-155144889D01*
X123400420Y-155157945D01*
X123394435Y-155179171D01*
X123386586Y-155209471D01*
X123376651Y-155249750D01*
X123364407Y-155300911D01*
X123349634Y-155363859D01*
X123332109Y-155439499D01*
X123311609Y-155528734D01*
X123287914Y-155632469D01*
X123260800Y-155751608D01*
X123253570Y-155783427D01*
X123229972Y-155887305D01*
X123206742Y-155989557D01*
X123184264Y-156088489D01*
X123162923Y-156182409D01*
X123143105Y-156269624D01*
X123125192Y-156348442D01*
X123109571Y-156417169D01*
X123096625Y-156474112D01*
X123086740Y-156517580D01*
X123081310Y-156541446D01*
X123049496Y-156681193D01*
X122882670Y-156683490D01*
X122822442Y-156684070D01*
X122777334Y-156683868D01*
X122745538Y-156682794D01*
X122725251Y-156680759D01*
X122714666Y-156677671D01*
X122712120Y-156675021D01*
X122709945Y-156664102D01*
X122705675Y-156638684D01*
X122699664Y-156601028D01*
X122692268Y-156553395D01*
X122683841Y-156498047D01*
X122674738Y-156437245D01*
X122673862Y-156431343D01*
X122663417Y-156361008D01*
X122652482Y-156287588D01*
X122641690Y-156215302D01*
X122631670Y-156148368D01*
X122623053Y-156091007D01*
X122618175Y-156058686D01*
X122597801Y-155923859D01*
X122577128Y-155786610D01*
X122556304Y-155647952D01*
X122535480Y-155508899D01*
X122514803Y-155370464D01*
X122494423Y-155233663D01*
X122474490Y-155099509D01*
X122455153Y-154969016D01*
X122436560Y-154843198D01*
X122418862Y-154723069D01*
X122402206Y-154609643D01*
X122386743Y-154503935D01*
X122372621Y-154406958D01*
X122359990Y-154319726D01*
X122348999Y-154243253D01*
X122339797Y-154178554D01*
X122332533Y-154126642D01*
X122327356Y-154088531D01*
X122324416Y-154065236D01*
X122323809Y-154057769D01*
X122333065Y-154055827D01*
X122356639Y-154054126D01*
X122391908Y-154052761D01*
X122436252Y-154051828D01*
X122487050Y-154051425D01*
X122495960Y-154051416D01*
X122553666Y-154051531D01*
X122596649Y-154052000D01*
X122627127Y-154053015D01*
X122647315Y-154054767D01*
X122659430Y-154057445D01*
X122665688Y-154061242D01*
X122668276Y-154066238D01*
X122669751Y-154076378D01*
X122673067Y-154102308D01*
X122678102Y-154142993D01*
X122684731Y-154197399D01*
X122692832Y-154264492D01*
X122702280Y-154343235D01*
X122712952Y-154432595D01*
X122724724Y-154531538D01*
X122737473Y-154639028D01*
X122751075Y-154754030D01*
X122765406Y-154875512D01*
X122780343Y-155002436D01*
X122793732Y-155116455D01*
X122809075Y-155246953D01*
X122823928Y-155372698D01*
X122838167Y-155492673D01*
X122851668Y-155605863D01*
X122864308Y-155711253D01*
X122875964Y-155807829D01*
X122886512Y-155894573D01*
X122895829Y-155970472D01*
X122903792Y-156034510D01*
X122910276Y-156085672D01*
X122915160Y-156122942D01*
X122918319Y-156145306D01*
X122919580Y-156151850D01*
X122921966Y-156143766D01*
X122927564Y-156120334D01*
X122936108Y-156082783D01*
X122947328Y-156032342D01*
X122960958Y-155970241D01*
X122976729Y-155897709D01*
X122994373Y-155815975D01*
X123013622Y-155726269D01*
X123034210Y-155629820D01*
X123055867Y-155527857D01*
X123066756Y-155476408D01*
X123088932Y-155371770D01*
X123110239Y-155271733D01*
X123130403Y-155177565D01*
X123149147Y-155090529D01*
X123166196Y-155011892D01*
X123181272Y-154942919D01*
X123194101Y-154884876D01*
X123204406Y-154839029D01*
X123211911Y-154806642D01*
X123216341Y-154788982D01*
X123217273Y-154786145D01*
X123221191Y-154781216D01*
X123228559Y-154777510D01*
X123241556Y-154774855D01*
X123262362Y-154773080D01*
X123293155Y-154772015D01*
X123336114Y-154771487D01*
X123393418Y-154771326D01*
X123406108Y-154771323D01*
X123587213Y-154771323D01*
X123599128Y-154824257D01*
X123602776Y-154840870D01*
X123609665Y-154872657D01*
X123619497Y-154918227D01*
X123631973Y-154976188D01*
X123646795Y-155045150D01*
X123663663Y-155123722D01*
X123682279Y-155210513D01*
X123702343Y-155304131D01*
X123723558Y-155403186D01*
X123745625Y-155506287D01*
X123750131Y-155527349D01*
X123777591Y-155655306D01*
X123801804Y-155767241D01*
X123822902Y-155863732D01*
X123841020Y-155945355D01*
X123856291Y-156012687D01*
X123868848Y-156066305D01*
X123878825Y-156106785D01*
X123886355Y-156134705D01*
X123891572Y-156150641D01*
X123894610Y-156155170D01*
X123895203Y-156154091D01*
X123897452Y-156143774D01*
X123903000Y-156117600D01*
X123911696Y-156076296D01*
X123923388Y-156020590D01*
X123937924Y-155951208D01*
X123955152Y-155868877D01*
X123974920Y-155774325D01*
X123997078Y-155668278D01*
X124021472Y-155551464D01*
X124047951Y-155424609D01*
X124076364Y-155288440D01*
X124106558Y-155143685D01*
X124138382Y-154991070D01*
X124171684Y-154831323D01*
X124206312Y-154665170D01*
X124242115Y-154493339D01*
X124278940Y-154316557D01*
X124316519Y-154136111D01*
X124354197Y-153955179D01*
X124390992Y-153778505D01*
X124426753Y-153606816D01*
X124461329Y-153440835D01*
X124494568Y-153281289D01*
X124526320Y-153128901D01*
X124556433Y-152984397D01*
X124584756Y-152848501D01*
X124611139Y-152721939D01*
X124635430Y-152605435D01*
X124657477Y-152499715D01*
X124677131Y-152405502D01*
X124694239Y-152323523D01*
X124708650Y-152254501D01*
X124720214Y-152199163D01*
X124728779Y-152158232D01*
X124734195Y-152132433D01*
X124736309Y-152122493D01*
X124736310Y-152122490D01*
X124738195Y-152116087D01*
X124741915Y-152111308D01*
X124749686Y-152107915D01*
X124763725Y-152105671D01*
X124786249Y-152104338D01*
X124819475Y-152103679D01*
X124865620Y-152103457D01*
X124914232Y-152103434D01*
X124966363Y-152103646D01*
G37*
D12*
%TO.C,J16*%
X39350000Y-155900000D02*
X41890000Y-155900000D01*
X40260000Y-156900000D02*
X91460000Y-156900000D01*
X40260000Y-162200000D02*
X40260000Y-156900000D01*
X41000000Y-162200000D02*
X40260000Y-162200000D01*
X42700000Y-154290000D02*
X43300000Y-154290000D01*
X43000000Y-154890000D02*
X42700000Y-154290000D01*
X43300000Y-154290000D02*
X43000000Y-154890000D01*
X44000000Y-155900000D02*
X47080000Y-155900000D01*
X45000000Y-162200000D02*
X46080000Y-162200000D01*
X49080000Y-155900000D02*
X52160000Y-155900000D01*
X50080000Y-162200000D02*
X51160000Y-162200000D01*
X54160000Y-155900000D02*
X57240000Y-155900000D01*
X55160000Y-162200000D02*
X56240000Y-162200000D01*
X59240000Y-155900000D02*
X62320000Y-155900000D01*
X60240000Y-162200000D02*
X61320000Y-162200000D01*
X64320000Y-155900000D02*
X67400000Y-155900000D01*
X65320000Y-162200000D02*
X66400000Y-162200000D01*
X69400000Y-155900000D02*
X72480000Y-155900000D01*
X70400000Y-162200000D02*
X71480000Y-162200000D01*
X74480000Y-155900000D02*
X77560000Y-155900000D01*
X75480000Y-162200000D02*
X76560000Y-162200000D01*
X79560000Y-155900000D02*
X82640000Y-155900000D01*
X80560000Y-162200000D02*
X81640000Y-162200000D01*
X84640000Y-155900000D02*
X87720000Y-155900000D01*
X85640000Y-162200000D02*
X86720000Y-162200000D01*
X91460000Y-156900000D02*
X91460000Y-162200000D01*
X91460000Y-162200000D02*
X90720000Y-162200000D01*
X92370000Y-155900000D02*
X89830000Y-155900000D01*
X39350000Y-155090000D02*
X92370000Y-155090000D01*
X92370000Y-163910000D01*
X39350000Y-163910000D01*
X39350000Y-155090000D01*
X42000000Y-155090000D02*
X44000000Y-155090000D01*
X44000000Y-156900000D01*
X42000000Y-156900000D01*
X42000000Y-155090000D01*
X47080000Y-155090000D02*
X49080000Y-155090000D01*
X49080000Y-156900000D01*
X47080000Y-156900000D01*
X47080000Y-155090000D01*
X52160000Y-155090000D02*
X54160000Y-155090000D01*
X54160000Y-156900000D01*
X52160000Y-156900000D01*
X52160000Y-155090000D01*
X57240000Y-155090000D02*
X59240000Y-155090000D01*
X59240000Y-156900000D01*
X57240000Y-156900000D01*
X57240000Y-155090000D01*
X62320000Y-155090000D02*
X64320000Y-155090000D01*
X64320000Y-156900000D01*
X62320000Y-156900000D01*
X62320000Y-155090000D01*
X67400000Y-155090000D02*
X69400000Y-155090000D01*
X69400000Y-156900000D01*
X67400000Y-156900000D01*
X67400000Y-155090000D01*
X72480000Y-155090000D02*
X74480000Y-155090000D01*
X74480000Y-156900000D01*
X72480000Y-156900000D01*
X72480000Y-155090000D01*
X77560000Y-155090000D02*
X79560000Y-155090000D01*
X79560000Y-156900000D01*
X77560000Y-156900000D01*
X77560000Y-155090000D01*
X82640000Y-155090000D02*
X84640000Y-155090000D01*
X84640000Y-156900000D01*
X82640000Y-156900000D01*
X82640000Y-155090000D01*
X87720000Y-155090000D02*
X89720000Y-155090000D01*
X89720000Y-156900000D01*
X87720000Y-156900000D01*
X87720000Y-155090000D01*
X44986842Y-162215821D02*
G75*
G02*
X41000000Y-162200000I-1986842J1665821D01*
G01*
X50066842Y-162215821D02*
G75*
G02*
X46080000Y-162200000I-1986842J1665821D01*
G01*
X55146842Y-162215821D02*
G75*
G02*
X51160000Y-162200000I-1986842J1665821D01*
G01*
X60226842Y-162215821D02*
G75*
G02*
X56240000Y-162200000I-1986842J1665821D01*
G01*
X65306842Y-162215821D02*
G75*
G02*
X61320000Y-162200000I-1986842J1665821D01*
G01*
X70386842Y-162215821D02*
G75*
G02*
X66400000Y-162200000I-1986842J1665821D01*
G01*
X75466842Y-162215821D02*
G75*
G02*
X71480000Y-162200000I-1986842J1665821D01*
G01*
X80546842Y-162215821D02*
G75*
G02*
X76560000Y-162200000I-1986842J1665821D01*
G01*
X85626842Y-162215821D02*
G75*
G02*
X81640000Y-162200000I-1986842J1665821D01*
G01*
X90706842Y-162215821D02*
G75*
G02*
X86720000Y-162200000I-1986842J1665821D01*
G01*
%TO.C,J4*%
X155190000Y-116190000D02*
X156460000Y-116190000D01*
X155190000Y-117460000D02*
X155190000Y-116190000D01*
X157537358Y-119570000D02*
X157922642Y-119570000D01*
X157537358Y-120430000D02*
X157922642Y-120430000D01*
X157537358Y-122110000D02*
X157922642Y-122110000D01*
X157537358Y-122970000D02*
X157922642Y-122970000D01*
X157537358Y-124650000D02*
X157922642Y-124650000D01*
X157537358Y-125510000D02*
X157922642Y-125510000D01*
X157537358Y-127190000D02*
X157922642Y-127190000D01*
X157537358Y-128050000D02*
X157922642Y-128050000D01*
X157537358Y-129730000D02*
X157922642Y-129730000D01*
X157537358Y-130590000D02*
X157922642Y-130590000D01*
X157620000Y-117030000D02*
X157922642Y-117030000D01*
X157620000Y-117890000D02*
X157922642Y-117890000D01*
X160077358Y-117030000D02*
X160390000Y-117030000D01*
X160077358Y-117890000D02*
X160390000Y-117890000D01*
X160077358Y-119570000D02*
X160390000Y-119570000D01*
X160077358Y-120430000D02*
X160390000Y-120430000D01*
X160077358Y-122110000D02*
X160390000Y-122110000D01*
X160077358Y-122970000D02*
X160390000Y-122970000D01*
X160077358Y-124650000D02*
X160390000Y-124650000D01*
X160077358Y-125510000D02*
X160390000Y-125510000D01*
X160077358Y-127190000D02*
X160390000Y-127190000D01*
X160077358Y-128050000D02*
X160390000Y-128050000D01*
X160077358Y-129730000D02*
X160390000Y-129730000D01*
X160077358Y-130590000D02*
X160390000Y-130590000D01*
X160390000Y-118730000D02*
X163150000Y-118730000D01*
X160390000Y-121270000D02*
X163150000Y-121270000D01*
X160390000Y-123810000D02*
X163150000Y-123810000D01*
X160390000Y-126350000D02*
X163150000Y-126350000D01*
X160390000Y-128890000D02*
X163150000Y-128890000D01*
X163150000Y-119570000D02*
X169150000Y-119570000D01*
X163150000Y-122110000D02*
X169150000Y-122110000D01*
X163150000Y-124650000D02*
X169150000Y-124650000D01*
X163150000Y-127190000D02*
X169150000Y-127190000D01*
X163150000Y-129730000D02*
X169150000Y-129730000D01*
X169150000Y-119570000D02*
X169150000Y-120430000D01*
X169150000Y-120430000D02*
X163150000Y-120430000D01*
X169150000Y-122110000D02*
X169150000Y-122970000D01*
X169150000Y-122970000D02*
X163150000Y-122970000D01*
X169150000Y-124650000D02*
X169150000Y-125510000D01*
X169150000Y-125510000D02*
X163150000Y-125510000D01*
X169150000Y-127190000D02*
X169150000Y-128050000D01*
X169150000Y-128050000D02*
X163150000Y-128050000D01*
X169150000Y-129730000D02*
X169150000Y-130590000D01*
X169150000Y-130590000D02*
X163150000Y-130590000D01*
X160390000Y-116080000D02*
X163150000Y-116080000D01*
X163150000Y-131540000D01*
X160390000Y-131540000D01*
X160390000Y-116080000D01*
X163150000Y-117030000D02*
X169150000Y-117030000D01*
X169150000Y-117890000D01*
X163150000Y-117890000D01*
X163150000Y-117030000D01*
G36*
X163150000Y-117030000D02*
G01*
X169150000Y-117030000D01*
X169150000Y-117890000D01*
X163150000Y-117890000D01*
X163150000Y-117030000D01*
G37*
D13*
%TO.C,EHU*%
G36*
X153662266Y-157366374D02*
G01*
X153662266Y-157522948D01*
X153088650Y-157525124D01*
X152515033Y-157527300D01*
X152512799Y-157800286D01*
X152510565Y-158073272D01*
X153041966Y-158075453D01*
X153573366Y-158077633D01*
X153575678Y-158227916D01*
X153577990Y-158378200D01*
X153044289Y-158378200D01*
X152510588Y-158378200D01*
X152512811Y-158685116D01*
X152515033Y-158992033D01*
X153097116Y-158994208D01*
X153679200Y-158996383D01*
X153679200Y-159152958D01*
X153679200Y-159309533D01*
X152912966Y-159309533D01*
X152146733Y-159309533D01*
X152146733Y-158259666D01*
X152146733Y-157209800D01*
X152904500Y-157209800D01*
X153662266Y-157209800D01*
X153662266Y-157366374D01*
G37*
G36*
X154358570Y-157626783D02*
G01*
X154360766Y-158043766D01*
X154837016Y-158045953D01*
X155313266Y-158048140D01*
X155313266Y-157628970D01*
X155313266Y-157209800D01*
X155499533Y-157209800D01*
X155685799Y-157209800D01*
X155685799Y-158259666D01*
X155685799Y-159309533D01*
X155499533Y-159309533D01*
X155313266Y-159309533D01*
X155313266Y-158835400D01*
X155313266Y-158361266D01*
X154834900Y-158361266D01*
X154356533Y-158361266D01*
X154356533Y-158835400D01*
X154356533Y-159309533D01*
X154174500Y-159309533D01*
X153992466Y-159309533D01*
X153992466Y-158259666D01*
X153992466Y-157209800D01*
X154174420Y-157209800D01*
X154356373Y-157209800D01*
X154358570Y-157626783D01*
G37*
G36*
X156473264Y-157889250D02*
G01*
X156473337Y-158023412D01*
X156473557Y-158141796D01*
X156473961Y-158245557D01*
X156474588Y-158335850D01*
X156475478Y-158413830D01*
X156476668Y-158480651D01*
X156478197Y-158537470D01*
X156480105Y-158585440D01*
X156482430Y-158625716D01*
X156485210Y-158659455D01*
X156488484Y-158687810D01*
X156492291Y-158711936D01*
X156496670Y-158732989D01*
X156501659Y-158752124D01*
X156502244Y-158754152D01*
X156530577Y-158822914D01*
X156572716Y-158886255D01*
X156625939Y-158941341D01*
X156687524Y-158985339D01*
X156752599Y-159014719D01*
X156798371Y-159025672D01*
X156856017Y-159033324D01*
X156920781Y-159037581D01*
X156987911Y-159038347D01*
X157052652Y-159035529D01*
X157110251Y-159029031D01*
X157142802Y-159022490D01*
X157222996Y-158994502D01*
X157291704Y-158954136D01*
X157348645Y-158901663D01*
X157393536Y-158837358D01*
X157426095Y-158761492D01*
X157431567Y-158743306D01*
X157437182Y-158720319D01*
X157442136Y-158693220D01*
X157446464Y-158660934D01*
X157450205Y-158622389D01*
X157453395Y-158576510D01*
X157456074Y-158522225D01*
X157458277Y-158458458D01*
X157460044Y-158384136D01*
X157461410Y-158298186D01*
X157462414Y-158199535D01*
X157463093Y-158087107D01*
X157463485Y-157959830D01*
X157463625Y-157825750D01*
X157463800Y-157209800D01*
X157646214Y-157209800D01*
X157828629Y-157209800D01*
X157825915Y-157965450D01*
X157823200Y-158721100D01*
X157800702Y-158803329D01*
X157763112Y-158912478D01*
X157713311Y-159009913D01*
X157651372Y-159095575D01*
X157577366Y-159169407D01*
X157491366Y-159231349D01*
X157393444Y-159281345D01*
X157283673Y-159319336D01*
X157162124Y-159345263D01*
X157120900Y-159350984D01*
X157081791Y-159354555D01*
X157033883Y-159357135D01*
X156981897Y-159358658D01*
X156930552Y-159359059D01*
X156884568Y-159358272D01*
X156848664Y-159356233D01*
X156837266Y-159354920D01*
X156818560Y-159352173D01*
X156789195Y-159347862D01*
X156755268Y-159342880D01*
X156752599Y-159342488D01*
X156663410Y-159323776D01*
X156573832Y-159294615D01*
X156488310Y-159256921D01*
X156411288Y-159212606D01*
X156356840Y-159172034D01*
X156281715Y-159097553D01*
X156219980Y-159013375D01*
X156171451Y-158919123D01*
X156135940Y-158814417D01*
X156113264Y-158698877D01*
X156109348Y-158666066D01*
X156107947Y-158644036D01*
X156106630Y-158606378D01*
X156105409Y-158554398D01*
X156104301Y-158489403D01*
X156103319Y-158412698D01*
X156102478Y-158325590D01*
X156101792Y-158229383D01*
X156101277Y-158125385D01*
X156100945Y-158014900D01*
X156100813Y-157899235D01*
X156100813Y-157897716D01*
X156100666Y-157209800D01*
X156286933Y-157209800D01*
X156473199Y-157209800D01*
X156473264Y-157889250D01*
G37*
G36*
X151638083Y-150710556D02*
G01*
X151735759Y-150711602D01*
X151841358Y-150713320D01*
X151952632Y-150715662D01*
X152067334Y-150718580D01*
X152183218Y-150722024D01*
X152298035Y-150725947D01*
X152409540Y-150730299D01*
X152515484Y-150735032D01*
X152542987Y-150736376D01*
X152619307Y-150740446D01*
X152680585Y-150744440D01*
X152728704Y-150748668D01*
X152765552Y-150753439D01*
X152793015Y-150759063D01*
X152812976Y-150765849D01*
X152827323Y-150774107D01*
X152837941Y-150784147D01*
X152838559Y-150784882D01*
X152844989Y-150796245D01*
X152856827Y-150820575D01*
X152872866Y-150855254D01*
X152891896Y-150897664D01*
X152912708Y-150945185D01*
X152914759Y-150949928D01*
X152935896Y-150998334D01*
X152955562Y-151042390D01*
X152972492Y-151079337D01*
X152985421Y-151106415D01*
X152993083Y-151120868D01*
X152993400Y-151121350D01*
X153014692Y-151138394D01*
X153051230Y-151149808D01*
X153102218Y-151155385D01*
X153125515Y-151155931D01*
X153155251Y-151157860D01*
X153199192Y-151163186D01*
X153255050Y-151171473D01*
X153320537Y-151182286D01*
X153393364Y-151195189D01*
X153471242Y-151209746D01*
X153551884Y-151225523D01*
X153633001Y-151242082D01*
X153712304Y-151258988D01*
X153787505Y-151275807D01*
X153856316Y-151292101D01*
X153903705Y-151304069D01*
X153978722Y-151324905D01*
X154047760Y-151346476D01*
X154109048Y-151368066D01*
X154160815Y-151388962D01*
X154201291Y-151408452D01*
X154228704Y-151425822D01*
X154241167Y-151440043D01*
X154242966Y-151453331D01*
X154244314Y-151480758D01*
X154245224Y-151519532D01*
X154245711Y-151566866D01*
X154245790Y-151619970D01*
X154245476Y-151676055D01*
X154244784Y-151732331D01*
X154243727Y-151786009D01*
X154242321Y-151834301D01*
X154240581Y-151874416D01*
X154238743Y-151901199D01*
X154234947Y-151931930D01*
X154228194Y-151975337D01*
X154219156Y-152027556D01*
X154208507Y-152084723D01*
X154196918Y-152142976D01*
X154195266Y-152150966D01*
X154181928Y-152213721D01*
X154170952Y-152261809D01*
X154161770Y-152297245D01*
X154153814Y-152322041D01*
X154146516Y-152338208D01*
X154139938Y-152347151D01*
X154131604Y-152354557D01*
X154122008Y-152359496D01*
X154108019Y-152362306D01*
X154086507Y-152363324D01*
X154054343Y-152362887D01*
X154008397Y-152361332D01*
X154008333Y-152361330D01*
X153962568Y-152359665D01*
X153905045Y-152357627D01*
X153840929Y-152355395D01*
X153775386Y-152353150D01*
X153719702Y-152351274D01*
X153666662Y-152349132D01*
X153619292Y-152346508D01*
X153580232Y-152343608D01*
X153552125Y-152340635D01*
X153537612Y-152337794D01*
X153536385Y-152337096D01*
X153532511Y-152326293D01*
X153526827Y-152301699D01*
X153519925Y-152266285D01*
X153512395Y-152223021D01*
X153506975Y-152189066D01*
X153497769Y-152130439D01*
X153489242Y-152086181D01*
X153479299Y-152053956D01*
X153465842Y-152031430D01*
X153446777Y-152016266D01*
X153420007Y-152006129D01*
X153383438Y-151998684D01*
X153334972Y-151991596D01*
X153329023Y-151990765D01*
X153271798Y-151983016D01*
X153228922Y-151977980D01*
X153198031Y-151975643D01*
X153176764Y-151975989D01*
X153162756Y-151979002D01*
X153153646Y-151984668D01*
X153149354Y-151989595D01*
X153144276Y-152000809D01*
X153134530Y-152026324D01*
X153120741Y-152064359D01*
X153103537Y-152113130D01*
X153083544Y-152170856D01*
X153061386Y-152235753D01*
X153037691Y-152306039D01*
X153027293Y-152337153D01*
X152999232Y-152421348D01*
X152976180Y-152491030D01*
X152957860Y-152547773D01*
X152943992Y-152593151D01*
X152934298Y-152628735D01*
X152928501Y-152656102D01*
X152926321Y-152676823D01*
X152927481Y-152692473D01*
X152931701Y-152704625D01*
X152938704Y-152714853D01*
X152948211Y-152724729D01*
X152957227Y-152733241D01*
X152971995Y-152744341D01*
X152992080Y-152753874D01*
X153019087Y-152762097D01*
X153054621Y-152769266D01*
X153100285Y-152775636D01*
X153157682Y-152781465D01*
X153228418Y-152787007D01*
X153314095Y-152792518D01*
X153337063Y-152793865D01*
X153397154Y-152797515D01*
X153452159Y-152801193D01*
X153499661Y-152804712D01*
X153537246Y-152807884D01*
X153562497Y-152810519D01*
X153572661Y-152812267D01*
X153580238Y-152816350D01*
X153586917Y-152823748D01*
X153593534Y-152836745D01*
X153600924Y-152857624D01*
X153609924Y-152888667D01*
X153621369Y-152932158D01*
X153632265Y-152975137D01*
X153661000Y-153093671D01*
X153683870Y-153197776D01*
X153701113Y-153288815D01*
X153712965Y-153368156D01*
X153719663Y-153437163D01*
X153721483Y-153489504D01*
X153720751Y-153526070D01*
X153718024Y-153549584D01*
X153712604Y-153563881D01*
X153706716Y-153570556D01*
X153693564Y-153578022D01*
X153667880Y-153589734D01*
X153633075Y-153604230D01*
X153592558Y-153620049D01*
X153581833Y-153624077D01*
X153507581Y-153652440D01*
X153448449Y-153676665D01*
X153403293Y-153697319D01*
X153370966Y-153714972D01*
X153350324Y-153730192D01*
X153340220Y-153743548D01*
X153339984Y-153744144D01*
X153337528Y-153761256D01*
X153337109Y-153791495D01*
X153338429Y-153831413D01*
X153341189Y-153877560D01*
X153345093Y-153926488D01*
X153349842Y-153974748D01*
X153355138Y-154018891D01*
X153360684Y-154055468D01*
X153366181Y-154081030D01*
X153369909Y-154090628D01*
X153385377Y-154105052D01*
X153409396Y-154118707D01*
X153418498Y-154122402D01*
X153434736Y-154126193D01*
X153465795Y-154131513D01*
X153509658Y-154138088D01*
X153564309Y-154145641D01*
X153627733Y-154153897D01*
X153697913Y-154162581D01*
X153772832Y-154171417D01*
X153799887Y-154174504D01*
X153876273Y-154183332D01*
X153948870Y-154192079D01*
X154015618Y-154200470D01*
X154074459Y-154208232D01*
X154123335Y-154215091D01*
X154160187Y-154220773D01*
X154182956Y-154225003D01*
X154187098Y-154226054D01*
X154217315Y-154236515D01*
X154239987Y-154249244D01*
X154257251Y-154267172D01*
X154271245Y-154293233D01*
X154284104Y-154330357D01*
X154296666Y-154376397D01*
X154318417Y-154458746D01*
X154337502Y-154525821D01*
X154354400Y-154578987D01*
X154369587Y-154619609D01*
X154383543Y-154649052D01*
X154396743Y-154668681D01*
X154400274Y-154672510D01*
X154425449Y-154697685D01*
X154507408Y-154691804D01*
X154554645Y-154687948D01*
X154609144Y-154682798D01*
X154661381Y-154677270D01*
X154677142Y-154675443D01*
X154713805Y-154671072D01*
X154742491Y-154666437D01*
X154764236Y-154659571D01*
X154780080Y-154648507D01*
X154791062Y-154631277D01*
X154798219Y-154605915D01*
X154802591Y-154570454D01*
X154805216Y-154522927D01*
X154807132Y-154461366D01*
X154808071Y-154427464D01*
X154809781Y-154364808D01*
X154811723Y-154290020D01*
X154813779Y-154207899D01*
X154815829Y-154123242D01*
X154817755Y-154040848D01*
X154819147Y-153978923D01*
X154820710Y-153906603D01*
X154821805Y-153849302D01*
X154822343Y-153805111D01*
X154822236Y-153772119D01*
X154821396Y-153748417D01*
X154819734Y-153732095D01*
X154817163Y-153721243D01*
X154813595Y-153713952D01*
X154808941Y-153708311D01*
X154806540Y-153705873D01*
X154779485Y-153690487D01*
X154756583Y-153687714D01*
X154736939Y-153686595D01*
X154704461Y-153683484D01*
X154663072Y-153678808D01*
X154616698Y-153672994D01*
X154597833Y-153670472D01*
X154550095Y-153664003D01*
X154505357Y-153657995D01*
X154467699Y-153652993D01*
X154441201Y-153649540D01*
X154434951Y-153648753D01*
X154409567Y-153643229D01*
X154390346Y-153634896D01*
X154386995Y-153632252D01*
X154376967Y-153613757D01*
X154367808Y-153580529D01*
X154359711Y-153534757D01*
X154352867Y-153478628D01*
X154347467Y-153414329D01*
X154343702Y-153344049D01*
X154341763Y-153269974D01*
X154341842Y-153194293D01*
X154343475Y-153134331D01*
X154346186Y-153074312D01*
X154349174Y-153029014D01*
X154352862Y-152996223D01*
X154357671Y-152973728D01*
X154364024Y-152959315D01*
X154372343Y-152950772D01*
X154379168Y-152947254D01*
X154395530Y-152943171D01*
X154425101Y-152937986D01*
X154464231Y-152932153D01*
X154509266Y-152926125D01*
X154556556Y-152920358D01*
X154602447Y-152915305D01*
X154643289Y-152911419D01*
X154675428Y-152909156D01*
X154688699Y-152908766D01*
X154720940Y-152910143D01*
X154766539Y-152914025D01*
X154822175Y-152919990D01*
X154884526Y-152927616D01*
X154950272Y-152936478D01*
X155016093Y-152946155D01*
X155078668Y-152956224D01*
X155122766Y-152964019D01*
X155178844Y-152974800D01*
X155239438Y-152987104D01*
X155302252Y-153000400D01*
X155364991Y-153014157D01*
X155425359Y-153027844D01*
X155481061Y-153040929D01*
X155529801Y-153052880D01*
X155569282Y-153063167D01*
X155597210Y-153071258D01*
X155611289Y-153076622D01*
X155612229Y-153077309D01*
X155616030Y-153088700D01*
X155619532Y-153115235D01*
X155622766Y-153157342D01*
X155625765Y-153215450D01*
X155628560Y-153289987D01*
X155629036Y-153304941D01*
X155631559Y-153377843D01*
X155634156Y-153435304D01*
X155636946Y-153478816D01*
X155640044Y-153509872D01*
X155643568Y-153529963D01*
X155647490Y-153540367D01*
X155657343Y-153550238D01*
X155673619Y-153557694D01*
X155698355Y-153563018D01*
X155733588Y-153566492D01*
X155781354Y-153568398D01*
X155843690Y-153569018D01*
X155854198Y-153569018D01*
X155914293Y-153568411D01*
X155981423Y-153566794D01*
X156053368Y-153564304D01*
X156127909Y-153561078D01*
X156202827Y-153557252D01*
X156275903Y-153552965D01*
X156344919Y-153548354D01*
X156407655Y-153543555D01*
X156461892Y-153538705D01*
X156505411Y-153533943D01*
X156535994Y-153529404D01*
X156549634Y-153526034D01*
X156564588Y-153519158D01*
X156575628Y-153510039D01*
X156583206Y-153496340D01*
X156587774Y-153475721D01*
X156589783Y-153445846D01*
X156589687Y-153404375D01*
X156587935Y-153348970D01*
X156587243Y-153331453D01*
X156584739Y-153281397D01*
X156581582Y-153236190D01*
X156578061Y-153198980D01*
X156574468Y-153172920D01*
X156571624Y-153161989D01*
X156563122Y-153147076D01*
X156553063Y-153135179D01*
X156539370Y-153125747D01*
X156519965Y-153118229D01*
X156492768Y-153112073D01*
X156455703Y-153106728D01*
X156406690Y-153101643D01*
X156343652Y-153096267D01*
X156315311Y-153094012D01*
X156257683Y-153089365D01*
X156204960Y-153084907D01*
X156159731Y-153080873D01*
X156124585Y-153077498D01*
X156102111Y-153075019D01*
X156095641Y-153074027D01*
X156088624Y-153071398D01*
X156083545Y-153065494D01*
X156079909Y-153053650D01*
X156077220Y-153033204D01*
X156074981Y-153001490D01*
X156072698Y-152955846D01*
X156072389Y-152949121D01*
X156070588Y-152899187D01*
X156069170Y-152838214D01*
X156068126Y-152768596D01*
X156067446Y-152692728D01*
X156067122Y-152613004D01*
X156067144Y-152531820D01*
X156067504Y-152451570D01*
X156068191Y-152374650D01*
X156069198Y-152303454D01*
X156070515Y-152240377D01*
X156072133Y-152187813D01*
X156074043Y-152148159D01*
X156075502Y-152129799D01*
X156085990Y-152057157D01*
X156100674Y-152000394D01*
X156119713Y-151958944D01*
X156127202Y-151948245D01*
X156144229Y-151926599D01*
X156367683Y-151926599D01*
X156435348Y-151926679D01*
X156488028Y-151927000D01*
X156527674Y-151927688D01*
X156556232Y-151928867D01*
X156575653Y-151930664D01*
X156587884Y-151933202D01*
X156594874Y-151936606D01*
X156598573Y-151941002D01*
X156598793Y-151941416D01*
X156605323Y-151957992D01*
X156614829Y-151987019D01*
X156626175Y-152024520D01*
X156638225Y-152066519D01*
X156649843Y-152109041D01*
X156659893Y-152148110D01*
X156667241Y-152179748D01*
X156668185Y-152184328D01*
X156677320Y-152222654D01*
X156687750Y-152247786D01*
X156701775Y-152263430D01*
X156721694Y-152273295D01*
X156723823Y-152274016D01*
X156753757Y-152281494D01*
X156794765Y-152288367D01*
X156843862Y-152294466D01*
X156898066Y-152299620D01*
X156954390Y-152303660D01*
X157009853Y-152306414D01*
X157061468Y-152307712D01*
X157106253Y-152307385D01*
X157141223Y-152305262D01*
X157163395Y-152301174D01*
X157167466Y-152299319D01*
X157174822Y-152285822D01*
X157180883Y-152255443D01*
X157185649Y-152208183D01*
X157189121Y-152144043D01*
X157191297Y-152063026D01*
X157192018Y-152001202D01*
X157191447Y-151934931D01*
X157188286Y-151876870D01*
X157181862Y-151818849D01*
X157171512Y-151752770D01*
X157160823Y-151694094D01*
X157151106Y-151649843D01*
X157141454Y-151617612D01*
X157130958Y-151594997D01*
X157118712Y-151579595D01*
X157103807Y-151569001D01*
X157101706Y-151567892D01*
X157080573Y-151559653D01*
X157045975Y-151549106D01*
X157001103Y-151536995D01*
X156949147Y-151524068D01*
X156893298Y-151511069D01*
X156836746Y-151498744D01*
X156782682Y-151487838D01*
X156734297Y-151479099D01*
X156699249Y-151473830D01*
X156647365Y-151468291D01*
X156589570Y-151463943D01*
X156534624Y-151461375D01*
X156507377Y-151460933D01*
X156450262Y-151459173D01*
X156394435Y-151454273D01*
X156343519Y-151446803D01*
X156301140Y-151437330D01*
X156270922Y-151426424D01*
X156264546Y-151422812D01*
X156244599Y-151409742D01*
X156244599Y-151096020D01*
X156244599Y-150782297D01*
X156269348Y-150757548D01*
X156275429Y-150751286D01*
X156281065Y-150746028D01*
X156287661Y-150741749D01*
X156296623Y-150738422D01*
X156309357Y-150736022D01*
X156327268Y-150734525D01*
X156351761Y-150733903D01*
X156384243Y-150734132D01*
X156426119Y-150735186D01*
X156478795Y-150737040D01*
X156543676Y-150739668D01*
X156622168Y-150743043D01*
X156715677Y-150747142D01*
X156752599Y-150748759D01*
X156841701Y-150752581D01*
X156915765Y-150755551D01*
X156976664Y-150757685D01*
X157026272Y-150758999D01*
X157066462Y-150759510D01*
X157099108Y-150759233D01*
X157126082Y-150758184D01*
X157149259Y-150756379D01*
X157170511Y-150753835D01*
X157180166Y-150752419D01*
X157230805Y-150746439D01*
X157279716Y-150744974D01*
X157331578Y-150748280D01*
X157391066Y-150756613D01*
X157446875Y-150766987D01*
X157512788Y-150781649D01*
X157567151Y-150797701D01*
X157615328Y-150817289D01*
X157662685Y-150842559D01*
X157708681Y-150871693D01*
X157825395Y-150941674D01*
X157950044Y-151000782D01*
X158083855Y-151049387D01*
X158228055Y-151087857D01*
X158383871Y-151116561D01*
X158552529Y-151135870D01*
X158598313Y-151139374D01*
X158657630Y-151144240D01*
X158703245Y-151149613D01*
X158734022Y-151155335D01*
X158747624Y-151160324D01*
X158753095Y-151164518D01*
X158757400Y-151170415D01*
X158760736Y-151180027D01*
X158763301Y-151195361D01*
X158765294Y-151218428D01*
X158766912Y-151251236D01*
X158768354Y-151295795D01*
X158769818Y-151354113D01*
X158770751Y-151394874D01*
X158771670Y-151442139D01*
X158772653Y-151504702D01*
X158773686Y-151580929D01*
X158774756Y-151669187D01*
X158775847Y-151767842D01*
X158776948Y-151875258D01*
X158778042Y-151989802D01*
X158779117Y-152109839D01*
X158780159Y-152233736D01*
X158781153Y-152359857D01*
X158782086Y-152486569D01*
X158782944Y-152612238D01*
X158783713Y-152735228D01*
X158784379Y-152853907D01*
X158784928Y-152966639D01*
X158785346Y-153071791D01*
X158785526Y-153129822D01*
X158785639Y-153209690D01*
X158785286Y-153274342D01*
X158784158Y-153325493D01*
X158781941Y-153364858D01*
X158778325Y-153394155D01*
X158772998Y-153415097D01*
X158765648Y-153429402D01*
X158755964Y-153438786D01*
X158743634Y-153444963D01*
X158728347Y-153449650D01*
X158727400Y-153449902D01*
X158712734Y-153452120D01*
X158682959Y-153455220D01*
X158639871Y-153459061D01*
X158585264Y-153463502D01*
X158520933Y-153468403D01*
X158448671Y-153473622D01*
X158370274Y-153479019D01*
X158287536Y-153484453D01*
X158285066Y-153484612D01*
X158182387Y-153491263D01*
X158095170Y-153497168D01*
X158021972Y-153502556D01*
X157961352Y-153507654D01*
X157911865Y-153512690D01*
X157872070Y-153517892D01*
X157840523Y-153523489D01*
X157815782Y-153529707D01*
X157796403Y-153536775D01*
X157780944Y-153544921D01*
X157767962Y-153554372D01*
X157756014Y-153565357D01*
X157752688Y-153568707D01*
X157742703Y-153579863D01*
X157733889Y-153592706D01*
X157725365Y-153609553D01*
X157716247Y-153632721D01*
X157705656Y-153664526D01*
X157692707Y-153707284D01*
X157676521Y-153763313D01*
X157670341Y-153785033D01*
X157645099Y-153871815D01*
X157622625Y-153943994D01*
X157602106Y-154003513D01*
X157582725Y-154052320D01*
X157563670Y-154092361D01*
X157544126Y-154125580D01*
X157523280Y-154153925D01*
X157509278Y-154169974D01*
X157468347Y-154208051D01*
X157427988Y-154234168D01*
X157421086Y-154237356D01*
X157400390Y-154244260D01*
X157366042Y-154253434D01*
X157321060Y-154264174D01*
X157268462Y-154275773D01*
X157211267Y-154287527D01*
X157181814Y-154293256D01*
X157043849Y-154320167D01*
X156908054Y-154347818D01*
X156775579Y-154375917D01*
X156647574Y-154404172D01*
X156525188Y-154432290D01*
X156409572Y-154459980D01*
X156301875Y-154486949D01*
X156203247Y-154512905D01*
X156114838Y-154537556D01*
X156037797Y-154560609D01*
X155973274Y-154581774D01*
X155922419Y-154600756D01*
X155886382Y-154617265D01*
X155872066Y-154626070D01*
X155855672Y-154644533D01*
X155842514Y-154669942D01*
X155840882Y-154674787D01*
X155838810Y-154688529D01*
X155835963Y-154717979D01*
X155832422Y-154761935D01*
X155828264Y-154819193D01*
X155823569Y-154888549D01*
X155818414Y-154968800D01*
X155812879Y-155058743D01*
X155807043Y-155157175D01*
X155800984Y-155262892D01*
X155794780Y-155374690D01*
X155793056Y-155406399D01*
X155787134Y-155514103D01*
X155781284Y-155617278D01*
X155775588Y-155714623D01*
X155770133Y-155804839D01*
X155765001Y-155886626D01*
X155760277Y-155958682D01*
X155756046Y-156019707D01*
X155752392Y-156068402D01*
X155749398Y-156103465D01*
X155747150Y-156123597D01*
X155746301Y-156127740D01*
X155741285Y-156138796D01*
X155734687Y-156148408D01*
X155725274Y-156156748D01*
X155711816Y-156163987D01*
X155693081Y-156170296D01*
X155667837Y-156175847D01*
X155634853Y-156180810D01*
X155592897Y-156185357D01*
X155540737Y-156189658D01*
X155477143Y-156193887D01*
X155400882Y-156198212D01*
X155310723Y-156202807D01*
X155205435Y-156207841D01*
X155152399Y-156210314D01*
X155063750Y-156214128D01*
X154968118Y-156217698D01*
X154866896Y-156221010D01*
X154761478Y-156224045D01*
X154653257Y-156226789D01*
X154543626Y-156229224D01*
X154433978Y-156231336D01*
X154325707Y-156233106D01*
X154220206Y-156234521D01*
X154118867Y-156235562D01*
X154023086Y-156236214D01*
X153934253Y-156236462D01*
X153853764Y-156236287D01*
X153783010Y-156235676D01*
X153723386Y-156234610D01*
X153676284Y-156233074D01*
X153643097Y-156231053D01*
X153625220Y-156228529D01*
X153623872Y-156228077D01*
X153615607Y-156224794D01*
X153608501Y-156221322D01*
X153602458Y-156216434D01*
X153597378Y-156208901D01*
X153593166Y-156197493D01*
X153589723Y-156180984D01*
X153586951Y-156158143D01*
X153584753Y-156127743D01*
X153583032Y-156088555D01*
X153581690Y-156039351D01*
X153580628Y-155978901D01*
X153579750Y-155905978D01*
X153578959Y-155819352D01*
X153578155Y-155717796D01*
X153577600Y-155645668D01*
X153573366Y-155100121D01*
X153550049Y-155080071D01*
X153525789Y-155064603D01*
X153499712Y-155055186D01*
X153499249Y-155055101D01*
X153485735Y-155053255D01*
X153457056Y-155049768D01*
X153414882Y-155044829D01*
X153360884Y-155038629D01*
X153296730Y-155031357D01*
X153224092Y-155023204D01*
X153144638Y-155014360D01*
X153060038Y-155005013D01*
X153022048Y-155000838D01*
X152917276Y-154989240D01*
X152828214Y-154979141D01*
X152753720Y-154970388D01*
X152692652Y-154962826D01*
X152643869Y-154956301D01*
X152606228Y-154950659D01*
X152578588Y-154945745D01*
X152559805Y-154941405D01*
X152548739Y-154937486D01*
X152547335Y-154936729D01*
X152515248Y-154909622D01*
X152486857Y-154868118D01*
X152461932Y-154811673D01*
X152440243Y-154739739D01*
X152421562Y-154651773D01*
X152417376Y-154627466D01*
X152409882Y-154583023D01*
X152400250Y-154527257D01*
X152389416Y-154465498D01*
X152378311Y-154403074D01*
X152370683Y-154360766D01*
X152354345Y-154267601D01*
X152340585Y-154182569D01*
X152329644Y-154107426D01*
X152321764Y-154043922D01*
X152317187Y-153993812D01*
X152316066Y-153965103D01*
X152313597Y-153934749D01*
X152304741Y-153914018D01*
X152296690Y-153904587D01*
X152291640Y-153899794D01*
X152285909Y-153895838D01*
X152277884Y-153892608D01*
X152265949Y-153889995D01*
X152248491Y-153887887D01*
X152223894Y-153886175D01*
X152190545Y-153884747D01*
X152146828Y-153883493D01*
X152091130Y-153882303D01*
X152021835Y-153881066D01*
X151937328Y-153879672D01*
X151931236Y-153879572D01*
X151848955Y-153878282D01*
X151765727Y-153877071D01*
X151684500Y-153875974D01*
X151608222Y-153875028D01*
X151539841Y-153874270D01*
X151482303Y-153873736D01*
X151438557Y-153873463D01*
X151436262Y-153873455D01*
X151372483Y-153872874D01*
X151323295Y-153871191D01*
X151286364Y-153867806D01*
X151259355Y-153862118D01*
X151239934Y-153853525D01*
X151225766Y-153841429D01*
X151214516Y-153825227D01*
X151209050Y-153814989D01*
X151190000Y-153777212D01*
X151190000Y-152267321D01*
X151190000Y-150757430D01*
X151209745Y-150737684D01*
X151216865Y-150731207D01*
X151225123Y-150726227D01*
X151236840Y-150722454D01*
X151254331Y-150719596D01*
X151279916Y-150717364D01*
X151315913Y-150715467D01*
X151364639Y-150713614D01*
X151415062Y-150711944D01*
X151475487Y-150710679D01*
X151550577Y-150710233D01*
X151638083Y-150710556D01*
G37*
%TD*%
M02*
