%TF.GenerationSoftware,KiCad,Pcbnew,9.0.7*%
%TF.CreationDate,2026-07-27T16:20:29+02:00*%
%TF.ProjectId,INDIPI,494e4449-5049-42e6-9b69-6361645f7063,3*%
%TF.SameCoordinates,Original*%
%TF.FileFunction,Legend,Bot*%
%TF.FilePolarity,Positive*%
%FSLAX46Y46*%
G04 Gerber Fmt 4.6, Leading zero omitted, Abs format (unit mm)*
G04 Created by KiCad (PCBNEW 9.0.7) date 2026-07-27 16:20:29*
%MOMM*%
%LPD*%
G01*
G04 APERTURE LIST*
%ADD10C,0.300000*%
G04 APERTURE END LIST*
D10*
X91516917Y-165957341D02*
X90802632Y-165957341D01*
X91659774Y-166385912D02*
X91159774Y-164885912D01*
X91159774Y-164885912D02*
X90659774Y-166385912D01*
X90159775Y-166385912D02*
X90159775Y-165385912D01*
X90159775Y-164885912D02*
X90231203Y-164957341D01*
X90231203Y-164957341D02*
X90159775Y-165028769D01*
X90159775Y-165028769D02*
X90088346Y-164957341D01*
X90088346Y-164957341D02*
X90159775Y-164885912D01*
X90159775Y-164885912D02*
X90159775Y-165028769D01*
X89659774Y-165385912D02*
X89088346Y-165385912D01*
X89445489Y-164885912D02*
X89445489Y-166171626D01*
X89445489Y-166171626D02*
X89374060Y-166314484D01*
X89374060Y-166314484D02*
X89231203Y-166385912D01*
X89231203Y-166385912D02*
X89088346Y-166385912D01*
X88731203Y-165385912D02*
X87945489Y-165385912D01*
X87945489Y-165385912D02*
X88731203Y-166385912D01*
X88731203Y-166385912D02*
X87945489Y-166385912D01*
X87159774Y-166385912D02*
X87302631Y-166314484D01*
X87302631Y-166314484D02*
X87374060Y-166243055D01*
X87374060Y-166243055D02*
X87445488Y-166100198D01*
X87445488Y-166100198D02*
X87445488Y-165671626D01*
X87445488Y-165671626D02*
X87374060Y-165528769D01*
X87374060Y-165528769D02*
X87302631Y-165457341D01*
X87302631Y-165457341D02*
X87159774Y-165385912D01*
X87159774Y-165385912D02*
X86945488Y-165385912D01*
X86945488Y-165385912D02*
X86802631Y-165457341D01*
X86802631Y-165457341D02*
X86731203Y-165528769D01*
X86731203Y-165528769D02*
X86659774Y-165671626D01*
X86659774Y-165671626D02*
X86659774Y-166100198D01*
X86659774Y-166100198D02*
X86731203Y-166243055D01*
X86731203Y-166243055D02*
X86802631Y-166314484D01*
X86802631Y-166314484D02*
X86945488Y-166385912D01*
X86945488Y-166385912D02*
X87159774Y-166385912D01*
X85802631Y-166385912D02*
X85945488Y-166314484D01*
X85945488Y-166314484D02*
X86016917Y-166171626D01*
X86016917Y-166171626D02*
X86016917Y-164885912D01*
X84088346Y-165600198D02*
X83588346Y-165600198D01*
X83374060Y-166385912D02*
X84088346Y-166385912D01*
X84088346Y-166385912D02*
X84088346Y-164885912D01*
X84088346Y-164885912D02*
X83374060Y-164885912D01*
X82874060Y-165385912D02*
X82088346Y-165385912D01*
X82088346Y-165385912D02*
X82874060Y-166385912D01*
X82874060Y-166385912D02*
X82088346Y-166385912D01*
X80945488Y-166314484D02*
X81088345Y-166385912D01*
X81088345Y-166385912D02*
X81374060Y-166385912D01*
X81374060Y-166385912D02*
X81516917Y-166314484D01*
X81516917Y-166314484D02*
X81588345Y-166171626D01*
X81588345Y-166171626D02*
X81588345Y-165600198D01*
X81588345Y-165600198D02*
X81516917Y-165457341D01*
X81516917Y-165457341D02*
X81374060Y-165385912D01*
X81374060Y-165385912D02*
X81088345Y-165385912D01*
X81088345Y-165385912D02*
X80945488Y-165457341D01*
X80945488Y-165457341D02*
X80874060Y-165600198D01*
X80874060Y-165600198D02*
X80874060Y-165743055D01*
X80874060Y-165743055D02*
X81588345Y-165885912D01*
X80231203Y-166385912D02*
X80231203Y-165385912D01*
X80231203Y-164885912D02*
X80302631Y-164957341D01*
X80302631Y-164957341D02*
X80231203Y-165028769D01*
X80231203Y-165028769D02*
X80159774Y-164957341D01*
X80159774Y-164957341D02*
X80231203Y-164885912D01*
X80231203Y-164885912D02*
X80231203Y-165028769D01*
X79659774Y-165385912D02*
X78874060Y-165385912D01*
X78874060Y-165385912D02*
X79659774Y-166385912D01*
X79659774Y-166385912D02*
X78874060Y-166385912D01*
X77659774Y-166385912D02*
X77659774Y-165600198D01*
X77659774Y-165600198D02*
X77731202Y-165457341D01*
X77731202Y-165457341D02*
X77874059Y-165385912D01*
X77874059Y-165385912D02*
X78159774Y-165385912D01*
X78159774Y-165385912D02*
X78302631Y-165457341D01*
X77659774Y-166314484D02*
X77802631Y-166385912D01*
X77802631Y-166385912D02*
X78159774Y-166385912D01*
X78159774Y-166385912D02*
X78302631Y-166314484D01*
X78302631Y-166314484D02*
X78374059Y-166171626D01*
X78374059Y-166171626D02*
X78374059Y-166028769D01*
X78374059Y-166028769D02*
X78302631Y-165885912D01*
X78302631Y-165885912D02*
X78159774Y-165814484D01*
X78159774Y-165814484D02*
X77802631Y-165814484D01*
X77802631Y-165814484D02*
X77659774Y-165743055D01*
X76874059Y-166314484D02*
X76874059Y-166385912D01*
X76874059Y-166385912D02*
X76945488Y-166528769D01*
X76945488Y-166528769D02*
X77016916Y-166600198D01*
X75088345Y-166385912D02*
X75088345Y-164885912D01*
X74374059Y-166385912D02*
X74374059Y-165385912D01*
X74374059Y-165528769D02*
X74302630Y-165457341D01*
X74302630Y-165457341D02*
X74159773Y-165385912D01*
X74159773Y-165385912D02*
X73945487Y-165385912D01*
X73945487Y-165385912D02*
X73802630Y-165457341D01*
X73802630Y-165457341D02*
X73731202Y-165600198D01*
X73731202Y-165600198D02*
X73731202Y-166385912D01*
X73731202Y-165600198D02*
X73659773Y-165457341D01*
X73659773Y-165457341D02*
X73516916Y-165385912D01*
X73516916Y-165385912D02*
X73302630Y-165385912D01*
X73302630Y-165385912D02*
X73159773Y-165457341D01*
X73159773Y-165457341D02*
X73088344Y-165600198D01*
X73088344Y-165600198D02*
X73088344Y-166385912D01*
X71731202Y-166385912D02*
X71731202Y-165600198D01*
X71731202Y-165600198D02*
X71802630Y-165457341D01*
X71802630Y-165457341D02*
X71945487Y-165385912D01*
X71945487Y-165385912D02*
X72231202Y-165385912D01*
X72231202Y-165385912D02*
X72374059Y-165457341D01*
X71731202Y-166314484D02*
X71874059Y-166385912D01*
X71874059Y-166385912D02*
X72231202Y-166385912D01*
X72231202Y-166385912D02*
X72374059Y-166314484D01*
X72374059Y-166314484D02*
X72445487Y-166171626D01*
X72445487Y-166171626D02*
X72445487Y-166028769D01*
X72445487Y-166028769D02*
X72374059Y-165885912D01*
X72374059Y-165885912D02*
X72231202Y-165814484D01*
X72231202Y-165814484D02*
X71874059Y-165814484D01*
X71874059Y-165814484D02*
X71731202Y-165743055D01*
X71016916Y-165385912D02*
X71016916Y-166385912D01*
X71016916Y-165528769D02*
X70945487Y-165457341D01*
X70945487Y-165457341D02*
X70802630Y-165385912D01*
X70802630Y-165385912D02*
X70588344Y-165385912D01*
X70588344Y-165385912D02*
X70445487Y-165457341D01*
X70445487Y-165457341D02*
X70374059Y-165600198D01*
X70374059Y-165600198D02*
X70374059Y-166385912D01*
X69445487Y-166385912D02*
X69588344Y-166314484D01*
X69588344Y-166314484D02*
X69659773Y-166243055D01*
X69659773Y-166243055D02*
X69731201Y-166100198D01*
X69731201Y-166100198D02*
X69731201Y-165671626D01*
X69731201Y-165671626D02*
X69659773Y-165528769D01*
X69659773Y-165528769D02*
X69588344Y-165457341D01*
X69588344Y-165457341D02*
X69445487Y-165385912D01*
X69445487Y-165385912D02*
X69231201Y-165385912D01*
X69231201Y-165385912D02*
X69088344Y-165457341D01*
X69088344Y-165457341D02*
X69016916Y-165528769D01*
X69016916Y-165528769D02*
X68945487Y-165671626D01*
X68945487Y-165671626D02*
X68945487Y-166100198D01*
X68945487Y-166100198D02*
X69016916Y-166243055D01*
X69016916Y-166243055D02*
X69088344Y-166314484D01*
X69088344Y-166314484D02*
X69231201Y-166385912D01*
X69231201Y-166385912D02*
X69445487Y-166385912D01*
X68088344Y-166385912D02*
X68231201Y-166314484D01*
X68231201Y-166314484D02*
X68302630Y-166171626D01*
X68302630Y-166171626D02*
X68302630Y-164885912D01*
X65874059Y-165600198D02*
X65659773Y-165671626D01*
X65659773Y-165671626D02*
X65588344Y-165743055D01*
X65588344Y-165743055D02*
X65516916Y-165885912D01*
X65516916Y-165885912D02*
X65516916Y-166100198D01*
X65516916Y-166100198D02*
X65588344Y-166243055D01*
X65588344Y-166243055D02*
X65659773Y-166314484D01*
X65659773Y-166314484D02*
X65802630Y-166385912D01*
X65802630Y-166385912D02*
X66374059Y-166385912D01*
X66374059Y-166385912D02*
X66374059Y-164885912D01*
X66374059Y-164885912D02*
X65874059Y-164885912D01*
X65874059Y-164885912D02*
X65731202Y-164957341D01*
X65731202Y-164957341D02*
X65659773Y-165028769D01*
X65659773Y-165028769D02*
X65588344Y-165171626D01*
X65588344Y-165171626D02*
X65588344Y-165314484D01*
X65588344Y-165314484D02*
X65659773Y-165457341D01*
X65659773Y-165457341D02*
X65731202Y-165528769D01*
X65731202Y-165528769D02*
X65874059Y-165600198D01*
X65874059Y-165600198D02*
X66374059Y-165600198D01*
X64231202Y-166385912D02*
X64231202Y-165600198D01*
X64231202Y-165600198D02*
X64302630Y-165457341D01*
X64302630Y-165457341D02*
X64445487Y-165385912D01*
X64445487Y-165385912D02*
X64731202Y-165385912D01*
X64731202Y-165385912D02*
X64874059Y-165457341D01*
X64231202Y-166314484D02*
X64374059Y-166385912D01*
X64374059Y-166385912D02*
X64731202Y-166385912D01*
X64731202Y-166385912D02*
X64874059Y-166314484D01*
X64874059Y-166314484D02*
X64945487Y-166171626D01*
X64945487Y-166171626D02*
X64945487Y-166028769D01*
X64945487Y-166028769D02*
X64874059Y-165885912D01*
X64874059Y-165885912D02*
X64731202Y-165814484D01*
X64731202Y-165814484D02*
X64374059Y-165814484D01*
X64374059Y-165814484D02*
X64231202Y-165743055D01*
X63516916Y-166385912D02*
X63516916Y-165385912D01*
X63516916Y-165671626D02*
X63445487Y-165528769D01*
X63445487Y-165528769D02*
X63374059Y-165457341D01*
X63374059Y-165457341D02*
X63231201Y-165385912D01*
X63231201Y-165385912D02*
X63088344Y-165385912D01*
X61945488Y-166385912D02*
X61945488Y-164885912D01*
X61945488Y-166314484D02*
X62088345Y-166385912D01*
X62088345Y-166385912D02*
X62374059Y-166385912D01*
X62374059Y-166385912D02*
X62516916Y-166314484D01*
X62516916Y-166314484D02*
X62588345Y-166243055D01*
X62588345Y-166243055D02*
X62659773Y-166100198D01*
X62659773Y-166100198D02*
X62659773Y-165671626D01*
X62659773Y-165671626D02*
X62588345Y-165528769D01*
X62588345Y-165528769D02*
X62516916Y-165457341D01*
X62516916Y-165457341D02*
X62374059Y-165385912D01*
X62374059Y-165385912D02*
X62088345Y-165385912D01*
X62088345Y-165385912D02*
X61945488Y-165457341D01*
X60588345Y-166385912D02*
X60588345Y-165600198D01*
X60588345Y-165600198D02*
X60659773Y-165457341D01*
X60659773Y-165457341D02*
X60802630Y-165385912D01*
X60802630Y-165385912D02*
X61088345Y-165385912D01*
X61088345Y-165385912D02*
X61231202Y-165457341D01*
X60588345Y-166314484D02*
X60731202Y-166385912D01*
X60731202Y-166385912D02*
X61088345Y-166385912D01*
X61088345Y-166385912D02*
X61231202Y-166314484D01*
X61231202Y-166314484D02*
X61302630Y-166171626D01*
X61302630Y-166171626D02*
X61302630Y-166028769D01*
X61302630Y-166028769D02*
X61231202Y-165885912D01*
X61231202Y-165885912D02*
X61088345Y-165814484D01*
X61088345Y-165814484D02*
X60731202Y-165814484D01*
X60731202Y-165814484D02*
X60588345Y-165743055D01*
X59874059Y-165385912D02*
X59874059Y-166671626D01*
X59874059Y-166671626D02*
X59945487Y-166814484D01*
X59945487Y-166814484D02*
X60088344Y-166885912D01*
X60088344Y-166885912D02*
X60159773Y-166885912D01*
X59874059Y-164885912D02*
X59945487Y-164957341D01*
X59945487Y-164957341D02*
X59874059Y-165028769D01*
X59874059Y-165028769D02*
X59802630Y-164957341D01*
X59802630Y-164957341D02*
X59874059Y-164885912D01*
X59874059Y-164885912D02*
X59874059Y-165028769D01*
X59159773Y-166385912D02*
X59159773Y-165385912D01*
X59159773Y-164885912D02*
X59231201Y-164957341D01*
X59231201Y-164957341D02*
X59159773Y-165028769D01*
X59159773Y-165028769D02*
X59088344Y-164957341D01*
X59088344Y-164957341D02*
X59159773Y-164885912D01*
X59159773Y-164885912D02*
X59159773Y-165028769D01*
X58374058Y-166314484D02*
X58374058Y-166385912D01*
X58374058Y-166385912D02*
X58445487Y-166528769D01*
X58445487Y-166528769D02*
X58516915Y-166600198D01*
X55945487Y-166385912D02*
X55945487Y-165600198D01*
X55945487Y-165600198D02*
X56016915Y-165457341D01*
X56016915Y-165457341D02*
X56159772Y-165385912D01*
X56159772Y-165385912D02*
X56445487Y-165385912D01*
X56445487Y-165385912D02*
X56588344Y-165457341D01*
X55945487Y-166314484D02*
X56088344Y-166385912D01*
X56088344Y-166385912D02*
X56445487Y-166385912D01*
X56445487Y-166385912D02*
X56588344Y-166314484D01*
X56588344Y-166314484D02*
X56659772Y-166171626D01*
X56659772Y-166171626D02*
X56659772Y-166028769D01*
X56659772Y-166028769D02*
X56588344Y-165885912D01*
X56588344Y-165885912D02*
X56445487Y-165814484D01*
X56445487Y-165814484D02*
X56088344Y-165814484D01*
X56088344Y-165814484D02*
X55945487Y-165743055D01*
X55231201Y-165385912D02*
X55231201Y-166385912D01*
X55231201Y-165528769D02*
X55159772Y-165457341D01*
X55159772Y-165457341D02*
X55016915Y-165385912D01*
X55016915Y-165385912D02*
X54802629Y-165385912D01*
X54802629Y-165385912D02*
X54659772Y-165457341D01*
X54659772Y-165457341D02*
X54588344Y-165600198D01*
X54588344Y-165600198D02*
X54588344Y-166385912D01*
X53231201Y-166385912D02*
X53231201Y-164885912D01*
X53231201Y-166314484D02*
X53374058Y-166385912D01*
X53374058Y-166385912D02*
X53659772Y-166385912D01*
X53659772Y-166385912D02*
X53802629Y-166314484D01*
X53802629Y-166314484D02*
X53874058Y-166243055D01*
X53874058Y-166243055D02*
X53945486Y-166100198D01*
X53945486Y-166100198D02*
X53945486Y-165671626D01*
X53945486Y-165671626D02*
X53874058Y-165528769D01*
X53874058Y-165528769D02*
X53802629Y-165457341D01*
X53802629Y-165457341D02*
X53659772Y-165385912D01*
X53659772Y-165385912D02*
X53374058Y-165385912D01*
X53374058Y-165385912D02*
X53231201Y-165457341D01*
X51374058Y-166385912D02*
X51374058Y-164885912D01*
X50516915Y-166385912D02*
X51159772Y-165528769D01*
X50516915Y-164885912D02*
X51374058Y-165743055D01*
X49231201Y-166385912D02*
X49231201Y-165600198D01*
X49231201Y-165600198D02*
X49302629Y-165457341D01*
X49302629Y-165457341D02*
X49445486Y-165385912D01*
X49445486Y-165385912D02*
X49731201Y-165385912D01*
X49731201Y-165385912D02*
X49874058Y-165457341D01*
X49231201Y-166314484D02*
X49374058Y-166385912D01*
X49374058Y-166385912D02*
X49731201Y-166385912D01*
X49731201Y-166385912D02*
X49874058Y-166314484D01*
X49874058Y-166314484D02*
X49945486Y-166171626D01*
X49945486Y-166171626D02*
X49945486Y-166028769D01*
X49945486Y-166028769D02*
X49874058Y-165885912D01*
X49874058Y-165885912D02*
X49731201Y-165814484D01*
X49731201Y-165814484D02*
X49374058Y-165814484D01*
X49374058Y-165814484D02*
X49231201Y-165743055D01*
X47874058Y-165385912D02*
X47874058Y-166385912D01*
X48516915Y-165385912D02*
X48516915Y-166171626D01*
X48516915Y-166171626D02*
X48445486Y-166314484D01*
X48445486Y-166314484D02*
X48302629Y-166385912D01*
X48302629Y-166385912D02*
X48088343Y-166385912D01*
X48088343Y-166385912D02*
X47945486Y-166314484D01*
X47945486Y-166314484D02*
X47874058Y-166243055D01*
X46945486Y-166385912D02*
X47088343Y-166314484D01*
X47088343Y-166314484D02*
X47159772Y-166171626D01*
X47159772Y-166171626D02*
X47159772Y-164885912D01*
X45731201Y-166385912D02*
X45731201Y-164885912D01*
X45731201Y-166314484D02*
X45874058Y-166385912D01*
X45874058Y-166385912D02*
X46159772Y-166385912D01*
X46159772Y-166385912D02*
X46302629Y-166314484D01*
X46302629Y-166314484D02*
X46374058Y-166243055D01*
X46374058Y-166243055D02*
X46445486Y-166100198D01*
X46445486Y-166100198D02*
X46445486Y-165671626D01*
X46445486Y-165671626D02*
X46374058Y-165528769D01*
X46374058Y-165528769D02*
X46302629Y-165457341D01*
X46302629Y-165457341D02*
X46159772Y-165385912D01*
X46159772Y-165385912D02*
X45874058Y-165385912D01*
X45874058Y-165385912D02*
X45731201Y-165457341D01*
X45016915Y-166385912D02*
X45016915Y-165385912D01*
X45016915Y-164885912D02*
X45088343Y-164957341D01*
X45088343Y-164957341D02*
X45016915Y-165028769D01*
X45016915Y-165028769D02*
X44945486Y-164957341D01*
X44945486Y-164957341D02*
X45016915Y-164885912D01*
X45016915Y-164885912D02*
X45016915Y-165028769D01*
X42874057Y-164885912D02*
X42588343Y-164885912D01*
X42588343Y-164885912D02*
X42445486Y-164957341D01*
X42445486Y-164957341D02*
X42302629Y-165100198D01*
X42302629Y-165100198D02*
X42231200Y-165385912D01*
X42231200Y-165385912D02*
X42231200Y-165885912D01*
X42231200Y-165885912D02*
X42302629Y-166171626D01*
X42302629Y-166171626D02*
X42445486Y-166314484D01*
X42445486Y-166314484D02*
X42588343Y-166385912D01*
X42588343Y-166385912D02*
X42874057Y-166385912D01*
X42874057Y-166385912D02*
X43016915Y-166314484D01*
X43016915Y-166314484D02*
X43159772Y-166171626D01*
X43159772Y-166171626D02*
X43231200Y-165885912D01*
X43231200Y-165885912D02*
X43231200Y-165385912D01*
X43231200Y-165385912D02*
X43159772Y-165100198D01*
X43159772Y-165100198D02*
X43016915Y-164957341D01*
X43016915Y-164957341D02*
X42874057Y-164885912D01*
X40945486Y-166385912D02*
X40945486Y-164885912D01*
X40945486Y-166314484D02*
X41088343Y-166385912D01*
X41088343Y-166385912D02*
X41374057Y-166385912D01*
X41374057Y-166385912D02*
X41516914Y-166314484D01*
X41516914Y-166314484D02*
X41588343Y-166243055D01*
X41588343Y-166243055D02*
X41659771Y-166100198D01*
X41659771Y-166100198D02*
X41659771Y-165671626D01*
X41659771Y-165671626D02*
X41588343Y-165528769D01*
X41588343Y-165528769D02*
X41516914Y-165457341D01*
X41516914Y-165457341D02*
X41374057Y-165385912D01*
X41374057Y-165385912D02*
X41088343Y-165385912D01*
X41088343Y-165385912D02*
X40945486Y-165457341D01*
X40231200Y-166385912D02*
X40231200Y-165385912D01*
X40231200Y-165671626D02*
X40159771Y-165528769D01*
X40159771Y-165528769D02*
X40088343Y-165457341D01*
X40088343Y-165457341D02*
X39945485Y-165385912D01*
X39945485Y-165385912D02*
X39802628Y-165385912D01*
X39302629Y-166385912D02*
X39302629Y-165385912D01*
X39302629Y-164885912D02*
X39374057Y-164957341D01*
X39374057Y-164957341D02*
X39302629Y-165028769D01*
X39302629Y-165028769D02*
X39231200Y-164957341D01*
X39231200Y-164957341D02*
X39302629Y-164885912D01*
X39302629Y-164885912D02*
X39302629Y-165028769D01*
X38374057Y-166385912D02*
X38516914Y-166314484D01*
X38516914Y-166314484D02*
X38588343Y-166243055D01*
X38588343Y-166243055D02*
X38659771Y-166100198D01*
X38659771Y-166100198D02*
X38659771Y-165671626D01*
X38659771Y-165671626D02*
X38588343Y-165528769D01*
X38588343Y-165528769D02*
X38516914Y-165457341D01*
X38516914Y-165457341D02*
X38374057Y-165385912D01*
X38374057Y-165385912D02*
X38159771Y-165385912D01*
X38159771Y-165385912D02*
X38016914Y-165457341D01*
X38016914Y-165457341D02*
X37945486Y-165528769D01*
X37945486Y-165528769D02*
X37874057Y-165671626D01*
X37874057Y-165671626D02*
X37874057Y-166100198D01*
X37874057Y-166100198D02*
X37945486Y-166243055D01*
X37945486Y-166243055D02*
X38016914Y-166314484D01*
X38016914Y-166314484D02*
X38159771Y-166385912D01*
X38159771Y-166385912D02*
X38374057Y-166385912D01*
X37374057Y-165385912D02*
X36588343Y-165385912D01*
X36588343Y-165385912D02*
X37374057Y-166385912D01*
X37374057Y-166385912D02*
X36588343Y-166385912D01*
X35802628Y-166385912D02*
X35945485Y-166314484D01*
X35945485Y-166314484D02*
X36016914Y-166243055D01*
X36016914Y-166243055D02*
X36088342Y-166100198D01*
X36088342Y-166100198D02*
X36088342Y-165671626D01*
X36088342Y-165671626D02*
X36016914Y-165528769D01*
X36016914Y-165528769D02*
X35945485Y-165457341D01*
X35945485Y-165457341D02*
X35802628Y-165385912D01*
X35802628Y-165385912D02*
X35588342Y-165385912D01*
X35588342Y-165385912D02*
X35445485Y-165457341D01*
X35445485Y-165457341D02*
X35374057Y-165528769D01*
X35374057Y-165528769D02*
X35302628Y-165671626D01*
X35302628Y-165671626D02*
X35302628Y-166100198D01*
X35302628Y-166100198D02*
X35374057Y-166243055D01*
X35374057Y-166243055D02*
X35445485Y-166314484D01*
X35445485Y-166314484D02*
X35588342Y-166385912D01*
X35588342Y-166385912D02*
X35802628Y-166385912D01*
X34445485Y-166385912D02*
X34588342Y-166314484D01*
X34588342Y-166314484D02*
X34659771Y-166171626D01*
X34659771Y-166171626D02*
X34659771Y-164885912D01*
X33231200Y-166385912D02*
X33231200Y-165600198D01*
X33231200Y-165600198D02*
X33302628Y-165457341D01*
X33302628Y-165457341D02*
X33445485Y-165385912D01*
X33445485Y-165385912D02*
X33731200Y-165385912D01*
X33731200Y-165385912D02*
X33874057Y-165457341D01*
X33231200Y-166314484D02*
X33374057Y-166385912D01*
X33374057Y-166385912D02*
X33731200Y-166385912D01*
X33731200Y-166385912D02*
X33874057Y-166314484D01*
X33874057Y-166314484D02*
X33945485Y-166171626D01*
X33945485Y-166171626D02*
X33945485Y-166028769D01*
X33945485Y-166028769D02*
X33874057Y-165885912D01*
X33874057Y-165885912D02*
X33731200Y-165814484D01*
X33731200Y-165814484D02*
X33374057Y-165814484D01*
X33374057Y-165814484D02*
X33231200Y-165743055D01*
X90588346Y-168800828D02*
X91088346Y-168086542D01*
X91445489Y-168800828D02*
X91445489Y-167300828D01*
X91445489Y-167300828D02*
X90874060Y-167300828D01*
X90874060Y-167300828D02*
X90731203Y-167372257D01*
X90731203Y-167372257D02*
X90659774Y-167443685D01*
X90659774Y-167443685D02*
X90588346Y-167586542D01*
X90588346Y-167586542D02*
X90588346Y-167800828D01*
X90588346Y-167800828D02*
X90659774Y-167943685D01*
X90659774Y-167943685D02*
X90731203Y-168015114D01*
X90731203Y-168015114D02*
X90874060Y-168086542D01*
X90874060Y-168086542D02*
X91445489Y-168086542D01*
X89374060Y-168729400D02*
X89516917Y-168800828D01*
X89516917Y-168800828D02*
X89802632Y-168800828D01*
X89802632Y-168800828D02*
X89945489Y-168729400D01*
X89945489Y-168729400D02*
X90016917Y-168586542D01*
X90016917Y-168586542D02*
X90016917Y-168015114D01*
X90016917Y-168015114D02*
X89945489Y-167872257D01*
X89945489Y-167872257D02*
X89802632Y-167800828D01*
X89802632Y-167800828D02*
X89516917Y-167800828D01*
X89516917Y-167800828D02*
X89374060Y-167872257D01*
X89374060Y-167872257D02*
X89302632Y-168015114D01*
X89302632Y-168015114D02*
X89302632Y-168157971D01*
X89302632Y-168157971D02*
X90016917Y-168300828D01*
X88802632Y-167800828D02*
X88445489Y-168800828D01*
X88445489Y-168800828D02*
X88088346Y-167800828D01*
X87659775Y-167300828D02*
X86731203Y-167300828D01*
X86731203Y-167300828D02*
X87231203Y-167872257D01*
X87231203Y-167872257D02*
X87016918Y-167872257D01*
X87016918Y-167872257D02*
X86874061Y-167943685D01*
X86874061Y-167943685D02*
X86802632Y-168015114D01*
X86802632Y-168015114D02*
X86731203Y-168157971D01*
X86731203Y-168157971D02*
X86731203Y-168515114D01*
X86731203Y-168515114D02*
X86802632Y-168657971D01*
X86802632Y-168657971D02*
X86874061Y-168729400D01*
X86874061Y-168729400D02*
X87016918Y-168800828D01*
X87016918Y-168800828D02*
X87445489Y-168800828D01*
X87445489Y-168800828D02*
X87588346Y-168729400D01*
X87588346Y-168729400D02*
X87659775Y-168657971D01*
X84945490Y-168229400D02*
X83802633Y-168229400D01*
X82016918Y-167443685D02*
X81945490Y-167372257D01*
X81945490Y-167372257D02*
X81802633Y-167300828D01*
X81802633Y-167300828D02*
X81445490Y-167300828D01*
X81445490Y-167300828D02*
X81302633Y-167372257D01*
X81302633Y-167372257D02*
X81231204Y-167443685D01*
X81231204Y-167443685D02*
X81159775Y-167586542D01*
X81159775Y-167586542D02*
X81159775Y-167729400D01*
X81159775Y-167729400D02*
X81231204Y-167943685D01*
X81231204Y-167943685D02*
X82088347Y-168800828D01*
X82088347Y-168800828D02*
X81159775Y-168800828D01*
X80231204Y-167300828D02*
X80088347Y-167300828D01*
X80088347Y-167300828D02*
X79945490Y-167372257D01*
X79945490Y-167372257D02*
X79874062Y-167443685D01*
X79874062Y-167443685D02*
X79802633Y-167586542D01*
X79802633Y-167586542D02*
X79731204Y-167872257D01*
X79731204Y-167872257D02*
X79731204Y-168229400D01*
X79731204Y-168229400D02*
X79802633Y-168515114D01*
X79802633Y-168515114D02*
X79874062Y-168657971D01*
X79874062Y-168657971D02*
X79945490Y-168729400D01*
X79945490Y-168729400D02*
X80088347Y-168800828D01*
X80088347Y-168800828D02*
X80231204Y-168800828D01*
X80231204Y-168800828D02*
X80374062Y-168729400D01*
X80374062Y-168729400D02*
X80445490Y-168657971D01*
X80445490Y-168657971D02*
X80516919Y-168515114D01*
X80516919Y-168515114D02*
X80588347Y-168229400D01*
X80588347Y-168229400D02*
X80588347Y-167872257D01*
X80588347Y-167872257D02*
X80516919Y-167586542D01*
X80516919Y-167586542D02*
X80445490Y-167443685D01*
X80445490Y-167443685D02*
X80374062Y-167372257D01*
X80374062Y-167372257D02*
X80231204Y-167300828D01*
X79159776Y-167443685D02*
X79088348Y-167372257D01*
X79088348Y-167372257D02*
X78945491Y-167300828D01*
X78945491Y-167300828D02*
X78588348Y-167300828D01*
X78588348Y-167300828D02*
X78445491Y-167372257D01*
X78445491Y-167372257D02*
X78374062Y-167443685D01*
X78374062Y-167443685D02*
X78302633Y-167586542D01*
X78302633Y-167586542D02*
X78302633Y-167729400D01*
X78302633Y-167729400D02*
X78374062Y-167943685D01*
X78374062Y-167943685D02*
X79231205Y-168800828D01*
X79231205Y-168800828D02*
X78302633Y-168800828D01*
X77016920Y-167300828D02*
X77302634Y-167300828D01*
X77302634Y-167300828D02*
X77445491Y-167372257D01*
X77445491Y-167372257D02*
X77516920Y-167443685D01*
X77516920Y-167443685D02*
X77659777Y-167657971D01*
X77659777Y-167657971D02*
X77731205Y-167943685D01*
X77731205Y-167943685D02*
X77731205Y-168515114D01*
X77731205Y-168515114D02*
X77659777Y-168657971D01*
X77659777Y-168657971D02*
X77588348Y-168729400D01*
X77588348Y-168729400D02*
X77445491Y-168800828D01*
X77445491Y-168800828D02*
X77159777Y-168800828D01*
X77159777Y-168800828D02*
X77016920Y-168729400D01*
X77016920Y-168729400D02*
X76945491Y-168657971D01*
X76945491Y-168657971D02*
X76874062Y-168515114D01*
X76874062Y-168515114D02*
X76874062Y-168157971D01*
X76874062Y-168157971D02*
X76945491Y-168015114D01*
X76945491Y-168015114D02*
X77016920Y-167943685D01*
X77016920Y-167943685D02*
X77159777Y-167872257D01*
X77159777Y-167872257D02*
X77445491Y-167872257D01*
X77445491Y-167872257D02*
X77588348Y-167943685D01*
X77588348Y-167943685D02*
X77659777Y-168015114D01*
X77659777Y-168015114D02*
X77731205Y-168157971D01*
X75088349Y-168229400D02*
X73945492Y-168229400D01*
X72088349Y-167300828D02*
X72088349Y-168515114D01*
X72088349Y-168515114D02*
X72016920Y-168657971D01*
X72016920Y-168657971D02*
X71945492Y-168729400D01*
X71945492Y-168729400D02*
X71802634Y-168800828D01*
X71802634Y-168800828D02*
X71516920Y-168800828D01*
X71516920Y-168800828D02*
X71374063Y-168729400D01*
X71374063Y-168729400D02*
X71302634Y-168657971D01*
X71302634Y-168657971D02*
X71231206Y-168515114D01*
X71231206Y-168515114D02*
X71231206Y-167300828D01*
X70516920Y-167800828D02*
X70516920Y-168800828D01*
X70516920Y-167943685D02*
X70445491Y-167872257D01*
X70445491Y-167872257D02*
X70302634Y-167800828D01*
X70302634Y-167800828D02*
X70088348Y-167800828D01*
X70088348Y-167800828D02*
X69945491Y-167872257D01*
X69945491Y-167872257D02*
X69874063Y-168015114D01*
X69874063Y-168015114D02*
X69874063Y-168800828D01*
X69159777Y-168800828D02*
X69159777Y-167800828D01*
X69159777Y-167300828D02*
X69231205Y-167372257D01*
X69231205Y-167372257D02*
X69159777Y-167443685D01*
X69159777Y-167443685D02*
X69088348Y-167372257D01*
X69088348Y-167372257D02*
X69159777Y-167300828D01*
X69159777Y-167300828D02*
X69159777Y-167443685D01*
X68588348Y-167800828D02*
X68231205Y-168800828D01*
X68231205Y-168800828D02*
X67874062Y-167800828D01*
X66731205Y-168729400D02*
X66874062Y-168800828D01*
X66874062Y-168800828D02*
X67159777Y-168800828D01*
X67159777Y-168800828D02*
X67302634Y-168729400D01*
X67302634Y-168729400D02*
X67374062Y-168586542D01*
X67374062Y-168586542D02*
X67374062Y-168015114D01*
X67374062Y-168015114D02*
X67302634Y-167872257D01*
X67302634Y-167872257D02*
X67159777Y-167800828D01*
X67159777Y-167800828D02*
X66874062Y-167800828D01*
X66874062Y-167800828D02*
X66731205Y-167872257D01*
X66731205Y-167872257D02*
X66659777Y-168015114D01*
X66659777Y-168015114D02*
X66659777Y-168157971D01*
X66659777Y-168157971D02*
X67374062Y-168300828D01*
X66016920Y-168800828D02*
X66016920Y-167800828D01*
X66016920Y-168086542D02*
X65945491Y-167943685D01*
X65945491Y-167943685D02*
X65874063Y-167872257D01*
X65874063Y-167872257D02*
X65731205Y-167800828D01*
X65731205Y-167800828D02*
X65588348Y-167800828D01*
X65159777Y-168729400D02*
X65016920Y-168800828D01*
X65016920Y-168800828D02*
X64731206Y-168800828D01*
X64731206Y-168800828D02*
X64588349Y-168729400D01*
X64588349Y-168729400D02*
X64516920Y-168586542D01*
X64516920Y-168586542D02*
X64516920Y-168515114D01*
X64516920Y-168515114D02*
X64588349Y-168372257D01*
X64588349Y-168372257D02*
X64731206Y-168300828D01*
X64731206Y-168300828D02*
X64945492Y-168300828D01*
X64945492Y-168300828D02*
X65088349Y-168229400D01*
X65088349Y-168229400D02*
X65159777Y-168086542D01*
X65159777Y-168086542D02*
X65159777Y-168015114D01*
X65159777Y-168015114D02*
X65088349Y-167872257D01*
X65088349Y-167872257D02*
X64945492Y-167800828D01*
X64945492Y-167800828D02*
X64731206Y-167800828D01*
X64731206Y-167800828D02*
X64588349Y-167872257D01*
X63874063Y-168800828D02*
X63874063Y-167800828D01*
X63874063Y-167300828D02*
X63945491Y-167372257D01*
X63945491Y-167372257D02*
X63874063Y-167443685D01*
X63874063Y-167443685D02*
X63802634Y-167372257D01*
X63802634Y-167372257D02*
X63874063Y-167300828D01*
X63874063Y-167300828D02*
X63874063Y-167443685D01*
X63374062Y-167800828D02*
X62802634Y-167800828D01*
X63159777Y-167300828D02*
X63159777Y-168586542D01*
X63159777Y-168586542D02*
X63088348Y-168729400D01*
X63088348Y-168729400D02*
X62945491Y-168800828D01*
X62945491Y-168800828D02*
X62802634Y-168800828D01*
X62445491Y-167800828D02*
X62088348Y-168800828D01*
X61731205Y-167800828D02*
X62088348Y-168800828D01*
X62088348Y-168800828D02*
X62231205Y-169157971D01*
X62231205Y-169157971D02*
X62302634Y-169229400D01*
X62302634Y-169229400D02*
X62445491Y-169300828D01*
X59802634Y-168800828D02*
X59945491Y-168729400D01*
X59945491Y-168729400D02*
X60016920Y-168657971D01*
X60016920Y-168657971D02*
X60088348Y-168515114D01*
X60088348Y-168515114D02*
X60088348Y-168086542D01*
X60088348Y-168086542D02*
X60016920Y-167943685D01*
X60016920Y-167943685D02*
X59945491Y-167872257D01*
X59945491Y-167872257D02*
X59802634Y-167800828D01*
X59802634Y-167800828D02*
X59588348Y-167800828D01*
X59588348Y-167800828D02*
X59445491Y-167872257D01*
X59445491Y-167872257D02*
X59374063Y-167943685D01*
X59374063Y-167943685D02*
X59302634Y-168086542D01*
X59302634Y-168086542D02*
X59302634Y-168515114D01*
X59302634Y-168515114D02*
X59374063Y-168657971D01*
X59374063Y-168657971D02*
X59445491Y-168729400D01*
X59445491Y-168729400D02*
X59588348Y-168800828D01*
X59588348Y-168800828D02*
X59802634Y-168800828D01*
X58874062Y-167800828D02*
X58302634Y-167800828D01*
X58659777Y-168800828D02*
X58659777Y-167515114D01*
X58659777Y-167515114D02*
X58588348Y-167372257D01*
X58588348Y-167372257D02*
X58445491Y-167300828D01*
X58445491Y-167300828D02*
X58302634Y-167300828D01*
X56874062Y-167800828D02*
X56302634Y-167800828D01*
X56659777Y-167300828D02*
X56659777Y-168586542D01*
X56659777Y-168586542D02*
X56588348Y-168729400D01*
X56588348Y-168729400D02*
X56445491Y-168800828D01*
X56445491Y-168800828D02*
X56302634Y-168800828D01*
X55802634Y-168800828D02*
X55802634Y-167300828D01*
X55159777Y-168800828D02*
X55159777Y-168015114D01*
X55159777Y-168015114D02*
X55231205Y-167872257D01*
X55231205Y-167872257D02*
X55374062Y-167800828D01*
X55374062Y-167800828D02*
X55588348Y-167800828D01*
X55588348Y-167800828D02*
X55731205Y-167872257D01*
X55731205Y-167872257D02*
X55802634Y-167943685D01*
X53874062Y-168729400D02*
X54016919Y-168800828D01*
X54016919Y-168800828D02*
X54302634Y-168800828D01*
X54302634Y-168800828D02*
X54445491Y-168729400D01*
X54445491Y-168729400D02*
X54516919Y-168586542D01*
X54516919Y-168586542D02*
X54516919Y-168015114D01*
X54516919Y-168015114D02*
X54445491Y-167872257D01*
X54445491Y-167872257D02*
X54302634Y-167800828D01*
X54302634Y-167800828D02*
X54016919Y-167800828D01*
X54016919Y-167800828D02*
X53874062Y-167872257D01*
X53874062Y-167872257D02*
X53802634Y-168015114D01*
X53802634Y-168015114D02*
X53802634Y-168157971D01*
X53802634Y-168157971D02*
X54516919Y-168300828D01*
X51516920Y-168015114D02*
X51302634Y-168086542D01*
X51302634Y-168086542D02*
X51231205Y-168157971D01*
X51231205Y-168157971D02*
X51159777Y-168300828D01*
X51159777Y-168300828D02*
X51159777Y-168515114D01*
X51159777Y-168515114D02*
X51231205Y-168657971D01*
X51231205Y-168657971D02*
X51302634Y-168729400D01*
X51302634Y-168729400D02*
X51445491Y-168800828D01*
X51445491Y-168800828D02*
X52016920Y-168800828D01*
X52016920Y-168800828D02*
X52016920Y-167300828D01*
X52016920Y-167300828D02*
X51516920Y-167300828D01*
X51516920Y-167300828D02*
X51374063Y-167372257D01*
X51374063Y-167372257D02*
X51302634Y-167443685D01*
X51302634Y-167443685D02*
X51231205Y-167586542D01*
X51231205Y-167586542D02*
X51231205Y-167729400D01*
X51231205Y-167729400D02*
X51302634Y-167872257D01*
X51302634Y-167872257D02*
X51374063Y-167943685D01*
X51374063Y-167943685D02*
X51516920Y-168015114D01*
X51516920Y-168015114D02*
X52016920Y-168015114D01*
X49874063Y-168800828D02*
X49874063Y-168015114D01*
X49874063Y-168015114D02*
X49945491Y-167872257D01*
X49945491Y-167872257D02*
X50088348Y-167800828D01*
X50088348Y-167800828D02*
X50374063Y-167800828D01*
X50374063Y-167800828D02*
X50516920Y-167872257D01*
X49874063Y-168729400D02*
X50016920Y-168800828D01*
X50016920Y-168800828D02*
X50374063Y-168800828D01*
X50374063Y-168800828D02*
X50516920Y-168729400D01*
X50516920Y-168729400D02*
X50588348Y-168586542D01*
X50588348Y-168586542D02*
X50588348Y-168443685D01*
X50588348Y-168443685D02*
X50516920Y-168300828D01*
X50516920Y-168300828D02*
X50374063Y-168229400D01*
X50374063Y-168229400D02*
X50016920Y-168229400D01*
X50016920Y-168229400D02*
X49874063Y-168157971D01*
X49231205Y-168729400D02*
X49088348Y-168800828D01*
X49088348Y-168800828D02*
X48802634Y-168800828D01*
X48802634Y-168800828D02*
X48659777Y-168729400D01*
X48659777Y-168729400D02*
X48588348Y-168586542D01*
X48588348Y-168586542D02*
X48588348Y-168515114D01*
X48588348Y-168515114D02*
X48659777Y-168372257D01*
X48659777Y-168372257D02*
X48802634Y-168300828D01*
X48802634Y-168300828D02*
X49016920Y-168300828D01*
X49016920Y-168300828D02*
X49159777Y-168229400D01*
X49159777Y-168229400D02*
X49231205Y-168086542D01*
X49231205Y-168086542D02*
X49231205Y-168015114D01*
X49231205Y-168015114D02*
X49159777Y-167872257D01*
X49159777Y-167872257D02*
X49016920Y-167800828D01*
X49016920Y-167800828D02*
X48802634Y-167800828D01*
X48802634Y-167800828D02*
X48659777Y-167872257D01*
X47302634Y-167800828D02*
X47302634Y-169300828D01*
X47302634Y-168729400D02*
X47445491Y-168800828D01*
X47445491Y-168800828D02*
X47731205Y-168800828D01*
X47731205Y-168800828D02*
X47874062Y-168729400D01*
X47874062Y-168729400D02*
X47945491Y-168657971D01*
X47945491Y-168657971D02*
X48016919Y-168515114D01*
X48016919Y-168515114D02*
X48016919Y-168086542D01*
X48016919Y-168086542D02*
X47945491Y-167943685D01*
X47945491Y-167943685D02*
X47874062Y-167872257D01*
X47874062Y-167872257D02*
X47731205Y-167800828D01*
X47731205Y-167800828D02*
X47445491Y-167800828D01*
X47445491Y-167800828D02*
X47302634Y-167872257D01*
X45945491Y-167800828D02*
X45945491Y-168800828D01*
X46588348Y-167800828D02*
X46588348Y-168586542D01*
X46588348Y-168586542D02*
X46516919Y-168729400D01*
X46516919Y-168729400D02*
X46374062Y-168800828D01*
X46374062Y-168800828D02*
X46159776Y-168800828D01*
X46159776Y-168800828D02*
X46016919Y-168729400D01*
X46016919Y-168729400D02*
X45945491Y-168657971D01*
X44659776Y-168729400D02*
X44802633Y-168800828D01*
X44802633Y-168800828D02*
X45088348Y-168800828D01*
X45088348Y-168800828D02*
X45231205Y-168729400D01*
X45231205Y-168729400D02*
X45302633Y-168586542D01*
X45302633Y-168586542D02*
X45302633Y-168015114D01*
X45302633Y-168015114D02*
X45231205Y-167872257D01*
X45231205Y-167872257D02*
X45088348Y-167800828D01*
X45088348Y-167800828D02*
X44802633Y-167800828D01*
X44802633Y-167800828D02*
X44659776Y-167872257D01*
X44659776Y-167872257D02*
X44588348Y-168015114D01*
X44588348Y-168015114D02*
X44588348Y-168157971D01*
X44588348Y-168157971D02*
X45302633Y-168300828D01*
X41945491Y-168657971D02*
X42016919Y-168729400D01*
X42016919Y-168729400D02*
X42231205Y-168800828D01*
X42231205Y-168800828D02*
X42374062Y-168800828D01*
X42374062Y-168800828D02*
X42588348Y-168729400D01*
X42588348Y-168729400D02*
X42731205Y-168586542D01*
X42731205Y-168586542D02*
X42802634Y-168443685D01*
X42802634Y-168443685D02*
X42874062Y-168157971D01*
X42874062Y-168157971D02*
X42874062Y-167943685D01*
X42874062Y-167943685D02*
X42802634Y-167657971D01*
X42802634Y-167657971D02*
X42731205Y-167515114D01*
X42731205Y-167515114D02*
X42588348Y-167372257D01*
X42588348Y-167372257D02*
X42374062Y-167300828D01*
X42374062Y-167300828D02*
X42231205Y-167300828D01*
X42231205Y-167300828D02*
X42016919Y-167372257D01*
X42016919Y-167372257D02*
X41945491Y-167443685D01*
X41088348Y-168800828D02*
X41231205Y-168729400D01*
X41231205Y-168729400D02*
X41302634Y-168657971D01*
X41302634Y-168657971D02*
X41374062Y-168515114D01*
X41374062Y-168515114D02*
X41374062Y-168086542D01*
X41374062Y-168086542D02*
X41302634Y-167943685D01*
X41302634Y-167943685D02*
X41231205Y-167872257D01*
X41231205Y-167872257D02*
X41088348Y-167800828D01*
X41088348Y-167800828D02*
X40874062Y-167800828D01*
X40874062Y-167800828D02*
X40731205Y-167872257D01*
X40731205Y-167872257D02*
X40659777Y-167943685D01*
X40659777Y-167943685D02*
X40588348Y-168086542D01*
X40588348Y-168086542D02*
X40588348Y-168515114D01*
X40588348Y-168515114D02*
X40659777Y-168657971D01*
X40659777Y-168657971D02*
X40731205Y-168729400D01*
X40731205Y-168729400D02*
X40874062Y-168800828D01*
X40874062Y-168800828D02*
X41088348Y-168800828D01*
X39302634Y-167800828D02*
X39302634Y-168800828D01*
X39945491Y-167800828D02*
X39945491Y-168586542D01*
X39945491Y-168586542D02*
X39874062Y-168729400D01*
X39874062Y-168729400D02*
X39731205Y-168800828D01*
X39731205Y-168800828D02*
X39516919Y-168800828D01*
X39516919Y-168800828D02*
X39374062Y-168729400D01*
X39374062Y-168729400D02*
X39302634Y-168657971D01*
X38588348Y-167800828D02*
X38588348Y-168800828D01*
X38588348Y-167943685D02*
X38516919Y-167872257D01*
X38516919Y-167872257D02*
X38374062Y-167800828D01*
X38374062Y-167800828D02*
X38159776Y-167800828D01*
X38159776Y-167800828D02*
X38016919Y-167872257D01*
X38016919Y-167872257D02*
X37945491Y-168015114D01*
X37945491Y-168015114D02*
X37945491Y-168800828D01*
X37445490Y-167800828D02*
X36874062Y-167800828D01*
X37231205Y-167300828D02*
X37231205Y-168586542D01*
X37231205Y-168586542D02*
X37159776Y-168729400D01*
X37159776Y-168729400D02*
X37016919Y-168800828D01*
X37016919Y-168800828D02*
X36874062Y-168800828D01*
X36374062Y-168800828D02*
X36374062Y-167800828D01*
X36374062Y-168086542D02*
X36302633Y-167943685D01*
X36302633Y-167943685D02*
X36231205Y-167872257D01*
X36231205Y-167872257D02*
X36088347Y-167800828D01*
X36088347Y-167800828D02*
X35945490Y-167800828D01*
X35588348Y-167800828D02*
X35231205Y-168800828D01*
X34874062Y-167800828D02*
X35231205Y-168800828D01*
X35231205Y-168800828D02*
X35374062Y-169157971D01*
X35374062Y-169157971D02*
X35445491Y-169229400D01*
X35445491Y-169229400D02*
X35588348Y-169300828D01*
X33159777Y-168015114D02*
X32659777Y-168015114D01*
X32445491Y-168800828D02*
X33159777Y-168800828D01*
X33159777Y-168800828D02*
X33159777Y-167300828D01*
X33159777Y-167300828D02*
X32445491Y-167300828D01*
X31802634Y-168800828D02*
X31802634Y-167300828D01*
X31802634Y-168015114D02*
X30945491Y-168015114D01*
X30945491Y-168800828D02*
X30945491Y-167300828D01*
X30231205Y-167300828D02*
X30231205Y-168515114D01*
X30231205Y-168515114D02*
X30159776Y-168657971D01*
X30159776Y-168657971D02*
X30088348Y-168729400D01*
X30088348Y-168729400D02*
X29945490Y-168800828D01*
X29945490Y-168800828D02*
X29659776Y-168800828D01*
X29659776Y-168800828D02*
X29516919Y-168729400D01*
X29516919Y-168729400D02*
X29445490Y-168657971D01*
X29445490Y-168657971D02*
X29374062Y-168515114D01*
X29374062Y-168515114D02*
X29374062Y-167300828D01*
M02*
