%TF.GenerationSoftware,KiCad,Pcbnew,9.0.7*%
%TF.CreationDate,2026-07-26T13:17:54+02:00*%
%TF.ProjectId,INDIPI,494e4449-5049-42e6-9b69-6361645f7063,3*%
%TF.SameCoordinates,Original*%
%TF.FileFunction,Copper,L1,Top*%
%TF.FilePolarity,Positive*%
%FSLAX46Y46*%
G04 Gerber Fmt 4.6, Leading zero omitted, Abs format (unit mm)*
G04 Created by KiCad (PCBNEW 9.0.7) date 2026-07-26 13:17:54*
%MOMM*%
%LPD*%
G01*
G04 APERTURE LIST*
G04 Aperture macros list*
%AMRoundRect*
0 Rectangle with rounded corners*
0 $1 Rounding radius*
0 $2 $3 $4 $5 $6 $7 $8 $9 X,Y pos of 4 corners*
0 Add a 4 corners polygon primitive as box body*
4,1,4,$2,$3,$4,$5,$6,$7,$8,$9,$2,$3,0*
0 Add four circle primitives for the rounded corners*
1,1,$1+$1,$2,$3*
1,1,$1+$1,$4,$5*
1,1,$1+$1,$6,$7*
1,1,$1+$1,$8,$9*
0 Add four rect primitives between the rounded corners*
20,1,$1+$1,$2,$3,$4,$5,0*
20,1,$1+$1,$4,$5,$6,$7,0*
20,1,$1+$1,$6,$7,$8,$9,0*
20,1,$1+$1,$8,$9,$2,$3,0*%
G04 Aperture macros list end*
%TA.AperFunction,ComponentPad*%
%ADD10R,1.700000X1.700000*%
%TD*%
%TA.AperFunction,ComponentPad*%
%ADD11C,1.700000*%
%TD*%
%TA.AperFunction,ComponentPad*%
%ADD12RoundRect,0.249999X-0.790001X-1.550001X0.790001X-1.550001X0.790001X1.550001X-0.790001X1.550001X0*%
%TD*%
%TA.AperFunction,ComponentPad*%
%ADD13O,2.080000X3.600000*%
%TD*%
%TA.AperFunction,ViaPad*%
%ADD14C,0.600000*%
%TD*%
%TA.AperFunction,Conductor*%
%ADD15C,0.200000*%
%TD*%
G04 APERTURE END LIST*
D10*
%TO.P,J1,1,Pin_1*%
%TO.N,Net-(J1-Pin_1)*%
X120000000Y-119920000D03*
D11*
%TO.P,J1,2,Pin_2*%
%TO.N,Net-(J1-Pin_2)*%
X120000000Y-122460000D03*
%TO.P,J1,3,Pin_3*%
%TO.N,Net-(J1-Pin_3)*%
X120000000Y-125000000D03*
%TO.P,J1,4,Pin_4*%
%TO.N,Net-(J1-Pin_4)*%
X120000000Y-127540000D03*
%TO.P,J1,5,Pin_5*%
%TO.N,unconnected-(J1-Pin_5-Pad5)*%
X120000000Y-130080000D03*
%TO.P,J1,6,Pin_6*%
%TO.N,unconnected-(J1-Pin_6-Pad6)*%
X120000000Y-132620000D03*
%TO.P,J1,7,Pin_7*%
%TO.N,Net-(J1-Pin_7)*%
X120000000Y-135160000D03*
%TO.P,J1,8,Pin_8*%
%TO.N,Net-(J1-Pin_8)*%
X120000000Y-137700000D03*
%TO.P,J1,9,Pin_9*%
%TO.N,Net-(J1-Pin_9)*%
X120000000Y-140240000D03*
%TO.P,J1,10,Pin_10*%
%TO.N,Net-(J1-Pin_10)*%
X120000000Y-142780000D03*
%TD*%
D10*
%TO.P,J2,1,Pin_1*%
%TO.N,Net-(J1-Pin_1)*%
X54460000Y-130000000D03*
D11*
%TO.P,J2,2,Pin_2*%
%TO.N,Net-(J16-Pin_10)*%
X54460000Y-127460000D03*
%TO.P,J2,3,Pin_3*%
%TO.N,Net-(J1-Pin_4)*%
X57000000Y-130000000D03*
%TO.P,J2,4,Pin_4*%
%TO.N,unconnected-(J2-Pin_4-Pad4)*%
X57000000Y-127460000D03*
%TO.P,J2,5,Pin_5*%
%TO.N,Net-(J1-Pin_3)*%
X59540000Y-130000000D03*
%TO.P,J2,6,Pin_6*%
%TO.N,unconnected-(J2-Pin_6-Pad6)*%
X59540000Y-127460000D03*
%TO.P,J2,7,Pin_7*%
%TO.N,unconnected-(J2-Pin_7-Pad7)*%
X62080000Y-130000000D03*
%TO.P,J2,8,Pin_8*%
%TO.N,Net-(J2-Pin_8)*%
X62080000Y-127460000D03*
%TO.P,J2,9,Pin_9*%
%TO.N,Net-(J1-Pin_2)*%
X64620000Y-130000000D03*
%TO.P,J2,10,Pin_10*%
%TO.N,Net-(J2-Pin_10)*%
X64620000Y-127460000D03*
%TO.P,J2,11,Pin_11*%
%TO.N,Net-(J16-Pin_3)*%
X67160000Y-130000000D03*
%TO.P,J2,12,Pin_12*%
%TO.N,Net-(J2-Pin_12)*%
X67160000Y-127460000D03*
%TO.P,J2,13,Pin_13*%
%TO.N,Net-(J16-Pin_4)*%
X69700000Y-130000000D03*
%TO.P,J2,14,Pin_14*%
%TO.N,unconnected-(J2-Pin_14-Pad14)*%
X69700000Y-127460000D03*
%TO.P,J2,15,Pin_15*%
%TO.N,Net-(J16-Pin_5)*%
X72240000Y-130000000D03*
%TO.P,J2,16,Pin_16*%
%TO.N,unconnected-(J2-Pin_16-Pad16)*%
X72240000Y-127460000D03*
%TO.P,J2,17,Pin_17*%
%TO.N,unconnected-(J2-Pin_17-Pad17)*%
X74780000Y-130000000D03*
%TO.P,J2,18,Pin_18*%
%TO.N,Net-(J2-Pin_18)*%
X74780000Y-127460000D03*
%TO.P,J2,19,Pin_19*%
%TO.N,Net-(J2-Pin_19)*%
X77320000Y-130000000D03*
%TO.P,J2,20,Pin_20*%
%TO.N,Net-(J16-Pin_9)*%
X77320000Y-127460000D03*
%TO.P,J2,21,Pin_21*%
%TO.N,Net-(J2-Pin_21)*%
X79860000Y-130000000D03*
%TO.P,J2,22,Pin_22*%
%TO.N,unconnected-(J2-Pin_22-Pad22)*%
X79860000Y-127460000D03*
%TO.P,J2,23,Pin_23*%
%TO.N,Net-(J2-Pin_23)*%
X82400000Y-130000000D03*
%TO.P,J2,24,Pin_24*%
%TO.N,Net-(J2-Pin_24)*%
X82400000Y-127460000D03*
%TO.P,J2,25,Pin_25*%
%TO.N,unconnected-(J2-Pin_25-Pad25)*%
X84940000Y-130000000D03*
%TO.P,J2,26,Pin_26*%
%TO.N,unconnected-(J2-Pin_26-Pad26)*%
X84940000Y-127460000D03*
%TO.P,J2,27,Pin_27*%
%TO.N,unconnected-(J2-Pin_27-Pad27)*%
X87480000Y-130000000D03*
%TO.P,J2,28,Pin_28*%
%TO.N,unconnected-(J2-Pin_28-Pad28)*%
X87480000Y-127460000D03*
%TO.P,J2,29,Pin_29*%
%TO.N,Net-(J16-Pin_6)*%
X90020000Y-130000000D03*
%TO.P,J2,30,Pin_30*%
%TO.N,unconnected-(J2-Pin_30-Pad30)*%
X90020000Y-127460000D03*
%TO.P,J2,31,Pin_31*%
%TO.N,unconnected-(J2-Pin_31-Pad31)*%
X92560000Y-130000000D03*
%TO.P,J2,32,Pin_32*%
%TO.N,Net-(J2-Pin_32)*%
X92560000Y-127460000D03*
%TO.P,J2,33,Pin_33*%
%TO.N,Net-(J2-Pin_33)*%
X95100000Y-130000000D03*
%TO.P,J2,34,Pin_34*%
%TO.N,unconnected-(J2-Pin_34-Pad34)*%
X95100000Y-127460000D03*
%TO.P,J2,35,Pin_35*%
%TO.N,Net-(J2-Pin_35)*%
X97640000Y-130000000D03*
%TO.P,J2,36,Pin_36*%
%TO.N,unconnected-(J2-Pin_36-Pad36)*%
X97640000Y-127460000D03*
%TO.P,J2,37,Pin_37*%
%TO.N,unconnected-(J2-Pin_37-Pad37)*%
X100180000Y-130000000D03*
%TO.P,J2,38,Pin_38*%
%TO.N,Net-(J2-Pin_35)*%
X100180000Y-127460000D03*
%TO.P,J2,39,Pin_39*%
%TO.N,unconnected-(J2-Pin_39-Pad39)*%
X102720000Y-130000000D03*
%TO.P,J2,40,Pin_40*%
%TO.N,Net-(J2-Pin_40)*%
X102720000Y-127460000D03*
%TD*%
D10*
%TO.P,J3,1,Pin_1*%
%TO.N,unconnected-(J3-Pin_1-Pad1)*%
X156540000Y-49840000D03*
D11*
%TO.P,J3,2,Pin_2*%
%TO.N,unconnected-(J3-Pin_2-Pad2)*%
X159080000Y-49840000D03*
%TO.P,J3,3,Pin_3*%
%TO.N,Net-(J1-Pin_7)*%
X156540000Y-52380000D03*
%TO.P,J3,4,Pin_4*%
%TO.N,unconnected-(J3-Pin_4-Pad4)*%
X159080000Y-52380000D03*
%TO.P,J3,5,Pin_5*%
%TO.N,Net-(J1-Pin_8)*%
X156540000Y-54920000D03*
%TO.P,J3,6,Pin_6*%
%TO.N,Net-(J1-Pin_2)*%
X159080000Y-54920000D03*
%TO.P,J3,7,Pin_7*%
%TO.N,Net-(J1-Pin_9)*%
X156540000Y-57460000D03*
%TO.P,J3,8,Pin_8*%
%TO.N,Net-(J1-Pin_2)*%
X159080000Y-57460000D03*
%TO.P,J3,9,Pin_9*%
%TO.N,Net-(J1-Pin_10)*%
X156540000Y-60000000D03*
%TO.P,J3,10,Pin_10*%
%TO.N,unconnected-(J3-Pin_10-Pad10)*%
X159080000Y-60000000D03*
%TO.P,J3,11,Pin_11*%
%TO.N,Net-(J2-Pin_32)*%
X156540000Y-62540000D03*
%TO.P,J3,12,Pin_12*%
%TO.N,unconnected-(J3-Pin_12-Pad12)*%
X159080000Y-62540000D03*
%TO.P,J3,13,Pin_13*%
%TO.N,Net-(J2-Pin_33)*%
X156540000Y-65080000D03*
%TO.P,J3,14,Pin_14*%
%TO.N,unconnected-(J3-Pin_14-Pad14)*%
X159080000Y-65080000D03*
%TO.P,J3,15,Pin_15*%
%TO.N,Net-(J2-Pin_18)*%
X156540000Y-67620000D03*
%TO.P,J3,16,Pin_16*%
%TO.N,unconnected-(J3-Pin_16-Pad16)*%
X159080000Y-67620000D03*
%TO.P,J3,17,Pin_17*%
%TO.N,Net-(J2-Pin_8)*%
X156540000Y-70160000D03*
%TO.P,J3,18,Pin_18*%
%TO.N,unconnected-(J3-Pin_18-Pad18)*%
X159080000Y-70160000D03*
%TO.P,J3,19,Pin_19*%
%TO.N,Net-(J2-Pin_10)*%
X156540000Y-72700000D03*
%TO.P,J3,20,Pin_20*%
%TO.N,unconnected-(J3-Pin_20-Pad20)*%
X159080000Y-72700000D03*
%TO.P,J3,21,Pin_21*%
%TO.N,unconnected-(J3-Pin_21-Pad21)*%
X156540000Y-75240000D03*
%TO.P,J3,22,Pin_22*%
%TO.N,unconnected-(J3-Pin_22-Pad22)*%
X159080000Y-75240000D03*
%TO.P,J3,23,Pin_23*%
%TO.N,unconnected-(J3-Pin_23-Pad23)*%
X156540000Y-77780000D03*
%TO.P,J3,24,Pin_24*%
%TO.N,unconnected-(J3-Pin_24-Pad24)*%
X159080000Y-77780000D03*
%TO.P,J3,25,Pin_25*%
%TO.N,unconnected-(J3-Pin_25-Pad25)*%
X156540000Y-80320000D03*
%TO.P,J3,26,Pin_26*%
%TO.N,unconnected-(J3-Pin_26-Pad26)*%
X159080000Y-80320000D03*
%TO.P,J3,27,Pin_27*%
%TO.N,unconnected-(J3-Pin_27-Pad27)*%
X156540000Y-82860000D03*
%TO.P,J3,28,Pin_28*%
%TO.N,unconnected-(J3-Pin_28-Pad28)*%
X159080000Y-82860000D03*
%TO.P,J3,29,Pin_29*%
%TO.N,unconnected-(J3-Pin_29-Pad29)*%
X156540000Y-85400000D03*
%TO.P,J3,30,Pin_30*%
%TO.N,unconnected-(J3-Pin_30-Pad30)*%
X159080000Y-85400000D03*
%TO.P,J3,31,Pin_31*%
%TO.N,unconnected-(J3-Pin_31-Pad31)*%
X156540000Y-87940000D03*
%TO.P,J3,32,Pin_32*%
%TO.N,unconnected-(J3-Pin_32-Pad32)*%
X159080000Y-87940000D03*
%TO.P,J3,33,Pin_33*%
%TO.N,Net-(J1-Pin_1)*%
X156540000Y-90480000D03*
%TO.P,J3,34,Pin_34*%
%TO.N,unconnected-(J3-Pin_34-Pad34)*%
X159080000Y-90480000D03*
%TD*%
D12*
%TO.P,J16,1,Pin_1*%
%TO.N,Net-(J1-Pin_1)*%
X43000000Y-160000000D03*
D13*
%TO.P,J16,2,Pin_2*%
%TO.N,Net-(J1-Pin_2)*%
X48080000Y-160000000D03*
%TO.P,J16,3,Pin_3*%
%TO.N,Net-(J16-Pin_3)*%
X53160000Y-160000000D03*
%TO.P,J16,4,Pin_4*%
%TO.N,Net-(J16-Pin_4)*%
X58240000Y-160000000D03*
%TO.P,J16,5,Pin_5*%
%TO.N,Net-(J16-Pin_5)*%
X63320000Y-160000000D03*
%TO.P,J16,6,Pin_6*%
%TO.N,Net-(J16-Pin_6)*%
X68400000Y-160000000D03*
%TO.P,J16,7,Pin_7*%
%TO.N,Net-(J1-Pin_9)*%
X73480000Y-160000000D03*
%TO.P,J16,8,Pin_8*%
%TO.N,Net-(J1-Pin_10)*%
X78560000Y-160000000D03*
%TO.P,J16,9,Pin_9*%
%TO.N,Net-(J16-Pin_9)*%
X83640000Y-160000000D03*
%TO.P,J16,10,Pin_10*%
%TO.N,Net-(J16-Pin_10)*%
X88720000Y-160000000D03*
%TD*%
D10*
%TO.P,J4,1,Pin_1*%
%TO.N,Net-(J2-Pin_24)*%
X156460000Y-117460000D03*
D11*
%TO.P,J4,2,Pin_2*%
%TO.N,Net-(J2-Pin_19)*%
X159000000Y-117460000D03*
%TO.P,J4,3,Pin_3*%
%TO.N,Net-(J2-Pin_21)*%
X156460000Y-120000000D03*
%TO.P,J4,4,Pin_4*%
%TO.N,Net-(J2-Pin_23)*%
X159000000Y-120000000D03*
%TO.P,J4,5,Pin_5*%
%TO.N,Net-(J1-Pin_2)*%
X156460000Y-122540000D03*
%TO.P,J4,6,Pin_6*%
%TO.N,Net-(J1-Pin_1)*%
X159000000Y-122540000D03*
%TO.P,J4,7,Pin_7*%
%TO.N,Net-(J2-Pin_35)*%
X156460000Y-125080000D03*
%TO.P,J4,8,Pin_8*%
%TO.N,Net-(J2-Pin_40)*%
X159000000Y-125080000D03*
%TO.P,J4,9,Pin_9*%
%TO.N,Net-(J2-Pin_35)*%
X156460000Y-127620000D03*
%TO.P,J4,10,Pin_10*%
%TO.N,Net-(J2-Pin_12)*%
X159000000Y-127620000D03*
%TO.P,J4,11,Pin_11*%
%TO.N,Net-(J1-Pin_2)*%
X156460000Y-130160000D03*
%TO.P,J4,12,Pin_12*%
%TO.N,Net-(J1-Pin_1)*%
X159000000Y-130160000D03*
%TD*%
D14*
%TO.N,Net-(J1-Pin_1)*%
X121323400Y-131163300D03*
X160815400Y-92054800D03*
%TO.N,Net-(J1-Pin_10)*%
X121506000Y-62603800D03*
%TO.N,Net-(J1-Pin_7)*%
X153902100Y-133286200D03*
%TO.N,Net-(J1-Pin_8)*%
X153186500Y-135009400D03*
%TO.N,Net-(J1-Pin_9)*%
X122270300Y-59065100D03*
%TO.N,Net-(J2-Pin_35)*%
X100890300Y-123939200D03*
%TO.N,Net-(J2-Pin_12)*%
X71053400Y-133408200D03*
%TO.N,Net-(J2-Pin_33)*%
X103835400Y-65548900D03*
%TO.N,Net-(J2-Pin_18)*%
X83219700Y-68494000D03*
%TO.N,Net-(J2-Pin_8)*%
X68494200Y-71439100D03*
%TO.N,Net-(J2-Pin_23)*%
X86622100Y-124908300D03*
%TO.N,Net-(J2-Pin_32)*%
X95000100Y-68494000D03*
%TO.N,Net-(J2-Pin_10)*%
X71439300Y-74384200D03*
%TO.N,Net-(J16-Pin_6)*%
X87192600Y-155933000D03*
%TO.N,Net-(J16-Pin_10)*%
X86023300Y-128323300D03*
%TD*%
D15*
%TO.N,Net-(J1-Pin_1)*%
X121136700Y-131350000D02*
X108683900Y-131350000D01*
X54460000Y-130000000D02*
X55611700Y-130000000D01*
X121477200Y-131317100D02*
X121323400Y-131163300D01*
X55611700Y-130287900D02*
X55611700Y-130000000D01*
X159000000Y-130160000D02*
X157842900Y-131317100D01*
X59355300Y-134031500D02*
X55611700Y-130287900D01*
X156540000Y-90480000D02*
X158114800Y-92054800D01*
X108683900Y-131350000D02*
X106002400Y-134031500D01*
X158114800Y-92054800D02*
X160815400Y-92054800D01*
X106002400Y-134031500D02*
X59355300Y-134031500D01*
X121323400Y-131163300D02*
X121136700Y-131350000D01*
X157842900Y-131317100D02*
X121477200Y-131317100D01*
%TO.N,Net-(J1-Pin_10)*%
X100678300Y-162101700D02*
X120000000Y-142780000D01*
X124109800Y-60000000D02*
X156540000Y-60000000D01*
X82298300Y-161315800D02*
X83084200Y-162101700D01*
X78560000Y-160000000D02*
X78560000Y-157898300D01*
X83084200Y-162101700D02*
X100678300Y-162101700D01*
X78560000Y-157898300D02*
X79127500Y-157898300D01*
X82298300Y-161069100D02*
X82298300Y-161315800D01*
X79127500Y-157898300D02*
X82298300Y-161069100D01*
X121506000Y-62603800D02*
X124109800Y-60000000D01*
%TO.N,Net-(J1-Pin_4)*%
X107732300Y-127540000D02*
X120000000Y-127540000D01*
X87109000Y-131959300D02*
X103313000Y-131959300D01*
X86944400Y-132123900D02*
X87109000Y-131959300D01*
X103313000Y-131959300D02*
X107732300Y-127540000D01*
X86709000Y-132359300D02*
X86944400Y-132123900D01*
X59359300Y-132359300D02*
X86709000Y-132359300D01*
X57000000Y-130000000D02*
X59359300Y-132359300D01*
X86944400Y-132123900D02*
X87109000Y-131959300D01*
%TO.N,Net-(J1-Pin_7)*%
X153902100Y-133286200D02*
X152028300Y-135160000D01*
X152028300Y-135160000D02*
X120000000Y-135160000D01*
%TO.N,Net-(J1-Pin_8)*%
X150495900Y-137700000D02*
X120000000Y-137700000D01*
X153186500Y-135009400D02*
X150495900Y-137700000D01*
%TO.N,Net-(J1-Pin_3)*%
X61497600Y-131957600D02*
X86542700Y-131957600D01*
X91136500Y-131555900D02*
X91438200Y-131254200D01*
X93092000Y-131154200D02*
X93830000Y-130416200D01*
X91438200Y-131254200D02*
X91538200Y-131154200D01*
X93830000Y-130416200D02*
X93830000Y-127037900D01*
X95867900Y-125000000D02*
X120000000Y-125000000D01*
X86778100Y-131722200D02*
X86944400Y-131555900D01*
X86944400Y-131555900D02*
X91136500Y-131555900D01*
X86778100Y-131722200D02*
X86944400Y-131555900D01*
X93830000Y-127037900D02*
X95867900Y-125000000D01*
X86542700Y-131957600D02*
X86778100Y-131722200D01*
X91538200Y-131154200D02*
X93092000Y-131154200D01*
X91438200Y-131254200D02*
X91538200Y-131154200D01*
X59540000Y-130000000D02*
X61497600Y-131957600D01*
%TO.N,Net-(J1-Pin_2)*%
X83516500Y-131555900D02*
X83751900Y-131320500D01*
X83918200Y-131154200D02*
X90552000Y-131154200D01*
X83751900Y-131320500D02*
X83918200Y-131154200D01*
X83751900Y-131320500D02*
X83918200Y-131154200D01*
X90552000Y-131154200D02*
X91290000Y-130416200D01*
X91290000Y-130416200D02*
X91290000Y-127066400D01*
X95896400Y-122460000D02*
X120000000Y-122460000D01*
X156380000Y-122460000D02*
X156460000Y-122540000D01*
X64620000Y-130000000D02*
X66175900Y-131555900D01*
X120000000Y-122460000D02*
X156380000Y-122460000D01*
X66175900Y-131555900D02*
X83516500Y-131555900D01*
X91290000Y-127066400D02*
X95896400Y-122460000D01*
%TO.N,Net-(J1-Pin_9)*%
X122270300Y-59065100D02*
X123875400Y-57460000D01*
X73927900Y-157450400D02*
X73480000Y-157898300D01*
X102789600Y-157450400D02*
X73927900Y-157450400D01*
X120000000Y-140240000D02*
X102789600Y-157450400D01*
X123875400Y-57460000D02*
X156540000Y-57460000D01*
X73480000Y-160000000D02*
X73480000Y-157898300D01*
%TO.N,Net-(J2-Pin_35)*%
X100994900Y-123834600D02*
X155214600Y-123834600D01*
X155214600Y-123834600D02*
X156460000Y-125080000D01*
X100890300Y-123939200D02*
X100994900Y-123834600D01*
%TO.N,Net-(J2-Pin_21)*%
X83788300Y-126891300D02*
X83788300Y-127767900D01*
X83788300Y-127767900D02*
X82944500Y-128611700D01*
X81248300Y-128611700D02*
X79860000Y-130000000D01*
X156460000Y-120000000D02*
X155190000Y-118730000D01*
X155190000Y-118730000D02*
X91949600Y-118730000D01*
X91949600Y-118730000D02*
X83788300Y-126891300D01*
X82944500Y-128611700D02*
X81248300Y-128611700D01*
%TO.N,Net-(J2-Pin_12)*%
X109405700Y-128890000D02*
X157730000Y-128890000D01*
X157730000Y-128890000D02*
X159000000Y-127620000D01*
X71053400Y-133408200D02*
X104887500Y-133408200D01*
X104887500Y-133408200D02*
X109405700Y-128890000D01*
%TO.N,Net-(J2-Pin_40)*%
X103910000Y-126270000D02*
X102720000Y-127460000D01*
X159000000Y-125080000D02*
X157810000Y-126270000D01*
X157810000Y-126270000D02*
X103910000Y-126270000D01*
%TO.N,Net-(J2-Pin_19)*%
X157827300Y-116287300D02*
X159000000Y-117460000D01*
X78590000Y-127066100D02*
X89368800Y-116287300D01*
X78590000Y-128730000D02*
X78590000Y-127066100D01*
X77320000Y-130000000D02*
X78590000Y-128730000D01*
X89368800Y-116287300D02*
X157827300Y-116287300D01*
%TO.N,Net-(J2-Pin_33)*%
X156540000Y-65080000D02*
X104304300Y-65080000D01*
X104304300Y-65080000D02*
X103835400Y-65548900D01*
%TO.N,Net-(J2-Pin_24)*%
X92400000Y-117460000D02*
X82400000Y-127460000D01*
X156460000Y-117460000D02*
X92400000Y-117460000D01*
%TO.N,Net-(J2-Pin_18)*%
X155061600Y-69098400D02*
X83824100Y-69098400D01*
X156540000Y-67620000D02*
X155061600Y-69098400D01*
X83824100Y-69098400D02*
X83219700Y-68494000D01*
%TO.N,Net-(J2-Pin_8)*%
X156540000Y-70160000D02*
X69773300Y-70160000D01*
X69773300Y-70160000D02*
X68494200Y-71439100D01*
%TO.N,Net-(J2-Pin_23)*%
X157691700Y-121308300D02*
X90222100Y-121308300D01*
X159000000Y-120000000D02*
X157691700Y-121308300D01*
X90222100Y-121308300D02*
X86622100Y-124908300D01*
%TO.N,Net-(J2-Pin_32)*%
X99564300Y-63929800D02*
X95000100Y-68494000D01*
X155150200Y-63929800D02*
X99564300Y-63929800D01*
X156540000Y-62540000D02*
X155150200Y-63929800D01*
%TO.N,Net-(J2-Pin_10)*%
X154855800Y-74384200D02*
X156540000Y-72700000D01*
X71439300Y-74384200D02*
X154855800Y-74384200D01*
%TO.N,Net-(J16-Pin_6)*%
X68400000Y-157898300D02*
X70365300Y-155933000D01*
X70365300Y-155933000D02*
X87192600Y-155933000D01*
X68400000Y-160000000D02*
X68400000Y-157898300D01*
%TO.N,Net-(J16-Pin_10)*%
X65038400Y-128730000D02*
X66008300Y-129699900D01*
X83670000Y-130397300D02*
X83670000Y-129581600D01*
X85616600Y-128730000D02*
X86023300Y-128323300D01*
X82913100Y-131154200D02*
X83670000Y-130397300D01*
X84521600Y-128730000D02*
X85616600Y-128730000D01*
X66685500Y-131154200D02*
X82913100Y-131154200D01*
X66008300Y-129699900D02*
X66008300Y-130477000D01*
X66008300Y-130477000D02*
X66685500Y-131154200D01*
X83670000Y-129581600D02*
X84521600Y-128730000D01*
X55730000Y-128730000D02*
X65038400Y-128730000D01*
X54460000Y-127460000D02*
X55730000Y-128730000D01*
%TD*%
M02*
