%TF.GenerationSoftware,KiCad,Pcbnew,9.0.7*%
%TF.CreationDate,2026-07-26T13:17:54+02:00*%
%TF.ProjectId,INDIPI,494e4449-5049-42e6-9b69-6361645f7063,3*%
%TF.SameCoordinates,Original*%
%TF.FileFunction,Legend,Bot*%
%TF.FilePolarity,Positive*%
%FSLAX46Y46*%
G04 Gerber Fmt 4.6, Leading zero omitted, Abs format (unit mm)*
G04 Created by KiCad (PCBNEW 9.0.7) date 2026-07-26 13:17:54*
%MOMM*%
%LPD*%
G01*
G04 APERTURE LIST*
%ADD10C,0.300000*%
G04 APERTURE END LIST*
D10*
X97483082Y-165957341D02*
X98197368Y-165957341D01*
X97340225Y-166385912D02*
X97840225Y-164885912D01*
X97840225Y-164885912D02*
X98340225Y-166385912D01*
X98840224Y-166385912D02*
X98840224Y-165385912D01*
X98840224Y-164885912D02*
X98768796Y-164957341D01*
X98768796Y-164957341D02*
X98840224Y-165028769D01*
X98840224Y-165028769D02*
X98911653Y-164957341D01*
X98911653Y-164957341D02*
X98840224Y-164885912D01*
X98840224Y-164885912D02*
X98840224Y-165028769D01*
X99340225Y-165385912D02*
X99911653Y-165385912D01*
X99554510Y-164885912D02*
X99554510Y-166171626D01*
X99554510Y-166171626D02*
X99625939Y-166314484D01*
X99625939Y-166314484D02*
X99768796Y-166385912D01*
X99768796Y-166385912D02*
X99911653Y-166385912D01*
X100268796Y-165385912D02*
X101054511Y-165385912D01*
X101054511Y-165385912D02*
X100268796Y-166385912D01*
X100268796Y-166385912D02*
X101054511Y-166385912D01*
X101840225Y-166385912D02*
X101697368Y-166314484D01*
X101697368Y-166314484D02*
X101625939Y-166243055D01*
X101625939Y-166243055D02*
X101554511Y-166100198D01*
X101554511Y-166100198D02*
X101554511Y-165671626D01*
X101554511Y-165671626D02*
X101625939Y-165528769D01*
X101625939Y-165528769D02*
X101697368Y-165457341D01*
X101697368Y-165457341D02*
X101840225Y-165385912D01*
X101840225Y-165385912D02*
X102054511Y-165385912D01*
X102054511Y-165385912D02*
X102197368Y-165457341D01*
X102197368Y-165457341D02*
X102268797Y-165528769D01*
X102268797Y-165528769D02*
X102340225Y-165671626D01*
X102340225Y-165671626D02*
X102340225Y-166100198D01*
X102340225Y-166100198D02*
X102268797Y-166243055D01*
X102268797Y-166243055D02*
X102197368Y-166314484D01*
X102197368Y-166314484D02*
X102054511Y-166385912D01*
X102054511Y-166385912D02*
X101840225Y-166385912D01*
X103197368Y-166385912D02*
X103054511Y-166314484D01*
X103054511Y-166314484D02*
X102983082Y-166171626D01*
X102983082Y-166171626D02*
X102983082Y-164885912D01*
X104911653Y-165600198D02*
X105411653Y-165600198D01*
X105625939Y-166385912D02*
X104911653Y-166385912D01*
X104911653Y-166385912D02*
X104911653Y-164885912D01*
X104911653Y-164885912D02*
X105625939Y-164885912D01*
X106125939Y-165385912D02*
X106911654Y-165385912D01*
X106911654Y-165385912D02*
X106125939Y-166385912D01*
X106125939Y-166385912D02*
X106911654Y-166385912D01*
X108054511Y-166314484D02*
X107911654Y-166385912D01*
X107911654Y-166385912D02*
X107625940Y-166385912D01*
X107625940Y-166385912D02*
X107483082Y-166314484D01*
X107483082Y-166314484D02*
X107411654Y-166171626D01*
X107411654Y-166171626D02*
X107411654Y-165600198D01*
X107411654Y-165600198D02*
X107483082Y-165457341D01*
X107483082Y-165457341D02*
X107625940Y-165385912D01*
X107625940Y-165385912D02*
X107911654Y-165385912D01*
X107911654Y-165385912D02*
X108054511Y-165457341D01*
X108054511Y-165457341D02*
X108125940Y-165600198D01*
X108125940Y-165600198D02*
X108125940Y-165743055D01*
X108125940Y-165743055D02*
X107411654Y-165885912D01*
X108768796Y-166385912D02*
X108768796Y-165385912D01*
X108768796Y-164885912D02*
X108697368Y-164957341D01*
X108697368Y-164957341D02*
X108768796Y-165028769D01*
X108768796Y-165028769D02*
X108840225Y-164957341D01*
X108840225Y-164957341D02*
X108768796Y-164885912D01*
X108768796Y-164885912D02*
X108768796Y-165028769D01*
X109340225Y-165385912D02*
X110125940Y-165385912D01*
X110125940Y-165385912D02*
X109340225Y-166385912D01*
X109340225Y-166385912D02*
X110125940Y-166385912D01*
X111340226Y-166385912D02*
X111340226Y-165600198D01*
X111340226Y-165600198D02*
X111268797Y-165457341D01*
X111268797Y-165457341D02*
X111125940Y-165385912D01*
X111125940Y-165385912D02*
X110840226Y-165385912D01*
X110840226Y-165385912D02*
X110697368Y-165457341D01*
X111340226Y-166314484D02*
X111197368Y-166385912D01*
X111197368Y-166385912D02*
X110840226Y-166385912D01*
X110840226Y-166385912D02*
X110697368Y-166314484D01*
X110697368Y-166314484D02*
X110625940Y-166171626D01*
X110625940Y-166171626D02*
X110625940Y-166028769D01*
X110625940Y-166028769D02*
X110697368Y-165885912D01*
X110697368Y-165885912D02*
X110840226Y-165814484D01*
X110840226Y-165814484D02*
X111197368Y-165814484D01*
X111197368Y-165814484D02*
X111340226Y-165743055D01*
X112125940Y-166314484D02*
X112125940Y-166385912D01*
X112125940Y-166385912D02*
X112054511Y-166528769D01*
X112054511Y-166528769D02*
X111983083Y-166600198D01*
X113911654Y-166385912D02*
X113911654Y-164885912D01*
X114625940Y-166385912D02*
X114625940Y-165385912D01*
X114625940Y-165528769D02*
X114697369Y-165457341D01*
X114697369Y-165457341D02*
X114840226Y-165385912D01*
X114840226Y-165385912D02*
X115054512Y-165385912D01*
X115054512Y-165385912D02*
X115197369Y-165457341D01*
X115197369Y-165457341D02*
X115268798Y-165600198D01*
X115268798Y-165600198D02*
X115268798Y-166385912D01*
X115268798Y-165600198D02*
X115340226Y-165457341D01*
X115340226Y-165457341D02*
X115483083Y-165385912D01*
X115483083Y-165385912D02*
X115697369Y-165385912D01*
X115697369Y-165385912D02*
X115840226Y-165457341D01*
X115840226Y-165457341D02*
X115911655Y-165600198D01*
X115911655Y-165600198D02*
X115911655Y-166385912D01*
X117268798Y-166385912D02*
X117268798Y-165600198D01*
X117268798Y-165600198D02*
X117197369Y-165457341D01*
X117197369Y-165457341D02*
X117054512Y-165385912D01*
X117054512Y-165385912D02*
X116768798Y-165385912D01*
X116768798Y-165385912D02*
X116625940Y-165457341D01*
X117268798Y-166314484D02*
X117125940Y-166385912D01*
X117125940Y-166385912D02*
X116768798Y-166385912D01*
X116768798Y-166385912D02*
X116625940Y-166314484D01*
X116625940Y-166314484D02*
X116554512Y-166171626D01*
X116554512Y-166171626D02*
X116554512Y-166028769D01*
X116554512Y-166028769D02*
X116625940Y-165885912D01*
X116625940Y-165885912D02*
X116768798Y-165814484D01*
X116768798Y-165814484D02*
X117125940Y-165814484D01*
X117125940Y-165814484D02*
X117268798Y-165743055D01*
X117983083Y-165385912D02*
X117983083Y-166385912D01*
X117983083Y-165528769D02*
X118054512Y-165457341D01*
X118054512Y-165457341D02*
X118197369Y-165385912D01*
X118197369Y-165385912D02*
X118411655Y-165385912D01*
X118411655Y-165385912D02*
X118554512Y-165457341D01*
X118554512Y-165457341D02*
X118625941Y-165600198D01*
X118625941Y-165600198D02*
X118625941Y-166385912D01*
X119554512Y-166385912D02*
X119411655Y-166314484D01*
X119411655Y-166314484D02*
X119340226Y-166243055D01*
X119340226Y-166243055D02*
X119268798Y-166100198D01*
X119268798Y-166100198D02*
X119268798Y-165671626D01*
X119268798Y-165671626D02*
X119340226Y-165528769D01*
X119340226Y-165528769D02*
X119411655Y-165457341D01*
X119411655Y-165457341D02*
X119554512Y-165385912D01*
X119554512Y-165385912D02*
X119768798Y-165385912D01*
X119768798Y-165385912D02*
X119911655Y-165457341D01*
X119911655Y-165457341D02*
X119983084Y-165528769D01*
X119983084Y-165528769D02*
X120054512Y-165671626D01*
X120054512Y-165671626D02*
X120054512Y-166100198D01*
X120054512Y-166100198D02*
X119983084Y-166243055D01*
X119983084Y-166243055D02*
X119911655Y-166314484D01*
X119911655Y-166314484D02*
X119768798Y-166385912D01*
X119768798Y-166385912D02*
X119554512Y-166385912D01*
X120911655Y-166385912D02*
X120768798Y-166314484D01*
X120768798Y-166314484D02*
X120697369Y-166171626D01*
X120697369Y-166171626D02*
X120697369Y-164885912D01*
X123125940Y-165600198D02*
X123340226Y-165671626D01*
X123340226Y-165671626D02*
X123411655Y-165743055D01*
X123411655Y-165743055D02*
X123483083Y-165885912D01*
X123483083Y-165885912D02*
X123483083Y-166100198D01*
X123483083Y-166100198D02*
X123411655Y-166243055D01*
X123411655Y-166243055D02*
X123340226Y-166314484D01*
X123340226Y-166314484D02*
X123197369Y-166385912D01*
X123197369Y-166385912D02*
X122625940Y-166385912D01*
X122625940Y-166385912D02*
X122625940Y-164885912D01*
X122625940Y-164885912D02*
X123125940Y-164885912D01*
X123125940Y-164885912D02*
X123268798Y-164957341D01*
X123268798Y-164957341D02*
X123340226Y-165028769D01*
X123340226Y-165028769D02*
X123411655Y-165171626D01*
X123411655Y-165171626D02*
X123411655Y-165314484D01*
X123411655Y-165314484D02*
X123340226Y-165457341D01*
X123340226Y-165457341D02*
X123268798Y-165528769D01*
X123268798Y-165528769D02*
X123125940Y-165600198D01*
X123125940Y-165600198D02*
X122625940Y-165600198D01*
X124768798Y-166385912D02*
X124768798Y-165600198D01*
X124768798Y-165600198D02*
X124697369Y-165457341D01*
X124697369Y-165457341D02*
X124554512Y-165385912D01*
X124554512Y-165385912D02*
X124268798Y-165385912D01*
X124268798Y-165385912D02*
X124125940Y-165457341D01*
X124768798Y-166314484D02*
X124625940Y-166385912D01*
X124625940Y-166385912D02*
X124268798Y-166385912D01*
X124268798Y-166385912D02*
X124125940Y-166314484D01*
X124125940Y-166314484D02*
X124054512Y-166171626D01*
X124054512Y-166171626D02*
X124054512Y-166028769D01*
X124054512Y-166028769D02*
X124125940Y-165885912D01*
X124125940Y-165885912D02*
X124268798Y-165814484D01*
X124268798Y-165814484D02*
X124625940Y-165814484D01*
X124625940Y-165814484D02*
X124768798Y-165743055D01*
X125483083Y-166385912D02*
X125483083Y-165385912D01*
X125483083Y-165671626D02*
X125554512Y-165528769D01*
X125554512Y-165528769D02*
X125625941Y-165457341D01*
X125625941Y-165457341D02*
X125768798Y-165385912D01*
X125768798Y-165385912D02*
X125911655Y-165385912D01*
X127054512Y-166385912D02*
X127054512Y-164885912D01*
X127054512Y-166314484D02*
X126911654Y-166385912D01*
X126911654Y-166385912D02*
X126625940Y-166385912D01*
X126625940Y-166385912D02*
X126483083Y-166314484D01*
X126483083Y-166314484D02*
X126411654Y-166243055D01*
X126411654Y-166243055D02*
X126340226Y-166100198D01*
X126340226Y-166100198D02*
X126340226Y-165671626D01*
X126340226Y-165671626D02*
X126411654Y-165528769D01*
X126411654Y-165528769D02*
X126483083Y-165457341D01*
X126483083Y-165457341D02*
X126625940Y-165385912D01*
X126625940Y-165385912D02*
X126911654Y-165385912D01*
X126911654Y-165385912D02*
X127054512Y-165457341D01*
X128411655Y-166385912D02*
X128411655Y-165600198D01*
X128411655Y-165600198D02*
X128340226Y-165457341D01*
X128340226Y-165457341D02*
X128197369Y-165385912D01*
X128197369Y-165385912D02*
X127911655Y-165385912D01*
X127911655Y-165385912D02*
X127768797Y-165457341D01*
X128411655Y-166314484D02*
X128268797Y-166385912D01*
X128268797Y-166385912D02*
X127911655Y-166385912D01*
X127911655Y-166385912D02*
X127768797Y-166314484D01*
X127768797Y-166314484D02*
X127697369Y-166171626D01*
X127697369Y-166171626D02*
X127697369Y-166028769D01*
X127697369Y-166028769D02*
X127768797Y-165885912D01*
X127768797Y-165885912D02*
X127911655Y-165814484D01*
X127911655Y-165814484D02*
X128268797Y-165814484D01*
X128268797Y-165814484D02*
X128411655Y-165743055D01*
X129125940Y-165385912D02*
X129125940Y-166671626D01*
X129125940Y-166671626D02*
X129054512Y-166814484D01*
X129054512Y-166814484D02*
X128911655Y-166885912D01*
X128911655Y-166885912D02*
X128840226Y-166885912D01*
X129125940Y-164885912D02*
X129054512Y-164957341D01*
X129054512Y-164957341D02*
X129125940Y-165028769D01*
X129125940Y-165028769D02*
X129197369Y-164957341D01*
X129197369Y-164957341D02*
X129125940Y-164885912D01*
X129125940Y-164885912D02*
X129125940Y-165028769D01*
X129840226Y-166385912D02*
X129840226Y-165385912D01*
X129840226Y-164885912D02*
X129768798Y-164957341D01*
X129768798Y-164957341D02*
X129840226Y-165028769D01*
X129840226Y-165028769D02*
X129911655Y-164957341D01*
X129911655Y-164957341D02*
X129840226Y-164885912D01*
X129840226Y-164885912D02*
X129840226Y-165028769D01*
X130625941Y-166314484D02*
X130625941Y-166385912D01*
X130625941Y-166385912D02*
X130554512Y-166528769D01*
X130554512Y-166528769D02*
X130483084Y-166600198D01*
X133054513Y-166385912D02*
X133054513Y-165600198D01*
X133054513Y-165600198D02*
X132983084Y-165457341D01*
X132983084Y-165457341D02*
X132840227Y-165385912D01*
X132840227Y-165385912D02*
X132554513Y-165385912D01*
X132554513Y-165385912D02*
X132411655Y-165457341D01*
X133054513Y-166314484D02*
X132911655Y-166385912D01*
X132911655Y-166385912D02*
X132554513Y-166385912D01*
X132554513Y-166385912D02*
X132411655Y-166314484D01*
X132411655Y-166314484D02*
X132340227Y-166171626D01*
X132340227Y-166171626D02*
X132340227Y-166028769D01*
X132340227Y-166028769D02*
X132411655Y-165885912D01*
X132411655Y-165885912D02*
X132554513Y-165814484D01*
X132554513Y-165814484D02*
X132911655Y-165814484D01*
X132911655Y-165814484D02*
X133054513Y-165743055D01*
X133768798Y-165385912D02*
X133768798Y-166385912D01*
X133768798Y-165528769D02*
X133840227Y-165457341D01*
X133840227Y-165457341D02*
X133983084Y-165385912D01*
X133983084Y-165385912D02*
X134197370Y-165385912D01*
X134197370Y-165385912D02*
X134340227Y-165457341D01*
X134340227Y-165457341D02*
X134411656Y-165600198D01*
X134411656Y-165600198D02*
X134411656Y-166385912D01*
X135768799Y-166385912D02*
X135768799Y-164885912D01*
X135768799Y-166314484D02*
X135625941Y-166385912D01*
X135625941Y-166385912D02*
X135340227Y-166385912D01*
X135340227Y-166385912D02*
X135197370Y-166314484D01*
X135197370Y-166314484D02*
X135125941Y-166243055D01*
X135125941Y-166243055D02*
X135054513Y-166100198D01*
X135054513Y-166100198D02*
X135054513Y-165671626D01*
X135054513Y-165671626D02*
X135125941Y-165528769D01*
X135125941Y-165528769D02*
X135197370Y-165457341D01*
X135197370Y-165457341D02*
X135340227Y-165385912D01*
X135340227Y-165385912D02*
X135625941Y-165385912D01*
X135625941Y-165385912D02*
X135768799Y-165457341D01*
X137625941Y-166385912D02*
X137625941Y-164885912D01*
X138483084Y-166385912D02*
X137840227Y-165528769D01*
X138483084Y-164885912D02*
X137625941Y-165743055D01*
X139768799Y-166385912D02*
X139768799Y-165600198D01*
X139768799Y-165600198D02*
X139697370Y-165457341D01*
X139697370Y-165457341D02*
X139554513Y-165385912D01*
X139554513Y-165385912D02*
X139268799Y-165385912D01*
X139268799Y-165385912D02*
X139125941Y-165457341D01*
X139768799Y-166314484D02*
X139625941Y-166385912D01*
X139625941Y-166385912D02*
X139268799Y-166385912D01*
X139268799Y-166385912D02*
X139125941Y-166314484D01*
X139125941Y-166314484D02*
X139054513Y-166171626D01*
X139054513Y-166171626D02*
X139054513Y-166028769D01*
X139054513Y-166028769D02*
X139125941Y-165885912D01*
X139125941Y-165885912D02*
X139268799Y-165814484D01*
X139268799Y-165814484D02*
X139625941Y-165814484D01*
X139625941Y-165814484D02*
X139768799Y-165743055D01*
X141125942Y-165385912D02*
X141125942Y-166385912D01*
X140483084Y-165385912D02*
X140483084Y-166171626D01*
X140483084Y-166171626D02*
X140554513Y-166314484D01*
X140554513Y-166314484D02*
X140697370Y-166385912D01*
X140697370Y-166385912D02*
X140911656Y-166385912D01*
X140911656Y-166385912D02*
X141054513Y-166314484D01*
X141054513Y-166314484D02*
X141125942Y-166243055D01*
X142054513Y-166385912D02*
X141911656Y-166314484D01*
X141911656Y-166314484D02*
X141840227Y-166171626D01*
X141840227Y-166171626D02*
X141840227Y-164885912D01*
X143268799Y-166385912D02*
X143268799Y-164885912D01*
X143268799Y-166314484D02*
X143125941Y-166385912D01*
X143125941Y-166385912D02*
X142840227Y-166385912D01*
X142840227Y-166385912D02*
X142697370Y-166314484D01*
X142697370Y-166314484D02*
X142625941Y-166243055D01*
X142625941Y-166243055D02*
X142554513Y-166100198D01*
X142554513Y-166100198D02*
X142554513Y-165671626D01*
X142554513Y-165671626D02*
X142625941Y-165528769D01*
X142625941Y-165528769D02*
X142697370Y-165457341D01*
X142697370Y-165457341D02*
X142840227Y-165385912D01*
X142840227Y-165385912D02*
X143125941Y-165385912D01*
X143125941Y-165385912D02*
X143268799Y-165457341D01*
X143983084Y-166385912D02*
X143983084Y-165385912D01*
X143983084Y-164885912D02*
X143911656Y-164957341D01*
X143911656Y-164957341D02*
X143983084Y-165028769D01*
X143983084Y-165028769D02*
X144054513Y-164957341D01*
X144054513Y-164957341D02*
X143983084Y-164885912D01*
X143983084Y-164885912D02*
X143983084Y-165028769D01*
X146125942Y-164885912D02*
X146411656Y-164885912D01*
X146411656Y-164885912D02*
X146554513Y-164957341D01*
X146554513Y-164957341D02*
X146697370Y-165100198D01*
X146697370Y-165100198D02*
X146768799Y-165385912D01*
X146768799Y-165385912D02*
X146768799Y-165885912D01*
X146768799Y-165885912D02*
X146697370Y-166171626D01*
X146697370Y-166171626D02*
X146554513Y-166314484D01*
X146554513Y-166314484D02*
X146411656Y-166385912D01*
X146411656Y-166385912D02*
X146125942Y-166385912D01*
X146125942Y-166385912D02*
X145983085Y-166314484D01*
X145983085Y-166314484D02*
X145840227Y-166171626D01*
X145840227Y-166171626D02*
X145768799Y-165885912D01*
X145768799Y-165885912D02*
X145768799Y-165385912D01*
X145768799Y-165385912D02*
X145840227Y-165100198D01*
X145840227Y-165100198D02*
X145983085Y-164957341D01*
X145983085Y-164957341D02*
X146125942Y-164885912D01*
X148054514Y-166385912D02*
X148054514Y-164885912D01*
X148054514Y-166314484D02*
X147911656Y-166385912D01*
X147911656Y-166385912D02*
X147625942Y-166385912D01*
X147625942Y-166385912D02*
X147483085Y-166314484D01*
X147483085Y-166314484D02*
X147411656Y-166243055D01*
X147411656Y-166243055D02*
X147340228Y-166100198D01*
X147340228Y-166100198D02*
X147340228Y-165671626D01*
X147340228Y-165671626D02*
X147411656Y-165528769D01*
X147411656Y-165528769D02*
X147483085Y-165457341D01*
X147483085Y-165457341D02*
X147625942Y-165385912D01*
X147625942Y-165385912D02*
X147911656Y-165385912D01*
X147911656Y-165385912D02*
X148054514Y-165457341D01*
X148768799Y-166385912D02*
X148768799Y-165385912D01*
X148768799Y-165671626D02*
X148840228Y-165528769D01*
X148840228Y-165528769D02*
X148911657Y-165457341D01*
X148911657Y-165457341D02*
X149054514Y-165385912D01*
X149054514Y-165385912D02*
X149197371Y-165385912D01*
X149697370Y-166385912D02*
X149697370Y-165385912D01*
X149697370Y-164885912D02*
X149625942Y-164957341D01*
X149625942Y-164957341D02*
X149697370Y-165028769D01*
X149697370Y-165028769D02*
X149768799Y-164957341D01*
X149768799Y-164957341D02*
X149697370Y-164885912D01*
X149697370Y-164885912D02*
X149697370Y-165028769D01*
X150625942Y-166385912D02*
X150483085Y-166314484D01*
X150483085Y-166314484D02*
X150411656Y-166243055D01*
X150411656Y-166243055D02*
X150340228Y-166100198D01*
X150340228Y-166100198D02*
X150340228Y-165671626D01*
X150340228Y-165671626D02*
X150411656Y-165528769D01*
X150411656Y-165528769D02*
X150483085Y-165457341D01*
X150483085Y-165457341D02*
X150625942Y-165385912D01*
X150625942Y-165385912D02*
X150840228Y-165385912D01*
X150840228Y-165385912D02*
X150983085Y-165457341D01*
X150983085Y-165457341D02*
X151054514Y-165528769D01*
X151054514Y-165528769D02*
X151125942Y-165671626D01*
X151125942Y-165671626D02*
X151125942Y-166100198D01*
X151125942Y-166100198D02*
X151054514Y-166243055D01*
X151054514Y-166243055D02*
X150983085Y-166314484D01*
X150983085Y-166314484D02*
X150840228Y-166385912D01*
X150840228Y-166385912D02*
X150625942Y-166385912D01*
X151625942Y-165385912D02*
X152411657Y-165385912D01*
X152411657Y-165385912D02*
X151625942Y-166385912D01*
X151625942Y-166385912D02*
X152411657Y-166385912D01*
X153197371Y-166385912D02*
X153054514Y-166314484D01*
X153054514Y-166314484D02*
X152983085Y-166243055D01*
X152983085Y-166243055D02*
X152911657Y-166100198D01*
X152911657Y-166100198D02*
X152911657Y-165671626D01*
X152911657Y-165671626D02*
X152983085Y-165528769D01*
X152983085Y-165528769D02*
X153054514Y-165457341D01*
X153054514Y-165457341D02*
X153197371Y-165385912D01*
X153197371Y-165385912D02*
X153411657Y-165385912D01*
X153411657Y-165385912D02*
X153554514Y-165457341D01*
X153554514Y-165457341D02*
X153625943Y-165528769D01*
X153625943Y-165528769D02*
X153697371Y-165671626D01*
X153697371Y-165671626D02*
X153697371Y-166100198D01*
X153697371Y-166100198D02*
X153625943Y-166243055D01*
X153625943Y-166243055D02*
X153554514Y-166314484D01*
X153554514Y-166314484D02*
X153411657Y-166385912D01*
X153411657Y-166385912D02*
X153197371Y-166385912D01*
X154554514Y-166385912D02*
X154411657Y-166314484D01*
X154411657Y-166314484D02*
X154340228Y-166171626D01*
X154340228Y-166171626D02*
X154340228Y-164885912D01*
X155768800Y-166385912D02*
X155768800Y-165600198D01*
X155768800Y-165600198D02*
X155697371Y-165457341D01*
X155697371Y-165457341D02*
X155554514Y-165385912D01*
X155554514Y-165385912D02*
X155268800Y-165385912D01*
X155268800Y-165385912D02*
X155125942Y-165457341D01*
X155768800Y-166314484D02*
X155625942Y-166385912D01*
X155625942Y-166385912D02*
X155268800Y-166385912D01*
X155268800Y-166385912D02*
X155125942Y-166314484D01*
X155125942Y-166314484D02*
X155054514Y-166171626D01*
X155054514Y-166171626D02*
X155054514Y-166028769D01*
X155054514Y-166028769D02*
X155125942Y-165885912D01*
X155125942Y-165885912D02*
X155268800Y-165814484D01*
X155268800Y-165814484D02*
X155625942Y-165814484D01*
X155625942Y-165814484D02*
X155768800Y-165743055D01*
X98411653Y-168800828D02*
X97911653Y-168086542D01*
X97554510Y-168800828D02*
X97554510Y-167300828D01*
X97554510Y-167300828D02*
X98125939Y-167300828D01*
X98125939Y-167300828D02*
X98268796Y-167372257D01*
X98268796Y-167372257D02*
X98340225Y-167443685D01*
X98340225Y-167443685D02*
X98411653Y-167586542D01*
X98411653Y-167586542D02*
X98411653Y-167800828D01*
X98411653Y-167800828D02*
X98340225Y-167943685D01*
X98340225Y-167943685D02*
X98268796Y-168015114D01*
X98268796Y-168015114D02*
X98125939Y-168086542D01*
X98125939Y-168086542D02*
X97554510Y-168086542D01*
X99625939Y-168729400D02*
X99483082Y-168800828D01*
X99483082Y-168800828D02*
X99197368Y-168800828D01*
X99197368Y-168800828D02*
X99054510Y-168729400D01*
X99054510Y-168729400D02*
X98983082Y-168586542D01*
X98983082Y-168586542D02*
X98983082Y-168015114D01*
X98983082Y-168015114D02*
X99054510Y-167872257D01*
X99054510Y-167872257D02*
X99197368Y-167800828D01*
X99197368Y-167800828D02*
X99483082Y-167800828D01*
X99483082Y-167800828D02*
X99625939Y-167872257D01*
X99625939Y-167872257D02*
X99697368Y-168015114D01*
X99697368Y-168015114D02*
X99697368Y-168157971D01*
X99697368Y-168157971D02*
X98983082Y-168300828D01*
X100197367Y-167800828D02*
X100554510Y-168800828D01*
X100554510Y-168800828D02*
X100911653Y-167800828D01*
X101340224Y-167300828D02*
X102268796Y-167300828D01*
X102268796Y-167300828D02*
X101768796Y-167872257D01*
X101768796Y-167872257D02*
X101983081Y-167872257D01*
X101983081Y-167872257D02*
X102125939Y-167943685D01*
X102125939Y-167943685D02*
X102197367Y-168015114D01*
X102197367Y-168015114D02*
X102268796Y-168157971D01*
X102268796Y-168157971D02*
X102268796Y-168515114D01*
X102268796Y-168515114D02*
X102197367Y-168657971D01*
X102197367Y-168657971D02*
X102125939Y-168729400D01*
X102125939Y-168729400D02*
X101983081Y-168800828D01*
X101983081Y-168800828D02*
X101554510Y-168800828D01*
X101554510Y-168800828D02*
X101411653Y-168729400D01*
X101411653Y-168729400D02*
X101340224Y-168657971D01*
X104054509Y-168229400D02*
X105197367Y-168229400D01*
X106983081Y-167443685D02*
X107054509Y-167372257D01*
X107054509Y-167372257D02*
X107197367Y-167300828D01*
X107197367Y-167300828D02*
X107554509Y-167300828D01*
X107554509Y-167300828D02*
X107697367Y-167372257D01*
X107697367Y-167372257D02*
X107768795Y-167443685D01*
X107768795Y-167443685D02*
X107840224Y-167586542D01*
X107840224Y-167586542D02*
X107840224Y-167729400D01*
X107840224Y-167729400D02*
X107768795Y-167943685D01*
X107768795Y-167943685D02*
X106911652Y-168800828D01*
X106911652Y-168800828D02*
X107840224Y-168800828D01*
X108768795Y-167300828D02*
X108911652Y-167300828D01*
X108911652Y-167300828D02*
X109054509Y-167372257D01*
X109054509Y-167372257D02*
X109125938Y-167443685D01*
X109125938Y-167443685D02*
X109197366Y-167586542D01*
X109197366Y-167586542D02*
X109268795Y-167872257D01*
X109268795Y-167872257D02*
X109268795Y-168229400D01*
X109268795Y-168229400D02*
X109197366Y-168515114D01*
X109197366Y-168515114D02*
X109125938Y-168657971D01*
X109125938Y-168657971D02*
X109054509Y-168729400D01*
X109054509Y-168729400D02*
X108911652Y-168800828D01*
X108911652Y-168800828D02*
X108768795Y-168800828D01*
X108768795Y-168800828D02*
X108625938Y-168729400D01*
X108625938Y-168729400D02*
X108554509Y-168657971D01*
X108554509Y-168657971D02*
X108483080Y-168515114D01*
X108483080Y-168515114D02*
X108411652Y-168229400D01*
X108411652Y-168229400D02*
X108411652Y-167872257D01*
X108411652Y-167872257D02*
X108483080Y-167586542D01*
X108483080Y-167586542D02*
X108554509Y-167443685D01*
X108554509Y-167443685D02*
X108625938Y-167372257D01*
X108625938Y-167372257D02*
X108768795Y-167300828D01*
X109840223Y-167443685D02*
X109911651Y-167372257D01*
X109911651Y-167372257D02*
X110054509Y-167300828D01*
X110054509Y-167300828D02*
X110411651Y-167300828D01*
X110411651Y-167300828D02*
X110554509Y-167372257D01*
X110554509Y-167372257D02*
X110625937Y-167443685D01*
X110625937Y-167443685D02*
X110697366Y-167586542D01*
X110697366Y-167586542D02*
X110697366Y-167729400D01*
X110697366Y-167729400D02*
X110625937Y-167943685D01*
X110625937Y-167943685D02*
X109768794Y-168800828D01*
X109768794Y-168800828D02*
X110697366Y-168800828D01*
X111983080Y-167300828D02*
X111697365Y-167300828D01*
X111697365Y-167300828D02*
X111554508Y-167372257D01*
X111554508Y-167372257D02*
X111483080Y-167443685D01*
X111483080Y-167443685D02*
X111340222Y-167657971D01*
X111340222Y-167657971D02*
X111268794Y-167943685D01*
X111268794Y-167943685D02*
X111268794Y-168515114D01*
X111268794Y-168515114D02*
X111340222Y-168657971D01*
X111340222Y-168657971D02*
X111411651Y-168729400D01*
X111411651Y-168729400D02*
X111554508Y-168800828D01*
X111554508Y-168800828D02*
X111840222Y-168800828D01*
X111840222Y-168800828D02*
X111983080Y-168729400D01*
X111983080Y-168729400D02*
X112054508Y-168657971D01*
X112054508Y-168657971D02*
X112125937Y-168515114D01*
X112125937Y-168515114D02*
X112125937Y-168157971D01*
X112125937Y-168157971D02*
X112054508Y-168015114D01*
X112054508Y-168015114D02*
X111983080Y-167943685D01*
X111983080Y-167943685D02*
X111840222Y-167872257D01*
X111840222Y-167872257D02*
X111554508Y-167872257D01*
X111554508Y-167872257D02*
X111411651Y-167943685D01*
X111411651Y-167943685D02*
X111340222Y-168015114D01*
X111340222Y-168015114D02*
X111268794Y-168157971D01*
X113911650Y-168229400D02*
X115054508Y-168229400D01*
X116911650Y-167300828D02*
X116911650Y-168515114D01*
X116911650Y-168515114D02*
X116983079Y-168657971D01*
X116983079Y-168657971D02*
X117054508Y-168729400D01*
X117054508Y-168729400D02*
X117197365Y-168800828D01*
X117197365Y-168800828D02*
X117483079Y-168800828D01*
X117483079Y-168800828D02*
X117625936Y-168729400D01*
X117625936Y-168729400D02*
X117697365Y-168657971D01*
X117697365Y-168657971D02*
X117768793Y-168515114D01*
X117768793Y-168515114D02*
X117768793Y-167300828D01*
X118483079Y-167800828D02*
X118483079Y-168800828D01*
X118483079Y-167943685D02*
X118554508Y-167872257D01*
X118554508Y-167872257D02*
X118697365Y-167800828D01*
X118697365Y-167800828D02*
X118911651Y-167800828D01*
X118911651Y-167800828D02*
X119054508Y-167872257D01*
X119054508Y-167872257D02*
X119125937Y-168015114D01*
X119125937Y-168015114D02*
X119125937Y-168800828D01*
X119840222Y-168800828D02*
X119840222Y-167800828D01*
X119840222Y-167300828D02*
X119768794Y-167372257D01*
X119768794Y-167372257D02*
X119840222Y-167443685D01*
X119840222Y-167443685D02*
X119911651Y-167372257D01*
X119911651Y-167372257D02*
X119840222Y-167300828D01*
X119840222Y-167300828D02*
X119840222Y-167443685D01*
X120411651Y-167800828D02*
X120768794Y-168800828D01*
X120768794Y-168800828D02*
X121125937Y-167800828D01*
X122268794Y-168729400D02*
X122125937Y-168800828D01*
X122125937Y-168800828D02*
X121840223Y-168800828D01*
X121840223Y-168800828D02*
X121697365Y-168729400D01*
X121697365Y-168729400D02*
X121625937Y-168586542D01*
X121625937Y-168586542D02*
X121625937Y-168015114D01*
X121625937Y-168015114D02*
X121697365Y-167872257D01*
X121697365Y-167872257D02*
X121840223Y-167800828D01*
X121840223Y-167800828D02*
X122125937Y-167800828D01*
X122125937Y-167800828D02*
X122268794Y-167872257D01*
X122268794Y-167872257D02*
X122340223Y-168015114D01*
X122340223Y-168015114D02*
X122340223Y-168157971D01*
X122340223Y-168157971D02*
X121625937Y-168300828D01*
X122983079Y-168800828D02*
X122983079Y-167800828D01*
X122983079Y-168086542D02*
X123054508Y-167943685D01*
X123054508Y-167943685D02*
X123125937Y-167872257D01*
X123125937Y-167872257D02*
X123268794Y-167800828D01*
X123268794Y-167800828D02*
X123411651Y-167800828D01*
X123840222Y-168729400D02*
X123983079Y-168800828D01*
X123983079Y-168800828D02*
X124268793Y-168800828D01*
X124268793Y-168800828D02*
X124411650Y-168729400D01*
X124411650Y-168729400D02*
X124483079Y-168586542D01*
X124483079Y-168586542D02*
X124483079Y-168515114D01*
X124483079Y-168515114D02*
X124411650Y-168372257D01*
X124411650Y-168372257D02*
X124268793Y-168300828D01*
X124268793Y-168300828D02*
X124054508Y-168300828D01*
X124054508Y-168300828D02*
X123911650Y-168229400D01*
X123911650Y-168229400D02*
X123840222Y-168086542D01*
X123840222Y-168086542D02*
X123840222Y-168015114D01*
X123840222Y-168015114D02*
X123911650Y-167872257D01*
X123911650Y-167872257D02*
X124054508Y-167800828D01*
X124054508Y-167800828D02*
X124268793Y-167800828D01*
X124268793Y-167800828D02*
X124411650Y-167872257D01*
X125125936Y-168800828D02*
X125125936Y-167800828D01*
X125125936Y-167300828D02*
X125054508Y-167372257D01*
X125054508Y-167372257D02*
X125125936Y-167443685D01*
X125125936Y-167443685D02*
X125197365Y-167372257D01*
X125197365Y-167372257D02*
X125125936Y-167300828D01*
X125125936Y-167300828D02*
X125125936Y-167443685D01*
X125625937Y-167800828D02*
X126197365Y-167800828D01*
X125840222Y-167300828D02*
X125840222Y-168586542D01*
X125840222Y-168586542D02*
X125911651Y-168729400D01*
X125911651Y-168729400D02*
X126054508Y-168800828D01*
X126054508Y-168800828D02*
X126197365Y-168800828D01*
X126554508Y-167800828D02*
X126911651Y-168800828D01*
X127268794Y-167800828D02*
X126911651Y-168800828D01*
X126911651Y-168800828D02*
X126768794Y-169157971D01*
X126768794Y-169157971D02*
X126697365Y-169229400D01*
X126697365Y-169229400D02*
X126554508Y-169300828D01*
X129197365Y-168800828D02*
X129054508Y-168729400D01*
X129054508Y-168729400D02*
X128983079Y-168657971D01*
X128983079Y-168657971D02*
X128911651Y-168515114D01*
X128911651Y-168515114D02*
X128911651Y-168086542D01*
X128911651Y-168086542D02*
X128983079Y-167943685D01*
X128983079Y-167943685D02*
X129054508Y-167872257D01*
X129054508Y-167872257D02*
X129197365Y-167800828D01*
X129197365Y-167800828D02*
X129411651Y-167800828D01*
X129411651Y-167800828D02*
X129554508Y-167872257D01*
X129554508Y-167872257D02*
X129625937Y-167943685D01*
X129625937Y-167943685D02*
X129697365Y-168086542D01*
X129697365Y-168086542D02*
X129697365Y-168515114D01*
X129697365Y-168515114D02*
X129625937Y-168657971D01*
X129625937Y-168657971D02*
X129554508Y-168729400D01*
X129554508Y-168729400D02*
X129411651Y-168800828D01*
X129411651Y-168800828D02*
X129197365Y-168800828D01*
X130125937Y-167800828D02*
X130697365Y-167800828D01*
X130340222Y-168800828D02*
X130340222Y-167515114D01*
X130340222Y-167515114D02*
X130411651Y-167372257D01*
X130411651Y-167372257D02*
X130554508Y-167300828D01*
X130554508Y-167300828D02*
X130697365Y-167300828D01*
X132125937Y-167800828D02*
X132697365Y-167800828D01*
X132340222Y-167300828D02*
X132340222Y-168586542D01*
X132340222Y-168586542D02*
X132411651Y-168729400D01*
X132411651Y-168729400D02*
X132554508Y-168800828D01*
X132554508Y-168800828D02*
X132697365Y-168800828D01*
X133197365Y-168800828D02*
X133197365Y-167300828D01*
X133840223Y-168800828D02*
X133840223Y-168015114D01*
X133840223Y-168015114D02*
X133768794Y-167872257D01*
X133768794Y-167872257D02*
X133625937Y-167800828D01*
X133625937Y-167800828D02*
X133411651Y-167800828D01*
X133411651Y-167800828D02*
X133268794Y-167872257D01*
X133268794Y-167872257D02*
X133197365Y-167943685D01*
X135125937Y-168729400D02*
X134983080Y-168800828D01*
X134983080Y-168800828D02*
X134697366Y-168800828D01*
X134697366Y-168800828D02*
X134554508Y-168729400D01*
X134554508Y-168729400D02*
X134483080Y-168586542D01*
X134483080Y-168586542D02*
X134483080Y-168015114D01*
X134483080Y-168015114D02*
X134554508Y-167872257D01*
X134554508Y-167872257D02*
X134697366Y-167800828D01*
X134697366Y-167800828D02*
X134983080Y-167800828D01*
X134983080Y-167800828D02*
X135125937Y-167872257D01*
X135125937Y-167872257D02*
X135197366Y-168015114D01*
X135197366Y-168015114D02*
X135197366Y-168157971D01*
X135197366Y-168157971D02*
X134483080Y-168300828D01*
X137483079Y-168015114D02*
X137697365Y-168086542D01*
X137697365Y-168086542D02*
X137768794Y-168157971D01*
X137768794Y-168157971D02*
X137840222Y-168300828D01*
X137840222Y-168300828D02*
X137840222Y-168515114D01*
X137840222Y-168515114D02*
X137768794Y-168657971D01*
X137768794Y-168657971D02*
X137697365Y-168729400D01*
X137697365Y-168729400D02*
X137554508Y-168800828D01*
X137554508Y-168800828D02*
X136983079Y-168800828D01*
X136983079Y-168800828D02*
X136983079Y-167300828D01*
X136983079Y-167300828D02*
X137483079Y-167300828D01*
X137483079Y-167300828D02*
X137625937Y-167372257D01*
X137625937Y-167372257D02*
X137697365Y-167443685D01*
X137697365Y-167443685D02*
X137768794Y-167586542D01*
X137768794Y-167586542D02*
X137768794Y-167729400D01*
X137768794Y-167729400D02*
X137697365Y-167872257D01*
X137697365Y-167872257D02*
X137625937Y-167943685D01*
X137625937Y-167943685D02*
X137483079Y-168015114D01*
X137483079Y-168015114D02*
X136983079Y-168015114D01*
X139125937Y-168800828D02*
X139125937Y-168015114D01*
X139125937Y-168015114D02*
X139054508Y-167872257D01*
X139054508Y-167872257D02*
X138911651Y-167800828D01*
X138911651Y-167800828D02*
X138625937Y-167800828D01*
X138625937Y-167800828D02*
X138483079Y-167872257D01*
X139125937Y-168729400D02*
X138983079Y-168800828D01*
X138983079Y-168800828D02*
X138625937Y-168800828D01*
X138625937Y-168800828D02*
X138483079Y-168729400D01*
X138483079Y-168729400D02*
X138411651Y-168586542D01*
X138411651Y-168586542D02*
X138411651Y-168443685D01*
X138411651Y-168443685D02*
X138483079Y-168300828D01*
X138483079Y-168300828D02*
X138625937Y-168229400D01*
X138625937Y-168229400D02*
X138983079Y-168229400D01*
X138983079Y-168229400D02*
X139125937Y-168157971D01*
X139768794Y-168729400D02*
X139911651Y-168800828D01*
X139911651Y-168800828D02*
X140197365Y-168800828D01*
X140197365Y-168800828D02*
X140340222Y-168729400D01*
X140340222Y-168729400D02*
X140411651Y-168586542D01*
X140411651Y-168586542D02*
X140411651Y-168515114D01*
X140411651Y-168515114D02*
X140340222Y-168372257D01*
X140340222Y-168372257D02*
X140197365Y-168300828D01*
X140197365Y-168300828D02*
X139983080Y-168300828D01*
X139983080Y-168300828D02*
X139840222Y-168229400D01*
X139840222Y-168229400D02*
X139768794Y-168086542D01*
X139768794Y-168086542D02*
X139768794Y-168015114D01*
X139768794Y-168015114D02*
X139840222Y-167872257D01*
X139840222Y-167872257D02*
X139983080Y-167800828D01*
X139983080Y-167800828D02*
X140197365Y-167800828D01*
X140197365Y-167800828D02*
X140340222Y-167872257D01*
X141697366Y-167800828D02*
X141697366Y-169300828D01*
X141697366Y-168729400D02*
X141554508Y-168800828D01*
X141554508Y-168800828D02*
X141268794Y-168800828D01*
X141268794Y-168800828D02*
X141125937Y-168729400D01*
X141125937Y-168729400D02*
X141054508Y-168657971D01*
X141054508Y-168657971D02*
X140983080Y-168515114D01*
X140983080Y-168515114D02*
X140983080Y-168086542D01*
X140983080Y-168086542D02*
X141054508Y-167943685D01*
X141054508Y-167943685D02*
X141125937Y-167872257D01*
X141125937Y-167872257D02*
X141268794Y-167800828D01*
X141268794Y-167800828D02*
X141554508Y-167800828D01*
X141554508Y-167800828D02*
X141697366Y-167872257D01*
X143054509Y-167800828D02*
X143054509Y-168800828D01*
X142411651Y-167800828D02*
X142411651Y-168586542D01*
X142411651Y-168586542D02*
X142483080Y-168729400D01*
X142483080Y-168729400D02*
X142625937Y-168800828D01*
X142625937Y-168800828D02*
X142840223Y-168800828D01*
X142840223Y-168800828D02*
X142983080Y-168729400D01*
X142983080Y-168729400D02*
X143054509Y-168657971D01*
X144340223Y-168729400D02*
X144197366Y-168800828D01*
X144197366Y-168800828D02*
X143911652Y-168800828D01*
X143911652Y-168800828D02*
X143768794Y-168729400D01*
X143768794Y-168729400D02*
X143697366Y-168586542D01*
X143697366Y-168586542D02*
X143697366Y-168015114D01*
X143697366Y-168015114D02*
X143768794Y-167872257D01*
X143768794Y-167872257D02*
X143911652Y-167800828D01*
X143911652Y-167800828D02*
X144197366Y-167800828D01*
X144197366Y-167800828D02*
X144340223Y-167872257D01*
X144340223Y-167872257D02*
X144411652Y-168015114D01*
X144411652Y-168015114D02*
X144411652Y-168157971D01*
X144411652Y-168157971D02*
X143697366Y-168300828D01*
X147054508Y-168657971D02*
X146983080Y-168729400D01*
X146983080Y-168729400D02*
X146768794Y-168800828D01*
X146768794Y-168800828D02*
X146625937Y-168800828D01*
X146625937Y-168800828D02*
X146411651Y-168729400D01*
X146411651Y-168729400D02*
X146268794Y-168586542D01*
X146268794Y-168586542D02*
X146197365Y-168443685D01*
X146197365Y-168443685D02*
X146125937Y-168157971D01*
X146125937Y-168157971D02*
X146125937Y-167943685D01*
X146125937Y-167943685D02*
X146197365Y-167657971D01*
X146197365Y-167657971D02*
X146268794Y-167515114D01*
X146268794Y-167515114D02*
X146411651Y-167372257D01*
X146411651Y-167372257D02*
X146625937Y-167300828D01*
X146625937Y-167300828D02*
X146768794Y-167300828D01*
X146768794Y-167300828D02*
X146983080Y-167372257D01*
X146983080Y-167372257D02*
X147054508Y-167443685D01*
X147911651Y-168800828D02*
X147768794Y-168729400D01*
X147768794Y-168729400D02*
X147697365Y-168657971D01*
X147697365Y-168657971D02*
X147625937Y-168515114D01*
X147625937Y-168515114D02*
X147625937Y-168086542D01*
X147625937Y-168086542D02*
X147697365Y-167943685D01*
X147697365Y-167943685D02*
X147768794Y-167872257D01*
X147768794Y-167872257D02*
X147911651Y-167800828D01*
X147911651Y-167800828D02*
X148125937Y-167800828D01*
X148125937Y-167800828D02*
X148268794Y-167872257D01*
X148268794Y-167872257D02*
X148340223Y-167943685D01*
X148340223Y-167943685D02*
X148411651Y-168086542D01*
X148411651Y-168086542D02*
X148411651Y-168515114D01*
X148411651Y-168515114D02*
X148340223Y-168657971D01*
X148340223Y-168657971D02*
X148268794Y-168729400D01*
X148268794Y-168729400D02*
X148125937Y-168800828D01*
X148125937Y-168800828D02*
X147911651Y-168800828D01*
X149697366Y-167800828D02*
X149697366Y-168800828D01*
X149054508Y-167800828D02*
X149054508Y-168586542D01*
X149054508Y-168586542D02*
X149125937Y-168729400D01*
X149125937Y-168729400D02*
X149268794Y-168800828D01*
X149268794Y-168800828D02*
X149483080Y-168800828D01*
X149483080Y-168800828D02*
X149625937Y-168729400D01*
X149625937Y-168729400D02*
X149697366Y-168657971D01*
X150411651Y-167800828D02*
X150411651Y-168800828D01*
X150411651Y-167943685D02*
X150483080Y-167872257D01*
X150483080Y-167872257D02*
X150625937Y-167800828D01*
X150625937Y-167800828D02*
X150840223Y-167800828D01*
X150840223Y-167800828D02*
X150983080Y-167872257D01*
X150983080Y-167872257D02*
X151054509Y-168015114D01*
X151054509Y-168015114D02*
X151054509Y-168800828D01*
X151554509Y-167800828D02*
X152125937Y-167800828D01*
X151768794Y-167300828D02*
X151768794Y-168586542D01*
X151768794Y-168586542D02*
X151840223Y-168729400D01*
X151840223Y-168729400D02*
X151983080Y-168800828D01*
X151983080Y-168800828D02*
X152125937Y-168800828D01*
X152625937Y-168800828D02*
X152625937Y-167800828D01*
X152625937Y-168086542D02*
X152697366Y-167943685D01*
X152697366Y-167943685D02*
X152768795Y-167872257D01*
X152768795Y-167872257D02*
X152911652Y-167800828D01*
X152911652Y-167800828D02*
X153054509Y-167800828D01*
X153411651Y-167800828D02*
X153768794Y-168800828D01*
X154125937Y-167800828D02*
X153768794Y-168800828D01*
X153768794Y-168800828D02*
X153625937Y-169157971D01*
X153625937Y-169157971D02*
X153554508Y-169229400D01*
X153554508Y-169229400D02*
X153411651Y-169300828D01*
X155840222Y-168015114D02*
X156340222Y-168015114D01*
X156554508Y-168800828D02*
X155840222Y-168800828D01*
X155840222Y-168800828D02*
X155840222Y-167300828D01*
X155840222Y-167300828D02*
X156554508Y-167300828D01*
X157197365Y-168800828D02*
X157197365Y-167300828D01*
X157197365Y-168015114D02*
X158054508Y-168015114D01*
X158054508Y-168800828D02*
X158054508Y-167300828D01*
X158768794Y-167300828D02*
X158768794Y-168515114D01*
X158768794Y-168515114D02*
X158840223Y-168657971D01*
X158840223Y-168657971D02*
X158911652Y-168729400D01*
X158911652Y-168729400D02*
X159054509Y-168800828D01*
X159054509Y-168800828D02*
X159340223Y-168800828D01*
X159340223Y-168800828D02*
X159483080Y-168729400D01*
X159483080Y-168729400D02*
X159554509Y-168657971D01*
X159554509Y-168657971D02*
X159625937Y-168515114D01*
X159625937Y-168515114D02*
X159625937Y-167300828D01*
M02*
