M48
; DRILL file {KiCad 9.0.7} date 2026-03-02T17:41:26+0100
; FORMAT={-:-/ absolute / metric / decimal}
; #@! TF.CreationDate,2026-03-02T17:41:26+01:00
; #@! TF.GenerationSoftware,Kicad,Pcbnew,9.0.7
; #@! TF.FileFunction,Plated,1,2,PTH
FMAT,2
METRIC
; #@! TA.AperFunction,Plated,PTH,ViaDrill
T1C0.300
; #@! TA.AperFunction,Plated,PTH,ComponentDrill
T2C1.000
%
G90
G05
T1
X63.93Y-150.826
X74.976Y-82.766
X75.766Y-88.685
X75.766Y-124.409
X79.002Y-156.744
X83.557Y-132.281
X87.602Y-76.848
X88.392Y-121.235
X89.325Y-119.998
X90.562Y-123.216
X93.521Y-159.703
X96.48Y-121.235
X105.357Y-73.889
X106.147Y-79.629
X120.153Y-156.744
X121.054Y-133.702
X129.03Y-65.012
X146.784Y-133.071
X146.812Y-125.86
X148.501Y-100.521
X149.761Y-136.048
X152.703Y-138.989
T2
X48.2Y-160.0
X52.8Y-160.0
X57.4Y-160.0
X62.46Y-127.46
X62.46Y-130.0
X62.53Y-160.0
X65.0Y-127.46
X65.0Y-130.0
X66.6Y-160.0
X67.54Y-127.46
X67.54Y-130.0
X70.08Y-127.46
X70.08Y-130.0
X71.2Y-160.0
X72.62Y-127.46
X72.62Y-130.0
X75.16Y-127.46
X75.16Y-130.0
X75.8Y-160.0
X77.7Y-127.46
X77.7Y-130.0
X80.24Y-127.46
X80.24Y-130.0
X80.4Y-160.0
X82.78Y-127.46
X82.78Y-130.0
X85.0Y-160.0
X85.32Y-127.46
X85.32Y-130.0
X87.86Y-127.46
X87.86Y-130.0
X89.6Y-160.0
X90.4Y-127.46
X90.4Y-130.0
X92.94Y-127.46
X92.94Y-130.0
X95.48Y-127.46
X95.48Y-130.0
X98.02Y-127.46
X98.02Y-130.0
X100.56Y-127.46
X100.56Y-130.0
X103.1Y-127.46
X103.1Y-130.0
X105.64Y-127.46
X105.64Y-130.0
X108.18Y-127.46
X108.18Y-130.0
X110.72Y-127.46
X110.72Y-130.0
X120.0Y-119.92
X120.0Y-122.46
X120.0Y-125.0
X120.0Y-127.54
X120.0Y-130.08
X120.0Y-132.62
X120.0Y-135.16
X120.0Y-137.7
X120.0Y-140.24
X120.0Y-142.78
X148.0Y-117.46
X148.0Y-120.0
X148.0Y-122.54
X148.0Y-125.08
X148.0Y-127.62
X148.0Y-130.16
X150.0Y-56.9
X150.0Y-59.44
X150.0Y-61.98
X150.0Y-64.52
X150.0Y-67.06
X150.0Y-69.6
X150.0Y-72.14
X150.0Y-74.68
X150.0Y-77.22
X150.0Y-79.76
X150.0Y-82.3
X150.0Y-84.84
X150.0Y-87.38
X150.0Y-89.92
X150.0Y-92.46
X150.0Y-95.0
X150.0Y-97.54
X150.54Y-117.46
X150.54Y-120.0
X150.54Y-122.54
X150.54Y-125.08
X150.54Y-127.62
X150.54Y-130.16
X152.54Y-56.9
X152.54Y-59.44
X152.54Y-61.98
X152.54Y-64.52
X152.54Y-67.06
X152.54Y-69.6
X152.54Y-72.14
X152.54Y-74.68
X152.54Y-77.22
X152.54Y-79.76
X152.54Y-82.3
X152.54Y-84.84
X152.54Y-87.38
X152.54Y-89.92
X152.54Y-92.46
X152.54Y-95.0
X152.54Y-97.54
M30
