%TF.GenerationSoftware,KiCad,Pcbnew,9.0.7*%
%TF.CreationDate,2026-03-02T17:41:12+01:00*%
%TF.ProjectId,Test,54657374-2e6b-4696-9361-645f70636258,rev?*%
%TF.SameCoordinates,Original*%
%TF.FileFunction,Copper,L1,Top*%
%TF.FilePolarity,Positive*%
%FSLAX46Y46*%
G04 Gerber Fmt 4.6, Leading zero omitted, Abs format (unit mm)*
G04 Created by KiCad (PCBNEW 9.0.7) date 2026-03-02 17:41:12*
%MOMM*%
%LPD*%
G01*
G04 APERTURE LIST*
%TA.AperFunction,ComponentPad*%
%ADD10R,1.700000X1.700000*%
%TD*%
%TA.AperFunction,ComponentPad*%
%ADD11C,1.700000*%
%TD*%
%TA.AperFunction,ViaPad*%
%ADD12C,0.600000*%
%TD*%
%TA.AperFunction,Conductor*%
%ADD13C,0.200000*%
%TD*%
G04 APERTURE END LIST*
D10*
%TO.P,J1,1,Pin_1*%
%TO.N,Net-(J1-Pin_1)*%
X120000000Y-119920000D03*
D11*
%TO.P,J1,2,Pin_2*%
%TO.N,Net-(J1-Pin_2)*%
X120000000Y-122460000D03*
%TO.P,J1,3,Pin_3*%
%TO.N,Net-(J1-Pin_3)*%
X120000000Y-125000000D03*
%TO.P,J1,4,Pin_4*%
%TO.N,Net-(J1-Pin_4)*%
X120000000Y-127540000D03*
%TO.P,J1,5,Pin_5*%
%TO.N,unconnected-(J1-Pin_5-Pad5)*%
X120000000Y-130080000D03*
%TO.P,J1,6,Pin_6*%
%TO.N,unconnected-(J1-Pin_6-Pad6)*%
X120000000Y-132620000D03*
%TO.P,J1,7,Pin_7*%
%TO.N,Net-(J1-Pin_7)*%
X120000000Y-135160000D03*
%TO.P,J1,8,Pin_8*%
%TO.N,Net-(J1-Pin_8)*%
X120000000Y-137700000D03*
%TO.P,J1,9,Pin_9*%
%TO.N,Net-(J1-Pin_9)*%
X120000000Y-140240000D03*
%TO.P,J1,10,Pin_10*%
%TO.N,Net-(J1-Pin_10)*%
X120000000Y-142780000D03*
%TD*%
D10*
%TO.P,J11,1,Pin_1*%
%TO.N,Net-(J1-Pin_9)*%
X62530000Y-160000000D03*
%TD*%
%TO.P,J2,1,Pin_1*%
%TO.N,Net-(J1-Pin_1)*%
X62460000Y-130000000D03*
D11*
%TO.P,J2,2,Pin_2*%
%TO.N,Net-(J14-Pin_1)*%
X62460000Y-127460000D03*
%TO.P,J2,3,Pin_3*%
%TO.N,Net-(J1-Pin_4)*%
X65000000Y-130000000D03*
%TO.P,J2,4,Pin_4*%
%TO.N,unconnected-(J2-Pin_4-Pad4)*%
X65000000Y-127460000D03*
%TO.P,J2,5,Pin_5*%
%TO.N,Net-(J1-Pin_3)*%
X67540000Y-130000000D03*
%TO.P,J2,6,Pin_6*%
%TO.N,unconnected-(J2-Pin_6-Pad6)*%
X67540000Y-127460000D03*
%TO.P,J2,7,Pin_7*%
%TO.N,unconnected-(J2-Pin_7-Pad7)*%
X70080000Y-130000000D03*
%TO.P,J2,8,Pin_8*%
%TO.N,Net-(J2-Pin_8)*%
X70080000Y-127460000D03*
%TO.P,J2,9,Pin_9*%
%TO.N,Net-(J1-Pin_2)*%
X72620000Y-130000000D03*
%TO.P,J2,10,Pin_10*%
%TO.N,Net-(J2-Pin_10)*%
X72620000Y-127460000D03*
%TO.P,J2,11,Pin_11*%
%TO.N,Net-(J2-Pin_11)*%
X75160000Y-130000000D03*
%TO.P,J2,12,Pin_12*%
%TO.N,Net-(J2-Pin_12)*%
X75160000Y-127460000D03*
%TO.P,J2,13,Pin_13*%
%TO.N,Net-(J2-Pin_13)*%
X77700000Y-130000000D03*
%TO.P,J2,14,Pin_14*%
%TO.N,unconnected-(J2-Pin_14-Pad14)*%
X77700000Y-127460000D03*
%TO.P,J2,15,Pin_15*%
%TO.N,Net-(J2-Pin_15)*%
X80240000Y-130000000D03*
%TO.P,J2,16,Pin_16*%
%TO.N,unconnected-(J2-Pin_16-Pad16)*%
X80240000Y-127460000D03*
%TO.P,J2,17,Pin_17*%
%TO.N,unconnected-(J2-Pin_17-Pad17)*%
X82780000Y-130000000D03*
%TO.P,J2,18,Pin_18*%
%TO.N,Net-(J2-Pin_18)*%
X82780000Y-127460000D03*
%TO.P,J2,19,Pin_19*%
%TO.N,Net-(J2-Pin_19)*%
X85320000Y-130000000D03*
%TO.P,J2,20,Pin_20*%
%TO.N,Net-(J13-Pin_1)*%
X85320000Y-127460000D03*
%TO.P,J2,21,Pin_21*%
%TO.N,Net-(J2-Pin_21)*%
X87860000Y-130000000D03*
%TO.P,J2,22,Pin_22*%
%TO.N,unconnected-(J2-Pin_22-Pad22)*%
X87860000Y-127460000D03*
%TO.P,J2,23,Pin_23*%
%TO.N,Net-(J2-Pin_23)*%
X90400000Y-130000000D03*
%TO.P,J2,24,Pin_24*%
%TO.N,Net-(J2-Pin_24)*%
X90400000Y-127460000D03*
%TO.P,J2,25,Pin_25*%
%TO.N,unconnected-(J2-Pin_25-Pad25)*%
X92940000Y-130000000D03*
%TO.P,J2,26,Pin_26*%
%TO.N,unconnected-(J2-Pin_26-Pad26)*%
X92940000Y-127460000D03*
%TO.P,J2,27,Pin_27*%
%TO.N,unconnected-(J2-Pin_27-Pad27)*%
X95480000Y-130000000D03*
%TO.P,J2,28,Pin_28*%
%TO.N,unconnected-(J2-Pin_28-Pad28)*%
X95480000Y-127460000D03*
%TO.P,J2,29,Pin_29*%
%TO.N,Net-(J10-Pin_1)*%
X98020000Y-130000000D03*
%TO.P,J2,30,Pin_30*%
%TO.N,unconnected-(J2-Pin_30-Pad30)*%
X98020000Y-127460000D03*
%TO.P,J2,31,Pin_31*%
%TO.N,unconnected-(J2-Pin_31-Pad31)*%
X100560000Y-130000000D03*
%TO.P,J2,32,Pin_32*%
%TO.N,Net-(J2-Pin_32)*%
X100560000Y-127460000D03*
%TO.P,J2,33,Pin_33*%
%TO.N,Net-(J2-Pin_33)*%
X103100000Y-130000000D03*
%TO.P,J2,34,Pin_34*%
%TO.N,unconnected-(J2-Pin_34-Pad34)*%
X103100000Y-127460000D03*
%TO.P,J2,35,Pin_35*%
%TO.N,Net-(J2-Pin_35)*%
X105640000Y-130000000D03*
%TO.P,J2,36,Pin_36*%
%TO.N,unconnected-(J2-Pin_36-Pad36)*%
X105640000Y-127460000D03*
%TO.P,J2,37,Pin_37*%
%TO.N,unconnected-(J2-Pin_37-Pad37)*%
X108180000Y-130000000D03*
%TO.P,J2,38,Pin_38*%
%TO.N,Net-(J2-Pin_35)*%
X108180000Y-127460000D03*
%TO.P,J2,39,Pin_39*%
%TO.N,unconnected-(J2-Pin_39-Pad39)*%
X110720000Y-130000000D03*
%TO.P,J2,40,Pin_40*%
%TO.N,Net-(J2-Pin_40)*%
X110720000Y-127460000D03*
%TD*%
D10*
%TO.P,J3,1,Pin_1*%
%TO.N,unconnected-(J3-Pin_1-Pad1)*%
X152540000Y-56900000D03*
D11*
%TO.P,J3,2,Pin_2*%
%TO.N,unconnected-(J3-Pin_2-Pad2)*%
X150000000Y-56900000D03*
%TO.P,J3,3,Pin_3*%
%TO.N,Net-(J1-Pin_7)*%
X152540000Y-59440000D03*
%TO.P,J3,4,Pin_4*%
%TO.N,unconnected-(J3-Pin_4-Pad4)*%
X150000000Y-59440000D03*
%TO.P,J3,5,Pin_5*%
%TO.N,Net-(J1-Pin_8)*%
X152540000Y-61980000D03*
%TO.P,J3,6,Pin_6*%
%TO.N,Net-(J1-Pin_2)*%
X150000000Y-61980000D03*
%TO.P,J3,7,Pin_7*%
%TO.N,Net-(J1-Pin_9)*%
X152540000Y-64520000D03*
%TO.P,J3,8,Pin_8*%
%TO.N,Net-(J1-Pin_2)*%
X150000000Y-64520000D03*
%TO.P,J3,9,Pin_9*%
%TO.N,Net-(J1-Pin_10)*%
X152540000Y-67060000D03*
%TO.P,J3,10,Pin_10*%
%TO.N,unconnected-(J3-Pin_10-Pad10)*%
X150000000Y-67060000D03*
%TO.P,J3,11,Pin_11*%
%TO.N,Net-(J2-Pin_32)*%
X152540000Y-69600000D03*
%TO.P,J3,12,Pin_12*%
%TO.N,unconnected-(J3-Pin_12-Pad12)*%
X150000000Y-69600000D03*
%TO.P,J3,13,Pin_13*%
%TO.N,Net-(J2-Pin_33)*%
X152540000Y-72140000D03*
%TO.P,J3,14,Pin_14*%
%TO.N,unconnected-(J3-Pin_14-Pad14)*%
X150000000Y-72140000D03*
%TO.P,J3,15,Pin_15*%
%TO.N,Net-(J2-Pin_18)*%
X152540000Y-74680000D03*
%TO.P,J3,16,Pin_16*%
%TO.N,unconnected-(J3-Pin_16-Pad16)*%
X150000000Y-74680000D03*
%TO.P,J3,17,Pin_17*%
%TO.N,Net-(J2-Pin_8)*%
X152540000Y-77220000D03*
%TO.P,J3,18,Pin_18*%
%TO.N,unconnected-(J3-Pin_18-Pad18)*%
X150000000Y-77220000D03*
%TO.P,J3,19,Pin_19*%
%TO.N,Net-(J2-Pin_10)*%
X152540000Y-79760000D03*
%TO.P,J3,20,Pin_20*%
%TO.N,unconnected-(J3-Pin_20-Pad20)*%
X150000000Y-79760000D03*
%TO.P,J3,21,Pin_21*%
%TO.N,unconnected-(J3-Pin_21-Pad21)*%
X152540000Y-82300000D03*
%TO.P,J3,22,Pin_22*%
%TO.N,unconnected-(J3-Pin_22-Pad22)*%
X150000000Y-82300000D03*
%TO.P,J3,23,Pin_23*%
%TO.N,unconnected-(J3-Pin_23-Pad23)*%
X152540000Y-84840000D03*
%TO.P,J3,24,Pin_24*%
%TO.N,unconnected-(J3-Pin_24-Pad24)*%
X150000000Y-84840000D03*
%TO.P,J3,25,Pin_25*%
%TO.N,unconnected-(J3-Pin_25-Pad25)*%
X152540000Y-87380000D03*
%TO.P,J3,26,Pin_26*%
%TO.N,unconnected-(J3-Pin_26-Pad26)*%
X150000000Y-87380000D03*
%TO.P,J3,27,Pin_27*%
%TO.N,unconnected-(J3-Pin_27-Pad27)*%
X152540000Y-89920000D03*
%TO.P,J3,28,Pin_28*%
%TO.N,unconnected-(J3-Pin_28-Pad28)*%
X150000000Y-89920000D03*
%TO.P,J3,29,Pin_29*%
%TO.N,unconnected-(J3-Pin_29-Pad29)*%
X152540000Y-92460000D03*
%TO.P,J3,30,Pin_30*%
%TO.N,unconnected-(J3-Pin_30-Pad30)*%
X150000000Y-92460000D03*
%TO.P,J3,31,Pin_31*%
%TO.N,unconnected-(J3-Pin_31-Pad31)*%
X152540000Y-95000000D03*
%TO.P,J3,32,Pin_32*%
%TO.N,unconnected-(J3-Pin_32-Pad32)*%
X150000000Y-95000000D03*
%TO.P,J3,33,Pin_33*%
%TO.N,Net-(J1-Pin_1)*%
X152540000Y-97540000D03*
%TO.P,J3,34,Pin_34*%
%TO.N,unconnected-(J3-Pin_34-Pad34)*%
X150000000Y-97540000D03*
%TD*%
D10*
%TO.P,J12,1,Pin_1*%
%TO.N,Net-(J1-Pin_10)*%
X57400000Y-160000000D03*
%TD*%
%TO.P,J6,1,Pin_1*%
%TO.N,Net-(J1-Pin_2)*%
X85000000Y-160000000D03*
%TD*%
%TO.P,J13,1,Pin_1*%
%TO.N,Net-(J13-Pin_1)*%
X52800000Y-160000000D03*
%TD*%
%TO.P,J7,1,Pin_1*%
%TO.N,Net-(J2-Pin_11)*%
X80400000Y-160000000D03*
%TD*%
%TO.P,J10,1,Pin_1*%
%TO.N,Net-(J10-Pin_1)*%
X66600000Y-160000000D03*
%TD*%
%TO.P,J9,1,Pin_1*%
%TO.N,Net-(J2-Pin_15)*%
X71200000Y-160000000D03*
%TD*%
%TO.P,J14,1,Pin_1*%
%TO.N,Net-(J14-Pin_1)*%
X48200000Y-160000000D03*
%TD*%
%TO.P,J4,1,Pin_1*%
%TO.N,Net-(J2-Pin_24)*%
X150540000Y-117460000D03*
D11*
%TO.P,J4,2,Pin_2*%
%TO.N,Net-(J2-Pin_19)*%
X148000000Y-117460000D03*
%TO.P,J4,3,Pin_3*%
%TO.N,Net-(J2-Pin_21)*%
X150540000Y-120000000D03*
%TO.P,J4,4,Pin_4*%
%TO.N,Net-(J2-Pin_23)*%
X148000000Y-120000000D03*
%TO.P,J4,5,Pin_5*%
%TO.N,Net-(J1-Pin_2)*%
X150540000Y-122540000D03*
%TO.P,J4,6,Pin_6*%
%TO.N,Net-(J1-Pin_1)*%
X148000000Y-122540000D03*
%TO.P,J4,7,Pin_7*%
%TO.N,Net-(J2-Pin_35)*%
X150540000Y-125080000D03*
%TO.P,J4,8,Pin_8*%
%TO.N,Net-(J2-Pin_40)*%
X148000000Y-125080000D03*
%TO.P,J4,9,Pin_9*%
%TO.N,Net-(J2-Pin_35)*%
X150540000Y-127620000D03*
%TO.P,J4,10,Pin_10*%
%TO.N,Net-(J2-Pin_12)*%
X148000000Y-127620000D03*
%TO.P,J4,11,Pin_11*%
%TO.N,Net-(J1-Pin_2)*%
X150540000Y-130160000D03*
%TO.P,J4,12,Pin_12*%
%TO.N,Net-(J1-Pin_1)*%
X148000000Y-130160000D03*
%TD*%
D10*
%TO.P,J5,1,Pin_1*%
%TO.N,Net-(J1-Pin_1)*%
X89600000Y-160000000D03*
%TD*%
%TO.P,J8,1,Pin_1*%
%TO.N,Net-(J2-Pin_13)*%
X75800000Y-160000000D03*
%TD*%
D12*
%TO.N,Net-(J13-Pin_1)*%
X79002400Y-156744000D03*
%TO.N,Net-(J2-Pin_10)*%
X75766100Y-88684700D03*
%TO.N,Net-(J2-Pin_32)*%
X105357100Y-73889200D03*
%TO.N,Net-(J2-Pin_23)*%
X96479800Y-121234800D03*
%TO.N,Net-(J2-Pin_8)*%
X74976300Y-82766500D03*
%TO.N,Net-(J2-Pin_18)*%
X87602500Y-76848300D03*
%TO.N,Net-(J2-Pin_24)*%
X90561600Y-123216000D03*
%TO.N,Net-(J2-Pin_33)*%
X106146900Y-79628900D03*
%TO.N,Net-(J2-Pin_19)*%
X88392300Y-121234800D03*
%TO.N,Net-(J2-Pin_12)*%
X75766100Y-124408800D03*
X146812300Y-125859700D03*
%TO.N,Net-(J2-Pin_21)*%
X89325200Y-119998400D03*
%TO.N,Net-(J10-Pin_1)*%
X93520700Y-159703100D03*
%TO.N,Net-(J1-Pin_9)*%
X129029900Y-65011900D03*
X63929700Y-150825800D03*
%TO.N,Net-(J1-Pin_2)*%
X83556900Y-132281400D03*
X121054300Y-133701700D03*
%TO.N,Net-(J1-Pin_8)*%
X149761200Y-136048000D03*
%TO.N,Net-(J1-Pin_7)*%
X146784500Y-133071200D03*
%TO.N,Net-(J1-Pin_10)*%
X152702700Y-138989400D03*
%TO.N,Net-(J1-Pin_1)*%
X120152600Y-156744000D03*
X148500800Y-100521100D03*
%TD*%
D13*
%TO.N,Net-(J13-Pin_1)*%
X62788100Y-156744000D02*
X79002400Y-156744000D01*
X58380400Y-161151700D02*
X62788100Y-156744000D01*
X55103400Y-161151700D02*
X58380400Y-161151700D01*
X53951700Y-160000000D02*
X55103400Y-161151700D01*
X79002400Y-156744000D02*
X81597100Y-156744000D01*
X81597100Y-156744000D02*
X79002400Y-156744000D01*
X52800000Y-160000000D02*
X53951700Y-160000000D01*
%TO.N,Net-(J2-Pin_10)*%
X100117500Y-88684700D02*
X107605900Y-81196300D01*
X75766100Y-88684700D02*
X100117500Y-88684700D01*
X107605900Y-81196300D02*
X107770700Y-81031500D01*
X107605900Y-81196300D02*
X107770700Y-81031500D01*
X151268500Y-81031500D02*
X152540000Y-79760000D01*
X107770700Y-81031500D02*
X151268500Y-81031500D01*
%TO.N,Net-(J2-Pin_32)*%
X108376300Y-70870000D02*
X105357100Y-73889200D01*
X151270000Y-70870000D02*
X108376300Y-70870000D01*
X152540000Y-69600000D02*
X151270000Y-70870000D01*
%TO.N,Net-(J2-Pin_23)*%
X122206700Y-120000000D02*
X148000000Y-120000000D01*
X120900900Y-118694200D02*
X122206700Y-120000000D01*
X99020400Y-118694200D02*
X120900900Y-118694200D01*
X96479800Y-121234800D02*
X99020400Y-118694200D01*
%TO.N,Net-(J2-Pin_8)*%
X151270000Y-78490000D02*
X152540000Y-77220000D01*
X109544000Y-78490000D02*
X151270000Y-78490000D01*
X105267500Y-82766500D02*
X109544000Y-78490000D01*
X74976300Y-82766500D02*
X105267500Y-82766500D01*
%TO.N,Net-(J2-Pin_18)*%
X91018000Y-80263800D02*
X87602500Y-76848300D01*
X106512200Y-80263800D02*
X91018000Y-80263800D01*
X110826000Y-75950000D02*
X106512200Y-80263800D01*
X151270000Y-75950000D02*
X110826000Y-75950000D01*
X152540000Y-74680000D02*
X151270000Y-75950000D01*
%TO.N,Net-(J2-Pin_24)*%
X150540000Y-117460000D02*
X149388300Y-117460000D01*
X90561600Y-123216000D02*
X90400000Y-123216000D01*
X90400000Y-123216000D02*
X90561600Y-123216000D01*
X95508800Y-118268800D02*
X90561600Y-123216000D01*
X121175300Y-118268800D02*
X95508800Y-118268800D01*
X121518200Y-118611700D02*
X121175300Y-118268800D01*
X148524600Y-118611700D02*
X121518200Y-118611700D01*
X149388300Y-117748000D02*
X148524600Y-118611700D01*
X149388300Y-117460000D02*
X149388300Y-117748000D01*
%TO.N,Net-(J2-Pin_33)*%
X151270000Y-73410000D02*
X152540000Y-72140000D01*
X112365800Y-73410000D02*
X151270000Y-73410000D01*
X106146900Y-79628900D02*
X112365800Y-73410000D01*
%TO.N,Net-(J2-Pin_19)*%
X88392300Y-121234800D02*
X88392300Y-117460000D01*
X88392300Y-117460000D02*
X88392300Y-121234800D01*
X92714500Y-117460000D02*
X148000000Y-117460000D01*
X88939700Y-121234800D02*
X92714500Y-117460000D01*
X88392300Y-121234800D02*
X88939700Y-121234800D01*
%TO.N,Net-(J2-Pin_40)*%
X148000000Y-125522900D02*
X148000000Y-125080000D01*
X147061500Y-126461400D02*
X148000000Y-125522900D01*
X146563200Y-126461400D02*
X147061500Y-126461400D01*
X146371800Y-126270000D02*
X146563200Y-126461400D01*
X111910000Y-126270000D02*
X146371800Y-126270000D01*
X110720000Y-127460000D02*
X111910000Y-126270000D01*
%TO.N,Net-(J2-Pin_12)*%
X123116900Y-125859700D02*
X146812300Y-125859700D01*
X121053600Y-123796400D02*
X123116900Y-125859700D01*
X115957900Y-123796400D02*
X121053600Y-123796400D01*
X115345500Y-124408800D02*
X115957900Y-123796400D01*
X75766100Y-124408800D02*
X115345500Y-124408800D01*
%TO.N,Net-(J2-Pin_21)*%
X93032200Y-116291400D02*
X89325200Y-119998400D01*
X151503900Y-116291400D02*
X93032200Y-116291400D01*
X151709500Y-116497000D02*
X151503900Y-116291400D01*
X151709500Y-118830500D02*
X151709500Y-116497000D01*
X150540000Y-120000000D02*
X151709500Y-118830500D01*
%TO.N,Net-(J10-Pin_1)*%
X66600000Y-160000000D02*
X67751700Y-160000000D01*
X93067800Y-159250200D02*
X93520700Y-159703100D01*
X90976800Y-159250200D02*
X93067800Y-159250200D01*
X90976800Y-159250100D02*
X90976800Y-159250200D01*
X90562600Y-158835900D02*
X90976800Y-159250100D01*
X68915800Y-158835900D02*
X90562600Y-158835900D01*
X67751700Y-160000000D02*
X68915800Y-158835900D01*
%TO.N,Net-(J2-Pin_35)*%
X149270000Y-128890000D02*
X150540000Y-127620000D01*
X147298000Y-128890000D02*
X149270000Y-128890000D01*
X144922400Y-131265600D02*
X147298000Y-128890000D01*
X106905600Y-131265600D02*
X144922400Y-131265600D01*
X105640000Y-130000000D02*
X106905600Y-131265600D01*
%TO.N,Net-(J1-Pin_9)*%
X129710700Y-65692700D02*
X129029900Y-65011900D01*
X151367300Y-65692700D02*
X129710700Y-65692700D01*
X152540000Y-64520000D02*
X151367300Y-65692700D01*
X74515500Y-140240000D02*
X63929700Y-150825800D01*
X120000000Y-140240000D02*
X74515500Y-140240000D01*
X63929700Y-150825800D02*
X62530000Y-150825800D01*
X62530000Y-150825800D02*
X63929700Y-150825800D01*
%TO.N,Net-(J1-Pin_2)*%
X74901400Y-132281400D02*
X72620000Y-130000000D01*
X83556900Y-132281400D02*
X74901400Y-132281400D01*
X85072100Y-133796600D02*
X83556900Y-132281400D01*
X120959400Y-133796600D02*
X85072100Y-133796600D01*
X121054300Y-133701700D02*
X120959400Y-133796600D01*
X121054300Y-133701700D02*
X121054300Y-133796600D01*
X121054300Y-133796600D02*
X121054300Y-133701700D01*
X120568100Y-122460000D02*
X120000000Y-122460000D01*
X121804500Y-123696400D02*
X120568100Y-122460000D01*
X149383600Y-123696400D02*
X121804500Y-123696400D01*
X150540000Y-122540000D02*
X149383600Y-123696400D01*
%TO.N,Net-(J1-Pin_3)*%
X119989500Y-125010500D02*
X120000000Y-125000000D01*
X73433600Y-125010500D02*
X119989500Y-125010500D01*
X71350000Y-127094100D02*
X73433600Y-125010500D01*
X71350000Y-127878400D02*
X71350000Y-127094100D01*
X70480500Y-128747900D02*
X71350000Y-127878400D01*
X68792100Y-128747900D02*
X70480500Y-128747900D01*
X67540000Y-130000000D02*
X68792100Y-128747900D01*
%TO.N,Net-(J1-Pin_8)*%
X121652000Y-136048000D02*
X120000000Y-137700000D01*
X149761200Y-136048000D02*
X121652000Y-136048000D01*
X149761200Y-136048000D02*
X152188000Y-136048000D01*
X152188000Y-136048000D02*
X149761200Y-136048000D01*
%TO.N,Net-(J1-Pin_7)*%
X144695700Y-135160000D02*
X120000000Y-135160000D01*
X146784500Y-133071200D02*
X144695700Y-135160000D01*
X146784500Y-133071200D02*
X146784500Y-135160000D01*
X146784500Y-135160000D02*
X146784500Y-133071200D01*
%TO.N,Net-(J1-Pin_4)*%
X118810000Y-128730000D02*
X120000000Y-127540000D01*
X72252900Y-128730000D02*
X118810000Y-128730000D01*
X71350000Y-129632900D02*
X72252900Y-128730000D01*
X71350000Y-130416000D02*
X71350000Y-129632900D01*
X70598000Y-131168000D02*
X71350000Y-130416000D01*
X66168000Y-131168000D02*
X70598000Y-131168000D01*
X65000000Y-130000000D02*
X66168000Y-131168000D01*
%TO.N,Net-(J1-Pin_10)*%
X123790600Y-138989400D02*
X120000000Y-142780000D01*
X152702700Y-138989400D02*
X123790600Y-138989400D01*
X57400000Y-160000000D02*
X58551700Y-160000000D01*
X75771700Y-142780000D02*
X120000000Y-142780000D01*
X58551700Y-160000000D02*
X75771700Y-142780000D01*
%TO.N,Net-(J1-Pin_1)*%
X123771700Y-122540000D02*
X121151700Y-119920000D01*
X148000000Y-122540000D02*
X123771700Y-122540000D01*
X91116500Y-160364800D02*
X90751700Y-160000000D01*
X116531800Y-160364800D02*
X91116500Y-160364800D01*
X120152600Y-156744000D02*
X116531800Y-160364800D01*
X89600000Y-160000000D02*
X90751700Y-160000000D01*
X149558900Y-100521100D02*
X148500800Y-100521100D01*
X152540000Y-97540000D02*
X149558900Y-100521100D01*
X120575900Y-119920000D02*
X121151700Y-119920000D01*
X120575900Y-119920000D02*
X120000000Y-119920000D01*
X120000000Y-119920000D02*
X118848300Y-119920000D01*
X62460000Y-130000000D02*
X63611700Y-130000000D01*
X63611700Y-129712000D02*
X63611700Y-130000000D01*
X64475400Y-128848300D02*
X63611700Y-129712000D01*
X67865100Y-128848300D02*
X64475400Y-128848300D01*
X68691700Y-128021700D02*
X67865100Y-128848300D01*
X68691700Y-127202900D02*
X68691700Y-128021700D01*
X72087500Y-123807100D02*
X68691700Y-127202900D01*
X76015300Y-123807100D02*
X72087500Y-123807100D01*
X76025900Y-123817700D02*
X76015300Y-123807100D01*
X114950600Y-123817700D02*
X76025900Y-123817700D01*
X118848300Y-119920000D02*
X114950600Y-123817700D01*
%TD*%
M02*
